G04 #@! TF.GenerationSoftware,KiCad,Pcbnew,(5.0.0)*
G04 #@! TF.CreationDate,2019-03-16T17:35:48-05:00*
G04 #@! TF.ProjectId,PP_UI,50505F55492E6B696361645F70636200,rev?*
G04 #@! TF.SameCoordinates,Original*
G04 #@! TF.FileFunction,Legend,Bot*
G04 #@! TF.FilePolarity,Positive*
%FSLAX46Y46*%
G04 Gerber Fmt 4.6, Leading zero omitted, Abs format (unit mm)*
G04 Created by KiCad (PCBNEW (5.0.0)) date 03/16/19 17:35:48*
%MOMM*%
%LPD*%
G01*
G04 APERTURE LIST*
%ADD10C,0.120000*%
%ADD11C,0.150000*%
G04 APERTURE END LIST*
D10*
G04 #@! TO.C,J10*
X164450598Y-56762420D02*
X169650598Y-56762420D01*
X164450598Y-79682420D02*
X164450598Y-56762420D01*
X169650598Y-82282420D02*
X169650598Y-56762420D01*
X164450598Y-79682420D02*
X167050598Y-79682420D01*
X167050598Y-79682420D02*
X167050598Y-82282420D01*
X167050598Y-82282420D02*
X169650598Y-82282420D01*
X164450598Y-80952420D02*
X164450598Y-82282420D01*
X164450598Y-82282420D02*
X165780598Y-82282420D01*
D11*
X167860121Y-82734800D02*
X167860121Y-83449086D01*
X167907740Y-83591943D01*
X168002978Y-83687181D01*
X168145836Y-83734800D01*
X168241074Y-83734800D01*
X166860121Y-83734800D02*
X167431550Y-83734800D01*
X167145836Y-83734800D02*
X167145836Y-82734800D01*
X167241074Y-82877658D01*
X167336312Y-82972896D01*
X167431550Y-83020515D01*
X166241074Y-82734800D02*
X166145836Y-82734800D01*
X166050598Y-82782420D01*
X166002978Y-82830039D01*
X165955359Y-82925277D01*
X165907740Y-83115753D01*
X165907740Y-83353848D01*
X165955359Y-83544324D01*
X166002978Y-83639562D01*
X166050598Y-83687181D01*
X166145836Y-83734800D01*
X166241074Y-83734800D01*
X166336312Y-83687181D01*
X166383931Y-83639562D01*
X166431550Y-83544324D01*
X166479169Y-83353848D01*
X166479169Y-83115753D01*
X166431550Y-82925277D01*
X166383931Y-82830039D01*
X166336312Y-82782420D01*
X166241074Y-82734800D01*
G04 #@! TD*
M02*
