G04 #@! TF.GenerationSoftware,KiCad,Pcbnew,(5.0.0)*
G04 #@! TF.CreationDate,2019-03-16T17:35:48-05:00*
G04 #@! TF.ProjectId,PP_UI,50505F55492E6B696361645F70636200,rev?*
G04 #@! TF.SameCoordinates,Original*
G04 #@! TF.FileFunction,Legend,Top*
G04 #@! TF.FilePolarity,Positive*
%FSLAX46Y46*%
G04 Gerber Fmt 4.6, Leading zero omitted, Abs format (unit mm)*
G04 Created by KiCad (PCBNEW (5.0.0)) date 03/16/19 17:35:48*
%MOMM*%
%LPD*%
G01*
G04 APERTURE LIST*
%ADD10C,0.200000*%
%ADD11C,0.150000*%
%ADD12C,0.120000*%
%ADD13C,0.010000*%
G04 APERTURE END LIST*
D10*
X202484100Y-83060800D02*
X202471400Y-55755800D01*
X175179100Y-83073500D02*
X175166400Y-55768500D01*
X175166400Y-55768500D02*
X202471400Y-55755800D01*
X175179100Y-83073500D02*
X202484100Y-83060800D01*
D11*
G04 #@! TO.C,U1*
X188521450Y-101346400D02*
X187146450Y-101346400D01*
X188521450Y-110221400D02*
X192671450Y-110221400D01*
X188521450Y-101321400D02*
X192671450Y-101321400D01*
X188521450Y-110221400D02*
X188521450Y-110106400D01*
X192671450Y-110221400D02*
X192671450Y-110106400D01*
X192671450Y-101321400D02*
X192671450Y-101436400D01*
X188521450Y-101321400D02*
X188521450Y-101346400D01*
D12*
G04 #@! TO.C,C4*
X201625214Y-101283900D02*
X200421086Y-101283900D01*
X201625214Y-99463900D02*
X200421086Y-99463900D01*
G04 #@! TO.C,C3*
X201612514Y-88863300D02*
X200408386Y-88863300D01*
X201612514Y-87043300D02*
X200408386Y-87043300D01*
G04 #@! TO.C,C1*
X179707386Y-88393400D02*
X180911514Y-88393400D01*
X179707386Y-86573400D02*
X180911514Y-86573400D01*
G04 #@! TO.C,C2*
X179707386Y-101474400D02*
X180911514Y-101474400D01*
X179707386Y-99654400D02*
X180911514Y-99654400D01*
G04 #@! TO.C,C11*
X191960300Y-86606100D02*
X187875300Y-86606100D01*
X187875300Y-86606100D02*
X187875300Y-88476100D01*
X187875300Y-88476100D02*
X191960300Y-88476100D01*
G04 #@! TO.C,C12*
X192323450Y-111821400D02*
X188238450Y-111821400D01*
X188238450Y-111821400D02*
X188238450Y-113691400D01*
X188238450Y-113691400D02*
X192323450Y-113691400D01*
G04 #@! TO.C,R5*
X179834386Y-115529400D02*
X181038514Y-115529400D01*
X179834386Y-117349400D02*
X181038514Y-117349400D01*
G04 #@! TO.C,R6*
X179834386Y-110745400D02*
X181038514Y-110745400D01*
X179834386Y-108925400D02*
X181038514Y-108925400D01*
G04 #@! TO.C,R2*
X180866150Y-98426400D02*
X179662022Y-98426400D01*
X180866150Y-96606400D02*
X179662022Y-96606400D01*
G04 #@! TO.C,R3*
X200421086Y-91797000D02*
X201625214Y-91797000D01*
X200421086Y-89977000D02*
X201625214Y-89977000D01*
G04 #@! TO.C,R4*
X200421086Y-98121600D02*
X201625214Y-98121600D01*
X200421086Y-96301600D02*
X201625214Y-96301600D01*
G04 #@! TO.C,R1*
X180911514Y-89875400D02*
X179707386Y-89875400D01*
X180911514Y-91695400D02*
X179707386Y-91695400D01*
G04 #@! TO.C,R13*
X180948014Y-95124400D02*
X179743886Y-95124400D01*
X180948014Y-93304400D02*
X179743886Y-93304400D01*
G04 #@! TO.C,R16*
X201536314Y-104446200D02*
X200332186Y-104446200D01*
X201536314Y-102626200D02*
X200332186Y-102626200D01*
G04 #@! TO.C,R11*
X200497286Y-114022000D02*
X201701414Y-114022000D01*
X200497286Y-112202000D02*
X201701414Y-112202000D01*
G04 #@! TO.C,R12*
X200497286Y-107608500D02*
X201701414Y-107608500D01*
X200497286Y-105788500D02*
X201701414Y-105788500D01*
G04 #@! TO.C,R7*
X201701414Y-115453200D02*
X200497286Y-115453200D01*
X201701414Y-117273200D02*
X200497286Y-117273200D01*
G04 #@! TO.C,R8*
X201701414Y-110770800D02*
X200497286Y-110770800D01*
X201701414Y-108950800D02*
X200497286Y-108950800D01*
G04 #@! TO.C,R15*
X200421086Y-95035500D02*
X201625214Y-95035500D01*
X200421086Y-93215500D02*
X201625214Y-93215500D01*
G04 #@! TO.C,R9*
X181038514Y-112227400D02*
X179834386Y-112227400D01*
X181038514Y-114047400D02*
X179834386Y-114047400D01*
G04 #@! TO.C,R10*
X181038514Y-106004400D02*
X179834386Y-106004400D01*
X181038514Y-107824400D02*
X179834386Y-107824400D01*
G04 #@! TO.C,R14*
X179834386Y-102829400D02*
X181038514Y-102829400D01*
X179834386Y-104649400D02*
X181038514Y-104649400D01*
G04 #@! TO.C,C14*
X192323450Y-115123400D02*
X188238450Y-115123400D01*
X188238450Y-115123400D02*
X188238450Y-116993400D01*
X188238450Y-116993400D02*
X192323450Y-116993400D01*
D11*
G04 #@! TO.C,U2*
X188615450Y-89637400D02*
X188615450Y-89662400D01*
X192765450Y-89637400D02*
X192765450Y-89752400D01*
X192765450Y-98537400D02*
X192765450Y-98422400D01*
X188615450Y-98537400D02*
X188615450Y-98422400D01*
X188615450Y-89637400D02*
X192765450Y-89637400D01*
X188615450Y-98537400D02*
X192765450Y-98537400D01*
X188615450Y-89662400D02*
X187240450Y-89662400D01*
D12*
G04 #@! TO.C,C5*
X200535386Y-128356400D02*
X201739514Y-128356400D01*
X200535386Y-130176400D02*
X201739514Y-130176400D01*
G04 #@! TO.C,C6*
X200535386Y-139447400D02*
X201739514Y-139447400D01*
X200535386Y-137627400D02*
X201739514Y-137627400D01*
G04 #@! TO.C,C7*
X200535386Y-149226400D02*
X201739514Y-149226400D01*
X200535386Y-147406400D02*
X201739514Y-147406400D01*
G04 #@! TO.C,C8*
X181320456Y-132293400D02*
X180116328Y-132293400D01*
X181320456Y-134113400D02*
X180116328Y-134113400D01*
G04 #@! TO.C,C9*
X181320456Y-146904092D02*
X180116328Y-146904092D01*
X181320456Y-145084092D02*
X180116328Y-145084092D01*
G04 #@! TO.C,C10*
X181419514Y-127509400D02*
X180215386Y-127509400D01*
X181419514Y-125689400D02*
X180215386Y-125689400D01*
G04 #@! TO.C,C13*
X193208450Y-128077400D02*
X189123450Y-128077400D01*
X193208450Y-129947400D02*
X193208450Y-128077400D01*
X189123450Y-129947400D02*
X193208450Y-129947400D01*
D11*
G04 #@! TO.C,J1*
X159203850Y-93419600D02*
G75*
G03X159203850Y-93419600I-1300000J0D01*
G01*
X153403850Y-87419600D02*
X162403850Y-87419600D01*
X153403850Y-97919600D02*
X162403850Y-97919600D01*
X153403850Y-87419600D02*
X153403850Y-97919600D01*
X162403850Y-87419600D02*
X162403850Y-97919600D01*
X159699901Y-93419600D02*
G75*
G03X159699901Y-93419600I-1796051J0D01*
G01*
X155998850Y-91514600D02*
X159808850Y-91514600D01*
X159808850Y-95324600D02*
X155998850Y-95324600D01*
X155998850Y-91514600D02*
G75*
G03X155998850Y-95324600I1905000J-1905000D01*
G01*
X159808850Y-95324600D02*
G75*
G03X159808850Y-91514600I-1905000J1905000D01*
G01*
X159808850Y-97229600D02*
X162348850Y-97229600D01*
X159808850Y-97864600D02*
X159808850Y-97229600D01*
X155998850Y-97864600D02*
X159808850Y-97864600D01*
X155998850Y-97229600D02*
X155998850Y-97864600D01*
X153458850Y-97229600D02*
X155998850Y-97229600D01*
G04 #@! TO.C,J2*
X159330850Y-108786600D02*
G75*
G03X159330850Y-108786600I-1300000J0D01*
G01*
X153530850Y-102786600D02*
X162530850Y-102786600D01*
X153530850Y-113286600D02*
X162530850Y-113286600D01*
X153530850Y-102786600D02*
X153530850Y-113286600D01*
X162530850Y-102786600D02*
X162530850Y-113286600D01*
X159826901Y-108786600D02*
G75*
G03X159826901Y-108786600I-1796051J0D01*
G01*
X156125850Y-106881600D02*
X159935850Y-106881600D01*
X159935850Y-110691600D02*
X156125850Y-110691600D01*
X156125850Y-106881600D02*
G75*
G03X156125850Y-110691600I1905000J-1905000D01*
G01*
X159935850Y-110691600D02*
G75*
G03X159935850Y-106881600I-1905000J1905000D01*
G01*
X159935850Y-112596600D02*
X162475850Y-112596600D01*
X159935850Y-113231600D02*
X159935850Y-112596600D01*
X156125850Y-113231600D02*
X159935850Y-113231600D01*
X156125850Y-112596600D02*
X156125850Y-113231600D01*
X153585850Y-112596600D02*
X156125850Y-112596600D01*
G04 #@! TO.C,J3*
X159330850Y-124153600D02*
G75*
G03X159330850Y-124153600I-1300000J0D01*
G01*
X153530850Y-118153600D02*
X162530850Y-118153600D01*
X153530850Y-128653600D02*
X162530850Y-128653600D01*
X153530850Y-118153600D02*
X153530850Y-128653600D01*
X162530850Y-118153600D02*
X162530850Y-128653600D01*
X159826901Y-124153600D02*
G75*
G03X159826901Y-124153600I-1796051J0D01*
G01*
X156125850Y-122248600D02*
X159935850Y-122248600D01*
X159935850Y-126058600D02*
X156125850Y-126058600D01*
X156125850Y-122248600D02*
G75*
G03X156125850Y-126058600I1905000J-1905000D01*
G01*
X159935850Y-126058600D02*
G75*
G03X159935850Y-122248600I-1905000J1905000D01*
G01*
X159935850Y-127963600D02*
X162475850Y-127963600D01*
X159935850Y-128598600D02*
X159935850Y-127963600D01*
X156125850Y-128598600D02*
X159935850Y-128598600D01*
X156125850Y-127963600D02*
X156125850Y-128598600D01*
X153585850Y-127963600D02*
X156125850Y-127963600D01*
G04 #@! TO.C,J4*
X153712850Y-143584600D02*
X156252850Y-143584600D01*
X156252850Y-143584600D02*
X156252850Y-144219600D01*
X156252850Y-144219600D02*
X160062850Y-144219600D01*
X160062850Y-144219600D02*
X160062850Y-143584600D01*
X160062850Y-143584600D02*
X162602850Y-143584600D01*
X160062850Y-141679600D02*
G75*
G03X160062850Y-137869600I-1905000J1905000D01*
G01*
X156252850Y-137869600D02*
G75*
G03X156252850Y-141679600I1905000J-1905000D01*
G01*
X160062850Y-141679600D02*
X156252850Y-141679600D01*
X156252850Y-137869600D02*
X160062850Y-137869600D01*
X159953901Y-139774600D02*
G75*
G03X159953901Y-139774600I-1796051J0D01*
G01*
X162657850Y-133774600D02*
X162657850Y-144274600D01*
X153657850Y-133774600D02*
X153657850Y-144274600D01*
X153657850Y-144274600D02*
X162657850Y-144274600D01*
X153657850Y-133774600D02*
X162657850Y-133774600D01*
X159457850Y-139774600D02*
G75*
G03X159457850Y-139774600I-1300000J0D01*
G01*
G04 #@! TO.C,J6*
X163618850Y-97229600D02*
X166158850Y-97229600D01*
X166158850Y-97229600D02*
X166158850Y-97864600D01*
X166158850Y-97864600D02*
X169968850Y-97864600D01*
X169968850Y-97864600D02*
X169968850Y-97229600D01*
X169968850Y-97229600D02*
X172508850Y-97229600D01*
X169968850Y-95324600D02*
G75*
G03X169968850Y-91514600I-1905000J1905000D01*
G01*
X166158850Y-91514600D02*
G75*
G03X166158850Y-95324600I1905000J-1905000D01*
G01*
X169968850Y-95324600D02*
X166158850Y-95324600D01*
X166158850Y-91514600D02*
X169968850Y-91514600D01*
X169859901Y-93419600D02*
G75*
G03X169859901Y-93419600I-1796051J0D01*
G01*
X172563850Y-87419600D02*
X172563850Y-97919600D01*
X163563850Y-87419600D02*
X163563850Y-97919600D01*
X163563850Y-97919600D02*
X172563850Y-97919600D01*
X163563850Y-87419600D02*
X172563850Y-87419600D01*
X169363850Y-93419600D02*
G75*
G03X169363850Y-93419600I-1300000J0D01*
G01*
G04 #@! TO.C,J7*
X169490850Y-123993600D02*
G75*
G03X169490850Y-123993600I-1300000J0D01*
G01*
X163690850Y-117993600D02*
X172690850Y-117993600D01*
X163690850Y-128493600D02*
X172690850Y-128493600D01*
X163690850Y-117993600D02*
X163690850Y-128493600D01*
X172690850Y-117993600D02*
X172690850Y-128493600D01*
X169986901Y-123993600D02*
G75*
G03X169986901Y-123993600I-1796051J0D01*
G01*
X166285850Y-122088600D02*
X170095850Y-122088600D01*
X170095850Y-125898600D02*
X166285850Y-125898600D01*
X166285850Y-122088600D02*
G75*
G03X166285850Y-125898600I1905000J-1905000D01*
G01*
X170095850Y-125898600D02*
G75*
G03X170095850Y-122088600I-1905000J1905000D01*
G01*
X170095850Y-127803600D02*
X172635850Y-127803600D01*
X170095850Y-128438600D02*
X170095850Y-127803600D01*
X166285850Y-128438600D02*
X170095850Y-128438600D01*
X166285850Y-127803600D02*
X166285850Y-128438600D01*
X163745850Y-127803600D02*
X166285850Y-127803600D01*
G04 #@! TO.C,J8*
X163745850Y-112596600D02*
X166285850Y-112596600D01*
X166285850Y-112596600D02*
X166285850Y-113231600D01*
X166285850Y-113231600D02*
X170095850Y-113231600D01*
X170095850Y-113231600D02*
X170095850Y-112596600D01*
X170095850Y-112596600D02*
X172635850Y-112596600D01*
X170095850Y-110691600D02*
G75*
G03X170095850Y-106881600I-1905000J1905000D01*
G01*
X166285850Y-106881600D02*
G75*
G03X166285850Y-110691600I1905000J-1905000D01*
G01*
X170095850Y-110691600D02*
X166285850Y-110691600D01*
X166285850Y-106881600D02*
X170095850Y-106881600D01*
X169986901Y-108786600D02*
G75*
G03X169986901Y-108786600I-1796051J0D01*
G01*
X172690850Y-102786600D02*
X172690850Y-113286600D01*
X163690850Y-102786600D02*
X163690850Y-113286600D01*
X163690850Y-113286600D02*
X172690850Y-113286600D01*
X163690850Y-102786600D02*
X172690850Y-102786600D01*
X169490850Y-108786600D02*
G75*
G03X169490850Y-108786600I-1300000J0D01*
G01*
G04 #@! TO.C,J9*
X163872850Y-143584600D02*
X166412850Y-143584600D01*
X166412850Y-143584600D02*
X166412850Y-144219600D01*
X166412850Y-144219600D02*
X170222850Y-144219600D01*
X170222850Y-144219600D02*
X170222850Y-143584600D01*
X170222850Y-143584600D02*
X172762850Y-143584600D01*
X170222850Y-141679600D02*
G75*
G03X170222850Y-137869600I-1905000J1905000D01*
G01*
X166412850Y-137869600D02*
G75*
G03X166412850Y-141679600I1905000J-1905000D01*
G01*
X170222850Y-141679600D02*
X166412850Y-141679600D01*
X166412850Y-137869600D02*
X170222850Y-137869600D01*
X170113901Y-139774600D02*
G75*
G03X170113901Y-139774600I-1796051J0D01*
G01*
X172817850Y-133774600D02*
X172817850Y-144274600D01*
X163817850Y-133774600D02*
X163817850Y-144274600D01*
X163817850Y-144274600D02*
X172817850Y-144274600D01*
X163817850Y-133774600D02*
X172817850Y-133774600D01*
X169617850Y-139774600D02*
G75*
G03X169617850Y-139774600I-1300000J0D01*
G01*
D12*
G04 #@! TO.C,Q1*
X214291250Y-128940400D02*
X210691250Y-128940400D01*
X214329728Y-128951922D02*
G75*
G02X212491250Y-133390400I-1838478J-1838478D01*
G01*
X210652772Y-128951922D02*
G75*
G03X212491250Y-133390400I1838478J-1838478D01*
G01*
G04 #@! TO.C,Q2*
X210652772Y-140381922D02*
G75*
G03X212491250Y-144820400I1838478J-1838478D01*
G01*
X214329728Y-140381922D02*
G75*
G02X212491250Y-144820400I-1838478J-1838478D01*
G01*
X214291250Y-140370400D02*
X210691250Y-140370400D01*
G04 #@! TO.C,Q3*
X220641250Y-128940400D02*
X217041250Y-128940400D01*
X220679728Y-128951922D02*
G75*
G02X218841250Y-133390400I-1838478J-1838478D01*
G01*
X217002772Y-128951922D02*
G75*
G03X218841250Y-133390400I1838478J-1838478D01*
G01*
G04 #@! TO.C,Q4*
X217002772Y-140381922D02*
G75*
G03X218841250Y-144820400I1838478J-1838478D01*
G01*
X220679728Y-140381922D02*
G75*
G02X218841250Y-144820400I-1838478J-1838478D01*
G01*
X220641250Y-140370400D02*
X217041250Y-140370400D01*
G04 #@! TO.C,R17*
X201767456Y-124171092D02*
X200563328Y-124171092D01*
X201767456Y-122351092D02*
X200563328Y-122351092D01*
G04 #@! TO.C,R18*
X200535386Y-131404400D02*
X201739514Y-131404400D01*
X200535386Y-133224400D02*
X201739514Y-133224400D01*
G04 #@! TO.C,R19*
X200535386Y-140929400D02*
X201739514Y-140929400D01*
X200535386Y-142749400D02*
X201739514Y-142749400D01*
G04 #@! TO.C,R20*
X200535386Y-125308400D02*
X201739514Y-125308400D01*
X200535386Y-127128400D02*
X201739514Y-127128400D01*
G04 #@! TO.C,R21*
X200535386Y-136272400D02*
X201739514Y-136272400D01*
X200535386Y-134452400D02*
X201739514Y-134452400D01*
G04 #@! TO.C,R22*
X200535386Y-146051400D02*
X201739514Y-146051400D01*
X200535386Y-144231400D02*
X201739514Y-144231400D01*
G04 #@! TO.C,R23*
X180116328Y-135595400D02*
X181320456Y-135595400D01*
X180116328Y-137415400D02*
X181320456Y-137415400D01*
G04 #@! TO.C,R24*
X181320456Y-138770400D02*
X180116328Y-138770400D01*
X181320456Y-140590400D02*
X180116328Y-140590400D01*
G04 #@! TO.C,R25*
X180215386Y-130811400D02*
X181419514Y-130811400D01*
X180215386Y-128991400D02*
X181419514Y-128991400D01*
G04 #@! TO.C,R26*
X180116328Y-143765400D02*
X181320456Y-143765400D01*
X180116328Y-141945400D02*
X181320456Y-141945400D01*
G04 #@! TO.C,R27*
X213207614Y-134846100D02*
X212003486Y-134846100D01*
X213207614Y-136666100D02*
X212003486Y-136666100D01*
G04 #@! TO.C,R28*
X213118714Y-147918300D02*
X211914586Y-147918300D01*
X213118714Y-146098300D02*
X211914586Y-146098300D01*
G04 #@! TO.C,R29*
X181320456Y-149988400D02*
X180116328Y-149988400D01*
X181320456Y-148168400D02*
X180116328Y-148168400D01*
G04 #@! TO.C,R30*
X181419514Y-124334400D02*
X180215386Y-124334400D01*
X181419514Y-122514400D02*
X180215386Y-122514400D01*
G04 #@! TO.C,R31*
X219557614Y-136666100D02*
X218353486Y-136666100D01*
X219557614Y-134846100D02*
X218353486Y-134846100D01*
G04 #@! TO.C,R32*
X219443314Y-147956400D02*
X218239186Y-147956400D01*
X219443314Y-146136400D02*
X218239186Y-146136400D01*
D11*
G04 #@! TO.C,SW1*
X218727450Y-93210400D02*
X213947450Y-93210400D01*
X218734293Y-93207495D02*
G75*
G03X213947450Y-93210400I-2396843J5637095D01*
G01*
G04 #@! TO.C,SW2*
X218734293Y-109717495D02*
G75*
G03X213947450Y-109720400I-2396843J5637095D01*
G01*
X218727450Y-109720400D02*
X213947450Y-109720400D01*
G04 #@! TO.C,SW3*
X218727450Y-126230400D02*
X213947450Y-126230400D01*
X218734293Y-126227495D02*
G75*
G03X213947450Y-126230400I-2396843J5637095D01*
G01*
D12*
G04 #@! TO.C,SW4*
X215757450Y-69790400D02*
X216757450Y-69790400D01*
X216257450Y-69290400D02*
X216257450Y-70290400D01*
X222357450Y-73290400D02*
X222357450Y-75690400D01*
X222357450Y-68490400D02*
X222357450Y-71090400D01*
X222357450Y-63890400D02*
X222357450Y-66290400D01*
X209057450Y-65690400D02*
X208757450Y-65990400D01*
X208457450Y-65690400D02*
X209057450Y-65690400D01*
X208757450Y-65990400D02*
X208457450Y-65690400D01*
X210157450Y-63890400D02*
X210157450Y-75690400D01*
X214257450Y-63890400D02*
X210157450Y-63890400D01*
X214257450Y-75690400D02*
X210157450Y-75690400D01*
X222357450Y-75690400D02*
X218257450Y-75690400D01*
X218257450Y-63890400D02*
X222357450Y-63890400D01*
X219257450Y-69790400D02*
G75*
G03X219257450Y-69790400I-3000000J0D01*
G01*
D11*
G04 #@! TO.C,U3*
X188902450Y-131039400D02*
X188902450Y-131064400D01*
X193052450Y-131039400D02*
X193052450Y-131154400D01*
X193052450Y-139939400D02*
X193052450Y-139824400D01*
X188902450Y-139939400D02*
X188902450Y-139824400D01*
X188902450Y-131039400D02*
X193052450Y-131039400D01*
X188902450Y-139939400D02*
X193052450Y-139939400D01*
X188902450Y-131064400D02*
X187527450Y-131064400D01*
D12*
G04 #@! TO.C,J5*
X186259100Y-58798900D02*
X186259100Y-56138900D01*
X186259100Y-58798900D02*
X193939100Y-58798900D01*
X193939100Y-58798900D02*
X193939100Y-56138900D01*
X186259100Y-56138900D02*
X193939100Y-56138900D01*
X183659100Y-56138900D02*
X184989100Y-56138900D01*
X183659100Y-57468900D02*
X183659100Y-56138900D01*
D13*
G04 #@! TO.C,G\002A\002A\002A*
G36*
X153435949Y-70893894D02*
X153741072Y-70899461D01*
X153966829Y-70908526D01*
X154109043Y-70920916D01*
X154163536Y-70936456D01*
X154164000Y-70938182D01*
X154119631Y-70958454D01*
X153993564Y-70973453D01*
X153796361Y-70982298D01*
X153609818Y-70984364D01*
X153370887Y-70986101D01*
X153210144Y-70992489D01*
X153113460Y-71005294D01*
X153066705Y-71026283D01*
X153055637Y-71053637D01*
X153069531Y-71083503D01*
X153120636Y-71103596D01*
X153223079Y-71115681D01*
X153390993Y-71121526D01*
X153609818Y-71122909D01*
X153853082Y-71126607D01*
X154033065Y-71137112D01*
X154139205Y-71153546D01*
X154164000Y-71169091D01*
X154119631Y-71189363D01*
X153993564Y-71204362D01*
X153796361Y-71213207D01*
X153609818Y-71215273D01*
X153370887Y-71217010D01*
X153210144Y-71223398D01*
X153113460Y-71236203D01*
X153066705Y-71257192D01*
X153055637Y-71284546D01*
X153069531Y-71314412D01*
X153120636Y-71334505D01*
X153223079Y-71346590D01*
X153390993Y-71352435D01*
X153609818Y-71353818D01*
X153853082Y-71357516D01*
X154033065Y-71368021D01*
X154139205Y-71384455D01*
X154164000Y-71400000D01*
X154120587Y-71422491D01*
X154001183Y-71438417D01*
X153822048Y-71445868D01*
X153771455Y-71446182D01*
X153378909Y-71446182D01*
X153378909Y-72877818D01*
X153519985Y-72877818D01*
X153604658Y-72882410D01*
X153644123Y-72912432D01*
X153652487Y-72992252D01*
X153646985Y-73097182D01*
X153632909Y-73316546D01*
X153067182Y-73329513D01*
X152501455Y-73342479D01*
X152501455Y-73110149D01*
X152504432Y-72972922D01*
X152522805Y-72904295D01*
X152570742Y-72880515D01*
X152640000Y-72877818D01*
X152778546Y-72877818D01*
X152778546Y-72192788D01*
X152777085Y-71950850D01*
X152773065Y-71743263D01*
X152767026Y-71586801D01*
X152759509Y-71498237D01*
X152755718Y-71484930D01*
X152698594Y-71474788D01*
X152594081Y-71482474D01*
X152492482Y-71513784D01*
X152456890Y-71581694D01*
X152455273Y-71613060D01*
X152447934Y-71676248D01*
X152410902Y-71709155D01*
X152321654Y-71721553D01*
X152201273Y-71723273D01*
X151947273Y-71723273D01*
X151947273Y-71423091D01*
X153101818Y-71423091D01*
X153124909Y-71446182D01*
X153148000Y-71423091D01*
X153124909Y-71400000D01*
X153101818Y-71423091D01*
X151947273Y-71423091D01*
X151947273Y-71145135D01*
X152083387Y-71145135D01*
X152092196Y-71199848D01*
X152093274Y-71201166D01*
X152121169Y-71272743D01*
X152114917Y-71297917D01*
X152135998Y-71326248D01*
X152221591Y-71338416D01*
X152224364Y-71338424D01*
X152311236Y-71326800D01*
X152334300Y-71298753D01*
X152333811Y-71297917D01*
X152338275Y-71233323D01*
X152364588Y-71190159D01*
X152394663Y-71136733D01*
X152348490Y-71122921D01*
X152345473Y-71122909D01*
X152280438Y-71101785D01*
X152270546Y-71081073D01*
X152235576Y-71067272D01*
X152158571Y-71092079D01*
X152083387Y-71145135D01*
X151947273Y-71145135D01*
X151947273Y-70892000D01*
X153055637Y-70892000D01*
X153435949Y-70893894D01*
X153435949Y-70893894D01*
G37*
X153435949Y-70893894D02*
X153741072Y-70899461D01*
X153966829Y-70908526D01*
X154109043Y-70920916D01*
X154163536Y-70936456D01*
X154164000Y-70938182D01*
X154119631Y-70958454D01*
X153993564Y-70973453D01*
X153796361Y-70982298D01*
X153609818Y-70984364D01*
X153370887Y-70986101D01*
X153210144Y-70992489D01*
X153113460Y-71005294D01*
X153066705Y-71026283D01*
X153055637Y-71053637D01*
X153069531Y-71083503D01*
X153120636Y-71103596D01*
X153223079Y-71115681D01*
X153390993Y-71121526D01*
X153609818Y-71122909D01*
X153853082Y-71126607D01*
X154033065Y-71137112D01*
X154139205Y-71153546D01*
X154164000Y-71169091D01*
X154119631Y-71189363D01*
X153993564Y-71204362D01*
X153796361Y-71213207D01*
X153609818Y-71215273D01*
X153370887Y-71217010D01*
X153210144Y-71223398D01*
X153113460Y-71236203D01*
X153066705Y-71257192D01*
X153055637Y-71284546D01*
X153069531Y-71314412D01*
X153120636Y-71334505D01*
X153223079Y-71346590D01*
X153390993Y-71352435D01*
X153609818Y-71353818D01*
X153853082Y-71357516D01*
X154033065Y-71368021D01*
X154139205Y-71384455D01*
X154164000Y-71400000D01*
X154120587Y-71422491D01*
X154001183Y-71438417D01*
X153822048Y-71445868D01*
X153771455Y-71446182D01*
X153378909Y-71446182D01*
X153378909Y-72877818D01*
X153519985Y-72877818D01*
X153604658Y-72882410D01*
X153644123Y-72912432D01*
X153652487Y-72992252D01*
X153646985Y-73097182D01*
X153632909Y-73316546D01*
X153067182Y-73329513D01*
X152501455Y-73342479D01*
X152501455Y-73110149D01*
X152504432Y-72972922D01*
X152522805Y-72904295D01*
X152570742Y-72880515D01*
X152640000Y-72877818D01*
X152778546Y-72877818D01*
X152778546Y-72192788D01*
X152777085Y-71950850D01*
X152773065Y-71743263D01*
X152767026Y-71586801D01*
X152759509Y-71498237D01*
X152755718Y-71484930D01*
X152698594Y-71474788D01*
X152594081Y-71482474D01*
X152492482Y-71513784D01*
X152456890Y-71581694D01*
X152455273Y-71613060D01*
X152447934Y-71676248D01*
X152410902Y-71709155D01*
X152321654Y-71721553D01*
X152201273Y-71723273D01*
X151947273Y-71723273D01*
X151947273Y-71423091D01*
X153101818Y-71423091D01*
X153124909Y-71446182D01*
X153148000Y-71423091D01*
X153124909Y-71400000D01*
X153101818Y-71423091D01*
X151947273Y-71423091D01*
X151947273Y-71145135D01*
X152083387Y-71145135D01*
X152092196Y-71199848D01*
X152093274Y-71201166D01*
X152121169Y-71272743D01*
X152114917Y-71297917D01*
X152135998Y-71326248D01*
X152221591Y-71338416D01*
X152224364Y-71338424D01*
X152311236Y-71326800D01*
X152334300Y-71298753D01*
X152333811Y-71297917D01*
X152338275Y-71233323D01*
X152364588Y-71190159D01*
X152394663Y-71136733D01*
X152348490Y-71122921D01*
X152345473Y-71122909D01*
X152280438Y-71101785D01*
X152270546Y-71081073D01*
X152235576Y-71067272D01*
X152158571Y-71092079D01*
X152083387Y-71145135D01*
X151947273Y-71145135D01*
X151947273Y-70892000D01*
X153055637Y-70892000D01*
X153435949Y-70893894D01*
G36*
X155364728Y-71099818D02*
X155358684Y-71229688D01*
X155333590Y-71291100D01*
X155278999Y-71307557D01*
X155272364Y-71307637D01*
X155210890Y-71313779D01*
X155188395Y-71342747D01*
X155207452Y-71410354D01*
X155270634Y-71532413D01*
X155324358Y-71627146D01*
X155467848Y-71877382D01*
X155623145Y-71604055D01*
X155703902Y-71459552D01*
X155742299Y-71376023D01*
X155741736Y-71334211D01*
X155705613Y-71314859D01*
X155675494Y-71307637D01*
X155608715Y-71277134D01*
X155577872Y-71207238D01*
X155569866Y-71088273D01*
X155567186Y-70892000D01*
X156565455Y-70892000D01*
X156565455Y-71096606D01*
X156558910Y-71226413D01*
X156531131Y-71290460D01*
X156469896Y-71314914D01*
X156463001Y-71315970D01*
X156399405Y-71349309D01*
X156316904Y-71439079D01*
X156208415Y-71594327D01*
X156071890Y-71815637D01*
X155949243Y-72024757D01*
X155867198Y-72177218D01*
X155817586Y-72294800D01*
X155792242Y-72399280D01*
X155782996Y-72512440D01*
X155781799Y-72589182D01*
X155780364Y-72877818D01*
X155921440Y-72877818D01*
X156006113Y-72882410D01*
X156045577Y-72912432D01*
X156053942Y-72992252D01*
X156048440Y-73097182D01*
X156034364Y-73316546D01*
X155468637Y-73329513D01*
X154902909Y-73342479D01*
X154902909Y-73110149D01*
X154905886Y-72972922D01*
X154924260Y-72904295D01*
X154972196Y-72880515D01*
X155041455Y-72877818D01*
X155121081Y-72873441D01*
X155162267Y-72845044D01*
X155177683Y-72769729D01*
X155180000Y-72627461D01*
X155179445Y-72546372D01*
X155174097Y-72476030D01*
X155158436Y-72404447D01*
X155126940Y-72319637D01*
X155074088Y-72209612D01*
X154994358Y-72062385D01*
X154882229Y-71865971D01*
X154732178Y-71608380D01*
X154630691Y-71434929D01*
X154536625Y-71334137D01*
X154452637Y-71307929D01*
X154388228Y-71297078D01*
X154357723Y-71248756D01*
X154348951Y-71138591D01*
X154348728Y-71099818D01*
X154348728Y-70892000D01*
X155364728Y-70892000D01*
X155364728Y-71099818D01*
X155364728Y-71099818D01*
G37*
X155364728Y-71099818D02*
X155358684Y-71229688D01*
X155333590Y-71291100D01*
X155278999Y-71307557D01*
X155272364Y-71307637D01*
X155210890Y-71313779D01*
X155188395Y-71342747D01*
X155207452Y-71410354D01*
X155270634Y-71532413D01*
X155324358Y-71627146D01*
X155467848Y-71877382D01*
X155623145Y-71604055D01*
X155703902Y-71459552D01*
X155742299Y-71376023D01*
X155741736Y-71334211D01*
X155705613Y-71314859D01*
X155675494Y-71307637D01*
X155608715Y-71277134D01*
X155577872Y-71207238D01*
X155569866Y-71088273D01*
X155567186Y-70892000D01*
X156565455Y-70892000D01*
X156565455Y-71096606D01*
X156558910Y-71226413D01*
X156531131Y-71290460D01*
X156469896Y-71314914D01*
X156463001Y-71315970D01*
X156399405Y-71349309D01*
X156316904Y-71439079D01*
X156208415Y-71594327D01*
X156071890Y-71815637D01*
X155949243Y-72024757D01*
X155867198Y-72177218D01*
X155817586Y-72294800D01*
X155792242Y-72399280D01*
X155782996Y-72512440D01*
X155781799Y-72589182D01*
X155780364Y-72877818D01*
X155921440Y-72877818D01*
X156006113Y-72882410D01*
X156045577Y-72912432D01*
X156053942Y-72992252D01*
X156048440Y-73097182D01*
X156034364Y-73316546D01*
X155468637Y-73329513D01*
X154902909Y-73342479D01*
X154902909Y-73110149D01*
X154905886Y-72972922D01*
X154924260Y-72904295D01*
X154972196Y-72880515D01*
X155041455Y-72877818D01*
X155121081Y-72873441D01*
X155162267Y-72845044D01*
X155177683Y-72769729D01*
X155180000Y-72627461D01*
X155179445Y-72546372D01*
X155174097Y-72476030D01*
X155158436Y-72404447D01*
X155126940Y-72319637D01*
X155074088Y-72209612D01*
X154994358Y-72062385D01*
X154882229Y-71865971D01*
X154732178Y-71608380D01*
X154630691Y-71434929D01*
X154536625Y-71334137D01*
X154452637Y-71307929D01*
X154388228Y-71297078D01*
X154357723Y-71248756D01*
X154348951Y-71138591D01*
X154348728Y-71099818D01*
X154348728Y-70892000D01*
X155364728Y-70892000D01*
X155364728Y-71099818D01*
G36*
X157950909Y-71122909D02*
X157947882Y-71259602D01*
X157929271Y-71327765D01*
X157880781Y-71351226D01*
X157812364Y-71353818D01*
X157673818Y-71353818D01*
X157673818Y-72831637D01*
X158176243Y-72831637D01*
X158190576Y-72663480D01*
X158204909Y-72495324D01*
X158447364Y-72487619D01*
X158689818Y-72479913D01*
X158689818Y-73339637D01*
X157741642Y-73339637D01*
X157412272Y-73338572D01*
X157164400Y-73334895D01*
X156987180Y-73327884D01*
X156869765Y-73316814D01*
X156801308Y-73300963D01*
X156770963Y-73279608D01*
X156768570Y-73274760D01*
X156755429Y-73185554D01*
X156758075Y-73059679D01*
X156758474Y-73055397D01*
X156781709Y-72945946D01*
X156839597Y-72898017D01*
X156900273Y-72886296D01*
X157027273Y-72871683D01*
X157027273Y-71353818D01*
X156888728Y-71353818D01*
X156806712Y-71348774D01*
X156765814Y-71317755D01*
X156751738Y-71236938D01*
X156750182Y-71122909D01*
X156750182Y-70892000D01*
X157950909Y-70892000D01*
X157950909Y-71122909D01*
X157950909Y-71122909D01*
G37*
X157950909Y-71122909D02*
X157947882Y-71259602D01*
X157929271Y-71327765D01*
X157880781Y-71351226D01*
X157812364Y-71353818D01*
X157673818Y-71353818D01*
X157673818Y-72831637D01*
X158176243Y-72831637D01*
X158190576Y-72663480D01*
X158204909Y-72495324D01*
X158447364Y-72487619D01*
X158689818Y-72479913D01*
X158689818Y-73339637D01*
X157741642Y-73339637D01*
X157412272Y-73338572D01*
X157164400Y-73334895D01*
X156987180Y-73327884D01*
X156869765Y-73316814D01*
X156801308Y-73300963D01*
X156770963Y-73279608D01*
X156768570Y-73274760D01*
X156755429Y-73185554D01*
X156758075Y-73059679D01*
X156758474Y-73055397D01*
X156781709Y-72945946D01*
X156839597Y-72898017D01*
X156900273Y-72886296D01*
X157027273Y-72871683D01*
X157027273Y-71353818D01*
X156888728Y-71353818D01*
X156806712Y-71348774D01*
X156765814Y-71317755D01*
X156751738Y-71236938D01*
X156750182Y-71122909D01*
X156750182Y-70892000D01*
X157950909Y-70892000D01*
X157950909Y-71122909D01*
G36*
X160768000Y-71584728D02*
X160514000Y-71584728D01*
X160368529Y-71581730D01*
X160292784Y-71565890D01*
X160264161Y-71526933D01*
X160260000Y-71469273D01*
X160252514Y-71400752D01*
X160214307Y-71366568D01*
X160121760Y-71354912D01*
X160029091Y-71353818D01*
X159798182Y-71353818D01*
X159798182Y-71861818D01*
X160490909Y-71861818D01*
X160490909Y-72323637D01*
X159798182Y-72323637D01*
X159798182Y-72831637D01*
X160052182Y-72831637D01*
X160197653Y-72828640D01*
X160273399Y-72812799D01*
X160302021Y-72773842D01*
X160306182Y-72716182D01*
X160312775Y-72650059D01*
X160347624Y-72615629D01*
X160433330Y-72602619D01*
X160560182Y-72600728D01*
X160814182Y-72600728D01*
X160814182Y-73339637D01*
X159875152Y-73339637D01*
X159590410Y-73338705D01*
X159338430Y-73336105D01*
X159133311Y-73332129D01*
X158989155Y-73327067D01*
X158920060Y-73321212D01*
X158916287Y-73319802D01*
X158907790Y-73265982D01*
X158909144Y-73152680D01*
X158913240Y-73088893D01*
X158929238Y-72958641D01*
X158959567Y-72896531D01*
X159018871Y-72878342D01*
X159040832Y-72877818D01*
X159151637Y-72877818D01*
X159151637Y-71307637D01*
X159036182Y-71307637D01*
X158964937Y-71299023D01*
X158931182Y-71256684D01*
X158921168Y-71155871D01*
X158920728Y-71099818D01*
X158920728Y-70892000D01*
X160768000Y-70892000D01*
X160768000Y-71584728D01*
X160768000Y-71584728D01*
G37*
X160768000Y-71584728D02*
X160514000Y-71584728D01*
X160368529Y-71581730D01*
X160292784Y-71565890D01*
X160264161Y-71526933D01*
X160260000Y-71469273D01*
X160252514Y-71400752D01*
X160214307Y-71366568D01*
X160121760Y-71354912D01*
X160029091Y-71353818D01*
X159798182Y-71353818D01*
X159798182Y-71861818D01*
X160490909Y-71861818D01*
X160490909Y-72323637D01*
X159798182Y-72323637D01*
X159798182Y-72831637D01*
X160052182Y-72831637D01*
X160197653Y-72828640D01*
X160273399Y-72812799D01*
X160302021Y-72773842D01*
X160306182Y-72716182D01*
X160312775Y-72650059D01*
X160347624Y-72615629D01*
X160433330Y-72602619D01*
X160560182Y-72600728D01*
X160814182Y-72600728D01*
X160814182Y-73339637D01*
X159875152Y-73339637D01*
X159590410Y-73338705D01*
X159338430Y-73336105D01*
X159133311Y-73332129D01*
X158989155Y-73327067D01*
X158920060Y-73321212D01*
X158916287Y-73319802D01*
X158907790Y-73265982D01*
X158909144Y-73152680D01*
X158913240Y-73088893D01*
X158929238Y-72958641D01*
X158959567Y-72896531D01*
X159018871Y-72878342D01*
X159040832Y-72877818D01*
X159151637Y-72877818D01*
X159151637Y-71307637D01*
X159036182Y-71307637D01*
X158964937Y-71299023D01*
X158931182Y-71256684D01*
X158921168Y-71155871D01*
X158920728Y-71099818D01*
X158920728Y-70892000D01*
X160768000Y-70892000D01*
X160768000Y-71584728D01*
G36*
X162079796Y-70893176D02*
X162292057Y-70897884D01*
X162446613Y-70907900D01*
X162560785Y-70924998D01*
X162651896Y-70950951D01*
X162737267Y-70987534D01*
X162740497Y-70989093D01*
X162926570Y-71125415D01*
X163048661Y-71311337D01*
X163104848Y-71528052D01*
X163093210Y-71756753D01*
X163011826Y-71978632D01*
X162861400Y-72172417D01*
X162777932Y-72259171D01*
X162741686Y-72313869D01*
X162747822Y-72323637D01*
X162791484Y-72361449D01*
X162861130Y-72460613D01*
X162941735Y-72599720D01*
X162942272Y-72600728D01*
X163031817Y-72755740D01*
X163102888Y-72841676D01*
X163171149Y-72875279D01*
X163201510Y-72877818D01*
X163268347Y-72885283D01*
X163298718Y-72923731D01*
X163303321Y-73017243D01*
X163298985Y-73097182D01*
X163284909Y-73316546D01*
X163003169Y-73316378D01*
X162804057Y-73303528D01*
X162669934Y-73267553D01*
X162641265Y-73249681D01*
X162584413Y-73179095D01*
X162502774Y-73049002D01*
X162411035Y-72883396D01*
X162379854Y-72822667D01*
X162289290Y-72647981D01*
X162223095Y-72540887D01*
X162166880Y-72485138D01*
X162106255Y-72464486D01*
X162060576Y-72462182D01*
X161975696Y-72468251D01*
X161935494Y-72503164D01*
X161923323Y-72591986D01*
X161922546Y-72670000D01*
X161927331Y-72798241D01*
X161950853Y-72858999D01*
X162006860Y-72877025D01*
X162038000Y-72877818D01*
X162106521Y-72885305D01*
X162140705Y-72923511D01*
X162152361Y-73016058D01*
X162153455Y-73108728D01*
X162153455Y-73339637D01*
X161601998Y-73339637D01*
X161386415Y-73336904D01*
X161207071Y-73329463D01*
X161082671Y-73318450D01*
X161031919Y-73305002D01*
X161031918Y-73305000D01*
X161024872Y-73241143D01*
X161029571Y-73122700D01*
X161034043Y-73074091D01*
X161053459Y-72950100D01*
X161088881Y-72893188D01*
X161158701Y-72878100D01*
X161176942Y-72877878D01*
X161299091Y-72877937D01*
X161272592Y-71353818D01*
X161922546Y-71353818D01*
X161922546Y-72000364D01*
X162102157Y-72000364D01*
X162257386Y-71977652D01*
X162376629Y-71920092D01*
X162377278Y-71919546D01*
X162480647Y-71785914D01*
X162503974Y-71644724D01*
X162455902Y-71514227D01*
X162345076Y-71412675D01*
X162180137Y-71358319D01*
X162109372Y-71353818D01*
X161922546Y-71353818D01*
X161272592Y-71353818D01*
X161271789Y-71307637D01*
X161139435Y-71307637D01*
X161044475Y-71293910D01*
X161020220Y-71244103D01*
X161022553Y-71226818D01*
X161035723Y-71118727D01*
X161041558Y-71019000D01*
X161045091Y-70892000D01*
X161792510Y-70892000D01*
X162079796Y-70893176D01*
X162079796Y-70893176D01*
G37*
X162079796Y-70893176D02*
X162292057Y-70897884D01*
X162446613Y-70907900D01*
X162560785Y-70924998D01*
X162651896Y-70950951D01*
X162737267Y-70987534D01*
X162740497Y-70989093D01*
X162926570Y-71125415D01*
X163048661Y-71311337D01*
X163104848Y-71528052D01*
X163093210Y-71756753D01*
X163011826Y-71978632D01*
X162861400Y-72172417D01*
X162777932Y-72259171D01*
X162741686Y-72313869D01*
X162747822Y-72323637D01*
X162791484Y-72361449D01*
X162861130Y-72460613D01*
X162941735Y-72599720D01*
X162942272Y-72600728D01*
X163031817Y-72755740D01*
X163102888Y-72841676D01*
X163171149Y-72875279D01*
X163201510Y-72877818D01*
X163268347Y-72885283D01*
X163298718Y-72923731D01*
X163303321Y-73017243D01*
X163298985Y-73097182D01*
X163284909Y-73316546D01*
X163003169Y-73316378D01*
X162804057Y-73303528D01*
X162669934Y-73267553D01*
X162641265Y-73249681D01*
X162584413Y-73179095D01*
X162502774Y-73049002D01*
X162411035Y-72883396D01*
X162379854Y-72822667D01*
X162289290Y-72647981D01*
X162223095Y-72540887D01*
X162166880Y-72485138D01*
X162106255Y-72464486D01*
X162060576Y-72462182D01*
X161975696Y-72468251D01*
X161935494Y-72503164D01*
X161923323Y-72591986D01*
X161922546Y-72670000D01*
X161927331Y-72798241D01*
X161950853Y-72858999D01*
X162006860Y-72877025D01*
X162038000Y-72877818D01*
X162106521Y-72885305D01*
X162140705Y-72923511D01*
X162152361Y-73016058D01*
X162153455Y-73108728D01*
X162153455Y-73339637D01*
X161601998Y-73339637D01*
X161386415Y-73336904D01*
X161207071Y-73329463D01*
X161082671Y-73318450D01*
X161031919Y-73305002D01*
X161031918Y-73305000D01*
X161024872Y-73241143D01*
X161029571Y-73122700D01*
X161034043Y-73074091D01*
X161053459Y-72950100D01*
X161088881Y-72893188D01*
X161158701Y-72878100D01*
X161176942Y-72877878D01*
X161299091Y-72877937D01*
X161272592Y-71353818D01*
X161922546Y-71353818D01*
X161922546Y-72000364D01*
X162102157Y-72000364D01*
X162257386Y-71977652D01*
X162376629Y-71920092D01*
X162377278Y-71919546D01*
X162480647Y-71785914D01*
X162503974Y-71644724D01*
X162455902Y-71514227D01*
X162345076Y-71412675D01*
X162180137Y-71358319D01*
X162109372Y-71353818D01*
X161922546Y-71353818D01*
X161272592Y-71353818D01*
X161271789Y-71307637D01*
X161139435Y-71307637D01*
X161044475Y-71293910D01*
X161020220Y-71244103D01*
X161022553Y-71226818D01*
X161035723Y-71118727D01*
X161041558Y-71019000D01*
X161045091Y-70892000D01*
X161792510Y-70892000D01*
X162079796Y-70893176D01*
G36*
X154144105Y-71636678D02*
X154164063Y-71665546D01*
X154156800Y-71714317D01*
X154152455Y-71715745D01*
X154104154Y-71706882D01*
X153991763Y-71691947D01*
X153886909Y-71679576D01*
X153632909Y-71650935D01*
X153898518Y-71629377D01*
X154060103Y-71622607D01*
X154144105Y-71636678D01*
X154144105Y-71636678D01*
G37*
X154144105Y-71636678D02*
X154164063Y-71665546D01*
X154156800Y-71714317D01*
X154152455Y-71715745D01*
X154104154Y-71706882D01*
X153991763Y-71691947D01*
X153886909Y-71679576D01*
X153632909Y-71650935D01*
X153898518Y-71629377D01*
X154060103Y-71622607D01*
X154144105Y-71636678D01*
G36*
X153254803Y-64714468D02*
X154556546Y-64726728D01*
X154569654Y-65223182D01*
X154582761Y-65719637D01*
X153926997Y-65719637D01*
X153941590Y-67116637D01*
X153946001Y-67513927D01*
X153950557Y-67829956D01*
X153956078Y-68075823D01*
X153963383Y-68262625D01*
X153973293Y-68401463D01*
X153986629Y-68503436D01*
X154004210Y-68579642D01*
X154026856Y-68641182D01*
X154055389Y-68699154D01*
X154059046Y-68706020D01*
X154220821Y-68920068D01*
X154431751Y-69070479D01*
X154674894Y-69157763D01*
X154933307Y-69182430D01*
X155190049Y-69144989D01*
X155428177Y-69045948D01*
X155630749Y-68885819D01*
X155780824Y-68665110D01*
X155785921Y-68654093D01*
X155810467Y-68592370D01*
X155829832Y-68520152D01*
X155844631Y-68426297D01*
X155855475Y-68299666D01*
X155862977Y-68129120D01*
X155867749Y-67903519D01*
X155870404Y-67611722D01*
X155871553Y-67242591D01*
X155871713Y-67093546D01*
X155872728Y-65719637D01*
X155272364Y-65719637D01*
X155272364Y-64703637D01*
X157904728Y-64703637D01*
X157904728Y-65715417D01*
X157593000Y-65729072D01*
X157281273Y-65742728D01*
X157256327Y-67266728D01*
X157248536Y-67700869D01*
X157240447Y-68052598D01*
X157231478Y-68331868D01*
X157221050Y-68548629D01*
X157208583Y-68712834D01*
X157193495Y-68834433D01*
X157175208Y-68923379D01*
X157156319Y-68981750D01*
X156959248Y-69382794D01*
X156709716Y-69709698D01*
X156401478Y-69968288D01*
X156028294Y-70164391D01*
X155803455Y-70244546D01*
X155580850Y-70297074D01*
X155308829Y-70337457D01*
X155021002Y-70362850D01*
X154750980Y-70370406D01*
X154532373Y-70357278D01*
X154510364Y-70354046D01*
X154019720Y-70241950D01*
X153602145Y-70074012D01*
X153256262Y-69849059D01*
X152980694Y-69565922D01*
X152774067Y-69223428D01*
X152635003Y-68820407D01*
X152617481Y-68743428D01*
X152595343Y-68611355D01*
X152578040Y-68441377D01*
X152565141Y-68223060D01*
X152556216Y-67945968D01*
X152550833Y-67599668D01*
X152548562Y-67173724D01*
X152548438Y-67070455D01*
X152547637Y-65719637D01*
X152235909Y-65719731D01*
X151924182Y-65719825D01*
X151938622Y-65211016D01*
X151953061Y-64702208D01*
X153254803Y-64714468D01*
X153254803Y-64714468D01*
G37*
X153254803Y-64714468D02*
X154556546Y-64726728D01*
X154569654Y-65223182D01*
X154582761Y-65719637D01*
X153926997Y-65719637D01*
X153941590Y-67116637D01*
X153946001Y-67513927D01*
X153950557Y-67829956D01*
X153956078Y-68075823D01*
X153963383Y-68262625D01*
X153973293Y-68401463D01*
X153986629Y-68503436D01*
X154004210Y-68579642D01*
X154026856Y-68641182D01*
X154055389Y-68699154D01*
X154059046Y-68706020D01*
X154220821Y-68920068D01*
X154431751Y-69070479D01*
X154674894Y-69157763D01*
X154933307Y-69182430D01*
X155190049Y-69144989D01*
X155428177Y-69045948D01*
X155630749Y-68885819D01*
X155780824Y-68665110D01*
X155785921Y-68654093D01*
X155810467Y-68592370D01*
X155829832Y-68520152D01*
X155844631Y-68426297D01*
X155855475Y-68299666D01*
X155862977Y-68129120D01*
X155867749Y-67903519D01*
X155870404Y-67611722D01*
X155871553Y-67242591D01*
X155871713Y-67093546D01*
X155872728Y-65719637D01*
X155272364Y-65719637D01*
X155272364Y-64703637D01*
X157904728Y-64703637D01*
X157904728Y-65715417D01*
X157593000Y-65729072D01*
X157281273Y-65742728D01*
X157256327Y-67266728D01*
X157248536Y-67700869D01*
X157240447Y-68052598D01*
X157231478Y-68331868D01*
X157221050Y-68548629D01*
X157208583Y-68712834D01*
X157193495Y-68834433D01*
X157175208Y-68923379D01*
X157156319Y-68981750D01*
X156959248Y-69382794D01*
X156709716Y-69709698D01*
X156401478Y-69968288D01*
X156028294Y-70164391D01*
X155803455Y-70244546D01*
X155580850Y-70297074D01*
X155308829Y-70337457D01*
X155021002Y-70362850D01*
X154750980Y-70370406D01*
X154532373Y-70357278D01*
X154510364Y-70354046D01*
X154019720Y-70241950D01*
X153602145Y-70074012D01*
X153256262Y-69849059D01*
X152980694Y-69565922D01*
X152774067Y-69223428D01*
X152635003Y-68820407D01*
X152617481Y-68743428D01*
X152595343Y-68611355D01*
X152578040Y-68441377D01*
X152565141Y-68223060D01*
X152556216Y-67945968D01*
X152550833Y-67599668D01*
X152548562Y-67173724D01*
X152548438Y-67070455D01*
X152547637Y-65719637D01*
X152235909Y-65719731D01*
X151924182Y-65719825D01*
X151938622Y-65211016D01*
X151953061Y-64702208D01*
X153254803Y-64714468D01*
G36*
X163297411Y-65661909D02*
X163309913Y-66597091D01*
X162107273Y-66597091D01*
X162107273Y-65812000D01*
X161460728Y-65812000D01*
X161460728Y-69275637D01*
X162110398Y-69275637D01*
X162097290Y-69772091D01*
X162084182Y-70268546D01*
X160787948Y-70280796D01*
X160450771Y-70282892D01*
X160144022Y-70282712D01*
X159879750Y-70280430D01*
X159670005Y-70276221D01*
X159526835Y-70270259D01*
X159462291Y-70262720D01*
X159460220Y-70261554D01*
X159447109Y-70204855D01*
X159436669Y-70076763D01*
X159430200Y-69898235D01*
X159428728Y-69752849D01*
X159428728Y-69275637D01*
X160075273Y-69275637D01*
X160075273Y-65807954D01*
X159740455Y-65821522D01*
X159405637Y-65835091D01*
X159418490Y-65973637D01*
X159420702Y-66102240D01*
X159411705Y-66271074D01*
X159403622Y-66354637D01*
X159375900Y-66597091D01*
X158226088Y-66597091D01*
X158238589Y-65661909D01*
X158251091Y-64726728D01*
X163284909Y-64726728D01*
X163297411Y-65661909D01*
X163297411Y-65661909D01*
G37*
X163297411Y-65661909D02*
X163309913Y-66597091D01*
X162107273Y-66597091D01*
X162107273Y-65812000D01*
X161460728Y-65812000D01*
X161460728Y-69275637D01*
X162110398Y-69275637D01*
X162097290Y-69772091D01*
X162084182Y-70268546D01*
X160787948Y-70280796D01*
X160450771Y-70282892D01*
X160144022Y-70282712D01*
X159879750Y-70280430D01*
X159670005Y-70276221D01*
X159526835Y-70270259D01*
X159462291Y-70262720D01*
X159460220Y-70261554D01*
X159447109Y-70204855D01*
X159436669Y-70076763D01*
X159430200Y-69898235D01*
X159428728Y-69752849D01*
X159428728Y-69275637D01*
X160075273Y-69275637D01*
X160075273Y-65807954D01*
X159740455Y-65821522D01*
X159405637Y-65835091D01*
X159418490Y-65973637D01*
X159420702Y-66102240D01*
X159411705Y-66271074D01*
X159403622Y-66354637D01*
X159375900Y-66597091D01*
X158226088Y-66597091D01*
X158238589Y-65661909D01*
X158251091Y-64726728D01*
X163284909Y-64726728D01*
X163297411Y-65661909D01*
G04 #@! TO.C,REF\002A\002A*
D11*
X197836666Y-84012380D02*
X197503333Y-83536190D01*
X197265238Y-84012380D02*
X197265238Y-83012380D01*
X197646190Y-83012380D01*
X197741428Y-83060000D01*
X197789047Y-83107619D01*
X197836666Y-83202857D01*
X197836666Y-83345714D01*
X197789047Y-83440952D01*
X197741428Y-83488571D01*
X197646190Y-83536190D01*
X197265238Y-83536190D01*
X198265238Y-83488571D02*
X198598571Y-83488571D01*
X198741428Y-84012380D02*
X198265238Y-84012380D01*
X198265238Y-83012380D01*
X198741428Y-83012380D01*
X199503333Y-83488571D02*
X199170000Y-83488571D01*
X199170000Y-84012380D02*
X199170000Y-83012380D01*
X199646190Y-83012380D01*
X200170000Y-83012380D02*
X200170000Y-83250476D01*
X199931904Y-83155238D02*
X200170000Y-83250476D01*
X200408095Y-83155238D01*
X200027142Y-83440952D02*
X200170000Y-83250476D01*
X200312857Y-83440952D01*
X200931904Y-83012380D02*
X200931904Y-83250476D01*
X200693809Y-83155238D02*
X200931904Y-83250476D01*
X201170000Y-83155238D01*
X200789047Y-83440952D02*
X200931904Y-83250476D01*
X201074761Y-83440952D01*
X177136666Y-84012380D02*
X176803333Y-83536190D01*
X176565238Y-84012380D02*
X176565238Y-83012380D01*
X176946190Y-83012380D01*
X177041428Y-83060000D01*
X177089047Y-83107619D01*
X177136666Y-83202857D01*
X177136666Y-83345714D01*
X177089047Y-83440952D01*
X177041428Y-83488571D01*
X176946190Y-83536190D01*
X176565238Y-83536190D01*
X177565238Y-83488571D02*
X177898571Y-83488571D01*
X178041428Y-84012380D02*
X177565238Y-84012380D01*
X177565238Y-83012380D01*
X178041428Y-83012380D01*
X178803333Y-83488571D02*
X178470000Y-83488571D01*
X178470000Y-84012380D02*
X178470000Y-83012380D01*
X178946190Y-83012380D01*
X179470000Y-83012380D02*
X179470000Y-83250476D01*
X179231904Y-83155238D02*
X179470000Y-83250476D01*
X179708095Y-83155238D01*
X179327142Y-83440952D02*
X179470000Y-83250476D01*
X179612857Y-83440952D01*
X180231904Y-83012380D02*
X180231904Y-83250476D01*
X179993809Y-83155238D02*
X180231904Y-83250476D01*
X180470000Y-83155238D01*
X180089047Y-83440952D02*
X180231904Y-83250476D01*
X180374761Y-83440952D01*
X222236666Y-154442380D02*
X221903333Y-153966190D01*
X221665238Y-154442380D02*
X221665238Y-153442380D01*
X222046190Y-153442380D01*
X222141428Y-153490000D01*
X222189047Y-153537619D01*
X222236666Y-153632857D01*
X222236666Y-153775714D01*
X222189047Y-153870952D01*
X222141428Y-153918571D01*
X222046190Y-153966190D01*
X221665238Y-153966190D01*
X222665238Y-153918571D02*
X222998571Y-153918571D01*
X223141428Y-154442380D02*
X222665238Y-154442380D01*
X222665238Y-153442380D01*
X223141428Y-153442380D01*
X223903333Y-153918571D02*
X223570000Y-153918571D01*
X223570000Y-154442380D02*
X223570000Y-153442380D01*
X224046190Y-153442380D01*
X224570000Y-153442380D02*
X224570000Y-153680476D01*
X224331904Y-153585238D02*
X224570000Y-153680476D01*
X224808095Y-153585238D01*
X224427142Y-153870952D02*
X224570000Y-153680476D01*
X224712857Y-153870952D01*
X225331904Y-153442380D02*
X225331904Y-153680476D01*
X225093809Y-153585238D02*
X225331904Y-153680476D01*
X225570000Y-153585238D01*
X225189047Y-153870952D02*
X225331904Y-153680476D01*
X225474761Y-153870952D01*
X151036666Y-154442380D02*
X150703333Y-153966190D01*
X150465238Y-154442380D02*
X150465238Y-153442380D01*
X150846190Y-153442380D01*
X150941428Y-153490000D01*
X150989047Y-153537619D01*
X151036666Y-153632857D01*
X151036666Y-153775714D01*
X150989047Y-153870952D01*
X150941428Y-153918571D01*
X150846190Y-153966190D01*
X150465238Y-153966190D01*
X151465238Y-153918571D02*
X151798571Y-153918571D01*
X151941428Y-154442380D02*
X151465238Y-154442380D01*
X151465238Y-153442380D01*
X151941428Y-153442380D01*
X152703333Y-153918571D02*
X152370000Y-153918571D01*
X152370000Y-154442380D02*
X152370000Y-153442380D01*
X152846190Y-153442380D01*
X153370000Y-153442380D02*
X153370000Y-153680476D01*
X153131904Y-153585238D02*
X153370000Y-153680476D01*
X153608095Y-153585238D01*
X153227142Y-153870952D02*
X153370000Y-153680476D01*
X153512857Y-153870952D01*
X154131904Y-153442380D02*
X154131904Y-153680476D01*
X153893809Y-153585238D02*
X154131904Y-153680476D01*
X154370000Y-153585238D01*
X153989047Y-153870952D02*
X154131904Y-153680476D01*
X154274761Y-153870952D01*
X151036666Y-59842380D02*
X150703333Y-59366190D01*
X150465238Y-59842380D02*
X150465238Y-58842380D01*
X150846190Y-58842380D01*
X150941428Y-58890000D01*
X150989047Y-58937619D01*
X151036666Y-59032857D01*
X151036666Y-59175714D01*
X150989047Y-59270952D01*
X150941428Y-59318571D01*
X150846190Y-59366190D01*
X150465238Y-59366190D01*
X151465238Y-59318571D02*
X151798571Y-59318571D01*
X151941428Y-59842380D02*
X151465238Y-59842380D01*
X151465238Y-58842380D01*
X151941428Y-58842380D01*
X152703333Y-59318571D02*
X152370000Y-59318571D01*
X152370000Y-59842380D02*
X152370000Y-58842380D01*
X152846190Y-58842380D01*
X153370000Y-58842380D02*
X153370000Y-59080476D01*
X153131904Y-58985238D02*
X153370000Y-59080476D01*
X153608095Y-58985238D01*
X153227142Y-59270952D02*
X153370000Y-59080476D01*
X153512857Y-59270952D01*
X154131904Y-58842380D02*
X154131904Y-59080476D01*
X153893809Y-58985238D02*
X154131904Y-59080476D01*
X154370000Y-58985238D01*
X153989047Y-59270952D02*
X154131904Y-59080476D01*
X154274761Y-59270952D01*
G04 #@! TO.C,U1*
X189834545Y-99848780D02*
X189834545Y-100658304D01*
X189882164Y-100753542D01*
X189929783Y-100801161D01*
X190025021Y-100848780D01*
X190215497Y-100848780D01*
X190310735Y-100801161D01*
X190358354Y-100753542D01*
X190405973Y-100658304D01*
X190405973Y-99848780D01*
X191405973Y-100848780D02*
X190834545Y-100848780D01*
X191120259Y-100848780D02*
X191120259Y-99848780D01*
X191025021Y-99991638D01*
X190929783Y-100086876D01*
X190834545Y-100134495D01*
G04 #@! TO.C,C4*
X204412483Y-100743742D02*
X204364864Y-100791361D01*
X204222007Y-100838980D01*
X204126769Y-100838980D01*
X203983911Y-100791361D01*
X203888673Y-100696123D01*
X203841054Y-100600885D01*
X203793435Y-100410409D01*
X203793435Y-100267552D01*
X203841054Y-100077076D01*
X203888673Y-99981838D01*
X203983911Y-99886600D01*
X204126769Y-99838980D01*
X204222007Y-99838980D01*
X204364864Y-99886600D01*
X204412483Y-99934219D01*
X205269626Y-100172314D02*
X205269626Y-100838980D01*
X205031530Y-99791361D02*
X204793435Y-100505647D01*
X205412483Y-100505647D01*
G04 #@! TO.C,C3*
X204412483Y-88361242D02*
X204364864Y-88408861D01*
X204222007Y-88456480D01*
X204126769Y-88456480D01*
X203983911Y-88408861D01*
X203888673Y-88313623D01*
X203841054Y-88218385D01*
X203793435Y-88027909D01*
X203793435Y-87885052D01*
X203841054Y-87694576D01*
X203888673Y-87599338D01*
X203983911Y-87504100D01*
X204126769Y-87456480D01*
X204222007Y-87456480D01*
X204364864Y-87504100D01*
X204412483Y-87551719D01*
X204745816Y-87456480D02*
X205364864Y-87456480D01*
X205031530Y-87837433D01*
X205174388Y-87837433D01*
X205269626Y-87885052D01*
X205317245Y-87932671D01*
X205364864Y-88027909D01*
X205364864Y-88266004D01*
X205317245Y-88361242D01*
X205269626Y-88408861D01*
X205174388Y-88456480D01*
X204888673Y-88456480D01*
X204793435Y-88408861D01*
X204745816Y-88361242D01*
G04 #@! TO.C,C1*
X176586783Y-87713542D02*
X176539164Y-87761161D01*
X176396307Y-87808780D01*
X176301069Y-87808780D01*
X176158211Y-87761161D01*
X176062973Y-87665923D01*
X176015354Y-87570685D01*
X175967735Y-87380209D01*
X175967735Y-87237352D01*
X176015354Y-87046876D01*
X176062973Y-86951638D01*
X176158211Y-86856400D01*
X176301069Y-86808780D01*
X176396307Y-86808780D01*
X176539164Y-86856400D01*
X176586783Y-86904019D01*
X177539164Y-87808780D02*
X176967735Y-87808780D01*
X177253450Y-87808780D02*
X177253450Y-86808780D01*
X177158211Y-86951638D01*
X177062973Y-87046876D01*
X176967735Y-87094495D01*
G04 #@! TO.C,C2*
X176332783Y-100921542D02*
X176285164Y-100969161D01*
X176142307Y-101016780D01*
X176047069Y-101016780D01*
X175904211Y-100969161D01*
X175808973Y-100873923D01*
X175761354Y-100778685D01*
X175713735Y-100588209D01*
X175713735Y-100445352D01*
X175761354Y-100254876D01*
X175808973Y-100159638D01*
X175904211Y-100064400D01*
X176047069Y-100016780D01*
X176142307Y-100016780D01*
X176285164Y-100064400D01*
X176332783Y-100112019D01*
X176713735Y-100112019D02*
X176761354Y-100064400D01*
X176856592Y-100016780D01*
X177094688Y-100016780D01*
X177189926Y-100064400D01*
X177237545Y-100112019D01*
X177285164Y-100207257D01*
X177285164Y-100302495D01*
X177237545Y-100445352D01*
X176666116Y-101016780D01*
X177285164Y-101016780D01*
G04 #@! TO.C,C11*
X189717442Y-86148242D02*
X189669823Y-86195861D01*
X189526966Y-86243480D01*
X189431728Y-86243480D01*
X189288871Y-86195861D01*
X189193633Y-86100623D01*
X189146014Y-86005385D01*
X189098395Y-85814909D01*
X189098395Y-85672052D01*
X189146014Y-85481576D01*
X189193633Y-85386338D01*
X189288871Y-85291100D01*
X189431728Y-85243480D01*
X189526966Y-85243480D01*
X189669823Y-85291100D01*
X189717442Y-85338719D01*
X190669823Y-86243480D02*
X190098395Y-86243480D01*
X190384109Y-86243480D02*
X190384109Y-85243480D01*
X190288871Y-85386338D01*
X190193633Y-85481576D01*
X190098395Y-85529195D01*
X191622204Y-86243480D02*
X191050776Y-86243480D01*
X191336490Y-86243480D02*
X191336490Y-85243480D01*
X191241252Y-85386338D01*
X191146014Y-85481576D01*
X191050776Y-85529195D01*
G04 #@! TO.C,C12*
X190080592Y-111363542D02*
X190032973Y-111411161D01*
X189890116Y-111458780D01*
X189794878Y-111458780D01*
X189652021Y-111411161D01*
X189556783Y-111315923D01*
X189509164Y-111220685D01*
X189461545Y-111030209D01*
X189461545Y-110887352D01*
X189509164Y-110696876D01*
X189556783Y-110601638D01*
X189652021Y-110506400D01*
X189794878Y-110458780D01*
X189890116Y-110458780D01*
X190032973Y-110506400D01*
X190080592Y-110554019D01*
X191032973Y-111458780D02*
X190461545Y-111458780D01*
X190747259Y-111458780D02*
X190747259Y-110458780D01*
X190652021Y-110601638D01*
X190556783Y-110696876D01*
X190461545Y-110744495D01*
X191413926Y-110554019D02*
X191461545Y-110506400D01*
X191556783Y-110458780D01*
X191794878Y-110458780D01*
X191890116Y-110506400D01*
X191937735Y-110554019D01*
X191985354Y-110649257D01*
X191985354Y-110744495D01*
X191937735Y-110887352D01*
X191366307Y-111458780D01*
X191985354Y-111458780D01*
G04 #@! TO.C,R5*
X176459783Y-116891780D02*
X176126450Y-116415590D01*
X175888354Y-116891780D02*
X175888354Y-115891780D01*
X176269307Y-115891780D01*
X176364545Y-115939400D01*
X176412164Y-115987019D01*
X176459783Y-116082257D01*
X176459783Y-116225114D01*
X176412164Y-116320352D01*
X176364545Y-116367971D01*
X176269307Y-116415590D01*
X175888354Y-116415590D01*
X177364545Y-115891780D02*
X176888354Y-115891780D01*
X176840735Y-116367971D01*
X176888354Y-116320352D01*
X176983592Y-116272733D01*
X177221688Y-116272733D01*
X177316926Y-116320352D01*
X177364545Y-116367971D01*
X177412164Y-116463209D01*
X177412164Y-116701304D01*
X177364545Y-116796542D01*
X177316926Y-116844161D01*
X177221688Y-116891780D01*
X176983592Y-116891780D01*
X176888354Y-116844161D01*
X176840735Y-116796542D01*
G04 #@! TO.C,R6*
X176505147Y-110160780D02*
X176171814Y-109684590D01*
X175933718Y-110160780D02*
X175933718Y-109160780D01*
X176314671Y-109160780D01*
X176409909Y-109208400D01*
X176457528Y-109256019D01*
X176505147Y-109351257D01*
X176505147Y-109494114D01*
X176457528Y-109589352D01*
X176409909Y-109636971D01*
X176314671Y-109684590D01*
X175933718Y-109684590D01*
X177362290Y-109160780D02*
X177171814Y-109160780D01*
X177076575Y-109208400D01*
X177028956Y-109256019D01*
X176933718Y-109398876D01*
X176886099Y-109589352D01*
X176886099Y-109970304D01*
X176933718Y-110065542D01*
X176981337Y-110113161D01*
X177076575Y-110160780D01*
X177267052Y-110160780D01*
X177362290Y-110113161D01*
X177409909Y-110065542D01*
X177457528Y-109970304D01*
X177457528Y-109732209D01*
X177409909Y-109636971D01*
X177362290Y-109589352D01*
X177267052Y-109541733D01*
X177076575Y-109541733D01*
X176981337Y-109589352D01*
X176933718Y-109636971D01*
X176886099Y-109732209D01*
G04 #@! TO.C,R2*
X176332783Y-97985344D02*
X175999450Y-97509154D01*
X175761354Y-97985344D02*
X175761354Y-96985344D01*
X176142307Y-96985344D01*
X176237545Y-97032964D01*
X176285164Y-97080583D01*
X176332783Y-97175821D01*
X176332783Y-97318678D01*
X176285164Y-97413916D01*
X176237545Y-97461535D01*
X176142307Y-97509154D01*
X175761354Y-97509154D01*
X176713735Y-97080583D02*
X176761354Y-97032964D01*
X176856592Y-96985344D01*
X177094688Y-96985344D01*
X177189926Y-97032964D01*
X177237545Y-97080583D01*
X177285164Y-97175821D01*
X177285164Y-97271059D01*
X177237545Y-97413916D01*
X176666116Y-97985344D01*
X177285164Y-97985344D01*
G04 #@! TO.C,R3*
X204234683Y-91275880D02*
X203901350Y-90799690D01*
X203663254Y-91275880D02*
X203663254Y-90275880D01*
X204044207Y-90275880D01*
X204139445Y-90323500D01*
X204187064Y-90371119D01*
X204234683Y-90466357D01*
X204234683Y-90609214D01*
X204187064Y-90704452D01*
X204139445Y-90752071D01*
X204044207Y-90799690D01*
X203663254Y-90799690D01*
X204568016Y-90275880D02*
X205187064Y-90275880D01*
X204853730Y-90656833D01*
X204996588Y-90656833D01*
X205091826Y-90704452D01*
X205139445Y-90752071D01*
X205187064Y-90847309D01*
X205187064Y-91085404D01*
X205139445Y-91180642D01*
X205091826Y-91228261D01*
X204996588Y-91275880D01*
X204710873Y-91275880D01*
X204615635Y-91228261D01*
X204568016Y-91180642D01*
G04 #@! TO.C,R4*
X204348983Y-97625880D02*
X204015650Y-97149690D01*
X203777554Y-97625880D02*
X203777554Y-96625880D01*
X204158507Y-96625880D01*
X204253745Y-96673500D01*
X204301364Y-96721119D01*
X204348983Y-96816357D01*
X204348983Y-96959214D01*
X204301364Y-97054452D01*
X204253745Y-97102071D01*
X204158507Y-97149690D01*
X203777554Y-97149690D01*
X205206126Y-96959214D02*
X205206126Y-97625880D01*
X204968030Y-96578261D02*
X204729935Y-97292547D01*
X205348983Y-97292547D01*
G04 #@! TO.C,R1*
X176332783Y-91237780D02*
X175999450Y-90761590D01*
X175761354Y-91237780D02*
X175761354Y-90237780D01*
X176142307Y-90237780D01*
X176237545Y-90285400D01*
X176285164Y-90333019D01*
X176332783Y-90428257D01*
X176332783Y-90571114D01*
X176285164Y-90666352D01*
X176237545Y-90713971D01*
X176142307Y-90761590D01*
X175761354Y-90761590D01*
X177285164Y-91237780D02*
X176713735Y-91237780D01*
X176999450Y-91237780D02*
X176999450Y-90237780D01*
X176904211Y-90380638D01*
X176808973Y-90475876D01*
X176713735Y-90523495D01*
G04 #@! TO.C,R13*
X175512092Y-94666780D02*
X175178759Y-94190590D01*
X174940664Y-94666780D02*
X174940664Y-93666780D01*
X175321616Y-93666780D01*
X175416854Y-93714400D01*
X175464473Y-93762019D01*
X175512092Y-93857257D01*
X175512092Y-94000114D01*
X175464473Y-94095352D01*
X175416854Y-94142971D01*
X175321616Y-94190590D01*
X174940664Y-94190590D01*
X176464473Y-94666780D02*
X175893045Y-94666780D01*
X176178759Y-94666780D02*
X176178759Y-93666780D01*
X176083521Y-93809638D01*
X175988283Y-93904876D01*
X175893045Y-93952495D01*
X176797807Y-93666780D02*
X177416854Y-93666780D01*
X177083521Y-94047733D01*
X177226378Y-94047733D01*
X177321616Y-94095352D01*
X177369235Y-94142971D01*
X177416854Y-94238209D01*
X177416854Y-94476304D01*
X177369235Y-94571542D01*
X177321616Y-94619161D01*
X177226378Y-94666780D01*
X176940664Y-94666780D01*
X176845426Y-94619161D01*
X176797807Y-94571542D01*
G04 #@! TO.C,R16*
X204304592Y-103950480D02*
X203971259Y-103474290D01*
X203733164Y-103950480D02*
X203733164Y-102950480D01*
X204114116Y-102950480D01*
X204209354Y-102998100D01*
X204256973Y-103045719D01*
X204304592Y-103140957D01*
X204304592Y-103283814D01*
X204256973Y-103379052D01*
X204209354Y-103426671D01*
X204114116Y-103474290D01*
X203733164Y-103474290D01*
X205256973Y-103950480D02*
X204685545Y-103950480D01*
X204971259Y-103950480D02*
X204971259Y-102950480D01*
X204876021Y-103093338D01*
X204780783Y-103188576D01*
X204685545Y-103236195D01*
X206114116Y-102950480D02*
X205923640Y-102950480D01*
X205828402Y-102998100D01*
X205780783Y-103045719D01*
X205685545Y-103188576D01*
X205637926Y-103379052D01*
X205637926Y-103760004D01*
X205685545Y-103855242D01*
X205733164Y-103902861D01*
X205828402Y-103950480D01*
X206018878Y-103950480D01*
X206114116Y-103902861D01*
X206161735Y-103855242D01*
X206209354Y-103760004D01*
X206209354Y-103521909D01*
X206161735Y-103426671D01*
X206114116Y-103379052D01*
X206018878Y-103331433D01*
X205828402Y-103331433D01*
X205733164Y-103379052D01*
X205685545Y-103426671D01*
X205637926Y-103521909D01*
G04 #@! TO.C,R11*
X204928371Y-113235289D02*
X204595038Y-112759099D01*
X204356943Y-113235289D02*
X204356943Y-112235289D01*
X204737895Y-112235289D01*
X204833133Y-112282909D01*
X204880752Y-112330528D01*
X204928371Y-112425766D01*
X204928371Y-112568623D01*
X204880752Y-112663861D01*
X204833133Y-112711480D01*
X204737895Y-112759099D01*
X204356943Y-112759099D01*
X205880752Y-113235289D02*
X205309324Y-113235289D01*
X205595038Y-113235289D02*
X205595038Y-112235289D01*
X205499800Y-112378147D01*
X205404562Y-112473385D01*
X205309324Y-112521004D01*
X206833133Y-113235289D02*
X206261705Y-113235289D01*
X206547419Y-113235289D02*
X206547419Y-112235289D01*
X206452181Y-112378147D01*
X206356943Y-112473385D01*
X206261705Y-112521004D01*
G04 #@! TO.C,R12*
X204571292Y-107188980D02*
X204237959Y-106712790D01*
X203999864Y-107188980D02*
X203999864Y-106188980D01*
X204380816Y-106188980D01*
X204476054Y-106236600D01*
X204523673Y-106284219D01*
X204571292Y-106379457D01*
X204571292Y-106522314D01*
X204523673Y-106617552D01*
X204476054Y-106665171D01*
X204380816Y-106712790D01*
X203999864Y-106712790D01*
X205523673Y-107188980D02*
X204952245Y-107188980D01*
X205237959Y-107188980D02*
X205237959Y-106188980D01*
X205142721Y-106331838D01*
X205047483Y-106427076D01*
X204952245Y-106474695D01*
X205904626Y-106284219D02*
X205952245Y-106236600D01*
X206047483Y-106188980D01*
X206285578Y-106188980D01*
X206380816Y-106236600D01*
X206428435Y-106284219D01*
X206476054Y-106379457D01*
X206476054Y-106474695D01*
X206428435Y-106617552D01*
X205857007Y-107188980D01*
X206476054Y-107188980D01*
G04 #@! TO.C,R7*
X204691883Y-116637780D02*
X204358550Y-116161590D01*
X204120454Y-116637780D02*
X204120454Y-115637780D01*
X204501407Y-115637780D01*
X204596645Y-115685400D01*
X204644264Y-115733019D01*
X204691883Y-115828257D01*
X204691883Y-115971114D01*
X204644264Y-116066352D01*
X204596645Y-116113971D01*
X204501407Y-116161590D01*
X204120454Y-116161590D01*
X205025216Y-115637780D02*
X205691883Y-115637780D01*
X205263311Y-116637780D01*
G04 #@! TO.C,R8*
X204602983Y-110363980D02*
X204269650Y-109887790D01*
X204031554Y-110363980D02*
X204031554Y-109363980D01*
X204412507Y-109363980D01*
X204507745Y-109411600D01*
X204555364Y-109459219D01*
X204602983Y-109554457D01*
X204602983Y-109697314D01*
X204555364Y-109792552D01*
X204507745Y-109840171D01*
X204412507Y-109887790D01*
X204031554Y-109887790D01*
X205174411Y-109792552D02*
X205079173Y-109744933D01*
X205031554Y-109697314D01*
X204983935Y-109602076D01*
X204983935Y-109554457D01*
X205031554Y-109459219D01*
X205079173Y-109411600D01*
X205174411Y-109363980D01*
X205364888Y-109363980D01*
X205460126Y-109411600D01*
X205507745Y-109459219D01*
X205555364Y-109554457D01*
X205555364Y-109602076D01*
X205507745Y-109697314D01*
X205460126Y-109744933D01*
X205364888Y-109792552D01*
X205174411Y-109792552D01*
X205079173Y-109840171D01*
X205031554Y-109887790D01*
X204983935Y-109983028D01*
X204983935Y-110173504D01*
X205031554Y-110268742D01*
X205079173Y-110316361D01*
X205174411Y-110363980D01*
X205364888Y-110363980D01*
X205460126Y-110316361D01*
X205507745Y-110268742D01*
X205555364Y-110173504D01*
X205555364Y-109983028D01*
X205507745Y-109887790D01*
X205460126Y-109840171D01*
X205364888Y-109792552D01*
G04 #@! TO.C,R15*
X204520492Y-94577880D02*
X204187159Y-94101690D01*
X203949064Y-94577880D02*
X203949064Y-93577880D01*
X204330016Y-93577880D01*
X204425254Y-93625500D01*
X204472873Y-93673119D01*
X204520492Y-93768357D01*
X204520492Y-93911214D01*
X204472873Y-94006452D01*
X204425254Y-94054071D01*
X204330016Y-94101690D01*
X203949064Y-94101690D01*
X205472873Y-94577880D02*
X204901445Y-94577880D01*
X205187159Y-94577880D02*
X205187159Y-93577880D01*
X205091921Y-93720738D01*
X204996683Y-93815976D01*
X204901445Y-93863595D01*
X206377635Y-93577880D02*
X205901445Y-93577880D01*
X205853826Y-94054071D01*
X205901445Y-94006452D01*
X205996683Y-93958833D01*
X206234778Y-93958833D01*
X206330016Y-94006452D01*
X206377635Y-94054071D01*
X206425254Y-94149309D01*
X206425254Y-94387404D01*
X206377635Y-94482642D01*
X206330016Y-94530261D01*
X206234778Y-94577880D01*
X205996683Y-94577880D01*
X205901445Y-94530261D01*
X205853826Y-94482642D01*
G04 #@! TO.C,R9*
X176459783Y-113589780D02*
X176126450Y-113113590D01*
X175888354Y-113589780D02*
X175888354Y-112589780D01*
X176269307Y-112589780D01*
X176364545Y-112637400D01*
X176412164Y-112685019D01*
X176459783Y-112780257D01*
X176459783Y-112923114D01*
X176412164Y-113018352D01*
X176364545Y-113065971D01*
X176269307Y-113113590D01*
X175888354Y-113113590D01*
X176935973Y-113589780D02*
X177126450Y-113589780D01*
X177221688Y-113542161D01*
X177269307Y-113494542D01*
X177364545Y-113351685D01*
X177412164Y-113161209D01*
X177412164Y-112780257D01*
X177364545Y-112685019D01*
X177316926Y-112637400D01*
X177221688Y-112589780D01*
X177031211Y-112589780D01*
X176935973Y-112637400D01*
X176888354Y-112685019D01*
X176840735Y-112780257D01*
X176840735Y-113018352D01*
X176888354Y-113113590D01*
X176935973Y-113161209D01*
X177031211Y-113208828D01*
X177221688Y-113208828D01*
X177316926Y-113161209D01*
X177364545Y-113113590D01*
X177412164Y-113018352D01*
G04 #@! TO.C,R10*
X175602592Y-107239780D02*
X175269259Y-106763590D01*
X175031164Y-107239780D02*
X175031164Y-106239780D01*
X175412116Y-106239780D01*
X175507354Y-106287400D01*
X175554973Y-106335019D01*
X175602592Y-106430257D01*
X175602592Y-106573114D01*
X175554973Y-106668352D01*
X175507354Y-106715971D01*
X175412116Y-106763590D01*
X175031164Y-106763590D01*
X176554973Y-107239780D02*
X175983545Y-107239780D01*
X176269259Y-107239780D02*
X176269259Y-106239780D01*
X176174021Y-106382638D01*
X176078783Y-106477876D01*
X175983545Y-106525495D01*
X177174021Y-106239780D02*
X177269259Y-106239780D01*
X177364497Y-106287400D01*
X177412116Y-106335019D01*
X177459735Y-106430257D01*
X177507354Y-106620733D01*
X177507354Y-106858828D01*
X177459735Y-107049304D01*
X177412116Y-107144542D01*
X177364497Y-107192161D01*
X177269259Y-107239780D01*
X177174021Y-107239780D01*
X177078783Y-107192161D01*
X177031164Y-107144542D01*
X176983545Y-107049304D01*
X176935926Y-106858828D01*
X176935926Y-106620733D01*
X176983545Y-106430257D01*
X177031164Y-106335019D01*
X177078783Y-106287400D01*
X177174021Y-106239780D01*
G04 #@! TO.C,R14*
X175983592Y-104191780D02*
X175650259Y-103715590D01*
X175412164Y-104191780D02*
X175412164Y-103191780D01*
X175793116Y-103191780D01*
X175888354Y-103239400D01*
X175935973Y-103287019D01*
X175983592Y-103382257D01*
X175983592Y-103525114D01*
X175935973Y-103620352D01*
X175888354Y-103667971D01*
X175793116Y-103715590D01*
X175412164Y-103715590D01*
X176935973Y-104191780D02*
X176364545Y-104191780D01*
X176650259Y-104191780D02*
X176650259Y-103191780D01*
X176555021Y-103334638D01*
X176459783Y-103429876D01*
X176364545Y-103477495D01*
X177793116Y-103525114D02*
X177793116Y-104191780D01*
X177555021Y-103144161D02*
X177316926Y-103858447D01*
X177935973Y-103858447D01*
G04 #@! TO.C,C14*
X190080592Y-114665542D02*
X190032973Y-114713161D01*
X189890116Y-114760780D01*
X189794878Y-114760780D01*
X189652021Y-114713161D01*
X189556783Y-114617923D01*
X189509164Y-114522685D01*
X189461545Y-114332209D01*
X189461545Y-114189352D01*
X189509164Y-113998876D01*
X189556783Y-113903638D01*
X189652021Y-113808400D01*
X189794878Y-113760780D01*
X189890116Y-113760780D01*
X190032973Y-113808400D01*
X190080592Y-113856019D01*
X191032973Y-114760780D02*
X190461545Y-114760780D01*
X190747259Y-114760780D02*
X190747259Y-113760780D01*
X190652021Y-113903638D01*
X190556783Y-113998876D01*
X190461545Y-114046495D01*
X191890116Y-114094114D02*
X191890116Y-114760780D01*
X191652021Y-113713161D02*
X191413926Y-114427447D01*
X192032973Y-114427447D01*
G04 #@! TO.C,U2*
X189928545Y-88164780D02*
X189928545Y-88974304D01*
X189976164Y-89069542D01*
X190023783Y-89117161D01*
X190119021Y-89164780D01*
X190309497Y-89164780D01*
X190404735Y-89117161D01*
X190452354Y-89069542D01*
X190499973Y-88974304D01*
X190499973Y-88164780D01*
X190928545Y-88260019D02*
X190976164Y-88212400D01*
X191071402Y-88164780D01*
X191309497Y-88164780D01*
X191404735Y-88212400D01*
X191452354Y-88260019D01*
X191499973Y-88355257D01*
X191499973Y-88450495D01*
X191452354Y-88593352D01*
X190880926Y-89164780D01*
X191499973Y-89164780D01*
G04 #@! TO.C,C5*
X205387841Y-129913850D02*
X205340222Y-129961469D01*
X205197365Y-130009088D01*
X205102127Y-130009088D01*
X204959269Y-129961469D01*
X204864031Y-129866231D01*
X204816412Y-129770993D01*
X204768793Y-129580517D01*
X204768793Y-129437660D01*
X204816412Y-129247184D01*
X204864031Y-129151946D01*
X204959269Y-129056708D01*
X205102127Y-129009088D01*
X205197365Y-129009088D01*
X205340222Y-129056708D01*
X205387841Y-129104327D01*
X206292603Y-129009088D02*
X205816412Y-129009088D01*
X205768793Y-129485279D01*
X205816412Y-129437660D01*
X205911650Y-129390041D01*
X206149746Y-129390041D01*
X206244984Y-129437660D01*
X206292603Y-129485279D01*
X206340222Y-129580517D01*
X206340222Y-129818612D01*
X206292603Y-129913850D01*
X206244984Y-129961469D01*
X206149746Y-130009088D01*
X205911650Y-130009088D01*
X205816412Y-129961469D01*
X205768793Y-129913850D01*
G04 #@! TO.C,C6*
X205170341Y-139184850D02*
X205122722Y-139232469D01*
X204979865Y-139280088D01*
X204884627Y-139280088D01*
X204741769Y-139232469D01*
X204646531Y-139137231D01*
X204598912Y-139041993D01*
X204551293Y-138851517D01*
X204551293Y-138708660D01*
X204598912Y-138518184D01*
X204646531Y-138422946D01*
X204741769Y-138327708D01*
X204884627Y-138280088D01*
X204979865Y-138280088D01*
X205122722Y-138327708D01*
X205170341Y-138375327D01*
X206027484Y-138280088D02*
X205837008Y-138280088D01*
X205741769Y-138327708D01*
X205694150Y-138375327D01*
X205598912Y-138518184D01*
X205551293Y-138708660D01*
X205551293Y-139089612D01*
X205598912Y-139184850D01*
X205646531Y-139232469D01*
X205741769Y-139280088D01*
X205932246Y-139280088D01*
X206027484Y-139232469D01*
X206075103Y-139184850D01*
X206122722Y-139089612D01*
X206122722Y-138851517D01*
X206075103Y-138756279D01*
X206027484Y-138708660D01*
X205932246Y-138661041D01*
X205741769Y-138661041D01*
X205646531Y-138708660D01*
X205598912Y-138756279D01*
X205551293Y-138851517D01*
G04 #@! TO.C,C7*
X205387841Y-148963850D02*
X205340222Y-149011469D01*
X205197365Y-149059088D01*
X205102127Y-149059088D01*
X204959269Y-149011469D01*
X204864031Y-148916231D01*
X204816412Y-148820993D01*
X204768793Y-148630517D01*
X204768793Y-148487660D01*
X204816412Y-148297184D01*
X204864031Y-148201946D01*
X204959269Y-148106708D01*
X205102127Y-148059088D01*
X205197365Y-148059088D01*
X205340222Y-148106708D01*
X205387841Y-148154327D01*
X205721174Y-148059088D02*
X206387841Y-148059088D01*
X205959269Y-149059088D01*
G04 #@! TO.C,C8*
X176741725Y-133560542D02*
X176694106Y-133608161D01*
X176551249Y-133655780D01*
X176456011Y-133655780D01*
X176313153Y-133608161D01*
X176217915Y-133512923D01*
X176170296Y-133417685D01*
X176122677Y-133227209D01*
X176122677Y-133084352D01*
X176170296Y-132893876D01*
X176217915Y-132798638D01*
X176313153Y-132703400D01*
X176456011Y-132655780D01*
X176551249Y-132655780D01*
X176694106Y-132703400D01*
X176741725Y-132751019D01*
X177313153Y-133084352D02*
X177217915Y-133036733D01*
X177170296Y-132989114D01*
X177122677Y-132893876D01*
X177122677Y-132846257D01*
X177170296Y-132751019D01*
X177217915Y-132703400D01*
X177313153Y-132655780D01*
X177503630Y-132655780D01*
X177598868Y-132703400D01*
X177646487Y-132751019D01*
X177694106Y-132846257D01*
X177694106Y-132893876D01*
X177646487Y-132989114D01*
X177598868Y-133036733D01*
X177503630Y-133084352D01*
X177313153Y-133084352D01*
X177217915Y-133131971D01*
X177170296Y-133179590D01*
X177122677Y-133274828D01*
X177122677Y-133465304D01*
X177170296Y-133560542D01*
X177217915Y-133608161D01*
X177313153Y-133655780D01*
X177503630Y-133655780D01*
X177598868Y-133608161D01*
X177646487Y-133560542D01*
X177694106Y-133465304D01*
X177694106Y-133274828D01*
X177646487Y-133179590D01*
X177598868Y-133131971D01*
X177503630Y-133084352D01*
G04 #@! TO.C,C9*
X176741725Y-146351234D02*
X176694106Y-146398853D01*
X176551249Y-146446472D01*
X176456011Y-146446472D01*
X176313153Y-146398853D01*
X176217915Y-146303615D01*
X176170296Y-146208377D01*
X176122677Y-146017901D01*
X176122677Y-145875044D01*
X176170296Y-145684568D01*
X176217915Y-145589330D01*
X176313153Y-145494092D01*
X176456011Y-145446472D01*
X176551249Y-145446472D01*
X176694106Y-145494092D01*
X176741725Y-145541711D01*
X177217915Y-146446472D02*
X177408392Y-146446472D01*
X177503630Y-146398853D01*
X177551249Y-146351234D01*
X177646487Y-146208377D01*
X177694106Y-146017901D01*
X177694106Y-145636949D01*
X177646487Y-145541711D01*
X177598868Y-145494092D01*
X177503630Y-145446472D01*
X177313153Y-145446472D01*
X177217915Y-145494092D01*
X177170296Y-145541711D01*
X177122677Y-145636949D01*
X177122677Y-145875044D01*
X177170296Y-145970282D01*
X177217915Y-146017901D01*
X177313153Y-146065520D01*
X177503630Y-146065520D01*
X177598868Y-146017901D01*
X177646487Y-145970282D01*
X177694106Y-145875044D01*
G04 #@! TO.C,C10*
X176364592Y-126956542D02*
X176316973Y-127004161D01*
X176174116Y-127051780D01*
X176078878Y-127051780D01*
X175936021Y-127004161D01*
X175840783Y-126908923D01*
X175793164Y-126813685D01*
X175745545Y-126623209D01*
X175745545Y-126480352D01*
X175793164Y-126289876D01*
X175840783Y-126194638D01*
X175936021Y-126099400D01*
X176078878Y-126051780D01*
X176174116Y-126051780D01*
X176316973Y-126099400D01*
X176364592Y-126147019D01*
X177316973Y-127051780D02*
X176745545Y-127051780D01*
X177031259Y-127051780D02*
X177031259Y-126051780D01*
X176936021Y-126194638D01*
X176840783Y-126289876D01*
X176745545Y-126337495D01*
X177936021Y-126051780D02*
X178031259Y-126051780D01*
X178126497Y-126099400D01*
X178174116Y-126147019D01*
X178221735Y-126242257D01*
X178269354Y-126432733D01*
X178269354Y-126670828D01*
X178221735Y-126861304D01*
X178174116Y-126956542D01*
X178126497Y-127004161D01*
X178031259Y-127051780D01*
X177936021Y-127051780D01*
X177840783Y-127004161D01*
X177793164Y-126956542D01*
X177745545Y-126861304D01*
X177697926Y-126670828D01*
X177697926Y-126432733D01*
X177745545Y-126242257D01*
X177793164Y-126147019D01*
X177840783Y-126099400D01*
X177936021Y-126051780D01*
G04 #@! TO.C,C13*
X190080592Y-127464542D02*
X190032973Y-127512161D01*
X189890116Y-127559780D01*
X189794878Y-127559780D01*
X189652021Y-127512161D01*
X189556783Y-127416923D01*
X189509164Y-127321685D01*
X189461545Y-127131209D01*
X189461545Y-126988352D01*
X189509164Y-126797876D01*
X189556783Y-126702638D01*
X189652021Y-126607400D01*
X189794878Y-126559780D01*
X189890116Y-126559780D01*
X190032973Y-126607400D01*
X190080592Y-126655019D01*
X191032973Y-127559780D02*
X190461545Y-127559780D01*
X190747259Y-127559780D02*
X190747259Y-126559780D01*
X190652021Y-126702638D01*
X190556783Y-126797876D01*
X190461545Y-126845495D01*
X191366307Y-126559780D02*
X191985354Y-126559780D01*
X191652021Y-126940733D01*
X191794878Y-126940733D01*
X191890116Y-126988352D01*
X191937735Y-127035971D01*
X191985354Y-127131209D01*
X191985354Y-127369304D01*
X191937735Y-127464542D01*
X191890116Y-127512161D01*
X191794878Y-127559780D01*
X191509164Y-127559780D01*
X191413926Y-127512161D01*
X191366307Y-127464542D01*
G04 #@! TO.C,J1*
X161380516Y-99221980D02*
X161380516Y-99936266D01*
X161332897Y-100079123D01*
X161237659Y-100174361D01*
X161094802Y-100221980D01*
X160999564Y-100221980D01*
X162380516Y-100221980D02*
X161809088Y-100221980D01*
X162094802Y-100221980D02*
X162094802Y-99221980D01*
X161999564Y-99364838D01*
X161904326Y-99460076D01*
X161809088Y-99507695D01*
G04 #@! TO.C,J2*
X161507516Y-114588980D02*
X161507516Y-115303266D01*
X161459897Y-115446123D01*
X161364659Y-115541361D01*
X161221802Y-115588980D01*
X161126564Y-115588980D01*
X161936088Y-114684219D02*
X161983707Y-114636600D01*
X162078945Y-114588980D01*
X162317040Y-114588980D01*
X162412278Y-114636600D01*
X162459897Y-114684219D01*
X162507516Y-114779457D01*
X162507516Y-114874695D01*
X162459897Y-115017552D01*
X161888469Y-115588980D01*
X162507516Y-115588980D01*
G04 #@! TO.C,J3*
X161507516Y-129955980D02*
X161507516Y-130670266D01*
X161459897Y-130813123D01*
X161364659Y-130908361D01*
X161221802Y-130955980D01*
X161126564Y-130955980D01*
X161888469Y-129955980D02*
X162507516Y-129955980D01*
X162174183Y-130336933D01*
X162317040Y-130336933D01*
X162412278Y-130384552D01*
X162459897Y-130432171D01*
X162507516Y-130527409D01*
X162507516Y-130765504D01*
X162459897Y-130860742D01*
X162412278Y-130908361D01*
X162317040Y-130955980D01*
X162031326Y-130955980D01*
X161936088Y-130908361D01*
X161888469Y-130860742D01*
G04 #@! TO.C,J4*
X161634516Y-145576980D02*
X161634516Y-146291266D01*
X161586897Y-146434123D01*
X161491659Y-146529361D01*
X161348802Y-146576980D01*
X161253564Y-146576980D01*
X162539278Y-145910314D02*
X162539278Y-146576980D01*
X162301183Y-145529361D02*
X162063088Y-146243647D01*
X162682135Y-146243647D01*
G04 #@! TO.C,J6*
X171540516Y-99221980D02*
X171540516Y-99936266D01*
X171492897Y-100079123D01*
X171397659Y-100174361D01*
X171254802Y-100221980D01*
X171159564Y-100221980D01*
X172445278Y-99221980D02*
X172254802Y-99221980D01*
X172159564Y-99269600D01*
X172111945Y-99317219D01*
X172016707Y-99460076D01*
X171969088Y-99650552D01*
X171969088Y-100031504D01*
X172016707Y-100126742D01*
X172064326Y-100174361D01*
X172159564Y-100221980D01*
X172350040Y-100221980D01*
X172445278Y-100174361D01*
X172492897Y-100126742D01*
X172540516Y-100031504D01*
X172540516Y-99793409D01*
X172492897Y-99698171D01*
X172445278Y-99650552D01*
X172350040Y-99602933D01*
X172159564Y-99602933D01*
X172064326Y-99650552D01*
X172016707Y-99698171D01*
X171969088Y-99793409D01*
G04 #@! TO.C,J7*
X171667516Y-129795980D02*
X171667516Y-130510266D01*
X171619897Y-130653123D01*
X171524659Y-130748361D01*
X171381802Y-130795980D01*
X171286564Y-130795980D01*
X172048469Y-129795980D02*
X172715135Y-129795980D01*
X172286564Y-130795980D01*
G04 #@! TO.C,J8*
X171667516Y-114588980D02*
X171667516Y-115303266D01*
X171619897Y-115446123D01*
X171524659Y-115541361D01*
X171381802Y-115588980D01*
X171286564Y-115588980D01*
X172286564Y-115017552D02*
X172191326Y-114969933D01*
X172143707Y-114922314D01*
X172096088Y-114827076D01*
X172096088Y-114779457D01*
X172143707Y-114684219D01*
X172191326Y-114636600D01*
X172286564Y-114588980D01*
X172477040Y-114588980D01*
X172572278Y-114636600D01*
X172619897Y-114684219D01*
X172667516Y-114779457D01*
X172667516Y-114827076D01*
X172619897Y-114922314D01*
X172572278Y-114969933D01*
X172477040Y-115017552D01*
X172286564Y-115017552D01*
X172191326Y-115065171D01*
X172143707Y-115112790D01*
X172096088Y-115208028D01*
X172096088Y-115398504D01*
X172143707Y-115493742D01*
X172191326Y-115541361D01*
X172286564Y-115588980D01*
X172477040Y-115588980D01*
X172572278Y-115541361D01*
X172619897Y-115493742D01*
X172667516Y-115398504D01*
X172667516Y-115208028D01*
X172619897Y-115112790D01*
X172572278Y-115065171D01*
X172477040Y-115017552D01*
G04 #@! TO.C,J9*
X171794516Y-145576980D02*
X171794516Y-146291266D01*
X171746897Y-146434123D01*
X171651659Y-146529361D01*
X171508802Y-146576980D01*
X171413564Y-146576980D01*
X172318326Y-146576980D02*
X172508802Y-146576980D01*
X172604040Y-146529361D01*
X172651659Y-146481742D01*
X172746897Y-146338885D01*
X172794516Y-146148409D01*
X172794516Y-145767457D01*
X172746897Y-145672219D01*
X172699278Y-145624600D01*
X172604040Y-145576980D01*
X172413564Y-145576980D01*
X172318326Y-145624600D01*
X172270707Y-145672219D01*
X172223088Y-145767457D01*
X172223088Y-146005552D01*
X172270707Y-146100790D01*
X172318326Y-146148409D01*
X172413564Y-146196028D01*
X172604040Y-146196028D01*
X172699278Y-146148409D01*
X172746897Y-146100790D01*
X172794516Y-146005552D01*
G04 #@! TO.C,Q1*
X212256311Y-128518619D02*
X212161073Y-128471000D01*
X212065835Y-128375761D01*
X211922978Y-128232904D01*
X211827740Y-128185285D01*
X211732502Y-128185285D01*
X211780121Y-128423380D02*
X211684883Y-128375761D01*
X211589645Y-128280523D01*
X211542026Y-128090047D01*
X211542026Y-127756714D01*
X211589645Y-127566238D01*
X211684883Y-127471000D01*
X211780121Y-127423380D01*
X211970597Y-127423380D01*
X212065835Y-127471000D01*
X212161073Y-127566238D01*
X212208692Y-127756714D01*
X212208692Y-128090047D01*
X212161073Y-128280523D01*
X212065835Y-128375761D01*
X211970597Y-128423380D01*
X211780121Y-128423380D01*
X213161073Y-128423380D02*
X212589645Y-128423380D01*
X212875359Y-128423380D02*
X212875359Y-127423380D01*
X212780121Y-127566238D01*
X212684883Y-127661476D01*
X212589645Y-127709095D01*
G04 #@! TO.C,Q2*
X212459511Y-139872419D02*
X212364273Y-139824800D01*
X212269035Y-139729561D01*
X212126178Y-139586704D01*
X212030940Y-139539085D01*
X211935702Y-139539085D01*
X211983321Y-139777180D02*
X211888083Y-139729561D01*
X211792845Y-139634323D01*
X211745226Y-139443847D01*
X211745226Y-139110514D01*
X211792845Y-138920038D01*
X211888083Y-138824800D01*
X211983321Y-138777180D01*
X212173797Y-138777180D01*
X212269035Y-138824800D01*
X212364273Y-138920038D01*
X212411892Y-139110514D01*
X212411892Y-139443847D01*
X212364273Y-139634323D01*
X212269035Y-139729561D01*
X212173797Y-139777180D01*
X211983321Y-139777180D01*
X212792845Y-138872419D02*
X212840464Y-138824800D01*
X212935702Y-138777180D01*
X213173797Y-138777180D01*
X213269035Y-138824800D01*
X213316654Y-138872419D01*
X213364273Y-138967657D01*
X213364273Y-139062895D01*
X213316654Y-139205752D01*
X212745226Y-139777180D01*
X213364273Y-139777180D01*
G04 #@! TO.C,Q3*
X218631711Y-128594819D02*
X218536473Y-128547200D01*
X218441235Y-128451961D01*
X218298378Y-128309104D01*
X218203140Y-128261485D01*
X218107902Y-128261485D01*
X218155521Y-128499580D02*
X218060283Y-128451961D01*
X217965045Y-128356723D01*
X217917426Y-128166247D01*
X217917426Y-127832914D01*
X217965045Y-127642438D01*
X218060283Y-127547200D01*
X218155521Y-127499580D01*
X218345997Y-127499580D01*
X218441235Y-127547200D01*
X218536473Y-127642438D01*
X218584092Y-127832914D01*
X218584092Y-128166247D01*
X218536473Y-128356723D01*
X218441235Y-128451961D01*
X218345997Y-128499580D01*
X218155521Y-128499580D01*
X218917426Y-127499580D02*
X219536473Y-127499580D01*
X219203140Y-127880533D01*
X219345997Y-127880533D01*
X219441235Y-127928152D01*
X219488854Y-127975771D01*
X219536473Y-128071009D01*
X219536473Y-128309104D01*
X219488854Y-128404342D01*
X219441235Y-128451961D01*
X219345997Y-128499580D01*
X219060283Y-128499580D01*
X218965045Y-128451961D01*
X218917426Y-128404342D01*
G04 #@! TO.C,Q4*
X218784111Y-139758119D02*
X218688873Y-139710500D01*
X218593635Y-139615261D01*
X218450778Y-139472404D01*
X218355540Y-139424785D01*
X218260302Y-139424785D01*
X218307921Y-139662880D02*
X218212683Y-139615261D01*
X218117445Y-139520023D01*
X218069826Y-139329547D01*
X218069826Y-138996214D01*
X218117445Y-138805738D01*
X218212683Y-138710500D01*
X218307921Y-138662880D01*
X218498397Y-138662880D01*
X218593635Y-138710500D01*
X218688873Y-138805738D01*
X218736492Y-138996214D01*
X218736492Y-139329547D01*
X218688873Y-139520023D01*
X218593635Y-139615261D01*
X218498397Y-139662880D01*
X218307921Y-139662880D01*
X219593635Y-138996214D02*
X219593635Y-139662880D01*
X219355540Y-138615261D02*
X219117445Y-139329547D01*
X219736492Y-139329547D01*
G04 #@! TO.C,R17*
X204812592Y-124003780D02*
X204479259Y-123527590D01*
X204241164Y-124003780D02*
X204241164Y-123003780D01*
X204622116Y-123003780D01*
X204717354Y-123051400D01*
X204764973Y-123099019D01*
X204812592Y-123194257D01*
X204812592Y-123337114D01*
X204764973Y-123432352D01*
X204717354Y-123479971D01*
X204622116Y-123527590D01*
X204241164Y-123527590D01*
X205764973Y-124003780D02*
X205193545Y-124003780D01*
X205479259Y-124003780D02*
X205479259Y-123003780D01*
X205384021Y-123146638D01*
X205288783Y-123241876D01*
X205193545Y-123289495D01*
X206098307Y-123003780D02*
X206764973Y-123003780D01*
X206336402Y-124003780D01*
G04 #@! TO.C,R18*
X204694150Y-133057088D02*
X204360817Y-132580898D01*
X204122722Y-133057088D02*
X204122722Y-132057088D01*
X204503674Y-132057088D01*
X204598912Y-132104708D01*
X204646531Y-132152327D01*
X204694150Y-132247565D01*
X204694150Y-132390422D01*
X204646531Y-132485660D01*
X204598912Y-132533279D01*
X204503674Y-132580898D01*
X204122722Y-132580898D01*
X205646531Y-133057088D02*
X205075103Y-133057088D01*
X205360817Y-133057088D02*
X205360817Y-132057088D01*
X205265579Y-132199946D01*
X205170341Y-132295184D01*
X205075103Y-132342803D01*
X206217960Y-132485660D02*
X206122722Y-132438041D01*
X206075103Y-132390422D01*
X206027484Y-132295184D01*
X206027484Y-132247565D01*
X206075103Y-132152327D01*
X206122722Y-132104708D01*
X206217960Y-132057088D01*
X206408436Y-132057088D01*
X206503674Y-132104708D01*
X206551293Y-132152327D01*
X206598912Y-132247565D01*
X206598912Y-132295184D01*
X206551293Y-132390422D01*
X206503674Y-132438041D01*
X206408436Y-132485660D01*
X206217960Y-132485660D01*
X206122722Y-132533279D01*
X206075103Y-132580898D01*
X206027484Y-132676136D01*
X206027484Y-132866612D01*
X206075103Y-132961850D01*
X206122722Y-133009469D01*
X206217960Y-133057088D01*
X206408436Y-133057088D01*
X206503674Y-133009469D01*
X206551293Y-132961850D01*
X206598912Y-132866612D01*
X206598912Y-132676136D01*
X206551293Y-132580898D01*
X206503674Y-132533279D01*
X206408436Y-132485660D01*
G04 #@! TO.C,R19*
X204911650Y-142582088D02*
X204578317Y-142105898D01*
X204340222Y-142582088D02*
X204340222Y-141582088D01*
X204721174Y-141582088D01*
X204816412Y-141629708D01*
X204864031Y-141677327D01*
X204911650Y-141772565D01*
X204911650Y-141915422D01*
X204864031Y-142010660D01*
X204816412Y-142058279D01*
X204721174Y-142105898D01*
X204340222Y-142105898D01*
X205864031Y-142582088D02*
X205292603Y-142582088D01*
X205578317Y-142582088D02*
X205578317Y-141582088D01*
X205483079Y-141724946D01*
X205387841Y-141820184D01*
X205292603Y-141867803D01*
X206340222Y-142582088D02*
X206530698Y-142582088D01*
X206625936Y-142534469D01*
X206673555Y-142486850D01*
X206768793Y-142343993D01*
X206816412Y-142153517D01*
X206816412Y-141772565D01*
X206768793Y-141677327D01*
X206721174Y-141629708D01*
X206625936Y-141582088D01*
X206435460Y-141582088D01*
X206340222Y-141629708D01*
X206292603Y-141677327D01*
X206244984Y-141772565D01*
X206244984Y-142010660D01*
X206292603Y-142105898D01*
X206340222Y-142153517D01*
X206435460Y-142201136D01*
X206625936Y-142201136D01*
X206721174Y-142153517D01*
X206768793Y-142105898D01*
X206816412Y-142010660D01*
G04 #@! TO.C,R20*
X204911650Y-126961088D02*
X204578317Y-126484898D01*
X204340222Y-126961088D02*
X204340222Y-125961088D01*
X204721174Y-125961088D01*
X204816412Y-126008708D01*
X204864031Y-126056327D01*
X204911650Y-126151565D01*
X204911650Y-126294422D01*
X204864031Y-126389660D01*
X204816412Y-126437279D01*
X204721174Y-126484898D01*
X204340222Y-126484898D01*
X205292603Y-126056327D02*
X205340222Y-126008708D01*
X205435460Y-125961088D01*
X205673555Y-125961088D01*
X205768793Y-126008708D01*
X205816412Y-126056327D01*
X205864031Y-126151565D01*
X205864031Y-126246803D01*
X205816412Y-126389660D01*
X205244984Y-126961088D01*
X205864031Y-126961088D01*
X206483079Y-125961088D02*
X206578317Y-125961088D01*
X206673555Y-126008708D01*
X206721174Y-126056327D01*
X206768793Y-126151565D01*
X206816412Y-126342041D01*
X206816412Y-126580136D01*
X206768793Y-126770612D01*
X206721174Y-126865850D01*
X206673555Y-126913469D01*
X206578317Y-126961088D01*
X206483079Y-126961088D01*
X206387841Y-126913469D01*
X206340222Y-126865850D01*
X206292603Y-126770612D01*
X206244984Y-126580136D01*
X206244984Y-126342041D01*
X206292603Y-126151565D01*
X206340222Y-126056327D01*
X206387841Y-126008708D01*
X206483079Y-125961088D01*
G04 #@! TO.C,R21*
X204694150Y-136105088D02*
X204360817Y-135628898D01*
X204122722Y-136105088D02*
X204122722Y-135105088D01*
X204503674Y-135105088D01*
X204598912Y-135152708D01*
X204646531Y-135200327D01*
X204694150Y-135295565D01*
X204694150Y-135438422D01*
X204646531Y-135533660D01*
X204598912Y-135581279D01*
X204503674Y-135628898D01*
X204122722Y-135628898D01*
X205075103Y-135200327D02*
X205122722Y-135152708D01*
X205217960Y-135105088D01*
X205456055Y-135105088D01*
X205551293Y-135152708D01*
X205598912Y-135200327D01*
X205646531Y-135295565D01*
X205646531Y-135390803D01*
X205598912Y-135533660D01*
X205027484Y-136105088D01*
X205646531Y-136105088D01*
X206598912Y-136105088D02*
X206027484Y-136105088D01*
X206313198Y-136105088D02*
X206313198Y-135105088D01*
X206217960Y-135247946D01*
X206122722Y-135343184D01*
X206027484Y-135390803D01*
G04 #@! TO.C,R22*
X204911650Y-145884088D02*
X204578317Y-145407898D01*
X204340222Y-145884088D02*
X204340222Y-144884088D01*
X204721174Y-144884088D01*
X204816412Y-144931708D01*
X204864031Y-144979327D01*
X204911650Y-145074565D01*
X204911650Y-145217422D01*
X204864031Y-145312660D01*
X204816412Y-145360279D01*
X204721174Y-145407898D01*
X204340222Y-145407898D01*
X205292603Y-144979327D02*
X205340222Y-144931708D01*
X205435460Y-144884088D01*
X205673555Y-144884088D01*
X205768793Y-144931708D01*
X205816412Y-144979327D01*
X205864031Y-145074565D01*
X205864031Y-145169803D01*
X205816412Y-145312660D01*
X205244984Y-145884088D01*
X205864031Y-145884088D01*
X206244984Y-144979327D02*
X206292603Y-144931708D01*
X206387841Y-144884088D01*
X206625936Y-144884088D01*
X206721174Y-144931708D01*
X206768793Y-144979327D01*
X206816412Y-145074565D01*
X206816412Y-145169803D01*
X206768793Y-145312660D01*
X206197365Y-145884088D01*
X206816412Y-145884088D01*
G04 #@! TO.C,R23*
X176265534Y-136957780D02*
X175932201Y-136481590D01*
X175694106Y-136957780D02*
X175694106Y-135957780D01*
X176075058Y-135957780D01*
X176170296Y-136005400D01*
X176217915Y-136053019D01*
X176265534Y-136148257D01*
X176265534Y-136291114D01*
X176217915Y-136386352D01*
X176170296Y-136433971D01*
X176075058Y-136481590D01*
X175694106Y-136481590D01*
X176646487Y-136053019D02*
X176694106Y-136005400D01*
X176789344Y-135957780D01*
X177027439Y-135957780D01*
X177122677Y-136005400D01*
X177170296Y-136053019D01*
X177217915Y-136148257D01*
X177217915Y-136243495D01*
X177170296Y-136386352D01*
X176598868Y-136957780D01*
X177217915Y-136957780D01*
X177551249Y-135957780D02*
X178170296Y-135957780D01*
X177836963Y-136338733D01*
X177979820Y-136338733D01*
X178075058Y-136386352D01*
X178122677Y-136433971D01*
X178170296Y-136529209D01*
X178170296Y-136767304D01*
X178122677Y-136862542D01*
X178075058Y-136910161D01*
X177979820Y-136957780D01*
X177694106Y-136957780D01*
X177598868Y-136910161D01*
X177551249Y-136862542D01*
G04 #@! TO.C,R24*
X175602592Y-140423088D02*
X175269259Y-139946898D01*
X175031164Y-140423088D02*
X175031164Y-139423088D01*
X175412116Y-139423088D01*
X175507354Y-139470708D01*
X175554973Y-139518327D01*
X175602592Y-139613565D01*
X175602592Y-139756422D01*
X175554973Y-139851660D01*
X175507354Y-139899279D01*
X175412116Y-139946898D01*
X175031164Y-139946898D01*
X175983545Y-139518327D02*
X176031164Y-139470708D01*
X176126402Y-139423088D01*
X176364497Y-139423088D01*
X176459735Y-139470708D01*
X176507354Y-139518327D01*
X176554973Y-139613565D01*
X176554973Y-139708803D01*
X176507354Y-139851660D01*
X175935926Y-140423088D01*
X176554973Y-140423088D01*
X177412116Y-139756422D02*
X177412116Y-140423088D01*
X177174021Y-139375469D02*
X176935926Y-140089755D01*
X177554973Y-140089755D01*
G04 #@! TO.C,R25*
X176364592Y-130353780D02*
X176031259Y-129877590D01*
X175793164Y-130353780D02*
X175793164Y-129353780D01*
X176174116Y-129353780D01*
X176269354Y-129401400D01*
X176316973Y-129449019D01*
X176364592Y-129544257D01*
X176364592Y-129687114D01*
X176316973Y-129782352D01*
X176269354Y-129829971D01*
X176174116Y-129877590D01*
X175793164Y-129877590D01*
X176745545Y-129449019D02*
X176793164Y-129401400D01*
X176888402Y-129353780D01*
X177126497Y-129353780D01*
X177221735Y-129401400D01*
X177269354Y-129449019D01*
X177316973Y-129544257D01*
X177316973Y-129639495D01*
X177269354Y-129782352D01*
X176697926Y-130353780D01*
X177316973Y-130353780D01*
X178221735Y-129353780D02*
X177745545Y-129353780D01*
X177697926Y-129829971D01*
X177745545Y-129782352D01*
X177840783Y-129734733D01*
X178078878Y-129734733D01*
X178174116Y-129782352D01*
X178221735Y-129829971D01*
X178269354Y-129925209D01*
X178269354Y-130163304D01*
X178221735Y-130258542D01*
X178174116Y-130306161D01*
X178078878Y-130353780D01*
X177840783Y-130353780D01*
X177745545Y-130306161D01*
X177697926Y-130258542D01*
G04 #@! TO.C,R26*
X176265534Y-143307780D02*
X175932201Y-142831590D01*
X175694106Y-143307780D02*
X175694106Y-142307780D01*
X176075058Y-142307780D01*
X176170296Y-142355400D01*
X176217915Y-142403019D01*
X176265534Y-142498257D01*
X176265534Y-142641114D01*
X176217915Y-142736352D01*
X176170296Y-142783971D01*
X176075058Y-142831590D01*
X175694106Y-142831590D01*
X176646487Y-142403019D02*
X176694106Y-142355400D01*
X176789344Y-142307780D01*
X177027439Y-142307780D01*
X177122677Y-142355400D01*
X177170296Y-142403019D01*
X177217915Y-142498257D01*
X177217915Y-142593495D01*
X177170296Y-142736352D01*
X176598868Y-143307780D01*
X177217915Y-143307780D01*
X178075058Y-142307780D02*
X177884582Y-142307780D01*
X177789344Y-142355400D01*
X177741725Y-142403019D01*
X177646487Y-142545876D01*
X177598868Y-142736352D01*
X177598868Y-143117304D01*
X177646487Y-143212542D01*
X177694106Y-143260161D01*
X177789344Y-143307780D01*
X177979820Y-143307780D01*
X178075058Y-143260161D01*
X178122677Y-143212542D01*
X178170296Y-143117304D01*
X178170296Y-142879209D01*
X178122677Y-142783971D01*
X178075058Y-142736352D01*
X177979820Y-142688733D01*
X177789344Y-142688733D01*
X177694106Y-142736352D01*
X177646487Y-142783971D01*
X177598868Y-142879209D01*
G04 #@! TO.C,R27*
X208152692Y-136208480D02*
X207819359Y-135732290D01*
X207581264Y-136208480D02*
X207581264Y-135208480D01*
X207962216Y-135208480D01*
X208057454Y-135256100D01*
X208105073Y-135303719D01*
X208152692Y-135398957D01*
X208152692Y-135541814D01*
X208105073Y-135637052D01*
X208057454Y-135684671D01*
X207962216Y-135732290D01*
X207581264Y-135732290D01*
X208533645Y-135303719D02*
X208581264Y-135256100D01*
X208676502Y-135208480D01*
X208914597Y-135208480D01*
X209009835Y-135256100D01*
X209057454Y-135303719D01*
X209105073Y-135398957D01*
X209105073Y-135494195D01*
X209057454Y-135637052D01*
X208486026Y-136208480D01*
X209105073Y-136208480D01*
X209438407Y-135208480D02*
X210105073Y-135208480D01*
X209676502Y-136208480D01*
G04 #@! TO.C,R28*
X207846292Y-147460680D02*
X207512959Y-146984490D01*
X207274864Y-147460680D02*
X207274864Y-146460680D01*
X207655816Y-146460680D01*
X207751054Y-146508300D01*
X207798673Y-146555919D01*
X207846292Y-146651157D01*
X207846292Y-146794014D01*
X207798673Y-146889252D01*
X207751054Y-146936871D01*
X207655816Y-146984490D01*
X207274864Y-146984490D01*
X208227245Y-146555919D02*
X208274864Y-146508300D01*
X208370102Y-146460680D01*
X208608197Y-146460680D01*
X208703435Y-146508300D01*
X208751054Y-146555919D01*
X208798673Y-146651157D01*
X208798673Y-146746395D01*
X208751054Y-146889252D01*
X208179626Y-147460680D01*
X208798673Y-147460680D01*
X209370102Y-146889252D02*
X209274864Y-146841633D01*
X209227245Y-146794014D01*
X209179626Y-146698776D01*
X209179626Y-146651157D01*
X209227245Y-146555919D01*
X209274864Y-146508300D01*
X209370102Y-146460680D01*
X209560578Y-146460680D01*
X209655816Y-146508300D01*
X209703435Y-146555919D01*
X209751054Y-146651157D01*
X209751054Y-146698776D01*
X209703435Y-146794014D01*
X209655816Y-146841633D01*
X209560578Y-146889252D01*
X209370102Y-146889252D01*
X209274864Y-146936871D01*
X209227245Y-146984490D01*
X209179626Y-147079728D01*
X209179626Y-147270204D01*
X209227245Y-147365442D01*
X209274864Y-147413061D01*
X209370102Y-147460680D01*
X209560578Y-147460680D01*
X209655816Y-147413061D01*
X209703435Y-147365442D01*
X209751054Y-147270204D01*
X209751054Y-147079728D01*
X209703435Y-146984490D01*
X209655816Y-146936871D01*
X209560578Y-146889252D01*
G04 #@! TO.C,R29*
X176265534Y-149530780D02*
X175932201Y-149054590D01*
X175694106Y-149530780D02*
X175694106Y-148530780D01*
X176075058Y-148530780D01*
X176170296Y-148578400D01*
X176217915Y-148626019D01*
X176265534Y-148721257D01*
X176265534Y-148864114D01*
X176217915Y-148959352D01*
X176170296Y-149006971D01*
X176075058Y-149054590D01*
X175694106Y-149054590D01*
X176646487Y-148626019D02*
X176694106Y-148578400D01*
X176789344Y-148530780D01*
X177027439Y-148530780D01*
X177122677Y-148578400D01*
X177170296Y-148626019D01*
X177217915Y-148721257D01*
X177217915Y-148816495D01*
X177170296Y-148959352D01*
X176598868Y-149530780D01*
X177217915Y-149530780D01*
X177694106Y-149530780D02*
X177884582Y-149530780D01*
X177979820Y-149483161D01*
X178027439Y-149435542D01*
X178122677Y-149292685D01*
X178170296Y-149102209D01*
X178170296Y-148721257D01*
X178122677Y-148626019D01*
X178075058Y-148578400D01*
X177979820Y-148530780D01*
X177789344Y-148530780D01*
X177694106Y-148578400D01*
X177646487Y-148626019D01*
X177598868Y-148721257D01*
X177598868Y-148959352D01*
X177646487Y-149054590D01*
X177694106Y-149102209D01*
X177789344Y-149149828D01*
X177979820Y-149149828D01*
X178075058Y-149102209D01*
X178122677Y-149054590D01*
X178170296Y-148959352D01*
G04 #@! TO.C,R30*
X176364592Y-123876780D02*
X176031259Y-123400590D01*
X175793164Y-123876780D02*
X175793164Y-122876780D01*
X176174116Y-122876780D01*
X176269354Y-122924400D01*
X176316973Y-122972019D01*
X176364592Y-123067257D01*
X176364592Y-123210114D01*
X176316973Y-123305352D01*
X176269354Y-123352971D01*
X176174116Y-123400590D01*
X175793164Y-123400590D01*
X176697926Y-122876780D02*
X177316973Y-122876780D01*
X176983640Y-123257733D01*
X177126497Y-123257733D01*
X177221735Y-123305352D01*
X177269354Y-123352971D01*
X177316973Y-123448209D01*
X177316973Y-123686304D01*
X177269354Y-123781542D01*
X177221735Y-123829161D01*
X177126497Y-123876780D01*
X176840783Y-123876780D01*
X176745545Y-123829161D01*
X176697926Y-123781542D01*
X177936021Y-122876780D02*
X178031259Y-122876780D01*
X178126497Y-122924400D01*
X178174116Y-122972019D01*
X178221735Y-123067257D01*
X178269354Y-123257733D01*
X178269354Y-123495828D01*
X178221735Y-123686304D01*
X178174116Y-123781542D01*
X178126497Y-123829161D01*
X178031259Y-123876780D01*
X177936021Y-123876780D01*
X177840783Y-123829161D01*
X177793164Y-123781542D01*
X177745545Y-123686304D01*
X177697926Y-123495828D01*
X177697926Y-123257733D01*
X177745545Y-123067257D01*
X177793164Y-122972019D01*
X177840783Y-122924400D01*
X177936021Y-122876780D01*
G04 #@! TO.C,R31*
X222340192Y-136208480D02*
X222006859Y-135732290D01*
X221768764Y-136208480D02*
X221768764Y-135208480D01*
X222149716Y-135208480D01*
X222244954Y-135256100D01*
X222292573Y-135303719D01*
X222340192Y-135398957D01*
X222340192Y-135541814D01*
X222292573Y-135637052D01*
X222244954Y-135684671D01*
X222149716Y-135732290D01*
X221768764Y-135732290D01*
X222673526Y-135208480D02*
X223292573Y-135208480D01*
X222959240Y-135589433D01*
X223102097Y-135589433D01*
X223197335Y-135637052D01*
X223244954Y-135684671D01*
X223292573Y-135779909D01*
X223292573Y-136018004D01*
X223244954Y-136113242D01*
X223197335Y-136160861D01*
X223102097Y-136208480D01*
X222816383Y-136208480D01*
X222721145Y-136160861D01*
X222673526Y-136113242D01*
X224244954Y-136208480D02*
X223673526Y-136208480D01*
X223959240Y-136208480D02*
X223959240Y-135208480D01*
X223864002Y-135351338D01*
X223768764Y-135446576D01*
X223673526Y-135494195D01*
G04 #@! TO.C,R32*
X222389392Y-147498780D02*
X222056059Y-147022590D01*
X221817964Y-147498780D02*
X221817964Y-146498780D01*
X222198916Y-146498780D01*
X222294154Y-146546400D01*
X222341773Y-146594019D01*
X222389392Y-146689257D01*
X222389392Y-146832114D01*
X222341773Y-146927352D01*
X222294154Y-146974971D01*
X222198916Y-147022590D01*
X221817964Y-147022590D01*
X222722726Y-146498780D02*
X223341773Y-146498780D01*
X223008440Y-146879733D01*
X223151297Y-146879733D01*
X223246535Y-146927352D01*
X223294154Y-146974971D01*
X223341773Y-147070209D01*
X223341773Y-147308304D01*
X223294154Y-147403542D01*
X223246535Y-147451161D01*
X223151297Y-147498780D01*
X222865583Y-147498780D01*
X222770345Y-147451161D01*
X222722726Y-147403542D01*
X223722726Y-146594019D02*
X223770345Y-146546400D01*
X223865583Y-146498780D01*
X224103678Y-146498780D01*
X224198916Y-146546400D01*
X224246535Y-146594019D01*
X224294154Y-146689257D01*
X224294154Y-146784495D01*
X224246535Y-146927352D01*
X223675107Y-147498780D01*
X224294154Y-147498780D01*
G04 #@! TO.C,SW1*
X215004116Y-80975161D02*
X215146973Y-81022780D01*
X215385069Y-81022780D01*
X215480307Y-80975161D01*
X215527926Y-80927542D01*
X215575545Y-80832304D01*
X215575545Y-80737066D01*
X215527926Y-80641828D01*
X215480307Y-80594209D01*
X215385069Y-80546590D01*
X215194592Y-80498971D01*
X215099354Y-80451352D01*
X215051735Y-80403733D01*
X215004116Y-80308495D01*
X215004116Y-80213257D01*
X215051735Y-80118019D01*
X215099354Y-80070400D01*
X215194592Y-80022780D01*
X215432688Y-80022780D01*
X215575545Y-80070400D01*
X215908878Y-80022780D02*
X216146973Y-81022780D01*
X216337450Y-80308495D01*
X216527926Y-81022780D01*
X216766021Y-80022780D01*
X217670783Y-81022780D02*
X217099354Y-81022780D01*
X217385069Y-81022780D02*
X217385069Y-80022780D01*
X217289830Y-80165638D01*
X217194592Y-80260876D01*
X217099354Y-80308495D01*
G04 #@! TO.C,SW2*
X215004116Y-97485161D02*
X215146973Y-97532780D01*
X215385069Y-97532780D01*
X215480307Y-97485161D01*
X215527926Y-97437542D01*
X215575545Y-97342304D01*
X215575545Y-97247066D01*
X215527926Y-97151828D01*
X215480307Y-97104209D01*
X215385069Y-97056590D01*
X215194592Y-97008971D01*
X215099354Y-96961352D01*
X215051735Y-96913733D01*
X215004116Y-96818495D01*
X215004116Y-96723257D01*
X215051735Y-96628019D01*
X215099354Y-96580400D01*
X215194592Y-96532780D01*
X215432688Y-96532780D01*
X215575545Y-96580400D01*
X215908878Y-96532780D02*
X216146973Y-97532780D01*
X216337450Y-96818495D01*
X216527926Y-97532780D01*
X216766021Y-96532780D01*
X217099354Y-96628019D02*
X217146973Y-96580400D01*
X217242211Y-96532780D01*
X217480307Y-96532780D01*
X217575545Y-96580400D01*
X217623164Y-96628019D01*
X217670783Y-96723257D01*
X217670783Y-96818495D01*
X217623164Y-96961352D01*
X217051735Y-97532780D01*
X217670783Y-97532780D01*
G04 #@! TO.C,SW3*
X215004116Y-113995161D02*
X215146973Y-114042780D01*
X215385069Y-114042780D01*
X215480307Y-113995161D01*
X215527926Y-113947542D01*
X215575545Y-113852304D01*
X215575545Y-113757066D01*
X215527926Y-113661828D01*
X215480307Y-113614209D01*
X215385069Y-113566590D01*
X215194592Y-113518971D01*
X215099354Y-113471352D01*
X215051735Y-113423733D01*
X215004116Y-113328495D01*
X215004116Y-113233257D01*
X215051735Y-113138019D01*
X215099354Y-113090400D01*
X215194592Y-113042780D01*
X215432688Y-113042780D01*
X215575545Y-113090400D01*
X215908878Y-113042780D02*
X216146973Y-114042780D01*
X216337450Y-113328495D01*
X216527926Y-114042780D01*
X216766021Y-113042780D01*
X217051735Y-113042780D02*
X217670783Y-113042780D01*
X217337450Y-113423733D01*
X217480307Y-113423733D01*
X217575545Y-113471352D01*
X217623164Y-113518971D01*
X217670783Y-113614209D01*
X217670783Y-113852304D01*
X217623164Y-113947542D01*
X217575545Y-113995161D01*
X217480307Y-114042780D01*
X217194592Y-114042780D01*
X217099354Y-113995161D01*
X217051735Y-113947542D01*
G04 #@! TO.C,SW4*
X210224116Y-62995161D02*
X210366973Y-63042780D01*
X210605069Y-63042780D01*
X210700307Y-62995161D01*
X210747926Y-62947542D01*
X210795545Y-62852304D01*
X210795545Y-62757066D01*
X210747926Y-62661828D01*
X210700307Y-62614209D01*
X210605069Y-62566590D01*
X210414592Y-62518971D01*
X210319354Y-62471352D01*
X210271735Y-62423733D01*
X210224116Y-62328495D01*
X210224116Y-62233257D01*
X210271735Y-62138019D01*
X210319354Y-62090400D01*
X210414592Y-62042780D01*
X210652688Y-62042780D01*
X210795545Y-62090400D01*
X211128878Y-62042780D02*
X211366973Y-63042780D01*
X211557450Y-62328495D01*
X211747926Y-63042780D01*
X211986021Y-62042780D01*
X212795545Y-62376114D02*
X212795545Y-63042780D01*
X212557450Y-61995161D02*
X212319354Y-62709447D01*
X212938402Y-62709447D01*
G04 #@! TO.C,U3*
X190215545Y-140402780D02*
X190215545Y-141212304D01*
X190263164Y-141307542D01*
X190310783Y-141355161D01*
X190406021Y-141402780D01*
X190596497Y-141402780D01*
X190691735Y-141355161D01*
X190739354Y-141307542D01*
X190786973Y-141212304D01*
X190786973Y-140402780D01*
X191167926Y-140402780D02*
X191786973Y-140402780D01*
X191453640Y-140783733D01*
X191596497Y-140783733D01*
X191691735Y-140831352D01*
X191739354Y-140878971D01*
X191786973Y-140974209D01*
X191786973Y-141212304D01*
X191739354Y-141307542D01*
X191691735Y-141355161D01*
X191596497Y-141402780D01*
X191310783Y-141402780D01*
X191215545Y-141355161D01*
X191167926Y-141307542D01*
G04 #@! TO.C,J5*
X181671480Y-57802233D02*
X182385766Y-57802233D01*
X182528623Y-57849852D01*
X182623861Y-57945090D01*
X182671480Y-58087947D01*
X182671480Y-58183185D01*
X181671480Y-56849852D02*
X181671480Y-57326042D01*
X182147671Y-57373661D01*
X182100052Y-57326042D01*
X182052433Y-57230804D01*
X182052433Y-56992709D01*
X182100052Y-56897471D01*
X182147671Y-56849852D01*
X182242909Y-56802233D01*
X182481004Y-56802233D01*
X182576242Y-56849852D01*
X182623861Y-56897471D01*
X182671480Y-56992709D01*
X182671480Y-57230804D01*
X182623861Y-57326042D01*
X182576242Y-57373661D01*
G04 #@! TO.C,REF\002A\002A*
X222236666Y-59842380D02*
X221903333Y-59366190D01*
X221665238Y-59842380D02*
X221665238Y-58842380D01*
X222046190Y-58842380D01*
X222141428Y-58890000D01*
X222189047Y-58937619D01*
X222236666Y-59032857D01*
X222236666Y-59175714D01*
X222189047Y-59270952D01*
X222141428Y-59318571D01*
X222046190Y-59366190D01*
X221665238Y-59366190D01*
X222665238Y-59318571D02*
X222998571Y-59318571D01*
X223141428Y-59842380D02*
X222665238Y-59842380D01*
X222665238Y-58842380D01*
X223141428Y-58842380D01*
X223903333Y-59318571D02*
X223570000Y-59318571D01*
X223570000Y-59842380D02*
X223570000Y-58842380D01*
X224046190Y-58842380D01*
X224570000Y-58842380D02*
X224570000Y-59080476D01*
X224331904Y-58985238D02*
X224570000Y-59080476D01*
X224808095Y-58985238D01*
X224427142Y-59270952D02*
X224570000Y-59080476D01*
X224712857Y-59270952D01*
X225331904Y-58842380D02*
X225331904Y-59080476D01*
X225093809Y-58985238D02*
X225331904Y-59080476D01*
X225570000Y-58985238D01*
X225189047Y-59270952D02*
X225331904Y-59080476D01*
X225474761Y-59270952D01*
G04 #@! TD*
M02*
