M48
;DRILL file {KiCad (5.0.0)} date 03/16/19 17:35:44
;FORMAT={-:-/ absolute / metric / decimal}
FMAT,2
METRIC,TZ
T1C0.400
T2C0.500
T3C0.750
T4C1.000
T5C1.100
T6C1.500
T7C2.650
%
G90
G05
M71
T1
X158.86Y-81.61
X173.101Y-112.382
X174.95Y-146.19
X176.047Y-114.763
X176.372Y-105.15
X176.517Y-86.411
X176.69Y-134.13
X176.746Y-143.142
X177.343Y-120.32
X182.53Y-65.01
X183.49Y-68.81
X183.617Y-88.049
X183.794Y-97.549
X184.57Y-144.56
X184.627Y-90.404
X184.937Y-131.14
X185.001Y-136.512
X185.014Y-107.201
X185.102Y-86.398
X185.11Y-65.01
X185.3Y-142.83
X185.389Y-96.246
X185.516Y-93.96
X185.897Y-101.961
X186.151Y-100.564
X186.906Y-112.852
X187.058Y-88.367
X187.363Y-141.224
X189.662Y-141.668
X189.776Y-91.084
X189.834Y-104.501
X189.834Y-107.041
X189.865Y-94.183
X190.005Y-77.419
X190.348Y-85.903
X190.525Y-137.16
X190.856Y-122.784
X190.881Y-84.163
X191.485Y-107.168
X191.618Y-148.603
X192.634Y-83.795
X193.853Y-88.621
X194.551Y-83.998
X194.691Y-115.976
X195.041Y-95.357
X195.377Y-118.173
X196.057Y-91.293
X196.278Y-89.662
X196.278Y-141.313
X196.52Y-94.336
X196.545Y-147.663
X196.825Y-104.813
X196.825Y-110.922
X196.874Y-99.603
X196.946Y-113.137
X197.04Y-137.096
X197.053Y-133.49
X197.073Y-116.185
X197.104Y-142.748
X198.145Y-143.612
X200.952Y-98.755
X201.231Y-119.405
X201.77Y-150.
X204.566Y-93.833
X204.927Y-99.898
X204.947Y-95.23
X205.05Y-130.69
X205.25Y-150.78
X205.321Y-90.399
X205.74Y-138.04
X205.963Y-92.182
X206.565Y-87.008
X207.7Y-146.65
X207.886Y-126.797
X208.31Y-136.67
X208.458Y-79.578
X208.763Y-142.138
X208.839Y-144.526
X209.017Y-133.655
X215.557Y-133.299
X216.37Y-139.014
X216.91Y-149.25
X217.42Y-133.64
X218.69Y-138.14
X219.276Y-150.
X222.2Y-138.14
T3
X217.571Y-142.22
X218.841Y-142.22
X220.111Y-142.22
X217.571Y-130.79
X218.841Y-130.79
X220.111Y-130.79
X211.221Y-142.22
X212.491Y-142.22
X213.761Y-142.22
X211.221Y-130.79
X212.491Y-130.79
X213.761Y-130.79
T4
X184.989Y-57.469
X187.529Y-57.469
X190.069Y-57.469
X192.609Y-57.469
X165.781Y-58.092
X165.781Y-60.632
X165.781Y-63.172
X165.781Y-65.712
X165.781Y-68.252
X165.781Y-70.792
X165.781Y-73.332
X165.781Y-75.872
X165.781Y-78.412
X165.781Y-80.952
X168.321Y-58.092
X168.321Y-60.632
X168.321Y-63.172
X168.321Y-65.712
X168.321Y-68.252
X168.321Y-70.792
X168.321Y-73.332
X168.321Y-75.872
X168.321Y-78.412
X168.321Y-80.952
X208.757Y-67.29
X208.757Y-69.79
X208.757Y-72.29
X223.257Y-67.29
X223.257Y-72.29
T5
X213.837Y-101.58
X213.837Y-106.58
X218.837Y-101.58
X218.837Y-106.58
X213.837Y-85.07
X213.837Y-90.07
X218.837Y-85.07
X218.837Y-90.07
X213.837Y-118.09
X213.837Y-123.09
X218.837Y-118.09
X218.837Y-123.09
T7
X178.47Y-81.02
X199.17Y-81.02
X152.37Y-56.85
X223.57Y-151.45
X223.57Y-56.85
X152.37Y-151.45
T2
X157.658Y-134.855G85X158.658Y-134.855
G05
X157.658Y-143.155G85X158.658Y-143.155
G05
X157.658Y-146.255G85X158.658Y-146.255
G05
X157.531Y-103.867G85X158.531Y-103.867
G05
X157.531Y-112.167G85X158.531Y-112.167
G05
X157.531Y-115.267G85X158.531Y-115.267
G05
X157.531Y-119.234G85X158.531Y-119.234
G05
X157.531Y-127.534G85X158.531Y-127.534
G05
X157.531Y-130.634G85X158.531Y-130.634
G05
X167.691Y-103.867G85X168.691Y-103.867
G05
X167.691Y-112.167G85X168.691Y-112.167
G05
X167.691Y-115.267G85X168.691Y-115.267
G05
X167.818Y-134.855G85X168.818Y-134.855
G05
X167.818Y-143.155G85X168.818Y-143.155
G05
X167.818Y-146.255G85X168.818Y-146.255
G05
X167.691Y-119.074G85X168.691Y-119.074
G05
X167.691Y-127.374G85X168.691Y-127.374
G05
X167.691Y-130.474G85X168.691Y-130.474
G05
X157.404Y-88.5G85X158.404Y-88.5
G05
X157.404Y-96.8G85X158.404Y-96.8
G05
X157.404Y-99.9G85X158.404Y-99.9
G05
X167.564Y-88.5G85X168.564Y-88.5
G05
X167.564Y-96.8G85X168.564Y-96.8
G05
X167.564Y-99.9G85X168.564Y-99.9
G05
T6
X215.607Y-64.19G85X216.907Y-64.19
G05
X215.607Y-75.39G85X216.907Y-75.39
G05
T0
M30
