G04 #@! TF.GenerationSoftware,KiCad,Pcbnew,(5.0.0)*
G04 #@! TF.CreationDate,2019-03-26T18:25:38-05:00*
G04 #@! TF.ProjectId,PlayerPiano,506C617965725069616E6F2E6B696361,rev?*
G04 #@! TF.SameCoordinates,Original*
G04 #@! TF.FileFunction,Soldermask,Bot*
G04 #@! TF.FilePolarity,Negative*
%FSLAX46Y46*%
G04 Gerber Fmt 4.6, Leading zero omitted, Abs format (unit mm)*
G04 Created by KiCad (PCBNEW (5.0.0)) date 03/26/19 18:25:38*
%MOMM*%
%LPD*%
G01*
G04 APERTURE LIST*
%ADD10C,4.000000*%
%ADD11C,3.400000*%
%ADD12R,2.100000X2.100000*%
%ADD13O,2.100000X2.100000*%
%ADD14C,2.000000*%
%ADD15R,2.000000X2.000000*%
%ADD16C,4.400000*%
%ADD17O,2.000000X2.000000*%
%ADD18R,3.400000X3.400000*%
G04 APERTURE END LIST*
D10*
G04 #@! TO.C,_*
X276600000Y-209040000D03*
G04 #@! TD*
G04 #@! TO.C,_*
X168500000Y-209040000D03*
G04 #@! TD*
G04 #@! TO.C,_*
X276600000Y-74910000D03*
G04 #@! TD*
G04 #@! TO.C,_*
X168500000Y-74910000D03*
G04 #@! TD*
D11*
G04 #@! TO.C,_*
X197662947Y-77014749D03*
G04 #@! TD*
G04 #@! TO.C,_*
X268862947Y-77014749D03*
G04 #@! TD*
G04 #@! TO.C,_*
X268862947Y-171614749D03*
G04 #@! TD*
D12*
G04 #@! TO.C,J5*
X211097947Y-101139749D03*
D13*
X213637947Y-101139749D03*
X211097947Y-98599749D03*
X213637947Y-98599749D03*
X211097947Y-96059749D03*
X213637947Y-96059749D03*
X211097947Y-93519749D03*
X213637947Y-93519749D03*
X211097947Y-90979749D03*
X213637947Y-90979749D03*
X211097947Y-88439749D03*
X213637947Y-88439749D03*
X211097947Y-85899749D03*
X213637947Y-85899749D03*
X211097947Y-83359749D03*
X213637947Y-83359749D03*
X211097947Y-80819749D03*
X213637947Y-80819749D03*
X211097947Y-78279749D03*
X213637947Y-78279749D03*
G04 #@! TD*
D14*
G04 #@! TO.C,U3*
X188470000Y-96350000D03*
X188470000Y-98890000D03*
X188470000Y-101430000D03*
X188470000Y-103970000D03*
X188470000Y-106510000D03*
X188470000Y-109050000D03*
X188470000Y-111590000D03*
X188470000Y-114130000D03*
X188470000Y-116670000D03*
X188470000Y-119210000D03*
X188470000Y-121750000D03*
X188470000Y-124290000D03*
X188470000Y-126830000D03*
X188470000Y-129370000D03*
X188470000Y-131910000D03*
X188470000Y-134450000D03*
D15*
X173230000Y-96350000D03*
D14*
X173230000Y-98890000D03*
X173230000Y-101430000D03*
X173230000Y-103970000D03*
X173230000Y-106510000D03*
X173230000Y-109050000D03*
X173230000Y-111590000D03*
X173230000Y-114130000D03*
X173230000Y-116670000D03*
X173230000Y-119210000D03*
X173230000Y-121750000D03*
X173230000Y-124290000D03*
X173230000Y-126830000D03*
X188470000Y-136990000D03*
X188470000Y-139530000D03*
X188470000Y-142070000D03*
X188470000Y-144610000D03*
X188470000Y-147150000D03*
X188470000Y-149690000D03*
X188470000Y-152230000D03*
X188470000Y-154770000D03*
X173230000Y-154770000D03*
X173230000Y-152230000D03*
X173230000Y-149690000D03*
X173230000Y-147150000D03*
X173230000Y-129370000D03*
X173230000Y-131910000D03*
X173230000Y-134450000D03*
X173230000Y-144610000D03*
X173230000Y-142070000D03*
X173230000Y-139530000D03*
X173230000Y-136990000D03*
G04 #@! TD*
D15*
G04 #@! TO.C,J6*
X233340000Y-204780000D03*
D14*
X236110000Y-204780000D03*
X238880000Y-204780000D03*
X241650000Y-204780000D03*
X244420000Y-204780000D03*
X234725000Y-201940000D03*
X237495000Y-201940000D03*
X240265000Y-201940000D03*
X243035000Y-201940000D03*
D16*
X251380000Y-203360000D03*
X226380000Y-203360000D03*
G04 #@! TD*
D15*
G04 #@! TO.C,J2*
X194200000Y-188170000D03*
D14*
X196970000Y-188170000D03*
X199740000Y-188170000D03*
X202510000Y-188170000D03*
X205280000Y-188170000D03*
X195585000Y-185330000D03*
X198355000Y-185330000D03*
X201125000Y-185330000D03*
X203895000Y-185330000D03*
D16*
X212240000Y-186750000D03*
X187240000Y-186750000D03*
G04 #@! TD*
G04 #@! TO.C,J3*
X187190000Y-203270000D03*
X212190000Y-203270000D03*
D14*
X203845000Y-201850000D03*
X201075000Y-201850000D03*
X198305000Y-201850000D03*
X195535000Y-201850000D03*
X205230000Y-204690000D03*
X202460000Y-204690000D03*
X199690000Y-204690000D03*
X196920000Y-204690000D03*
D15*
X194150000Y-204690000D03*
G04 #@! TD*
G04 #@! TO.C,J4*
X233390000Y-188310000D03*
D14*
X236160000Y-188310000D03*
X238930000Y-188310000D03*
X241700000Y-188310000D03*
X244470000Y-188310000D03*
X234775000Y-185470000D03*
X237545000Y-185470000D03*
X240315000Y-185470000D03*
X243085000Y-185470000D03*
D16*
X251430000Y-186890000D03*
X226430000Y-186890000D03*
G04 #@! TD*
D15*
G04 #@! TO.C,U1*
X221640000Y-162570000D03*
D17*
X214020000Y-144790000D03*
X221640000Y-160030000D03*
X214020000Y-147330000D03*
X221640000Y-157490000D03*
X214020000Y-149870000D03*
X221640000Y-154950000D03*
X214020000Y-152410000D03*
X221640000Y-152410000D03*
X214020000Y-154950000D03*
X221640000Y-149870000D03*
X214020000Y-157490000D03*
X221640000Y-147330000D03*
X214020000Y-160030000D03*
X221640000Y-144790000D03*
X214020000Y-162570000D03*
G04 #@! TD*
G04 #@! TO.C,U2*
X214020000Y-133170000D03*
X221640000Y-115390000D03*
X214020000Y-130630000D03*
X221640000Y-117930000D03*
X214020000Y-128090000D03*
X221640000Y-120470000D03*
X214020000Y-125550000D03*
X221640000Y-123010000D03*
X214020000Y-123010000D03*
X221640000Y-125550000D03*
X214020000Y-120470000D03*
X221640000Y-128090000D03*
X214020000Y-117930000D03*
X221640000Y-130630000D03*
X214020000Y-115390000D03*
D15*
X221640000Y-133170000D03*
G04 #@! TD*
D11*
G04 #@! TO.C,J1*
X250060000Y-124210000D03*
X250060000Y-129290000D03*
D18*
X250060000Y-119130000D03*
D11*
X250060000Y-134370000D03*
G04 #@! TD*
D18*
G04 #@! TO.C,J7*
X262970000Y-184110000D03*
D11*
X268050000Y-184110000D03*
G04 #@! TD*
G04 #@! TO.C,_*
X197662947Y-171614749D03*
G04 #@! TD*
D12*
G04 #@! TO.C,J8*
X173840000Y-196460000D03*
D13*
X176380000Y-196460000D03*
X173840000Y-193920000D03*
X176380000Y-193920000D03*
X173840000Y-191380000D03*
X176380000Y-191380000D03*
X173840000Y-188840000D03*
X176380000Y-188840000D03*
X173840000Y-186300000D03*
X176380000Y-186300000D03*
X173840000Y-183760000D03*
X176380000Y-183760000D03*
X173840000Y-181220000D03*
X176380000Y-181220000D03*
X173840000Y-178680000D03*
X176380000Y-178680000D03*
X173840000Y-176140000D03*
X176380000Y-176140000D03*
X173840000Y-173600000D03*
X176380000Y-173600000D03*
G04 #@! TD*
M02*
