G04 #@! TF.GenerationSoftware,KiCad,Pcbnew,(5.0.0)*
G04 #@! TF.CreationDate,2019-03-26T18:25:38-05:00*
G04 #@! TF.ProjectId,PlayerPiano,506C617965725069616E6F2E6B696361,rev?*
G04 #@! TF.SameCoordinates,Original*
G04 #@! TF.FileFunction,Soldermask,Top*
G04 #@! TF.FilePolarity,Negative*
%FSLAX46Y46*%
G04 Gerber Fmt 4.6, Leading zero omitted, Abs format (unit mm)*
G04 Created by KiCad (PCBNEW (5.0.0)) date 03/26/19 18:25:38*
%MOMM*%
%LPD*%
G01*
G04 APERTURE LIST*
%ADD10C,4.000000*%
%ADD11C,3.400000*%
%ADD12R,2.100000X2.100000*%
%ADD13O,2.100000X2.100000*%
%ADD14C,2.000000*%
%ADD15R,2.000000X2.000000*%
%ADD16C,0.100000*%
%ADD17C,1.825000*%
%ADD18C,4.400000*%
%ADD19O,2.000000X2.000000*%
%ADD20R,3.400000X3.400000*%
G04 APERTURE END LIST*
D10*
G04 #@! TO.C,_*
X276600000Y-209040000D03*
G04 #@! TD*
G04 #@! TO.C,_*
X168500000Y-209040000D03*
G04 #@! TD*
G04 #@! TO.C,_*
X276600000Y-74910000D03*
G04 #@! TD*
G04 #@! TO.C,_*
X168500000Y-74910000D03*
G04 #@! TD*
D11*
G04 #@! TO.C,_*
X197662947Y-77014749D03*
G04 #@! TD*
G04 #@! TO.C,_*
X268862947Y-77014749D03*
G04 #@! TD*
G04 #@! TO.C,_*
X268862947Y-171614749D03*
G04 #@! TD*
D12*
G04 #@! TO.C,J5*
X211097947Y-101139749D03*
D13*
X213637947Y-101139749D03*
X211097947Y-98599749D03*
X213637947Y-98599749D03*
X211097947Y-96059749D03*
X213637947Y-96059749D03*
X211097947Y-93519749D03*
X213637947Y-93519749D03*
X211097947Y-90979749D03*
X213637947Y-90979749D03*
X211097947Y-88439749D03*
X213637947Y-88439749D03*
X211097947Y-85899749D03*
X213637947Y-85899749D03*
X211097947Y-83359749D03*
X213637947Y-83359749D03*
X211097947Y-80819749D03*
X213637947Y-80819749D03*
X211097947Y-78279749D03*
X213637947Y-78279749D03*
G04 #@! TD*
D14*
G04 #@! TO.C,U3*
X188470000Y-96350000D03*
X188470000Y-98890000D03*
X188470000Y-101430000D03*
X188470000Y-103970000D03*
X188470000Y-106510000D03*
X188470000Y-109050000D03*
X188470000Y-111590000D03*
X188470000Y-114130000D03*
X188470000Y-116670000D03*
X188470000Y-119210000D03*
X188470000Y-121750000D03*
X188470000Y-124290000D03*
X188470000Y-126830000D03*
X188470000Y-129370000D03*
X188470000Y-131910000D03*
X188470000Y-134450000D03*
D15*
X173230000Y-96350000D03*
D14*
X173230000Y-98890000D03*
X173230000Y-101430000D03*
X173230000Y-103970000D03*
X173230000Y-106510000D03*
X173230000Y-109050000D03*
X173230000Y-111590000D03*
X173230000Y-114130000D03*
X173230000Y-116670000D03*
X173230000Y-119210000D03*
X173230000Y-121750000D03*
X173230000Y-124290000D03*
X173230000Y-126830000D03*
X188470000Y-136990000D03*
X188470000Y-139530000D03*
X188470000Y-142070000D03*
X188470000Y-144610000D03*
X188470000Y-147150000D03*
X188470000Y-149690000D03*
X188470000Y-152230000D03*
X188470000Y-154770000D03*
X173230000Y-154770000D03*
X173230000Y-152230000D03*
X173230000Y-149690000D03*
X173230000Y-147150000D03*
X173230000Y-129370000D03*
X173230000Y-131910000D03*
X173230000Y-134450000D03*
X173230000Y-144610000D03*
X173230000Y-142070000D03*
X173230000Y-139530000D03*
X173230000Y-136990000D03*
G04 #@! TD*
D16*
G04 #@! TO.C,C1*
G36*
X217236207Y-111256542D02*
X217267287Y-111261152D01*
X217297766Y-111268787D01*
X217327350Y-111279372D01*
X217355754Y-111292806D01*
X217382704Y-111308959D01*
X217407942Y-111327677D01*
X217431223Y-111348777D01*
X217452323Y-111372058D01*
X217471041Y-111397296D01*
X217487194Y-111424246D01*
X217500628Y-111452650D01*
X217511213Y-111482234D01*
X217518848Y-111512713D01*
X217523458Y-111543793D01*
X217525000Y-111575176D01*
X217525000Y-113084824D01*
X217523458Y-113116207D01*
X217518848Y-113147287D01*
X217511213Y-113177766D01*
X217500628Y-113207350D01*
X217487194Y-113235754D01*
X217471041Y-113262704D01*
X217452323Y-113287942D01*
X217431223Y-113311223D01*
X217407942Y-113332323D01*
X217382704Y-113351041D01*
X217355754Y-113367194D01*
X217327350Y-113380628D01*
X217297766Y-113391213D01*
X217267287Y-113398848D01*
X217236207Y-113403458D01*
X217204824Y-113405000D01*
X216020176Y-113405000D01*
X215988793Y-113403458D01*
X215957713Y-113398848D01*
X215927234Y-113391213D01*
X215897650Y-113380628D01*
X215869246Y-113367194D01*
X215842296Y-113351041D01*
X215817058Y-113332323D01*
X215793777Y-113311223D01*
X215772677Y-113287942D01*
X215753959Y-113262704D01*
X215737806Y-113235754D01*
X215724372Y-113207350D01*
X215713787Y-113177766D01*
X215706152Y-113147287D01*
X215701542Y-113116207D01*
X215700000Y-113084824D01*
X215700000Y-111575176D01*
X215701542Y-111543793D01*
X215706152Y-111512713D01*
X215713787Y-111482234D01*
X215724372Y-111452650D01*
X215737806Y-111424246D01*
X215753959Y-111397296D01*
X215772677Y-111372058D01*
X215793777Y-111348777D01*
X215817058Y-111327677D01*
X215842296Y-111308959D01*
X215869246Y-111292806D01*
X215897650Y-111279372D01*
X215927234Y-111268787D01*
X215957713Y-111261152D01*
X215988793Y-111256542D01*
X216020176Y-111255000D01*
X217204824Y-111255000D01*
X217236207Y-111256542D01*
X217236207Y-111256542D01*
G37*
D17*
X216612500Y-112330000D03*
D16*
G36*
X220211207Y-111256542D02*
X220242287Y-111261152D01*
X220272766Y-111268787D01*
X220302350Y-111279372D01*
X220330754Y-111292806D01*
X220357704Y-111308959D01*
X220382942Y-111327677D01*
X220406223Y-111348777D01*
X220427323Y-111372058D01*
X220446041Y-111397296D01*
X220462194Y-111424246D01*
X220475628Y-111452650D01*
X220486213Y-111482234D01*
X220493848Y-111512713D01*
X220498458Y-111543793D01*
X220500000Y-111575176D01*
X220500000Y-113084824D01*
X220498458Y-113116207D01*
X220493848Y-113147287D01*
X220486213Y-113177766D01*
X220475628Y-113207350D01*
X220462194Y-113235754D01*
X220446041Y-113262704D01*
X220427323Y-113287942D01*
X220406223Y-113311223D01*
X220382942Y-113332323D01*
X220357704Y-113351041D01*
X220330754Y-113367194D01*
X220302350Y-113380628D01*
X220272766Y-113391213D01*
X220242287Y-113398848D01*
X220211207Y-113403458D01*
X220179824Y-113405000D01*
X218995176Y-113405000D01*
X218963793Y-113403458D01*
X218932713Y-113398848D01*
X218902234Y-113391213D01*
X218872650Y-113380628D01*
X218844246Y-113367194D01*
X218817296Y-113351041D01*
X218792058Y-113332323D01*
X218768777Y-113311223D01*
X218747677Y-113287942D01*
X218728959Y-113262704D01*
X218712806Y-113235754D01*
X218699372Y-113207350D01*
X218688787Y-113177766D01*
X218681152Y-113147287D01*
X218676542Y-113116207D01*
X218675000Y-113084824D01*
X218675000Y-111575176D01*
X218676542Y-111543793D01*
X218681152Y-111512713D01*
X218688787Y-111482234D01*
X218699372Y-111452650D01*
X218712806Y-111424246D01*
X218728959Y-111397296D01*
X218747677Y-111372058D01*
X218768777Y-111348777D01*
X218792058Y-111327677D01*
X218817296Y-111308959D01*
X218844246Y-111292806D01*
X218872650Y-111279372D01*
X218902234Y-111268787D01*
X218932713Y-111261152D01*
X218963793Y-111256542D01*
X218995176Y-111255000D01*
X220179824Y-111255000D01*
X220211207Y-111256542D01*
X220211207Y-111256542D01*
G37*
D17*
X219587500Y-112330000D03*
G04 #@! TD*
D16*
G04 #@! TO.C,C12*
G36*
X220031207Y-140146542D02*
X220062287Y-140151152D01*
X220092766Y-140158787D01*
X220122350Y-140169372D01*
X220150754Y-140182806D01*
X220177704Y-140198959D01*
X220202942Y-140217677D01*
X220226223Y-140238777D01*
X220247323Y-140262058D01*
X220266041Y-140287296D01*
X220282194Y-140314246D01*
X220295628Y-140342650D01*
X220306213Y-140372234D01*
X220313848Y-140402713D01*
X220318458Y-140433793D01*
X220320000Y-140465176D01*
X220320000Y-141974824D01*
X220318458Y-142006207D01*
X220313848Y-142037287D01*
X220306213Y-142067766D01*
X220295628Y-142097350D01*
X220282194Y-142125754D01*
X220266041Y-142152704D01*
X220247323Y-142177942D01*
X220226223Y-142201223D01*
X220202942Y-142222323D01*
X220177704Y-142241041D01*
X220150754Y-142257194D01*
X220122350Y-142270628D01*
X220092766Y-142281213D01*
X220062287Y-142288848D01*
X220031207Y-142293458D01*
X219999824Y-142295000D01*
X218815176Y-142295000D01*
X218783793Y-142293458D01*
X218752713Y-142288848D01*
X218722234Y-142281213D01*
X218692650Y-142270628D01*
X218664246Y-142257194D01*
X218637296Y-142241041D01*
X218612058Y-142222323D01*
X218588777Y-142201223D01*
X218567677Y-142177942D01*
X218548959Y-142152704D01*
X218532806Y-142125754D01*
X218519372Y-142097350D01*
X218508787Y-142067766D01*
X218501152Y-142037287D01*
X218496542Y-142006207D01*
X218495000Y-141974824D01*
X218495000Y-140465176D01*
X218496542Y-140433793D01*
X218501152Y-140402713D01*
X218508787Y-140372234D01*
X218519372Y-140342650D01*
X218532806Y-140314246D01*
X218548959Y-140287296D01*
X218567677Y-140262058D01*
X218588777Y-140238777D01*
X218612058Y-140217677D01*
X218637296Y-140198959D01*
X218664246Y-140182806D01*
X218692650Y-140169372D01*
X218722234Y-140158787D01*
X218752713Y-140151152D01*
X218783793Y-140146542D01*
X218815176Y-140145000D01*
X219999824Y-140145000D01*
X220031207Y-140146542D01*
X220031207Y-140146542D01*
G37*
D17*
X219407500Y-141220000D03*
D16*
G36*
X217056207Y-140146542D02*
X217087287Y-140151152D01*
X217117766Y-140158787D01*
X217147350Y-140169372D01*
X217175754Y-140182806D01*
X217202704Y-140198959D01*
X217227942Y-140217677D01*
X217251223Y-140238777D01*
X217272323Y-140262058D01*
X217291041Y-140287296D01*
X217307194Y-140314246D01*
X217320628Y-140342650D01*
X217331213Y-140372234D01*
X217338848Y-140402713D01*
X217343458Y-140433793D01*
X217345000Y-140465176D01*
X217345000Y-141974824D01*
X217343458Y-142006207D01*
X217338848Y-142037287D01*
X217331213Y-142067766D01*
X217320628Y-142097350D01*
X217307194Y-142125754D01*
X217291041Y-142152704D01*
X217272323Y-142177942D01*
X217251223Y-142201223D01*
X217227942Y-142222323D01*
X217202704Y-142241041D01*
X217175754Y-142257194D01*
X217147350Y-142270628D01*
X217117766Y-142281213D01*
X217087287Y-142288848D01*
X217056207Y-142293458D01*
X217024824Y-142295000D01*
X215840176Y-142295000D01*
X215808793Y-142293458D01*
X215777713Y-142288848D01*
X215747234Y-142281213D01*
X215717650Y-142270628D01*
X215689246Y-142257194D01*
X215662296Y-142241041D01*
X215637058Y-142222323D01*
X215613777Y-142201223D01*
X215592677Y-142177942D01*
X215573959Y-142152704D01*
X215557806Y-142125754D01*
X215544372Y-142097350D01*
X215533787Y-142067766D01*
X215526152Y-142037287D01*
X215521542Y-142006207D01*
X215520000Y-141974824D01*
X215520000Y-140465176D01*
X215521542Y-140433793D01*
X215526152Y-140402713D01*
X215533787Y-140372234D01*
X215544372Y-140342650D01*
X215557806Y-140314246D01*
X215573959Y-140287296D01*
X215592677Y-140262058D01*
X215613777Y-140238777D01*
X215637058Y-140217677D01*
X215662296Y-140198959D01*
X215689246Y-140182806D01*
X215717650Y-140169372D01*
X215747234Y-140158787D01*
X215777713Y-140151152D01*
X215808793Y-140146542D01*
X215840176Y-140145000D01*
X217024824Y-140145000D01*
X217056207Y-140146542D01*
X217056207Y-140146542D01*
G37*
D17*
X216432500Y-141220000D03*
G04 #@! TD*
D16*
G04 #@! TO.C,R1*
G36*
X186051207Y-163486542D02*
X186082287Y-163491152D01*
X186112766Y-163498787D01*
X186142350Y-163509372D01*
X186170754Y-163522806D01*
X186197704Y-163538959D01*
X186222942Y-163557677D01*
X186246223Y-163578777D01*
X186267323Y-163602058D01*
X186286041Y-163627296D01*
X186302194Y-163654246D01*
X186315628Y-163682650D01*
X186326213Y-163712234D01*
X186333848Y-163742713D01*
X186338458Y-163773793D01*
X186340000Y-163805176D01*
X186340000Y-165314824D01*
X186338458Y-165346207D01*
X186333848Y-165377287D01*
X186326213Y-165407766D01*
X186315628Y-165437350D01*
X186302194Y-165465754D01*
X186286041Y-165492704D01*
X186267323Y-165517942D01*
X186246223Y-165541223D01*
X186222942Y-165562323D01*
X186197704Y-165581041D01*
X186170754Y-165597194D01*
X186142350Y-165610628D01*
X186112766Y-165621213D01*
X186082287Y-165628848D01*
X186051207Y-165633458D01*
X186019824Y-165635000D01*
X184835176Y-165635000D01*
X184803793Y-165633458D01*
X184772713Y-165628848D01*
X184742234Y-165621213D01*
X184712650Y-165610628D01*
X184684246Y-165597194D01*
X184657296Y-165581041D01*
X184632058Y-165562323D01*
X184608777Y-165541223D01*
X184587677Y-165517942D01*
X184568959Y-165492704D01*
X184552806Y-165465754D01*
X184539372Y-165437350D01*
X184528787Y-165407766D01*
X184521152Y-165377287D01*
X184516542Y-165346207D01*
X184515000Y-165314824D01*
X184515000Y-163805176D01*
X184516542Y-163773793D01*
X184521152Y-163742713D01*
X184528787Y-163712234D01*
X184539372Y-163682650D01*
X184552806Y-163654246D01*
X184568959Y-163627296D01*
X184587677Y-163602058D01*
X184608777Y-163578777D01*
X184632058Y-163557677D01*
X184657296Y-163538959D01*
X184684246Y-163522806D01*
X184712650Y-163509372D01*
X184742234Y-163498787D01*
X184772713Y-163491152D01*
X184803793Y-163486542D01*
X184835176Y-163485000D01*
X186019824Y-163485000D01*
X186051207Y-163486542D01*
X186051207Y-163486542D01*
G37*
D17*
X185427500Y-164560000D03*
D16*
G36*
X183076207Y-163486542D02*
X183107287Y-163491152D01*
X183137766Y-163498787D01*
X183167350Y-163509372D01*
X183195754Y-163522806D01*
X183222704Y-163538959D01*
X183247942Y-163557677D01*
X183271223Y-163578777D01*
X183292323Y-163602058D01*
X183311041Y-163627296D01*
X183327194Y-163654246D01*
X183340628Y-163682650D01*
X183351213Y-163712234D01*
X183358848Y-163742713D01*
X183363458Y-163773793D01*
X183365000Y-163805176D01*
X183365000Y-165314824D01*
X183363458Y-165346207D01*
X183358848Y-165377287D01*
X183351213Y-165407766D01*
X183340628Y-165437350D01*
X183327194Y-165465754D01*
X183311041Y-165492704D01*
X183292323Y-165517942D01*
X183271223Y-165541223D01*
X183247942Y-165562323D01*
X183222704Y-165581041D01*
X183195754Y-165597194D01*
X183167350Y-165610628D01*
X183137766Y-165621213D01*
X183107287Y-165628848D01*
X183076207Y-165633458D01*
X183044824Y-165635000D01*
X181860176Y-165635000D01*
X181828793Y-165633458D01*
X181797713Y-165628848D01*
X181767234Y-165621213D01*
X181737650Y-165610628D01*
X181709246Y-165597194D01*
X181682296Y-165581041D01*
X181657058Y-165562323D01*
X181633777Y-165541223D01*
X181612677Y-165517942D01*
X181593959Y-165492704D01*
X181577806Y-165465754D01*
X181564372Y-165437350D01*
X181553787Y-165407766D01*
X181546152Y-165377287D01*
X181541542Y-165346207D01*
X181540000Y-165314824D01*
X181540000Y-163805176D01*
X181541542Y-163773793D01*
X181546152Y-163742713D01*
X181553787Y-163712234D01*
X181564372Y-163682650D01*
X181577806Y-163654246D01*
X181593959Y-163627296D01*
X181612677Y-163602058D01*
X181633777Y-163578777D01*
X181657058Y-163557677D01*
X181682296Y-163538959D01*
X181709246Y-163522806D01*
X181737650Y-163509372D01*
X181767234Y-163498787D01*
X181797713Y-163491152D01*
X181828793Y-163486542D01*
X181860176Y-163485000D01*
X183044824Y-163485000D01*
X183076207Y-163486542D01*
X183076207Y-163486542D01*
G37*
D17*
X182452500Y-164560000D03*
G04 #@! TD*
D16*
G04 #@! TO.C,R2*
G36*
X183116207Y-158786542D02*
X183147287Y-158791152D01*
X183177766Y-158798787D01*
X183207350Y-158809372D01*
X183235754Y-158822806D01*
X183262704Y-158838959D01*
X183287942Y-158857677D01*
X183311223Y-158878777D01*
X183332323Y-158902058D01*
X183351041Y-158927296D01*
X183367194Y-158954246D01*
X183380628Y-158982650D01*
X183391213Y-159012234D01*
X183398848Y-159042713D01*
X183403458Y-159073793D01*
X183405000Y-159105176D01*
X183405000Y-160614824D01*
X183403458Y-160646207D01*
X183398848Y-160677287D01*
X183391213Y-160707766D01*
X183380628Y-160737350D01*
X183367194Y-160765754D01*
X183351041Y-160792704D01*
X183332323Y-160817942D01*
X183311223Y-160841223D01*
X183287942Y-160862323D01*
X183262704Y-160881041D01*
X183235754Y-160897194D01*
X183207350Y-160910628D01*
X183177766Y-160921213D01*
X183147287Y-160928848D01*
X183116207Y-160933458D01*
X183084824Y-160935000D01*
X181900176Y-160935000D01*
X181868793Y-160933458D01*
X181837713Y-160928848D01*
X181807234Y-160921213D01*
X181777650Y-160910628D01*
X181749246Y-160897194D01*
X181722296Y-160881041D01*
X181697058Y-160862323D01*
X181673777Y-160841223D01*
X181652677Y-160817942D01*
X181633959Y-160792704D01*
X181617806Y-160765754D01*
X181604372Y-160737350D01*
X181593787Y-160707766D01*
X181586152Y-160677287D01*
X181581542Y-160646207D01*
X181580000Y-160614824D01*
X181580000Y-159105176D01*
X181581542Y-159073793D01*
X181586152Y-159042713D01*
X181593787Y-159012234D01*
X181604372Y-158982650D01*
X181617806Y-158954246D01*
X181633959Y-158927296D01*
X181652677Y-158902058D01*
X181673777Y-158878777D01*
X181697058Y-158857677D01*
X181722296Y-158838959D01*
X181749246Y-158822806D01*
X181777650Y-158809372D01*
X181807234Y-158798787D01*
X181837713Y-158791152D01*
X181868793Y-158786542D01*
X181900176Y-158785000D01*
X183084824Y-158785000D01*
X183116207Y-158786542D01*
X183116207Y-158786542D01*
G37*
D17*
X182492500Y-159860000D03*
D16*
G36*
X186091207Y-158786542D02*
X186122287Y-158791152D01*
X186152766Y-158798787D01*
X186182350Y-158809372D01*
X186210754Y-158822806D01*
X186237704Y-158838959D01*
X186262942Y-158857677D01*
X186286223Y-158878777D01*
X186307323Y-158902058D01*
X186326041Y-158927296D01*
X186342194Y-158954246D01*
X186355628Y-158982650D01*
X186366213Y-159012234D01*
X186373848Y-159042713D01*
X186378458Y-159073793D01*
X186380000Y-159105176D01*
X186380000Y-160614824D01*
X186378458Y-160646207D01*
X186373848Y-160677287D01*
X186366213Y-160707766D01*
X186355628Y-160737350D01*
X186342194Y-160765754D01*
X186326041Y-160792704D01*
X186307323Y-160817942D01*
X186286223Y-160841223D01*
X186262942Y-160862323D01*
X186237704Y-160881041D01*
X186210754Y-160897194D01*
X186182350Y-160910628D01*
X186152766Y-160921213D01*
X186122287Y-160928848D01*
X186091207Y-160933458D01*
X186059824Y-160935000D01*
X184875176Y-160935000D01*
X184843793Y-160933458D01*
X184812713Y-160928848D01*
X184782234Y-160921213D01*
X184752650Y-160910628D01*
X184724246Y-160897194D01*
X184697296Y-160881041D01*
X184672058Y-160862323D01*
X184648777Y-160841223D01*
X184627677Y-160817942D01*
X184608959Y-160792704D01*
X184592806Y-160765754D01*
X184579372Y-160737350D01*
X184568787Y-160707766D01*
X184561152Y-160677287D01*
X184556542Y-160646207D01*
X184555000Y-160614824D01*
X184555000Y-159105176D01*
X184556542Y-159073793D01*
X184561152Y-159042713D01*
X184568787Y-159012234D01*
X184579372Y-158982650D01*
X184592806Y-158954246D01*
X184608959Y-158927296D01*
X184627677Y-158902058D01*
X184648777Y-158878777D01*
X184672058Y-158857677D01*
X184697296Y-158838959D01*
X184724246Y-158822806D01*
X184752650Y-158809372D01*
X184782234Y-158798787D01*
X184812713Y-158791152D01*
X184843793Y-158786542D01*
X184875176Y-158785000D01*
X186059824Y-158785000D01*
X186091207Y-158786542D01*
X186091207Y-158786542D01*
G37*
D17*
X185467500Y-159860000D03*
G04 #@! TD*
D15*
G04 #@! TO.C,J6*
X233340000Y-204780000D03*
D14*
X236110000Y-204780000D03*
X238880000Y-204780000D03*
X241650000Y-204780000D03*
X244420000Y-204780000D03*
X234725000Y-201940000D03*
X237495000Y-201940000D03*
X240265000Y-201940000D03*
X243035000Y-201940000D03*
D18*
X251380000Y-203360000D03*
X226380000Y-203360000D03*
G04 #@! TD*
D16*
G04 #@! TO.C,R3*
G36*
X193686207Y-110026542D02*
X193717287Y-110031152D01*
X193747766Y-110038787D01*
X193777350Y-110049372D01*
X193805754Y-110062806D01*
X193832704Y-110078959D01*
X193857942Y-110097677D01*
X193881223Y-110118777D01*
X193902323Y-110142058D01*
X193921041Y-110167296D01*
X193937194Y-110194246D01*
X193950628Y-110222650D01*
X193961213Y-110252234D01*
X193968848Y-110282713D01*
X193973458Y-110313793D01*
X193975000Y-110345176D01*
X193975000Y-111854824D01*
X193973458Y-111886207D01*
X193968848Y-111917287D01*
X193961213Y-111947766D01*
X193950628Y-111977350D01*
X193937194Y-112005754D01*
X193921041Y-112032704D01*
X193902323Y-112057942D01*
X193881223Y-112081223D01*
X193857942Y-112102323D01*
X193832704Y-112121041D01*
X193805754Y-112137194D01*
X193777350Y-112150628D01*
X193747766Y-112161213D01*
X193717287Y-112168848D01*
X193686207Y-112173458D01*
X193654824Y-112175000D01*
X192470176Y-112175000D01*
X192438793Y-112173458D01*
X192407713Y-112168848D01*
X192377234Y-112161213D01*
X192347650Y-112150628D01*
X192319246Y-112137194D01*
X192292296Y-112121041D01*
X192267058Y-112102323D01*
X192243777Y-112081223D01*
X192222677Y-112057942D01*
X192203959Y-112032704D01*
X192187806Y-112005754D01*
X192174372Y-111977350D01*
X192163787Y-111947766D01*
X192156152Y-111917287D01*
X192151542Y-111886207D01*
X192150000Y-111854824D01*
X192150000Y-110345176D01*
X192151542Y-110313793D01*
X192156152Y-110282713D01*
X192163787Y-110252234D01*
X192174372Y-110222650D01*
X192187806Y-110194246D01*
X192203959Y-110167296D01*
X192222677Y-110142058D01*
X192243777Y-110118777D01*
X192267058Y-110097677D01*
X192292296Y-110078959D01*
X192319246Y-110062806D01*
X192347650Y-110049372D01*
X192377234Y-110038787D01*
X192407713Y-110031152D01*
X192438793Y-110026542D01*
X192470176Y-110025000D01*
X193654824Y-110025000D01*
X193686207Y-110026542D01*
X193686207Y-110026542D01*
G37*
D17*
X193062500Y-111100000D03*
D16*
G36*
X196661207Y-110026542D02*
X196692287Y-110031152D01*
X196722766Y-110038787D01*
X196752350Y-110049372D01*
X196780754Y-110062806D01*
X196807704Y-110078959D01*
X196832942Y-110097677D01*
X196856223Y-110118777D01*
X196877323Y-110142058D01*
X196896041Y-110167296D01*
X196912194Y-110194246D01*
X196925628Y-110222650D01*
X196936213Y-110252234D01*
X196943848Y-110282713D01*
X196948458Y-110313793D01*
X196950000Y-110345176D01*
X196950000Y-111854824D01*
X196948458Y-111886207D01*
X196943848Y-111917287D01*
X196936213Y-111947766D01*
X196925628Y-111977350D01*
X196912194Y-112005754D01*
X196896041Y-112032704D01*
X196877323Y-112057942D01*
X196856223Y-112081223D01*
X196832942Y-112102323D01*
X196807704Y-112121041D01*
X196780754Y-112137194D01*
X196752350Y-112150628D01*
X196722766Y-112161213D01*
X196692287Y-112168848D01*
X196661207Y-112173458D01*
X196629824Y-112175000D01*
X195445176Y-112175000D01*
X195413793Y-112173458D01*
X195382713Y-112168848D01*
X195352234Y-112161213D01*
X195322650Y-112150628D01*
X195294246Y-112137194D01*
X195267296Y-112121041D01*
X195242058Y-112102323D01*
X195218777Y-112081223D01*
X195197677Y-112057942D01*
X195178959Y-112032704D01*
X195162806Y-112005754D01*
X195149372Y-111977350D01*
X195138787Y-111947766D01*
X195131152Y-111917287D01*
X195126542Y-111886207D01*
X195125000Y-111854824D01*
X195125000Y-110345176D01*
X195126542Y-110313793D01*
X195131152Y-110282713D01*
X195138787Y-110252234D01*
X195149372Y-110222650D01*
X195162806Y-110194246D01*
X195178959Y-110167296D01*
X195197677Y-110142058D01*
X195218777Y-110118777D01*
X195242058Y-110097677D01*
X195267296Y-110078959D01*
X195294246Y-110062806D01*
X195322650Y-110049372D01*
X195352234Y-110038787D01*
X195382713Y-110031152D01*
X195413793Y-110026542D01*
X195445176Y-110025000D01*
X196629824Y-110025000D01*
X196661207Y-110026542D01*
X196661207Y-110026542D01*
G37*
D17*
X196037500Y-111100000D03*
G04 #@! TD*
D15*
G04 #@! TO.C,J2*
X194200000Y-188170000D03*
D14*
X196970000Y-188170000D03*
X199740000Y-188170000D03*
X202510000Y-188170000D03*
X205280000Y-188170000D03*
X195585000Y-185330000D03*
X198355000Y-185330000D03*
X201125000Y-185330000D03*
X203895000Y-185330000D03*
D18*
X212240000Y-186750000D03*
X187240000Y-186750000D03*
G04 #@! TD*
G04 #@! TO.C,J3*
X187190000Y-203270000D03*
X212190000Y-203270000D03*
D14*
X203845000Y-201850000D03*
X201075000Y-201850000D03*
X198305000Y-201850000D03*
X195535000Y-201850000D03*
X205230000Y-204690000D03*
X202460000Y-204690000D03*
X199690000Y-204690000D03*
X196920000Y-204690000D03*
D15*
X194150000Y-204690000D03*
G04 #@! TD*
G04 #@! TO.C,J4*
X233390000Y-188310000D03*
D14*
X236160000Y-188310000D03*
X238930000Y-188310000D03*
X241700000Y-188310000D03*
X244470000Y-188310000D03*
X234775000Y-185470000D03*
X237545000Y-185470000D03*
X240315000Y-185470000D03*
X243085000Y-185470000D03*
D18*
X251430000Y-186890000D03*
X226430000Y-186890000D03*
G04 #@! TD*
D15*
G04 #@! TO.C,U1*
X221640000Y-162570000D03*
D19*
X214020000Y-144790000D03*
X221640000Y-160030000D03*
X214020000Y-147330000D03*
X221640000Y-157490000D03*
X214020000Y-149870000D03*
X221640000Y-154950000D03*
X214020000Y-152410000D03*
X221640000Y-152410000D03*
X214020000Y-154950000D03*
X221640000Y-149870000D03*
X214020000Y-157490000D03*
X221640000Y-147330000D03*
X214020000Y-160030000D03*
X221640000Y-144790000D03*
X214020000Y-162570000D03*
G04 #@! TD*
G04 #@! TO.C,U2*
X214020000Y-133170000D03*
X221640000Y-115390000D03*
X214020000Y-130630000D03*
X221640000Y-117930000D03*
X214020000Y-128090000D03*
X221640000Y-120470000D03*
X214020000Y-125550000D03*
X221640000Y-123010000D03*
X214020000Y-123010000D03*
X221640000Y-125550000D03*
X214020000Y-120470000D03*
X221640000Y-128090000D03*
X214020000Y-117930000D03*
X221640000Y-130630000D03*
X214020000Y-115390000D03*
D15*
X221640000Y-133170000D03*
G04 #@! TD*
D11*
G04 #@! TO.C,J1*
X250060000Y-124210000D03*
X250060000Y-129290000D03*
D20*
X250060000Y-119130000D03*
D11*
X250060000Y-134370000D03*
G04 #@! TD*
D20*
G04 #@! TO.C,J7*
X262970000Y-184110000D03*
D11*
X268050000Y-184110000D03*
G04 #@! TD*
G04 #@! TO.C,_*
X197662947Y-171614749D03*
G04 #@! TD*
D12*
G04 #@! TO.C,J8*
X173840000Y-196460000D03*
D13*
X176380000Y-196460000D03*
X173840000Y-193920000D03*
X176380000Y-193920000D03*
X173840000Y-191380000D03*
X176380000Y-191380000D03*
X173840000Y-188840000D03*
X176380000Y-188840000D03*
X173840000Y-186300000D03*
X176380000Y-186300000D03*
X173840000Y-183760000D03*
X176380000Y-183760000D03*
X173840000Y-181220000D03*
X176380000Y-181220000D03*
X173840000Y-178680000D03*
X176380000Y-178680000D03*
X173840000Y-176140000D03*
X176380000Y-176140000D03*
X173840000Y-173600000D03*
X176380000Y-173600000D03*
G04 #@! TD*
M02*
