G04 #@! TF.GenerationSoftware,KiCad,Pcbnew,(5.0.0)*
G04 #@! TF.CreationDate,2019-03-26T18:25:38-05:00*
G04 #@! TF.ProjectId,PlayerPiano,506C617965725069616E6F2E6B696361,rev?*
G04 #@! TF.SameCoordinates,Original*
G04 #@! TF.FileFunction,Copper,L1,Top,Signal*
G04 #@! TF.FilePolarity,Positive*
%FSLAX46Y46*%
G04 Gerber Fmt 4.6, Leading zero omitted, Abs format (unit mm)*
G04 Created by KiCad (PCBNEW (5.0.0)) date 03/26/19 18:25:38*
%MOMM*%
%LPD*%
G01*
G04 APERTURE LIST*
G04 #@! TA.AperFunction,ComponentPad*
%ADD10C,3.600000*%
G04 #@! TD*
G04 #@! TA.AperFunction,ComponentPad*
%ADD11C,3.000000*%
G04 #@! TD*
G04 #@! TA.AperFunction,ComponentPad*
%ADD12R,1.700000X1.700000*%
G04 #@! TD*
G04 #@! TA.AperFunction,ComponentPad*
%ADD13O,1.700000X1.700000*%
G04 #@! TD*
G04 #@! TA.AperFunction,ComponentPad*
%ADD14C,1.600000*%
G04 #@! TD*
G04 #@! TA.AperFunction,ComponentPad*
%ADD15R,1.600000X1.600000*%
G04 #@! TD*
G04 #@! TA.AperFunction,Conductor*
%ADD16C,0.100000*%
G04 #@! TD*
G04 #@! TA.AperFunction,SMDPad,CuDef*
%ADD17C,1.425000*%
G04 #@! TD*
G04 #@! TA.AperFunction,ComponentPad*
%ADD18C,4.000000*%
G04 #@! TD*
G04 #@! TA.AperFunction,ComponentPad*
%ADD19O,1.600000X1.600000*%
G04 #@! TD*
G04 #@! TA.AperFunction,ComponentPad*
%ADD20R,3.000000X3.000000*%
G04 #@! TD*
G04 #@! TA.AperFunction,ViaPad*
%ADD21C,0.800000*%
G04 #@! TD*
G04 #@! TA.AperFunction,Conductor*
%ADD22C,0.250000*%
G04 #@! TD*
G04 #@! TA.AperFunction,Conductor*
%ADD23C,0.520000*%
G04 #@! TD*
G04 #@! TA.AperFunction,Conductor*
%ADD24C,10.331000*%
G04 #@! TD*
G04 APERTURE END LIST*
D10*
G04 #@! TO.P,_,1*
G04 #@! TO.N,N/C*
X276600000Y-209040000D03*
G04 #@! TD*
G04 #@! TO.P,_,1*
G04 #@! TO.N,N/C*
X168500000Y-209040000D03*
G04 #@! TD*
G04 #@! TO.P,_,1*
G04 #@! TO.N,N/C*
X276600000Y-74910000D03*
G04 #@! TD*
G04 #@! TO.P,_,1*
G04 #@! TO.N,N/C*
X168500000Y-74910000D03*
G04 #@! TD*
D11*
G04 #@! TO.P,_,1*
G04 #@! TO.N,N/C*
X197662947Y-77014749D03*
G04 #@! TD*
G04 #@! TO.P,_,1*
G04 #@! TO.N,N/C*
X268862947Y-77014749D03*
G04 #@! TD*
G04 #@! TO.P,_,1*
G04 #@! TO.N,N/C*
X268862947Y-171614749D03*
G04 #@! TD*
D12*
G04 #@! TO.P,J5,1*
G04 #@! TO.N,/+3V3*
X211097947Y-101139749D03*
D13*
G04 #@! TO.P,J5,2*
G04 #@! TO.N,Gate_A*
X213637947Y-101139749D03*
G04 #@! TO.P,J5,3*
G04 #@! TO.N,Gate_B*
X211097947Y-98599749D03*
G04 #@! TO.P,J5,4*
G04 #@! TO.N,Gate_C*
X213637947Y-98599749D03*
G04 #@! TO.P,J5,5*
G04 #@! TO.N,Gate_D*
X211097947Y-96059749D03*
G04 #@! TO.P,J5,6*
G04 #@! TO.N,PITCH_A*
X213637947Y-96059749D03*
G04 #@! TO.P,J5,7*
G04 #@! TO.N,PITCH_B*
X211097947Y-93519749D03*
G04 #@! TO.P,J5,8*
G04 #@! TO.N,PITCH_C*
X213637947Y-93519749D03*
G04 #@! TO.P,J5,9*
G04 #@! TO.N,PITCH_D*
X211097947Y-90979749D03*
G04 #@! TO.P,J5,10*
G04 #@! TO.N,/-12V*
X213637947Y-90979749D03*
G04 #@! TO.P,J5,11*
G04 #@! TO.N,/GND*
X211097947Y-88439749D03*
G04 #@! TO.P,J5,12*
G04 #@! TO.N,SDA_Display*
X213637947Y-88439749D03*
G04 #@! TO.P,J5,13*
G04 #@! TO.N,SCL_Display*
X211097947Y-85899749D03*
G04 #@! TO.P,J5,14*
G04 #@! TO.N,Midi_loop*
X213637947Y-85899749D03*
G04 #@! TO.P,J5,15*
G04 #@! TO.N,Midi_Stop*
X211097947Y-83359749D03*
G04 #@! TO.P,J5,16*
G04 #@! TO.N,Midi_Play_Pause*
X213637947Y-83359749D03*
G04 #@! TO.P,J5,17*
G04 #@! TO.N,Enc_SW*
X211097947Y-80819749D03*
G04 #@! TO.P,J5,18*
G04 #@! TO.N,Enc_B*
X213637947Y-80819749D03*
G04 #@! TO.P,J5,19*
G04 #@! TO.N,Enc_A*
X211097947Y-78279749D03*
G04 #@! TO.P,J5,20*
G04 #@! TO.N,/+12V*
X213637947Y-78279749D03*
G04 #@! TD*
D14*
G04 #@! TO.P,U3,53*
G04 #@! TO.N,/+5V*
X188470000Y-96350000D03*
G04 #@! TO.P,U3,52*
G04 #@! TO.N,/GND*
X188470000Y-98890000D03*
G04 #@! TO.P,U3,51*
G04 #@! TO.N,/+3V3*
X188470000Y-101430000D03*
G04 #@! TO.P,U3,50*
G04 #@! TO.N,PITCH_D*
X188470000Y-103970000D03*
G04 #@! TO.P,U3,49*
G04 #@! TO.N,PITCH_C*
X188470000Y-106510000D03*
G04 #@! TO.P,U3,48*
G04 #@! TO.N,PITCH_B*
X188470000Y-109050000D03*
G04 #@! TO.P,U3,47*
G04 #@! TO.N,PITCH_A*
X188470000Y-111590000D03*
G04 #@! TO.P,U3,46*
G04 #@! TO.N,Net-(J8-Pad1)*
X188470000Y-114130000D03*
G04 #@! TO.P,U3,45*
G04 #@! TO.N,Net-(J8-Pad2)*
X188470000Y-116670000D03*
G04 #@! TO.P,U3,44*
G04 #@! TO.N,Net-(J8-Pad3)*
X188470000Y-119210000D03*
G04 #@! TO.P,U3,43*
G04 #@! TO.N,Net-(J8-Pad4)*
X188470000Y-121750000D03*
G04 #@! TO.P,U3,42*
G04 #@! TO.N,Net-(J8-Pad5)*
X188470000Y-124290000D03*
G04 #@! TO.P,U3,41*
G04 #@! TO.N,Net-(J8-Pad6)*
X188470000Y-126830000D03*
G04 #@! TO.P,U3,40*
G04 #@! TO.N,Net-(J8-Pad7)*
X188470000Y-129370000D03*
G04 #@! TO.P,U3,39*
G04 #@! TO.N,Net-(J8-Pad8)*
X188470000Y-131910000D03*
G04 #@! TO.P,U3,38*
G04 #@! TO.N,Net-(J8-Pad9)*
X188470000Y-134450000D03*
D15*
G04 #@! TO.P,U3,1*
G04 #@! TO.N,/GND*
X173230000Y-96350000D03*
D14*
G04 #@! TO.P,U3,2*
G04 #@! TO.N,Enc_A*
X173230000Y-98890000D03*
G04 #@! TO.P,U3,3*
G04 #@! TO.N,Enc_SW*
X173230000Y-101430000D03*
G04 #@! TO.P,U3,4*
G04 #@! TO.N,Midi_Stop*
X173230000Y-103970000D03*
G04 #@! TO.P,U3,5*
G04 #@! TO.N,SCL_Display*
X173230000Y-106510000D03*
G04 #@! TO.P,U3,6*
G04 #@! TO.N,SDA_Display*
X173230000Y-109050000D03*
G04 #@! TO.P,U3,7*
G04 #@! TO.N,Gate_D*
X173230000Y-111590000D03*
G04 #@! TO.P,U3,8*
G04 #@! TO.N,Gate_B*
X173230000Y-114130000D03*
G04 #@! TO.P,U3,9*
G04 #@! TO.N,Gate_A*
X173230000Y-116670000D03*
G04 #@! TO.P,U3,10*
G04 #@! TO.N,Gate_C*
X173230000Y-119210000D03*
G04 #@! TO.P,U3,11*
G04 #@! TO.N,Enc_B*
X173230000Y-121750000D03*
G04 #@! TO.P,U3,12*
G04 #@! TO.N,Midi_Play_Pause*
X173230000Y-124290000D03*
G04 #@! TO.P,U3,13*
G04 #@! TO.N,Midi_loop*
X173230000Y-126830000D03*
G04 #@! TO.P,U3,37*
G04 #@! TO.N,Net-(J8-Pad10)*
X188470000Y-136990000D03*
G04 #@! TO.P,U3,36*
G04 #@! TO.N,Net-(J8-Pad11)*
X188470000Y-139530000D03*
G04 #@! TO.P,U3,35*
G04 #@! TO.N,Net-(J8-Pad12)*
X188470000Y-142070000D03*
G04 #@! TO.P,U3,34*
G04 #@! TO.N,Net-(J8-Pad13)*
X188470000Y-144610000D03*
G04 #@! TO.P,U3,33*
G04 #@! TO.N,Net-(J8-Pad14)*
X188470000Y-147150000D03*
G04 #@! TO.P,U3,32*
G04 #@! TO.N,Net-(J8-Pad15)*
X188470000Y-149690000D03*
G04 #@! TO.P,U3,31*
G04 #@! TO.N,Net-(J8-Pad16)*
X188470000Y-152230000D03*
G04 #@! TO.P,U3,30*
G04 #@! TO.N,Net-(J8-Pad17)*
X188470000Y-154770000D03*
G04 #@! TO.P,U3,24*
G04 #@! TO.N,SRSEL_CLK*
X173230000Y-154770000D03*
G04 #@! TO.P,U3,23*
G04 #@! TO.N,SRSEL_LATCH_A*
X173230000Y-152230000D03*
G04 #@! TO.P,U3,22*
G04 #@! TO.N,SRSEL_LATCH_B*
X173230000Y-149690000D03*
G04 #@! TO.P,U3,21*
G04 #@! TO.N,SRSEL_ENABLE*
X173230000Y-147150000D03*
G04 #@! TO.P,U3,14*
G04 #@! TO.N,FAULT*
X173230000Y-129370000D03*
G04 #@! TO.P,U3,15*
G04 #@! TO.N,xtra_3V3*
X173230000Y-131910000D03*
G04 #@! TO.P,U3,16*
G04 #@! TO.N,RESET*
X173230000Y-134450000D03*
G04 #@! TO.P,U3,20*
G04 #@! TO.N,SRSEL_DATA*
X173230000Y-144610000D03*
G04 #@! TO.P,U3,19*
G04 #@! TO.N,SER_DATA*
X173230000Y-142070000D03*
G04 #@! TO.P,U3,18*
G04 #@! TO.N,SER_CLK*
X173230000Y-139530000D03*
G04 #@! TO.P,U3,17*
G04 #@! TO.N,nENBL*
X173230000Y-136990000D03*
G04 #@! TD*
D16*
G04 #@! TO.N,/+3V3*
G04 #@! TO.C,C1*
G36*
X217099504Y-111456204D02*
X217123773Y-111459804D01*
X217147571Y-111465765D01*
X217170671Y-111474030D01*
X217192849Y-111484520D01*
X217213893Y-111497133D01*
X217233598Y-111511747D01*
X217251777Y-111528223D01*
X217268253Y-111546402D01*
X217282867Y-111566107D01*
X217295480Y-111587151D01*
X217305970Y-111609329D01*
X217314235Y-111632429D01*
X217320196Y-111656227D01*
X217323796Y-111680496D01*
X217325000Y-111705000D01*
X217325000Y-112955000D01*
X217323796Y-112979504D01*
X217320196Y-113003773D01*
X217314235Y-113027571D01*
X217305970Y-113050671D01*
X217295480Y-113072849D01*
X217282867Y-113093893D01*
X217268253Y-113113598D01*
X217251777Y-113131777D01*
X217233598Y-113148253D01*
X217213893Y-113162867D01*
X217192849Y-113175480D01*
X217170671Y-113185970D01*
X217147571Y-113194235D01*
X217123773Y-113200196D01*
X217099504Y-113203796D01*
X217075000Y-113205000D01*
X216150000Y-113205000D01*
X216125496Y-113203796D01*
X216101227Y-113200196D01*
X216077429Y-113194235D01*
X216054329Y-113185970D01*
X216032151Y-113175480D01*
X216011107Y-113162867D01*
X215991402Y-113148253D01*
X215973223Y-113131777D01*
X215956747Y-113113598D01*
X215942133Y-113093893D01*
X215929520Y-113072849D01*
X215919030Y-113050671D01*
X215910765Y-113027571D01*
X215904804Y-113003773D01*
X215901204Y-112979504D01*
X215900000Y-112955000D01*
X215900000Y-111705000D01*
X215901204Y-111680496D01*
X215904804Y-111656227D01*
X215910765Y-111632429D01*
X215919030Y-111609329D01*
X215929520Y-111587151D01*
X215942133Y-111566107D01*
X215956747Y-111546402D01*
X215973223Y-111528223D01*
X215991402Y-111511747D01*
X216011107Y-111497133D01*
X216032151Y-111484520D01*
X216054329Y-111474030D01*
X216077429Y-111465765D01*
X216101227Y-111459804D01*
X216125496Y-111456204D01*
X216150000Y-111455000D01*
X217075000Y-111455000D01*
X217099504Y-111456204D01*
X217099504Y-111456204D01*
G37*
D17*
G04 #@! TD*
G04 #@! TO.P,C1,1*
G04 #@! TO.N,/+3V3*
X216612500Y-112330000D03*
D16*
G04 #@! TO.N,/GND*
G04 #@! TO.C,C1*
G36*
X220074504Y-111456204D02*
X220098773Y-111459804D01*
X220122571Y-111465765D01*
X220145671Y-111474030D01*
X220167849Y-111484520D01*
X220188893Y-111497133D01*
X220208598Y-111511747D01*
X220226777Y-111528223D01*
X220243253Y-111546402D01*
X220257867Y-111566107D01*
X220270480Y-111587151D01*
X220280970Y-111609329D01*
X220289235Y-111632429D01*
X220295196Y-111656227D01*
X220298796Y-111680496D01*
X220300000Y-111705000D01*
X220300000Y-112955000D01*
X220298796Y-112979504D01*
X220295196Y-113003773D01*
X220289235Y-113027571D01*
X220280970Y-113050671D01*
X220270480Y-113072849D01*
X220257867Y-113093893D01*
X220243253Y-113113598D01*
X220226777Y-113131777D01*
X220208598Y-113148253D01*
X220188893Y-113162867D01*
X220167849Y-113175480D01*
X220145671Y-113185970D01*
X220122571Y-113194235D01*
X220098773Y-113200196D01*
X220074504Y-113203796D01*
X220050000Y-113205000D01*
X219125000Y-113205000D01*
X219100496Y-113203796D01*
X219076227Y-113200196D01*
X219052429Y-113194235D01*
X219029329Y-113185970D01*
X219007151Y-113175480D01*
X218986107Y-113162867D01*
X218966402Y-113148253D01*
X218948223Y-113131777D01*
X218931747Y-113113598D01*
X218917133Y-113093893D01*
X218904520Y-113072849D01*
X218894030Y-113050671D01*
X218885765Y-113027571D01*
X218879804Y-113003773D01*
X218876204Y-112979504D01*
X218875000Y-112955000D01*
X218875000Y-111705000D01*
X218876204Y-111680496D01*
X218879804Y-111656227D01*
X218885765Y-111632429D01*
X218894030Y-111609329D01*
X218904520Y-111587151D01*
X218917133Y-111566107D01*
X218931747Y-111546402D01*
X218948223Y-111528223D01*
X218966402Y-111511747D01*
X218986107Y-111497133D01*
X219007151Y-111484520D01*
X219029329Y-111474030D01*
X219052429Y-111465765D01*
X219076227Y-111459804D01*
X219100496Y-111456204D01*
X219125000Y-111455000D01*
X220050000Y-111455000D01*
X220074504Y-111456204D01*
X220074504Y-111456204D01*
G37*
D17*
G04 #@! TD*
G04 #@! TO.P,C1,2*
G04 #@! TO.N,/GND*
X219587500Y-112330000D03*
D16*
G04 #@! TO.N,/GND*
G04 #@! TO.C,C12*
G36*
X219894504Y-140346204D02*
X219918773Y-140349804D01*
X219942571Y-140355765D01*
X219965671Y-140364030D01*
X219987849Y-140374520D01*
X220008893Y-140387133D01*
X220028598Y-140401747D01*
X220046777Y-140418223D01*
X220063253Y-140436402D01*
X220077867Y-140456107D01*
X220090480Y-140477151D01*
X220100970Y-140499329D01*
X220109235Y-140522429D01*
X220115196Y-140546227D01*
X220118796Y-140570496D01*
X220120000Y-140595000D01*
X220120000Y-141845000D01*
X220118796Y-141869504D01*
X220115196Y-141893773D01*
X220109235Y-141917571D01*
X220100970Y-141940671D01*
X220090480Y-141962849D01*
X220077867Y-141983893D01*
X220063253Y-142003598D01*
X220046777Y-142021777D01*
X220028598Y-142038253D01*
X220008893Y-142052867D01*
X219987849Y-142065480D01*
X219965671Y-142075970D01*
X219942571Y-142084235D01*
X219918773Y-142090196D01*
X219894504Y-142093796D01*
X219870000Y-142095000D01*
X218945000Y-142095000D01*
X218920496Y-142093796D01*
X218896227Y-142090196D01*
X218872429Y-142084235D01*
X218849329Y-142075970D01*
X218827151Y-142065480D01*
X218806107Y-142052867D01*
X218786402Y-142038253D01*
X218768223Y-142021777D01*
X218751747Y-142003598D01*
X218737133Y-141983893D01*
X218724520Y-141962849D01*
X218714030Y-141940671D01*
X218705765Y-141917571D01*
X218699804Y-141893773D01*
X218696204Y-141869504D01*
X218695000Y-141845000D01*
X218695000Y-140595000D01*
X218696204Y-140570496D01*
X218699804Y-140546227D01*
X218705765Y-140522429D01*
X218714030Y-140499329D01*
X218724520Y-140477151D01*
X218737133Y-140456107D01*
X218751747Y-140436402D01*
X218768223Y-140418223D01*
X218786402Y-140401747D01*
X218806107Y-140387133D01*
X218827151Y-140374520D01*
X218849329Y-140364030D01*
X218872429Y-140355765D01*
X218896227Y-140349804D01*
X218920496Y-140346204D01*
X218945000Y-140345000D01*
X219870000Y-140345000D01*
X219894504Y-140346204D01*
X219894504Y-140346204D01*
G37*
D17*
G04 #@! TD*
G04 #@! TO.P,C12,2*
G04 #@! TO.N,/GND*
X219407500Y-141220000D03*
D16*
G04 #@! TO.N,/+3V3*
G04 #@! TO.C,C12*
G36*
X216919504Y-140346204D02*
X216943773Y-140349804D01*
X216967571Y-140355765D01*
X216990671Y-140364030D01*
X217012849Y-140374520D01*
X217033893Y-140387133D01*
X217053598Y-140401747D01*
X217071777Y-140418223D01*
X217088253Y-140436402D01*
X217102867Y-140456107D01*
X217115480Y-140477151D01*
X217125970Y-140499329D01*
X217134235Y-140522429D01*
X217140196Y-140546227D01*
X217143796Y-140570496D01*
X217145000Y-140595000D01*
X217145000Y-141845000D01*
X217143796Y-141869504D01*
X217140196Y-141893773D01*
X217134235Y-141917571D01*
X217125970Y-141940671D01*
X217115480Y-141962849D01*
X217102867Y-141983893D01*
X217088253Y-142003598D01*
X217071777Y-142021777D01*
X217053598Y-142038253D01*
X217033893Y-142052867D01*
X217012849Y-142065480D01*
X216990671Y-142075970D01*
X216967571Y-142084235D01*
X216943773Y-142090196D01*
X216919504Y-142093796D01*
X216895000Y-142095000D01*
X215970000Y-142095000D01*
X215945496Y-142093796D01*
X215921227Y-142090196D01*
X215897429Y-142084235D01*
X215874329Y-142075970D01*
X215852151Y-142065480D01*
X215831107Y-142052867D01*
X215811402Y-142038253D01*
X215793223Y-142021777D01*
X215776747Y-142003598D01*
X215762133Y-141983893D01*
X215749520Y-141962849D01*
X215739030Y-141940671D01*
X215730765Y-141917571D01*
X215724804Y-141893773D01*
X215721204Y-141869504D01*
X215720000Y-141845000D01*
X215720000Y-140595000D01*
X215721204Y-140570496D01*
X215724804Y-140546227D01*
X215730765Y-140522429D01*
X215739030Y-140499329D01*
X215749520Y-140477151D01*
X215762133Y-140456107D01*
X215776747Y-140436402D01*
X215793223Y-140418223D01*
X215811402Y-140401747D01*
X215831107Y-140387133D01*
X215852151Y-140374520D01*
X215874329Y-140364030D01*
X215897429Y-140355765D01*
X215921227Y-140349804D01*
X215945496Y-140346204D01*
X215970000Y-140345000D01*
X216895000Y-140345000D01*
X216919504Y-140346204D01*
X216919504Y-140346204D01*
G37*
D17*
G04 #@! TD*
G04 #@! TO.P,C12,1*
G04 #@! TO.N,/+3V3*
X216432500Y-141220000D03*
D16*
G04 #@! TO.N,/+3V3*
G04 #@! TO.C,R1*
G36*
X185914504Y-163686204D02*
X185938773Y-163689804D01*
X185962571Y-163695765D01*
X185985671Y-163704030D01*
X186007849Y-163714520D01*
X186028893Y-163727133D01*
X186048598Y-163741747D01*
X186066777Y-163758223D01*
X186083253Y-163776402D01*
X186097867Y-163796107D01*
X186110480Y-163817151D01*
X186120970Y-163839329D01*
X186129235Y-163862429D01*
X186135196Y-163886227D01*
X186138796Y-163910496D01*
X186140000Y-163935000D01*
X186140000Y-165185000D01*
X186138796Y-165209504D01*
X186135196Y-165233773D01*
X186129235Y-165257571D01*
X186120970Y-165280671D01*
X186110480Y-165302849D01*
X186097867Y-165323893D01*
X186083253Y-165343598D01*
X186066777Y-165361777D01*
X186048598Y-165378253D01*
X186028893Y-165392867D01*
X186007849Y-165405480D01*
X185985671Y-165415970D01*
X185962571Y-165424235D01*
X185938773Y-165430196D01*
X185914504Y-165433796D01*
X185890000Y-165435000D01*
X184965000Y-165435000D01*
X184940496Y-165433796D01*
X184916227Y-165430196D01*
X184892429Y-165424235D01*
X184869329Y-165415970D01*
X184847151Y-165405480D01*
X184826107Y-165392867D01*
X184806402Y-165378253D01*
X184788223Y-165361777D01*
X184771747Y-165343598D01*
X184757133Y-165323893D01*
X184744520Y-165302849D01*
X184734030Y-165280671D01*
X184725765Y-165257571D01*
X184719804Y-165233773D01*
X184716204Y-165209504D01*
X184715000Y-165185000D01*
X184715000Y-163935000D01*
X184716204Y-163910496D01*
X184719804Y-163886227D01*
X184725765Y-163862429D01*
X184734030Y-163839329D01*
X184744520Y-163817151D01*
X184757133Y-163796107D01*
X184771747Y-163776402D01*
X184788223Y-163758223D01*
X184806402Y-163741747D01*
X184826107Y-163727133D01*
X184847151Y-163714520D01*
X184869329Y-163704030D01*
X184892429Y-163695765D01*
X184916227Y-163689804D01*
X184940496Y-163686204D01*
X184965000Y-163685000D01*
X185890000Y-163685000D01*
X185914504Y-163686204D01*
X185914504Y-163686204D01*
G37*
D17*
G04 #@! TD*
G04 #@! TO.P,R1,2*
G04 #@! TO.N,/+3V3*
X185427500Y-164560000D03*
D16*
G04 #@! TO.N,SRSEL_ENABLE*
G04 #@! TO.C,R1*
G36*
X182939504Y-163686204D02*
X182963773Y-163689804D01*
X182987571Y-163695765D01*
X183010671Y-163704030D01*
X183032849Y-163714520D01*
X183053893Y-163727133D01*
X183073598Y-163741747D01*
X183091777Y-163758223D01*
X183108253Y-163776402D01*
X183122867Y-163796107D01*
X183135480Y-163817151D01*
X183145970Y-163839329D01*
X183154235Y-163862429D01*
X183160196Y-163886227D01*
X183163796Y-163910496D01*
X183165000Y-163935000D01*
X183165000Y-165185000D01*
X183163796Y-165209504D01*
X183160196Y-165233773D01*
X183154235Y-165257571D01*
X183145970Y-165280671D01*
X183135480Y-165302849D01*
X183122867Y-165323893D01*
X183108253Y-165343598D01*
X183091777Y-165361777D01*
X183073598Y-165378253D01*
X183053893Y-165392867D01*
X183032849Y-165405480D01*
X183010671Y-165415970D01*
X182987571Y-165424235D01*
X182963773Y-165430196D01*
X182939504Y-165433796D01*
X182915000Y-165435000D01*
X181990000Y-165435000D01*
X181965496Y-165433796D01*
X181941227Y-165430196D01*
X181917429Y-165424235D01*
X181894329Y-165415970D01*
X181872151Y-165405480D01*
X181851107Y-165392867D01*
X181831402Y-165378253D01*
X181813223Y-165361777D01*
X181796747Y-165343598D01*
X181782133Y-165323893D01*
X181769520Y-165302849D01*
X181759030Y-165280671D01*
X181750765Y-165257571D01*
X181744804Y-165233773D01*
X181741204Y-165209504D01*
X181740000Y-165185000D01*
X181740000Y-163935000D01*
X181741204Y-163910496D01*
X181744804Y-163886227D01*
X181750765Y-163862429D01*
X181759030Y-163839329D01*
X181769520Y-163817151D01*
X181782133Y-163796107D01*
X181796747Y-163776402D01*
X181813223Y-163758223D01*
X181831402Y-163741747D01*
X181851107Y-163727133D01*
X181872151Y-163714520D01*
X181894329Y-163704030D01*
X181917429Y-163695765D01*
X181941227Y-163689804D01*
X181965496Y-163686204D01*
X181990000Y-163685000D01*
X182915000Y-163685000D01*
X182939504Y-163686204D01*
X182939504Y-163686204D01*
G37*
D17*
G04 #@! TD*
G04 #@! TO.P,R1,1*
G04 #@! TO.N,SRSEL_ENABLE*
X182452500Y-164560000D03*
D16*
G04 #@! TO.N,nENBL*
G04 #@! TO.C,R2*
G36*
X182979504Y-158986204D02*
X183003773Y-158989804D01*
X183027571Y-158995765D01*
X183050671Y-159004030D01*
X183072849Y-159014520D01*
X183093893Y-159027133D01*
X183113598Y-159041747D01*
X183131777Y-159058223D01*
X183148253Y-159076402D01*
X183162867Y-159096107D01*
X183175480Y-159117151D01*
X183185970Y-159139329D01*
X183194235Y-159162429D01*
X183200196Y-159186227D01*
X183203796Y-159210496D01*
X183205000Y-159235000D01*
X183205000Y-160485000D01*
X183203796Y-160509504D01*
X183200196Y-160533773D01*
X183194235Y-160557571D01*
X183185970Y-160580671D01*
X183175480Y-160602849D01*
X183162867Y-160623893D01*
X183148253Y-160643598D01*
X183131777Y-160661777D01*
X183113598Y-160678253D01*
X183093893Y-160692867D01*
X183072849Y-160705480D01*
X183050671Y-160715970D01*
X183027571Y-160724235D01*
X183003773Y-160730196D01*
X182979504Y-160733796D01*
X182955000Y-160735000D01*
X182030000Y-160735000D01*
X182005496Y-160733796D01*
X181981227Y-160730196D01*
X181957429Y-160724235D01*
X181934329Y-160715970D01*
X181912151Y-160705480D01*
X181891107Y-160692867D01*
X181871402Y-160678253D01*
X181853223Y-160661777D01*
X181836747Y-160643598D01*
X181822133Y-160623893D01*
X181809520Y-160602849D01*
X181799030Y-160580671D01*
X181790765Y-160557571D01*
X181784804Y-160533773D01*
X181781204Y-160509504D01*
X181780000Y-160485000D01*
X181780000Y-159235000D01*
X181781204Y-159210496D01*
X181784804Y-159186227D01*
X181790765Y-159162429D01*
X181799030Y-159139329D01*
X181809520Y-159117151D01*
X181822133Y-159096107D01*
X181836747Y-159076402D01*
X181853223Y-159058223D01*
X181871402Y-159041747D01*
X181891107Y-159027133D01*
X181912151Y-159014520D01*
X181934329Y-159004030D01*
X181957429Y-158995765D01*
X181981227Y-158989804D01*
X182005496Y-158986204D01*
X182030000Y-158985000D01*
X182955000Y-158985000D01*
X182979504Y-158986204D01*
X182979504Y-158986204D01*
G37*
D17*
G04 #@! TD*
G04 #@! TO.P,R2,1*
G04 #@! TO.N,nENBL*
X182492500Y-159860000D03*
D16*
G04 #@! TO.N,/+3V3*
G04 #@! TO.C,R2*
G36*
X185954504Y-158986204D02*
X185978773Y-158989804D01*
X186002571Y-158995765D01*
X186025671Y-159004030D01*
X186047849Y-159014520D01*
X186068893Y-159027133D01*
X186088598Y-159041747D01*
X186106777Y-159058223D01*
X186123253Y-159076402D01*
X186137867Y-159096107D01*
X186150480Y-159117151D01*
X186160970Y-159139329D01*
X186169235Y-159162429D01*
X186175196Y-159186227D01*
X186178796Y-159210496D01*
X186180000Y-159235000D01*
X186180000Y-160485000D01*
X186178796Y-160509504D01*
X186175196Y-160533773D01*
X186169235Y-160557571D01*
X186160970Y-160580671D01*
X186150480Y-160602849D01*
X186137867Y-160623893D01*
X186123253Y-160643598D01*
X186106777Y-160661777D01*
X186088598Y-160678253D01*
X186068893Y-160692867D01*
X186047849Y-160705480D01*
X186025671Y-160715970D01*
X186002571Y-160724235D01*
X185978773Y-160730196D01*
X185954504Y-160733796D01*
X185930000Y-160735000D01*
X185005000Y-160735000D01*
X184980496Y-160733796D01*
X184956227Y-160730196D01*
X184932429Y-160724235D01*
X184909329Y-160715970D01*
X184887151Y-160705480D01*
X184866107Y-160692867D01*
X184846402Y-160678253D01*
X184828223Y-160661777D01*
X184811747Y-160643598D01*
X184797133Y-160623893D01*
X184784520Y-160602849D01*
X184774030Y-160580671D01*
X184765765Y-160557571D01*
X184759804Y-160533773D01*
X184756204Y-160509504D01*
X184755000Y-160485000D01*
X184755000Y-159235000D01*
X184756204Y-159210496D01*
X184759804Y-159186227D01*
X184765765Y-159162429D01*
X184774030Y-159139329D01*
X184784520Y-159117151D01*
X184797133Y-159096107D01*
X184811747Y-159076402D01*
X184828223Y-159058223D01*
X184846402Y-159041747D01*
X184866107Y-159027133D01*
X184887151Y-159014520D01*
X184909329Y-159004030D01*
X184932429Y-158995765D01*
X184956227Y-158989804D01*
X184980496Y-158986204D01*
X185005000Y-158985000D01*
X185930000Y-158985000D01*
X185954504Y-158986204D01*
X185954504Y-158986204D01*
G37*
D17*
G04 #@! TD*
G04 #@! TO.P,R2,2*
G04 #@! TO.N,/+3V3*
X185467500Y-159860000D03*
D15*
G04 #@! TO.P,J6,1*
G04 #@! TO.N,Net-(J6-Pad1)*
X233340000Y-204780000D03*
D14*
G04 #@! TO.P,J6,2*
G04 #@! TO.N,Net-(J6-Pad2)*
X236110000Y-204780000D03*
G04 #@! TO.P,J6,3*
G04 #@! TO.N,Net-(J6-Pad3)*
X238880000Y-204780000D03*
G04 #@! TO.P,J6,4*
G04 #@! TO.N,SER_CLK*
X241650000Y-204780000D03*
G04 #@! TO.P,J6,5*
G04 #@! TO.N,SER_DATA*
X244420000Y-204780000D03*
G04 #@! TO.P,J6,6*
G04 #@! TO.N,FAULT*
X234725000Y-201940000D03*
G04 #@! TO.P,J6,7*
G04 #@! TO.N,RESET*
X237495000Y-201940000D03*
G04 #@! TO.P,J6,8*
G04 #@! TO.N,nENBL*
X240265000Y-201940000D03*
G04 #@! TO.P,J6,9*
G04 #@! TO.N,/GND*
X243035000Y-201940000D03*
D18*
G04 #@! TO.P,J6,0*
G04 #@! TO.N,N/C*
X251380000Y-203360000D03*
X226380000Y-203360000D03*
G04 #@! TD*
D16*
G04 #@! TO.N,FAULT*
G04 #@! TO.C,R3*
G36*
X193549504Y-110226204D02*
X193573773Y-110229804D01*
X193597571Y-110235765D01*
X193620671Y-110244030D01*
X193642849Y-110254520D01*
X193663893Y-110267133D01*
X193683598Y-110281747D01*
X193701777Y-110298223D01*
X193718253Y-110316402D01*
X193732867Y-110336107D01*
X193745480Y-110357151D01*
X193755970Y-110379329D01*
X193764235Y-110402429D01*
X193770196Y-110426227D01*
X193773796Y-110450496D01*
X193775000Y-110475000D01*
X193775000Y-111725000D01*
X193773796Y-111749504D01*
X193770196Y-111773773D01*
X193764235Y-111797571D01*
X193755970Y-111820671D01*
X193745480Y-111842849D01*
X193732867Y-111863893D01*
X193718253Y-111883598D01*
X193701777Y-111901777D01*
X193683598Y-111918253D01*
X193663893Y-111932867D01*
X193642849Y-111945480D01*
X193620671Y-111955970D01*
X193597571Y-111964235D01*
X193573773Y-111970196D01*
X193549504Y-111973796D01*
X193525000Y-111975000D01*
X192600000Y-111975000D01*
X192575496Y-111973796D01*
X192551227Y-111970196D01*
X192527429Y-111964235D01*
X192504329Y-111955970D01*
X192482151Y-111945480D01*
X192461107Y-111932867D01*
X192441402Y-111918253D01*
X192423223Y-111901777D01*
X192406747Y-111883598D01*
X192392133Y-111863893D01*
X192379520Y-111842849D01*
X192369030Y-111820671D01*
X192360765Y-111797571D01*
X192354804Y-111773773D01*
X192351204Y-111749504D01*
X192350000Y-111725000D01*
X192350000Y-110475000D01*
X192351204Y-110450496D01*
X192354804Y-110426227D01*
X192360765Y-110402429D01*
X192369030Y-110379329D01*
X192379520Y-110357151D01*
X192392133Y-110336107D01*
X192406747Y-110316402D01*
X192423223Y-110298223D01*
X192441402Y-110281747D01*
X192461107Y-110267133D01*
X192482151Y-110254520D01*
X192504329Y-110244030D01*
X192527429Y-110235765D01*
X192551227Y-110229804D01*
X192575496Y-110226204D01*
X192600000Y-110225000D01*
X193525000Y-110225000D01*
X193549504Y-110226204D01*
X193549504Y-110226204D01*
G37*
D17*
G04 #@! TD*
G04 #@! TO.P,R3,1*
G04 #@! TO.N,FAULT*
X193062500Y-111100000D03*
D16*
G04 #@! TO.N,/+3V3*
G04 #@! TO.C,R3*
G36*
X196524504Y-110226204D02*
X196548773Y-110229804D01*
X196572571Y-110235765D01*
X196595671Y-110244030D01*
X196617849Y-110254520D01*
X196638893Y-110267133D01*
X196658598Y-110281747D01*
X196676777Y-110298223D01*
X196693253Y-110316402D01*
X196707867Y-110336107D01*
X196720480Y-110357151D01*
X196730970Y-110379329D01*
X196739235Y-110402429D01*
X196745196Y-110426227D01*
X196748796Y-110450496D01*
X196750000Y-110475000D01*
X196750000Y-111725000D01*
X196748796Y-111749504D01*
X196745196Y-111773773D01*
X196739235Y-111797571D01*
X196730970Y-111820671D01*
X196720480Y-111842849D01*
X196707867Y-111863893D01*
X196693253Y-111883598D01*
X196676777Y-111901777D01*
X196658598Y-111918253D01*
X196638893Y-111932867D01*
X196617849Y-111945480D01*
X196595671Y-111955970D01*
X196572571Y-111964235D01*
X196548773Y-111970196D01*
X196524504Y-111973796D01*
X196500000Y-111975000D01*
X195575000Y-111975000D01*
X195550496Y-111973796D01*
X195526227Y-111970196D01*
X195502429Y-111964235D01*
X195479329Y-111955970D01*
X195457151Y-111945480D01*
X195436107Y-111932867D01*
X195416402Y-111918253D01*
X195398223Y-111901777D01*
X195381747Y-111883598D01*
X195367133Y-111863893D01*
X195354520Y-111842849D01*
X195344030Y-111820671D01*
X195335765Y-111797571D01*
X195329804Y-111773773D01*
X195326204Y-111749504D01*
X195325000Y-111725000D01*
X195325000Y-110475000D01*
X195326204Y-110450496D01*
X195329804Y-110426227D01*
X195335765Y-110402429D01*
X195344030Y-110379329D01*
X195354520Y-110357151D01*
X195367133Y-110336107D01*
X195381747Y-110316402D01*
X195398223Y-110298223D01*
X195416402Y-110281747D01*
X195436107Y-110267133D01*
X195457151Y-110254520D01*
X195479329Y-110244030D01*
X195502429Y-110235765D01*
X195526227Y-110229804D01*
X195550496Y-110226204D01*
X195575000Y-110225000D01*
X196500000Y-110225000D01*
X196524504Y-110226204D01*
X196524504Y-110226204D01*
G37*
D17*
G04 #@! TD*
G04 #@! TO.P,R3,2*
G04 #@! TO.N,/+3V3*
X196037500Y-111100000D03*
D15*
G04 #@! TO.P,J2,1*
G04 #@! TO.N,Net-(J2-Pad1)*
X194200000Y-188170000D03*
D14*
G04 #@! TO.P,J2,2*
G04 #@! TO.N,Net-(J2-Pad2)*
X196970000Y-188170000D03*
G04 #@! TO.P,J2,3*
G04 #@! TO.N,Net-(J2-Pad3)*
X199740000Y-188170000D03*
G04 #@! TO.P,J2,4*
G04 #@! TO.N,SER_CLK*
X202510000Y-188170000D03*
G04 #@! TO.P,J2,5*
G04 #@! TO.N,SER_DATA*
X205280000Y-188170000D03*
G04 #@! TO.P,J2,6*
G04 #@! TO.N,FAULT*
X195585000Y-185330000D03*
G04 #@! TO.P,J2,7*
G04 #@! TO.N,RESET*
X198355000Y-185330000D03*
G04 #@! TO.P,J2,8*
G04 #@! TO.N,nENBL*
X201125000Y-185330000D03*
G04 #@! TO.P,J2,9*
G04 #@! TO.N,/GND*
X203895000Y-185330000D03*
D18*
G04 #@! TO.P,J2,0*
G04 #@! TO.N,N/C*
X212240000Y-186750000D03*
X187240000Y-186750000D03*
G04 #@! TD*
G04 #@! TO.P,J3,0*
G04 #@! TO.N,N/C*
X187190000Y-203270000D03*
X212190000Y-203270000D03*
D14*
G04 #@! TO.P,J3,9*
G04 #@! TO.N,/GND*
X203845000Y-201850000D03*
G04 #@! TO.P,J3,8*
G04 #@! TO.N,nENBL*
X201075000Y-201850000D03*
G04 #@! TO.P,J3,7*
G04 #@! TO.N,RESET*
X198305000Y-201850000D03*
G04 #@! TO.P,J3,6*
G04 #@! TO.N,FAULT*
X195535000Y-201850000D03*
G04 #@! TO.P,J3,5*
G04 #@! TO.N,SER_DATA*
X205230000Y-204690000D03*
G04 #@! TO.P,J3,4*
G04 #@! TO.N,SER_CLK*
X202460000Y-204690000D03*
G04 #@! TO.P,J3,3*
G04 #@! TO.N,Net-(J3-Pad3)*
X199690000Y-204690000D03*
G04 #@! TO.P,J3,2*
G04 #@! TO.N,Net-(J3-Pad2)*
X196920000Y-204690000D03*
D15*
G04 #@! TO.P,J3,1*
G04 #@! TO.N,Net-(J3-Pad1)*
X194150000Y-204690000D03*
G04 #@! TD*
G04 #@! TO.P,J4,1*
G04 #@! TO.N,Net-(J4-Pad1)*
X233390000Y-188310000D03*
D14*
G04 #@! TO.P,J4,2*
G04 #@! TO.N,Net-(J4-Pad2)*
X236160000Y-188310000D03*
G04 #@! TO.P,J4,3*
G04 #@! TO.N,Net-(J4-Pad3)*
X238930000Y-188310000D03*
G04 #@! TO.P,J4,4*
G04 #@! TO.N,SER_CLK*
X241700000Y-188310000D03*
G04 #@! TO.P,J4,5*
G04 #@! TO.N,SER_DATA*
X244470000Y-188310000D03*
G04 #@! TO.P,J4,6*
G04 #@! TO.N,FAULT*
X234775000Y-185470000D03*
G04 #@! TO.P,J4,7*
G04 #@! TO.N,RESET*
X237545000Y-185470000D03*
G04 #@! TO.P,J4,8*
G04 #@! TO.N,nENBL*
X240315000Y-185470000D03*
G04 #@! TO.P,J4,9*
G04 #@! TO.N,/GND*
X243085000Y-185470000D03*
D18*
G04 #@! TO.P,J4,0*
G04 #@! TO.N,N/C*
X251430000Y-186890000D03*
X226430000Y-186890000D03*
G04 #@! TD*
D15*
G04 #@! TO.P,U1,1*
G04 #@! TO.N,Net-(J2-Pad2)*
X221640000Y-162570000D03*
D19*
G04 #@! TO.P,U1,9*
G04 #@! TO.N,Net-(U1-Pad9)*
X214020000Y-144790000D03*
G04 #@! TO.P,U1,2*
G04 #@! TO.N,Net-(J2-Pad3)*
X221640000Y-160030000D03*
G04 #@! TO.P,U1,10*
G04 #@! TO.N,/+3V3*
X214020000Y-147330000D03*
G04 #@! TO.P,U1,3*
G04 #@! TO.N,Net-(J3-Pad1)*
X221640000Y-157490000D03*
G04 #@! TO.P,U1,11*
G04 #@! TO.N,SRSEL_CLK*
X214020000Y-149870000D03*
G04 #@! TO.P,U1,4*
G04 #@! TO.N,Net-(J3-Pad2)*
X221640000Y-154950000D03*
G04 #@! TO.P,U1,12*
G04 #@! TO.N,SRSEL_LATCH_A*
X214020000Y-152410000D03*
G04 #@! TO.P,U1,5*
G04 #@! TO.N,Net-(J3-Pad3)*
X221640000Y-152410000D03*
G04 #@! TO.P,U1,13*
G04 #@! TO.N,SRSEL_ENABLE*
X214020000Y-154950000D03*
G04 #@! TO.P,U1,6*
G04 #@! TO.N,Net-(J4-Pad1)*
X221640000Y-149870000D03*
G04 #@! TO.P,U1,14*
G04 #@! TO.N,SRSEL_DATA*
X214020000Y-157490000D03*
G04 #@! TO.P,U1,7*
G04 #@! TO.N,Net-(J4-Pad2)*
X221640000Y-147330000D03*
G04 #@! TO.P,U1,15*
G04 #@! TO.N,Net-(J2-Pad1)*
X214020000Y-160030000D03*
G04 #@! TO.P,U1,8*
G04 #@! TO.N,/GND*
X221640000Y-144790000D03*
G04 #@! TO.P,U1,16*
G04 #@! TO.N,/+3V3*
X214020000Y-162570000D03*
G04 #@! TD*
G04 #@! TO.P,U2,16*
G04 #@! TO.N,/+3V3*
X214020000Y-133170000D03*
G04 #@! TO.P,U2,8*
G04 #@! TO.N,/GND*
X221640000Y-115390000D03*
G04 #@! TO.P,U2,15*
G04 #@! TO.N,Net-(J4-Pad3)*
X214020000Y-130630000D03*
G04 #@! TO.P,U2,7*
G04 #@! TO.N,Net-(U2-Pad7)*
X221640000Y-117930000D03*
G04 #@! TO.P,U2,14*
G04 #@! TO.N,SRSEL_DATA*
X214020000Y-128090000D03*
G04 #@! TO.P,U2,6*
G04 #@! TO.N,Net-(U2-Pad6)*
X221640000Y-120470000D03*
G04 #@! TO.P,U2,13*
G04 #@! TO.N,SRSEL_ENABLE*
X214020000Y-125550000D03*
G04 #@! TO.P,U2,5*
G04 #@! TO.N,Net-(U2-Pad5)*
X221640000Y-123010000D03*
G04 #@! TO.P,U2,12*
G04 #@! TO.N,SRSEL_LATCH_B*
X214020000Y-123010000D03*
G04 #@! TO.P,U2,4*
G04 #@! TO.N,Net-(U2-Pad4)*
X221640000Y-125550000D03*
G04 #@! TO.P,U2,11*
G04 #@! TO.N,SRSEL_CLK*
X214020000Y-120470000D03*
G04 #@! TO.P,U2,3*
G04 #@! TO.N,Net-(J6-Pad3)*
X221640000Y-128090000D03*
G04 #@! TO.P,U2,10*
G04 #@! TO.N,/+3V3*
X214020000Y-117930000D03*
G04 #@! TO.P,U2,2*
G04 #@! TO.N,Net-(J6-Pad2)*
X221640000Y-130630000D03*
G04 #@! TO.P,U2,9*
G04 #@! TO.N,Net-(U2-Pad9)*
X214020000Y-115390000D03*
D15*
G04 #@! TO.P,U2,1*
G04 #@! TO.N,Net-(J6-Pad1)*
X221640000Y-133170000D03*
G04 #@! TD*
D11*
G04 #@! TO.P,J1,2*
G04 #@! TO.N,/+5V*
X250060000Y-124210000D03*
G04 #@! TO.P,J1,3*
G04 #@! TO.N,/-12V*
X250060000Y-129290000D03*
D20*
G04 #@! TO.P,J1,1*
G04 #@! TO.N,/GND*
X250060000Y-119130000D03*
D11*
G04 #@! TO.P,J1,4*
G04 #@! TO.N,/+12V*
X250060000Y-134370000D03*
G04 #@! TD*
D20*
G04 #@! TO.P,J7,1*
G04 #@! TO.N,/+12V*
X262970000Y-184110000D03*
D11*
G04 #@! TO.P,J7,2*
G04 #@! TO.N,/GND*
X268050000Y-184110000D03*
G04 #@! TD*
G04 #@! TO.P,_,1*
G04 #@! TO.N,N/C*
X197662947Y-171614749D03*
G04 #@! TD*
D12*
G04 #@! TO.P,J8,1*
G04 #@! TO.N,Net-(J8-Pad1)*
X173840000Y-196460000D03*
D13*
G04 #@! TO.P,J8,2*
G04 #@! TO.N,Net-(J8-Pad2)*
X176380000Y-196460000D03*
G04 #@! TO.P,J8,3*
G04 #@! TO.N,Net-(J8-Pad3)*
X173840000Y-193920000D03*
G04 #@! TO.P,J8,4*
G04 #@! TO.N,Net-(J8-Pad4)*
X176380000Y-193920000D03*
G04 #@! TO.P,J8,5*
G04 #@! TO.N,Net-(J8-Pad5)*
X173840000Y-191380000D03*
G04 #@! TO.P,J8,6*
G04 #@! TO.N,Net-(J8-Pad6)*
X176380000Y-191380000D03*
G04 #@! TO.P,J8,7*
G04 #@! TO.N,Net-(J8-Pad7)*
X173840000Y-188840000D03*
G04 #@! TO.P,J8,8*
G04 #@! TO.N,Net-(J8-Pad8)*
X176380000Y-188840000D03*
G04 #@! TO.P,J8,9*
G04 #@! TO.N,Net-(J8-Pad9)*
X173840000Y-186300000D03*
G04 #@! TO.P,J8,10*
G04 #@! TO.N,Net-(J8-Pad10)*
X176380000Y-186300000D03*
G04 #@! TO.P,J8,11*
G04 #@! TO.N,Net-(J8-Pad11)*
X173840000Y-183760000D03*
G04 #@! TO.P,J8,12*
G04 #@! TO.N,Net-(J8-Pad12)*
X176380000Y-183760000D03*
G04 #@! TO.P,J8,13*
G04 #@! TO.N,Net-(J8-Pad13)*
X173840000Y-181220000D03*
G04 #@! TO.P,J8,14*
G04 #@! TO.N,Net-(J8-Pad14)*
X176380000Y-181220000D03*
G04 #@! TO.P,J8,15*
G04 #@! TO.N,Net-(J8-Pad15)*
X173840000Y-178680000D03*
G04 #@! TO.P,J8,16*
G04 #@! TO.N,Net-(J8-Pad16)*
X176380000Y-178680000D03*
G04 #@! TO.P,J8,17*
G04 #@! TO.N,Net-(J8-Pad17)*
X173840000Y-176140000D03*
G04 #@! TO.P,J8,18*
G04 #@! TO.N,xtra_3V3*
X176380000Y-176140000D03*
G04 #@! TO.P,J8,19*
G04 #@! TO.N,Net-(J8-Pad19)*
X173840000Y-173600000D03*
G04 #@! TO.P,J8,20*
G04 #@! TO.N,Net-(J8-Pad20)*
X176380000Y-173600000D03*
G04 #@! TD*
D21*
G04 #@! TO.N,SRSEL_CLK*
X179360000Y-151410000D03*
X210110000Y-122520000D03*
X209940000Y-143680000D03*
G04 #@! TO.N,SRSEL_DATA*
X179740000Y-139231370D03*
X208490000Y-130495001D03*
G04 #@! TO.N,Net-(J3-Pad3)*
X196750000Y-207240000D03*
G04 #@! TO.N,/+3V3*
X184540000Y-151800000D03*
X211130000Y-112330000D03*
G04 #@! TO.N,Midi_loop*
X205230000Y-89090000D03*
G04 #@! TO.N,Midi_Play_Pause*
X205220000Y-87530000D03*
G04 #@! TO.N,Enc_B*
X205380000Y-86020000D03*
G04 #@! TO.N,nENBL*
X182520000Y-153750000D03*
G04 #@! TO.N,Net-(J6-Pad1)*
X246250000Y-194970000D03*
G04 #@! TO.N,Net-(J6-Pad2)*
X247960000Y-194960000D03*
G04 #@! TO.N,Net-(J6-Pad3)*
X249370000Y-194970000D03*
G04 #@! TO.N,SRSEL_ENABLE*
X179610000Y-141870000D03*
X211614999Y-127955001D03*
X180150000Y-157340000D03*
G04 #@! TO.N,SRSEL_LATCH_B*
X179610000Y-145260000D03*
G04 #@! TO.N,SRSEL_LATCH_A*
X179550000Y-148340000D03*
G04 #@! TO.N,xtra_3V3*
X178230000Y-161010000D03*
G04 #@! TD*
D22*
G04 #@! TO.N,/GND*
X240574999Y-186848631D02*
X241953630Y-185470000D01*
X240574999Y-188330003D02*
X240574999Y-186848631D01*
X205314990Y-183910010D02*
X230080010Y-183910010D01*
X203895000Y-185330000D02*
X205314990Y-183910010D01*
X230080010Y-183910010D02*
X230080010Y-187185012D01*
X230080010Y-187185012D02*
X232329999Y-189435001D01*
X232329999Y-189435001D02*
X239470001Y-189435001D01*
X241953630Y-185470000D02*
X243085000Y-185470000D01*
X239470001Y-189435001D02*
X240574999Y-188330003D01*
X219587500Y-113337500D02*
X219587500Y-112330000D01*
X221640000Y-115390000D02*
X219587500Y-113337500D01*
X219407500Y-142557500D02*
X219407500Y-141220000D01*
X221640000Y-144790000D02*
X219407500Y-142557500D01*
X219407500Y-112510000D02*
X219587500Y-112330000D01*
X219407500Y-141220000D02*
X219407500Y-112510000D01*
X243834999Y-201140001D02*
X243035000Y-201940000D01*
X247964990Y-197010010D02*
X243834999Y-201140001D01*
X255149990Y-197010010D02*
X247964990Y-197010010D01*
X268050000Y-184110000D02*
X255149990Y-197010010D01*
G04 #@! TO.N,SRSEL_CLK*
X213220001Y-149070001D02*
X214020000Y-149870000D01*
X179360000Y-151410000D02*
X179360000Y-150350000D01*
X178390000Y-149380000D02*
X178390000Y-147890000D01*
X178390000Y-147890000D02*
X180255001Y-146024999D01*
X180255001Y-146024999D02*
X210174999Y-146024999D01*
X179360000Y-150350000D02*
X178390000Y-149380000D01*
X210174999Y-146024999D02*
X213220001Y-149070001D01*
X214020000Y-120470000D02*
X212160000Y-120470000D01*
X212160000Y-120470000D02*
X210110000Y-122520000D01*
X210110000Y-122520000D02*
X210110000Y-122520000D01*
X209940000Y-145790000D02*
X210174999Y-146024999D01*
X209940000Y-143680000D02*
X209940000Y-145790000D01*
G04 #@! TO.N,SRSEL_DATA*
X213220001Y-128889999D02*
X214020000Y-128090000D01*
X211614999Y-130495001D02*
X213220001Y-128889999D01*
X187910684Y-130495001D02*
X208490000Y-130495001D01*
X179740000Y-138665685D02*
X187910684Y-130495001D01*
X179740000Y-139231370D02*
X179740000Y-138665685D01*
X208490000Y-130495001D02*
X211614999Y-130495001D01*
G04 #@! TO.N,Net-(J3-Pad3)*
X199300000Y-204690000D02*
X199690000Y-204690000D01*
X196750000Y-207240000D02*
X199300000Y-204690000D01*
G04 #@! TO.N,/+3V3*
X196037500Y-108997500D02*
X188470000Y-101430000D01*
X196037500Y-111100000D02*
X196037500Y-108997500D01*
X216612500Y-113305000D02*
X216612500Y-112330000D01*
X215151370Y-117930000D02*
X216612500Y-116468870D01*
X214020000Y-117930000D02*
X215151370Y-117930000D01*
X216612500Y-130577500D02*
X216612500Y-116360000D01*
X214020000Y-133170000D02*
X216612500Y-130577500D01*
X216612500Y-116468870D02*
X216612500Y-116360000D01*
X216612500Y-116360000D02*
X216612500Y-113305000D01*
X216432500Y-144917500D02*
X216432500Y-141220000D01*
X214020000Y-147330000D02*
X216432500Y-144917500D01*
X216620000Y-145105000D02*
X216432500Y-144917500D01*
X216620000Y-159970000D02*
X216620000Y-145105000D01*
X214020000Y-162570000D02*
X216620000Y-159970000D01*
X185427500Y-159900000D02*
X185467500Y-159860000D01*
X185427500Y-164560000D02*
X185427500Y-159900000D01*
X185467500Y-158885000D02*
X184540000Y-157957500D01*
X185467500Y-159860000D02*
X185467500Y-158885000D01*
X184540000Y-157957500D02*
X184540000Y-151800000D01*
X184540000Y-151800000D02*
X184540000Y-151800000D01*
X197267500Y-112330000D02*
X196037500Y-111100000D01*
X216612500Y-112330000D02*
X211130000Y-112330000D01*
X211130000Y-112330000D02*
X197267500Y-112330000D01*
X216432500Y-135582500D02*
X214020000Y-133170000D01*
X216432500Y-141220000D02*
X216432500Y-135582500D01*
G04 #@! TO.N,Gate_A*
X212787948Y-100289750D02*
X213637947Y-101139749D01*
X212462946Y-99964748D02*
X212787948Y-100289750D01*
X210723944Y-99964748D02*
X212462946Y-99964748D01*
X207370000Y-96610804D02*
X210723944Y-99964748D01*
X173230000Y-116670000D02*
X182500070Y-107399930D01*
X182500070Y-89682750D02*
X187652780Y-84530040D01*
X182500070Y-107399930D02*
X182500070Y-89682750D01*
X187652780Y-84530040D02*
X206790040Y-84530040D01*
X206790040Y-84530040D02*
X207370000Y-85110000D01*
X207370000Y-85110000D02*
X207370000Y-96610804D01*
G04 #@! TO.N,Gate_B*
X207830000Y-95331802D02*
X211097947Y-98599749D01*
X207830000Y-84920000D02*
X207830000Y-95331802D01*
X182050060Y-103406350D02*
X182050060Y-89496350D01*
X182050060Y-89496350D02*
X187466380Y-84080030D01*
X187466380Y-84080030D02*
X206990030Y-84080030D01*
X206990030Y-84080030D02*
X207830000Y-84920000D01*
X182050060Y-105309940D02*
X182050060Y-103406350D01*
X173230000Y-114130000D02*
X182050060Y-105309940D01*
G04 #@! TO.N,Gate_C*
X214812948Y-101703750D02*
X214812948Y-99774750D01*
X209987946Y-102314750D02*
X214201948Y-102314750D01*
X206920000Y-99246804D02*
X209987946Y-102314750D01*
X206603640Y-84980050D02*
X206920000Y-85296410D01*
X187869950Y-84980050D02*
X206603640Y-84980050D01*
X214201948Y-102314750D02*
X214812948Y-101703750D01*
X182950080Y-89899920D02*
X187869950Y-84980050D01*
X214487946Y-99449748D02*
X213637947Y-98599749D01*
X214812948Y-99774750D02*
X214487946Y-99449748D01*
X182950080Y-107586330D02*
X182950080Y-89899920D01*
X206920000Y-85296410D02*
X206920000Y-99246804D01*
X182950079Y-109489921D02*
X182950080Y-107586330D01*
X173230000Y-119210000D02*
X182950079Y-109489921D01*
G04 #@! TO.N,Gate_D*
X208280000Y-93241802D02*
X211097947Y-96059749D01*
X207180020Y-83630020D02*
X208280000Y-84730000D01*
X181600050Y-103219950D02*
X181600050Y-89286360D01*
X208280000Y-84730000D02*
X208280000Y-93241802D01*
X173230000Y-111590000D02*
X181600050Y-103219950D01*
X181600050Y-89286360D02*
X183316410Y-87570000D01*
X183316410Y-87570000D02*
X183340000Y-87570000D01*
X183340000Y-87570000D02*
X187279980Y-83630020D01*
X187279980Y-83630020D02*
X207180020Y-83630020D01*
G04 #@! TO.N,SDA_Display*
X209470000Y-86010804D02*
X210723944Y-87264748D01*
X209470000Y-84940000D02*
X209470000Y-86010804D01*
X207700020Y-83170020D02*
X209470000Y-84940000D01*
X201946390Y-83170020D02*
X207700020Y-83170020D01*
X201936400Y-83180010D02*
X201946390Y-83170020D01*
X210723944Y-87264748D02*
X212462946Y-87264748D01*
X173230000Y-109050000D02*
X181150040Y-101129960D01*
X181150040Y-101129960D02*
X181150040Y-89099190D01*
X181150040Y-89099190D02*
X181929230Y-88320000D01*
X212787948Y-87589750D02*
X213637947Y-88439749D01*
X181929230Y-88320000D02*
X181930000Y-88320000D01*
X181930000Y-88320000D02*
X187069990Y-83180010D01*
X212462946Y-87264748D02*
X212787948Y-87589750D01*
X187069990Y-83180010D02*
X201936400Y-83180010D01*
G04 #@! TO.N,SCL_Display*
X207918208Y-82720010D02*
X211097947Y-85899749D01*
X201759990Y-82720010D02*
X207918208Y-82720010D01*
X201750000Y-82730000D02*
X201759990Y-82720010D01*
X180700030Y-99039970D02*
X180700030Y-88912790D01*
X173230000Y-106510000D02*
X180700030Y-99039970D01*
X180700030Y-88912790D02*
X186892820Y-82720000D01*
X186892820Y-82720000D02*
X188740000Y-82720000D01*
X188740000Y-82720000D02*
X188750000Y-82730000D01*
X188750000Y-82730000D02*
X201750000Y-82730000D01*
G04 #@! TO.N,Midi_loop*
X184300110Y-115759890D02*
X184300110Y-111952710D01*
X173230000Y-126830000D02*
X184300110Y-115759890D01*
X184300110Y-111952710D02*
X184300110Y-90459120D01*
X188429150Y-86330080D02*
X189193600Y-86330080D01*
X184300110Y-90459120D02*
X188429150Y-86330080D01*
X189193600Y-86330080D02*
X202470080Y-86330080D01*
X202470080Y-86330080D02*
X205230000Y-89090000D01*
X205230000Y-89090000D02*
X205230000Y-89090000D01*
G04 #@! TO.N,Midi_Stop*
X210008198Y-82270000D02*
X211097947Y-83359749D01*
X186706410Y-82270000D02*
X210008198Y-82270000D01*
X180250020Y-88726390D02*
X186706410Y-82270000D01*
X173230000Y-103970000D02*
X180250020Y-96949980D01*
X180250020Y-96949980D02*
X180250020Y-88726390D01*
G04 #@! TO.N,Midi_Play_Pause*
X183850100Y-113669900D02*
X183850100Y-111766310D01*
X173230000Y-124290000D02*
X183850100Y-113669900D01*
X183850100Y-111766310D02*
X183850100Y-109940000D01*
X183850100Y-109940000D02*
X183850100Y-90272720D01*
X183850100Y-90272720D02*
X188242750Y-85880070D01*
X188242750Y-85880070D02*
X189380000Y-85880070D01*
X189380000Y-85880070D02*
X203570070Y-85880070D01*
X203570070Y-85880070D02*
X205220000Y-87530000D01*
X205220000Y-87530000D02*
X205220000Y-87530000D01*
G04 #@! TO.N,Enc_SW*
X210107687Y-81810009D02*
X211097947Y-80819749D01*
X186529990Y-81810010D02*
X210107687Y-81810009D01*
X179800010Y-88539990D02*
X186529990Y-81810010D01*
X173230000Y-101430000D02*
X179800010Y-94859990D01*
X179800010Y-94859990D02*
X179800010Y-88539990D01*
G04 #@! TO.N,Enc_B*
X183400090Y-111579910D02*
X183400090Y-107772730D01*
X173230000Y-121750000D02*
X183400090Y-111579910D01*
X183400090Y-107772730D02*
X183400090Y-90099910D01*
X183400090Y-90099910D02*
X183400090Y-90086320D01*
X183400090Y-90086320D02*
X188056350Y-85430060D01*
X188056350Y-85430060D02*
X204790060Y-85430060D01*
X204790060Y-85430060D02*
X205380000Y-86020000D01*
X205380000Y-86020000D02*
X205380000Y-86020000D01*
G04 #@! TO.N,Enc_A*
X208017696Y-81360000D02*
X211097947Y-78279749D01*
X186340000Y-81360000D02*
X208017696Y-81360000D01*
X179350000Y-88350000D02*
X186340000Y-81360000D01*
X179350000Y-93901370D02*
X179350000Y-88350000D01*
X173230000Y-98890000D02*
X174361370Y-98890000D01*
X174361370Y-98890000D02*
X179350000Y-93901370D01*
D23*
G04 #@! TO.N,/+5V*
X250060000Y-124210000D02*
X242270000Y-124210000D01*
X242270000Y-124210000D02*
X225180000Y-107120000D01*
X199240000Y-107120000D02*
X188470000Y-96350000D01*
X225180000Y-107120000D02*
X199240000Y-107120000D01*
D22*
G04 #@! TO.N,/+12V*
X261220000Y-184110000D02*
X262970000Y-184110000D01*
X250060000Y-134370000D02*
X250060000Y-136491320D01*
X250060000Y-136491320D02*
X250408680Y-136840000D01*
D24*
X250408680Y-136840000D02*
X250408680Y-165948680D01*
X250408680Y-165948680D02*
X260270000Y-175810000D01*
X260270000Y-175810000D02*
X260270000Y-183160000D01*
D22*
X260270000Y-183160000D02*
X261220000Y-184110000D01*
G04 #@! TO.N,nENBL*
X183890000Y-173270000D02*
X185270000Y-174650000D01*
X185270000Y-174650000D02*
X185303590Y-174650000D01*
X192800000Y-184996410D02*
X193730000Y-185926410D01*
X192800000Y-183826410D02*
X192800000Y-184996410D01*
X193730000Y-185926410D02*
X193730000Y-186070000D01*
X200325001Y-186129999D02*
X201125000Y-185330000D01*
X199410001Y-187044999D02*
X200325001Y-186129999D01*
X194704999Y-187044999D02*
X199410001Y-187044999D01*
X193730000Y-186070000D02*
X194704999Y-187044999D01*
X201125000Y-184198630D02*
X201863630Y-183460000D01*
X201125000Y-185330000D02*
X201125000Y-184198630D01*
X226430000Y-183460000D02*
X226449980Y-183440020D01*
X201863630Y-183460000D02*
X226430000Y-183460000D01*
X230443608Y-183440020D02*
X232190000Y-185186412D01*
X226449980Y-183440020D02*
X230443608Y-183440020D01*
X232190000Y-185186412D02*
X232190000Y-185190000D01*
X239515001Y-186269999D02*
X240315000Y-185470000D01*
X238739990Y-187045010D02*
X239515001Y-186269999D01*
X234045010Y-187045010D02*
X238739990Y-187045010D01*
X232190000Y-185190000D02*
X234045010Y-187045010D01*
X192800000Y-182180000D02*
X192780009Y-182160009D01*
X192800000Y-183826410D02*
X192800000Y-182180000D01*
X192780009Y-182160009D02*
X185280000Y-174660000D01*
X183876410Y-173270000D02*
X183890000Y-173270000D01*
X176110020Y-165503610D02*
X183876410Y-173270000D01*
X173230000Y-136990000D02*
X176110020Y-139870020D01*
X176110020Y-139870020D02*
X176110020Y-165503610D01*
X182492500Y-159860000D02*
X182520000Y-153750000D01*
X182520000Y-153750000D02*
X182492500Y-153777500D01*
G04 #@! TO.N,RESET*
X184370000Y-173071410D02*
X186110000Y-174811410D01*
X186110000Y-174811410D02*
X186110000Y-174820000D01*
X197555001Y-186129999D02*
X198355000Y-185330000D01*
X197229999Y-186455001D02*
X197555001Y-186129999D01*
X194895001Y-186455001D02*
X197229999Y-186455001D01*
X193260000Y-184820000D02*
X194895001Y-186455001D01*
X236745001Y-186269999D02*
X237545000Y-185470000D01*
X198355000Y-185330000D02*
X200694990Y-182990010D01*
X231650010Y-182990010D02*
X231650010Y-184010012D01*
X231650010Y-184010012D02*
X234234999Y-186595001D01*
X234234999Y-186595001D02*
X236419999Y-186595001D01*
X200694990Y-182990010D02*
X231650010Y-182990010D01*
X236419999Y-186595001D02*
X236745001Y-186269999D01*
X186110000Y-174853590D02*
X186110000Y-174811410D01*
X193260000Y-182003590D02*
X186110000Y-174853590D01*
X193260000Y-183810000D02*
X193260000Y-182003590D01*
X193260000Y-183810000D02*
X193260000Y-184820000D01*
X193260000Y-183650000D02*
X193260000Y-183810000D01*
X184118580Y-172819990D02*
X184370000Y-173071410D01*
X184062810Y-172819990D02*
X184118580Y-172819990D01*
X176560030Y-165317210D02*
X184062810Y-172819990D01*
X176560030Y-137780030D02*
X176560030Y-165317210D01*
X173230000Y-134450000D02*
X176560030Y-137780030D01*
G04 #@! TO.N,FAULT*
X233975001Y-184670001D02*
X234775000Y-185470000D01*
X231845000Y-182540000D02*
X233975001Y-184670001D01*
X198375000Y-182540000D02*
X231845000Y-182540000D01*
X195585000Y-185330000D02*
X198375000Y-182540000D01*
X187929999Y-113004999D02*
X176030000Y-124904998D01*
X190345001Y-113004999D02*
X187929999Y-113004999D01*
X193062500Y-111100000D02*
X192250000Y-111100000D01*
X192250000Y-111100000D02*
X190345001Y-113004999D01*
X176030000Y-126570000D02*
X173230000Y-129370000D01*
X176030000Y-124904998D02*
X176030000Y-126570000D01*
X177460050Y-133600050D02*
X173230000Y-129370000D01*
X177460050Y-158770050D02*
X177460050Y-133600050D01*
X179320000Y-160630000D02*
X177460050Y-158770050D01*
X179320000Y-161700000D02*
X179320000Y-160630000D01*
X195585000Y-183650000D02*
X184304981Y-172369981D01*
X195585000Y-185330000D02*
X195585000Y-183650000D01*
X184249211Y-172369981D02*
X177010040Y-165130810D01*
X177010040Y-165130810D02*
X177010040Y-164009960D01*
X184304981Y-172369981D02*
X184249211Y-172369981D01*
X177010040Y-164009960D02*
X179320000Y-161700000D01*
G04 #@! TO.N,SER_DATA*
X242444979Y-190335021D02*
X244470000Y-188310000D01*
X211345021Y-190335021D02*
X242444979Y-190335021D01*
X205280000Y-188170000D02*
X209180000Y-188170000D01*
X209180000Y-188170000D02*
X211345021Y-190335021D01*
X203209990Y-190240010D02*
X193448598Y-190240010D01*
X205280000Y-188170000D02*
X203209990Y-190240010D01*
X193448598Y-190240010D02*
X191870000Y-188661412D01*
X191870000Y-188661412D02*
X191870000Y-182536410D01*
X191870000Y-182536410D02*
X182950000Y-173616410D01*
X174361370Y-142070000D02*
X175210000Y-142918630D01*
X173230000Y-142070000D02*
X174361370Y-142070000D01*
X175210000Y-165876410D02*
X182950000Y-173616410D01*
X175210000Y-142918630D02*
X175210000Y-165876410D01*
G04 #@! TO.N,SER_CLK*
X203690000Y-186990000D02*
X208770000Y-186990000D01*
X202510000Y-188170000D02*
X203690000Y-186990000D01*
X240900001Y-189109999D02*
X241700000Y-188310000D01*
X240124989Y-189885011D02*
X240900001Y-189109999D01*
X211665011Y-189885011D02*
X240124989Y-189885011D01*
X208770000Y-186990000D02*
X211665011Y-189885011D01*
X200890000Y-189790000D02*
X193634998Y-189790000D01*
X202510000Y-188170000D02*
X200890000Y-189790000D01*
X184020000Y-174050000D02*
X183439990Y-173469990D01*
X193634998Y-189790000D02*
X192330000Y-188485002D01*
X192330000Y-188485002D02*
X192330000Y-182346410D01*
X192330000Y-182346410D02*
X184033590Y-174050000D01*
X184033590Y-174050000D02*
X184020000Y-174050000D01*
X175660010Y-165690010D02*
X183439990Y-173469990D01*
X173230000Y-139530000D02*
X175660010Y-141960010D01*
X175660010Y-141960010D02*
X175660010Y-165690010D01*
G04 #@! TO.N,Net-(J6-Pad1)*
X246250000Y-194970000D02*
X238540000Y-194970000D01*
X233340000Y-200170000D02*
X233340000Y-204780000D01*
X238540000Y-194970000D02*
X233340000Y-200170000D01*
G04 #@! TO.N,Net-(J6-Pad2)*
X247960000Y-194960000D02*
X246920000Y-196000000D01*
X246920000Y-196000000D02*
X238230000Y-196000000D01*
X236110000Y-198120000D02*
X236110000Y-204780000D01*
X238230000Y-196000000D02*
X236110000Y-198120000D01*
G04 #@! TO.N,Net-(J6-Pad3)*
X249370000Y-194970000D02*
X247780000Y-196560000D01*
X247780000Y-196560000D02*
X240170000Y-196560000D01*
X238880000Y-197850000D02*
X238880000Y-204780000D01*
X240170000Y-196560000D02*
X238880000Y-197850000D01*
G04 #@! TO.N,SRSEL_ENABLE*
X179610000Y-141870000D02*
X178650000Y-140910000D01*
X178650000Y-140910000D02*
X178650000Y-136870000D01*
X213220001Y-126349999D02*
X214020000Y-125550000D01*
X211614999Y-127955001D02*
X211614999Y-127955001D01*
X187564999Y-127955001D02*
X211614999Y-127955001D01*
X178650000Y-136870000D02*
X187564999Y-127955001D01*
X211614999Y-127955001D02*
X213220001Y-126349999D01*
X181640000Y-164560000D02*
X180150000Y-163070000D01*
X182452500Y-164560000D02*
X181640000Y-164560000D01*
X180150000Y-163070000D02*
X180150000Y-157340000D01*
X180150000Y-157340000D02*
X180150000Y-157340000D01*
G04 #@! TO.N,SRSEL_LATCH_B*
X179610000Y-145260000D02*
X179610000Y-143480000D01*
X179610000Y-143480000D02*
X178180000Y-142050000D01*
X178180000Y-142050000D02*
X178180000Y-134430000D01*
X213220001Y-123809999D02*
X214020000Y-123010000D01*
X211614999Y-125415001D02*
X213220001Y-123809999D01*
X187194999Y-125415001D02*
X211614999Y-125415001D01*
X178180000Y-134430000D02*
X187194999Y-125415001D01*
G04 #@! TO.N,SRSEL_LATCH_A*
X209950000Y-148340000D02*
X214020000Y-152410000D01*
X179550000Y-148340000D02*
X209950000Y-148340000D01*
G04 #@! TO.N,xtra_3V3*
X177010040Y-135690040D02*
X177010040Y-137593630D01*
X173230000Y-131910000D02*
X177010040Y-135690040D01*
X177010040Y-137593630D02*
X177010040Y-140760000D01*
X177010040Y-140760000D02*
X177010040Y-159790040D01*
X177010040Y-159790040D02*
X178230000Y-161010000D01*
X178230000Y-161010000D02*
X178230000Y-161010000D01*
G04 #@! TD*
M02*
