M48
;DRILL file {KiCad (5.0.0)} date 03/26/19 18:25:25
;FORMAT={-:-/ absolute / metric / decimal}
FMAT,2
METRIC,TZ
T1C0.400
T2C0.800
T3C1.000
T4C1.100
T5C1.520
T6C2.800
T7C3.200
%
G90
G05
M71
T1
X178.23Y-161.01
X179.36Y-151.41
X179.55Y-148.34
X179.61Y-141.87
X179.61Y-145.26
X179.74Y-139.231
X180.15Y-157.34
X182.52Y-153.75
X184.54Y-151.8
X196.75Y-207.24
X205.22Y-87.53
X205.23Y-89.09
X205.38Y-86.02
X208.49Y-130.495
X209.94Y-143.68
X210.11Y-122.52
X211.13Y-112.33
X211.615Y-127.955
X246.25Y-194.97
X247.96Y-194.96
X249.37Y-194.97
T2
X214.02Y-144.79
X214.02Y-147.33
X214.02Y-149.87
X214.02Y-152.41
X214.02Y-154.95
X214.02Y-157.49
X214.02Y-160.03
X214.02Y-162.57
X221.64Y-144.79
X221.64Y-147.33
X221.64Y-149.87
X221.64Y-152.41
X221.64Y-154.95
X221.64Y-157.49
X221.64Y-160.03
X221.64Y-162.57
X214.02Y-115.39
X214.02Y-117.93
X214.02Y-120.47
X214.02Y-123.01
X214.02Y-125.55
X214.02Y-128.09
X214.02Y-130.63
X214.02Y-133.17
X221.64Y-115.39
X221.64Y-117.93
X221.64Y-120.47
X221.64Y-123.01
X221.64Y-125.55
X221.64Y-128.09
X221.64Y-130.63
X221.64Y-133.17
T3
X211.098Y-78.28
X211.098Y-80.82
X211.098Y-83.36
X211.098Y-85.9
X211.098Y-88.44
X211.098Y-90.98
X211.098Y-93.52
X211.098Y-96.06
X211.098Y-98.6
X211.098Y-101.14
X213.638Y-78.28
X213.638Y-80.82
X213.638Y-83.36
X213.638Y-85.9
X213.638Y-88.44
X213.638Y-90.98
X213.638Y-93.52
X213.638Y-96.06
X213.638Y-98.6
X213.638Y-101.14
X194.15Y-204.69
X195.535Y-201.85
X196.92Y-204.69
X198.305Y-201.85
X199.69Y-204.69
X201.075Y-201.85
X202.46Y-204.69
X203.845Y-201.85
X205.23Y-204.69
X173.84Y-173.6
X173.84Y-176.14
X173.84Y-178.68
X173.84Y-181.22
X173.84Y-183.76
X173.84Y-186.3
X173.84Y-188.84
X173.84Y-191.38
X173.84Y-193.92
X173.84Y-196.46
X176.38Y-173.6
X176.38Y-176.14
X176.38Y-178.68
X176.38Y-181.22
X176.38Y-183.76
X176.38Y-186.3
X176.38Y-188.84
X176.38Y-191.38
X176.38Y-193.92
X176.38Y-196.46
X194.2Y-188.17
X195.585Y-185.33
X196.97Y-188.17
X198.355Y-185.33
X199.74Y-188.17
X201.125Y-185.33
X202.51Y-188.17
X203.895Y-185.33
X205.28Y-188.17
X233.34Y-204.78
X234.725Y-201.94
X236.11Y-204.78
X237.495Y-201.94
X238.88Y-204.78
X240.265Y-201.94
X241.65Y-204.78
X243.035Y-201.94
X244.42Y-204.78
X233.39Y-188.31
X234.775Y-185.47
X236.16Y-188.31
X237.545Y-185.47
X238.93Y-188.31
X240.315Y-185.47
X241.7Y-188.31
X243.085Y-185.47
X244.47Y-188.31
T4
X173.23Y-96.35
X173.23Y-98.89
X173.23Y-101.43
X173.23Y-103.97
X173.23Y-106.51
X173.23Y-109.05
X173.23Y-111.59
X173.23Y-114.13
X173.23Y-116.67
X173.23Y-119.21
X173.23Y-121.75
X173.23Y-124.29
X173.23Y-126.83
X173.23Y-129.37
X173.23Y-131.91
X173.23Y-134.45
X173.23Y-136.99
X173.23Y-139.53
X173.23Y-142.07
X173.23Y-144.61
X173.23Y-147.15
X173.23Y-149.69
X173.23Y-152.23
X173.23Y-154.77
X188.47Y-96.35
X188.47Y-98.89
X188.47Y-101.43
X188.47Y-103.97
X188.47Y-106.51
X188.47Y-109.05
X188.47Y-111.59
X188.47Y-114.13
X188.47Y-116.67
X188.47Y-119.21
X188.47Y-121.75
X188.47Y-124.29
X188.47Y-126.83
X188.47Y-129.37
X188.47Y-131.91
X188.47Y-134.45
X188.47Y-136.99
X188.47Y-139.53
X188.47Y-142.07
X188.47Y-144.61
X188.47Y-147.15
X188.47Y-149.69
X188.47Y-152.23
X188.47Y-154.77
T5
X262.97Y-184.11
X268.05Y-184.11
X250.06Y-119.13
X250.06Y-124.21
X250.06Y-129.29
X250.06Y-134.37
T6
X268.863Y-171.615
X268.863Y-77.015
X197.663Y-171.615
X197.663Y-77.015
T7
X168.5Y-209.04
X187.24Y-186.75
X212.24Y-186.75
X276.6Y-74.91
X226.38Y-203.36
X251.38Y-203.36
X226.43Y-186.89
X251.43Y-186.89
X168.5Y-74.91
X276.6Y-209.04
X187.19Y-203.27
X212.19Y-203.27
T0
M30
