G04 #@! TF.GenerationSoftware,KiCad,Pcbnew,(5.0.0)*
G04 #@! TF.CreationDate,2019-03-26T18:29:11-05:00*
G04 #@! TF.ProjectId,PP_OCT,50505F4F43542E6B696361645F706362,rev?*
G04 #@! TF.SameCoordinates,Original*
G04 #@! TF.FileFunction,Copper,L1,Top,Signal*
G04 #@! TF.FilePolarity,Positive*
%FSLAX46Y46*%
G04 Gerber Fmt 4.6, Leading zero omitted, Abs format (unit mm)*
G04 Created by KiCad (PCBNEW (5.0.0)) date 03/26/19 18:29:11*
%MOMM*%
%LPD*%
G01*
G04 APERTURE LIST*
G04 #@! TA.AperFunction,ComponentPad*
%ADD10C,3.000000*%
G04 #@! TD*
G04 #@! TA.AperFunction,ComponentPad*
%ADD11R,1.700000X1.700000*%
G04 #@! TD*
G04 #@! TA.AperFunction,ComponentPad*
%ADD12O,1.700000X1.700000*%
G04 #@! TD*
G04 #@! TA.AperFunction,ComponentPad*
%ADD13C,2.500000*%
G04 #@! TD*
G04 #@! TA.AperFunction,ComponentPad*
%ADD14R,2.500000X2.500000*%
G04 #@! TD*
G04 #@! TA.AperFunction,ViaPad*
%ADD15C,0.600000*%
G04 #@! TD*
G04 #@! TA.AperFunction,Conductor*
%ADD16R,5.000000X3.400000*%
G04 #@! TD*
G04 #@! TA.AperFunction,SMDPad,CuDef*
%ADD17R,0.450000X1.050000*%
G04 #@! TD*
G04 #@! TA.AperFunction,ComponentPad*
%ADD18C,4.000000*%
G04 #@! TD*
G04 #@! TA.AperFunction,ComponentPad*
%ADD19C,1.600000*%
G04 #@! TD*
G04 #@! TA.AperFunction,ComponentPad*
%ADD20R,1.600000X1.600000*%
G04 #@! TD*
G04 #@! TA.AperFunction,Conductor*
%ADD21C,0.100000*%
G04 #@! TD*
G04 #@! TA.AperFunction,SMDPad,CuDef*
%ADD22C,1.350000*%
G04 #@! TD*
G04 #@! TA.AperFunction,ViaPad*
%ADD23C,0.800000*%
G04 #@! TD*
G04 #@! TA.AperFunction,Conductor*
%ADD24C,0.350000*%
G04 #@! TD*
G04 #@! TA.AperFunction,Conductor*
%ADD25C,0.250000*%
G04 #@! TD*
G04 #@! TA.AperFunction,Conductor*
%ADD26C,3.000000*%
G04 #@! TD*
G04 #@! TA.AperFunction,Conductor*
%ADD27C,1.500000*%
G04 #@! TD*
G04 #@! TA.AperFunction,Conductor*
%ADD28C,10.331000*%
G04 #@! TD*
G04 #@! TA.AperFunction,Conductor*
%ADD29C,1.550000*%
G04 #@! TD*
G04 #@! TA.AperFunction,Conductor*
%ADD30C,0.254000*%
G04 #@! TD*
G04 APERTURE END LIST*
D10*
G04 #@! TO.P,REF\002A\002A,1*
G04 #@! TO.N,N/C*
X170950000Y-112470000D03*
G04 #@! TD*
G04 #@! TO.P,REF\002A\002A,1*
G04 #@! TO.N,N/C*
X90620000Y-112470000D03*
G04 #@! TD*
G04 #@! TO.P,REF\002A\002A,1*
G04 #@! TO.N,N/C*
X170950000Y-150140000D03*
G04 #@! TD*
G04 #@! TO.P,REF\002A\002A,1*
G04 #@! TO.N,N/C*
X90620000Y-150140000D03*
G04 #@! TD*
D11*
G04 #@! TO.P,J3,1*
G04 #@! TO.N,Net-(J3-Pad1)*
X163960000Y-150600000D03*
D12*
G04 #@! TO.P,J3,2*
G04 #@! TO.N,/VCC*
X136020000Y-148060000D03*
G04 #@! TO.P,J3,3*
G04 #@! TO.N,Net-(J3-Pad3)*
X161420000Y-150600000D03*
G04 #@! TO.P,J3,4*
G04 #@! TO.N,/VCC*
X138560000Y-148060000D03*
G04 #@! TO.P,J3,5*
G04 #@! TO.N,Net-(J3-Pad5)*
X158880000Y-150600000D03*
G04 #@! TO.P,J3,6*
G04 #@! TO.N,/VCC*
X141100000Y-148060000D03*
G04 #@! TO.P,J3,7*
G04 #@! TO.N,Net-(J3-Pad7)*
X156340000Y-150600000D03*
G04 #@! TO.P,J3,8*
G04 #@! TO.N,/VCC*
X143640000Y-148060000D03*
G04 #@! TO.P,J3,9*
G04 #@! TO.N,Net-(J3-Pad9)*
X153800000Y-150600000D03*
G04 #@! TO.P,J3,10*
G04 #@! TO.N,/VCC*
X146180000Y-148060000D03*
G04 #@! TO.P,J3,11*
G04 #@! TO.N,Net-(J3-Pad11)*
X151260000Y-150600000D03*
G04 #@! TO.P,J3,12*
G04 #@! TO.N,/VCC*
X148720000Y-148060000D03*
G04 #@! TO.P,J3,13*
G04 #@! TO.N,Net-(J3-Pad13)*
X148720000Y-150600000D03*
G04 #@! TO.P,J3,14*
G04 #@! TO.N,/VCC*
X151260000Y-148060000D03*
G04 #@! TO.P,J3,15*
G04 #@! TO.N,Net-(J3-Pad15)*
X146180000Y-150600000D03*
G04 #@! TO.P,J3,16*
G04 #@! TO.N,/VCC*
X153800000Y-148060000D03*
G04 #@! TO.P,J3,17*
G04 #@! TO.N,Net-(J3-Pad17)*
X143640000Y-150600000D03*
G04 #@! TO.P,J3,18*
G04 #@! TO.N,/VCC*
X156340000Y-148060000D03*
G04 #@! TO.P,J3,19*
G04 #@! TO.N,Net-(J3-Pad19)*
X141100000Y-150600000D03*
G04 #@! TO.P,J3,20*
G04 #@! TO.N,/VCC*
X158880000Y-148060000D03*
G04 #@! TO.P,J3,21*
G04 #@! TO.N,Net-(J3-Pad21)*
X138560000Y-150600000D03*
G04 #@! TO.P,J3,22*
G04 #@! TO.N,/VCC*
X161420000Y-148060000D03*
G04 #@! TO.P,J3,23*
G04 #@! TO.N,Net-(J3-Pad23)*
X136020000Y-150600000D03*
G04 #@! TO.P,J3,24*
G04 #@! TO.N,/VCC*
X163960000Y-148060000D03*
G04 #@! TD*
D11*
G04 #@! TO.P,J4,1*
G04 #@! TO.N,Net-(J4-Pad1)*
X130270000Y-150520000D03*
D12*
G04 #@! TO.P,J4,2*
G04 #@! TO.N,/VCC*
X102330000Y-147980000D03*
G04 #@! TO.P,J4,3*
G04 #@! TO.N,Net-(J4-Pad3)*
X127730000Y-150520000D03*
G04 #@! TO.P,J4,4*
G04 #@! TO.N,/VCC*
X104870000Y-147980000D03*
G04 #@! TO.P,J4,5*
G04 #@! TO.N,Net-(J4-Pad5)*
X125190000Y-150520000D03*
G04 #@! TO.P,J4,6*
G04 #@! TO.N,/VCC*
X107410000Y-147980000D03*
G04 #@! TO.P,J4,7*
G04 #@! TO.N,Net-(J4-Pad7)*
X122650000Y-150520000D03*
G04 #@! TO.P,J4,8*
G04 #@! TO.N,/VCC*
X109950000Y-147980000D03*
G04 #@! TO.P,J4,9*
G04 #@! TO.N,Net-(J4-Pad9)*
X120110000Y-150520000D03*
G04 #@! TO.P,J4,10*
G04 #@! TO.N,/VCC*
X112490000Y-147980000D03*
G04 #@! TO.P,J4,11*
G04 #@! TO.N,Net-(J4-Pad11)*
X117570000Y-150520000D03*
G04 #@! TO.P,J4,12*
G04 #@! TO.N,/VCC*
X115030000Y-147980000D03*
G04 #@! TO.P,J4,13*
G04 #@! TO.N,Net-(J4-Pad13)*
X115030000Y-150520000D03*
G04 #@! TO.P,J4,14*
G04 #@! TO.N,/VCC*
X117570000Y-147980000D03*
G04 #@! TO.P,J4,15*
G04 #@! TO.N,Net-(J4-Pad15)*
X112490000Y-150520000D03*
G04 #@! TO.P,J4,16*
G04 #@! TO.N,/VCC*
X120110000Y-147980000D03*
G04 #@! TO.P,J4,17*
G04 #@! TO.N,Net-(J4-Pad17)*
X109950000Y-150520000D03*
G04 #@! TO.P,J4,18*
G04 #@! TO.N,/VCC*
X122650000Y-147980000D03*
G04 #@! TO.P,J4,19*
G04 #@! TO.N,Net-(J4-Pad19)*
X107410000Y-150520000D03*
G04 #@! TO.P,J4,20*
G04 #@! TO.N,/VCC*
X125190000Y-147980000D03*
G04 #@! TO.P,J4,21*
G04 #@! TO.N,Net-(J4-Pad21)*
X104870000Y-150520000D03*
G04 #@! TO.P,J4,22*
G04 #@! TO.N,/VCC*
X127730000Y-147980000D03*
G04 #@! TO.P,J4,23*
G04 #@! TO.N,Net-(J4-Pad23)*
X102330000Y-150520000D03*
G04 #@! TO.P,J4,24*
G04 #@! TO.N,/VCC*
X130270000Y-147980000D03*
G04 #@! TD*
D13*
G04 #@! TO.P,J1,4*
G04 #@! TO.N,/VCC*
X102190000Y-118160000D03*
G04 #@! TO.P,J1,3*
X107270000Y-118160000D03*
G04 #@! TO.P,J1,2*
G04 #@! TO.N,/GND*
X112350000Y-118160000D03*
D14*
G04 #@! TO.P,J1,1*
X117430000Y-118160000D03*
G04 #@! TD*
D15*
G04 #@! TO.N,/GND*
G04 #@! TO.C,U3*
X104750000Y-132860000D03*
X104750000Y-131760000D03*
X104750000Y-130660000D03*
X105850000Y-132860000D03*
X105850000Y-131760000D03*
X105850000Y-130660000D03*
X106950000Y-132860000D03*
X106950000Y-131760000D03*
X106950000Y-130660000D03*
X108050000Y-132860000D03*
X108050000Y-131760000D03*
X108050000Y-130660000D03*
X109150000Y-130660000D03*
X109150000Y-131760000D03*
X109150000Y-132860000D03*
D16*
X106950000Y-131760000D03*
D17*
G04 #@! TD*
G04 #@! TO.P,U3,16*
G04 #@! TO.N,FAULT*
X104675000Y-128985000D03*
G04 #@! TO.P,U3,15*
G04 #@! TO.N,Net-(U1-Pad14)*
X105325000Y-128985000D03*
G04 #@! TO.P,U3,14*
G04 #@! TO.N,SER_DATA*
X105975000Y-128985000D03*
G04 #@! TO.P,U3,13*
G04 #@! TO.N,SER_CLK*
X106625000Y-128985000D03*
G04 #@! TO.P,U3,12*
G04 #@! TO.N,/GND*
X107275000Y-128985000D03*
G04 #@! TO.P,U3,11*
G04 #@! TO.N,LATCH_A*
X107925000Y-128985000D03*
G04 #@! TO.P,U3,10*
G04 #@! TO.N,Net-(U3-Pad10)*
X108575000Y-128985000D03*
G04 #@! TO.P,U3,9*
G04 #@! TO.N,RESET*
X109225000Y-128985000D03*
G04 #@! TO.P,U3,8*
G04 #@! TO.N,nENBL*
X109225000Y-134535000D03*
G04 #@! TO.P,U3,7*
G04 #@! TO.N,Net-(J4-Pad17)*
X108575000Y-134535000D03*
G04 #@! TO.P,U3,6*
G04 #@! TO.N,Net-(J4-Pad19)*
X107925000Y-134535000D03*
G04 #@! TO.P,U3,5*
G04 #@! TO.N,/GND*
X107275000Y-134535000D03*
G04 #@! TO.P,U3,4*
G04 #@! TO.N,Net-(J4-Pad21)*
X106625000Y-134535000D03*
G04 #@! TO.P,U3,3*
G04 #@! TO.N,Net-(J4-Pad23)*
X105975000Y-134535000D03*
G04 #@! TO.P,U3,2*
G04 #@! TO.N,/VCC*
X105325000Y-134535000D03*
G04 #@! TO.P,U3,1*
X104675000Y-134535000D03*
G04 #@! TD*
D18*
G04 #@! TO.P,J2,0*
G04 #@! TO.N,N/C*
X138430000Y-118060000D03*
X163430000Y-118060000D03*
D19*
G04 #@! TO.P,J2,9*
G04 #@! TO.N,/GND*
X155085000Y-116640000D03*
G04 #@! TO.P,J2,8*
G04 #@! TO.N,nENBL*
X152315000Y-116640000D03*
G04 #@! TO.P,J2,7*
G04 #@! TO.N,RESET*
X149545000Y-116640000D03*
G04 #@! TO.P,J2,6*
G04 #@! TO.N,FAULT*
X146775000Y-116640000D03*
G04 #@! TO.P,J2,5*
G04 #@! TO.N,SER_DATA*
X156470000Y-119480000D03*
G04 #@! TO.P,J2,4*
G04 #@! TO.N,SER_CLK*
X153700000Y-119480000D03*
G04 #@! TO.P,J2,3*
G04 #@! TO.N,LATCH_C*
X150930000Y-119480000D03*
G04 #@! TO.P,J2,2*
G04 #@! TO.N,LATCH_B*
X148160000Y-119480000D03*
D20*
G04 #@! TO.P,J2,1*
G04 #@! TO.N,LATCH_A*
X145390000Y-119480000D03*
G04 #@! TD*
D15*
G04 #@! TO.N,/GND*
G04 #@! TO.C,U1*
X115980000Y-132860000D03*
X115980000Y-131760000D03*
X115980000Y-130660000D03*
X117080000Y-132860000D03*
X117080000Y-131760000D03*
X117080000Y-130660000D03*
X118180000Y-132860000D03*
X118180000Y-131760000D03*
X118180000Y-130660000D03*
X119280000Y-132860000D03*
X119280000Y-131760000D03*
X119280000Y-130660000D03*
X120380000Y-130660000D03*
X120380000Y-131760000D03*
X120380000Y-132860000D03*
D16*
X118180000Y-131760000D03*
D17*
G04 #@! TD*
G04 #@! TO.P,U1,16*
G04 #@! TO.N,FAULT*
X115905000Y-128985000D03*
G04 #@! TO.P,U1,15*
G04 #@! TO.N,Net-(U1-Pad15)*
X116555000Y-128985000D03*
G04 #@! TO.P,U1,14*
G04 #@! TO.N,Net-(U1-Pad14)*
X117205000Y-128985000D03*
G04 #@! TO.P,U1,13*
G04 #@! TO.N,SER_CLK*
X117855000Y-128985000D03*
G04 #@! TO.P,U1,12*
G04 #@! TO.N,/GND*
X118505000Y-128985000D03*
G04 #@! TO.P,U1,11*
G04 #@! TO.N,LATCH_A*
X119155000Y-128985000D03*
G04 #@! TO.P,U1,10*
G04 #@! TO.N,Net-(U1-Pad10)*
X119805000Y-128985000D03*
G04 #@! TO.P,U1,9*
G04 #@! TO.N,RESET*
X120455000Y-128985000D03*
G04 #@! TO.P,U1,8*
G04 #@! TO.N,nENBL*
X120455000Y-134535000D03*
G04 #@! TO.P,U1,7*
G04 #@! TO.N,Net-(J4-Pad9)*
X119805000Y-134535000D03*
G04 #@! TO.P,U1,6*
G04 #@! TO.N,Net-(J4-Pad11)*
X119155000Y-134535000D03*
G04 #@! TO.P,U1,5*
G04 #@! TO.N,/GND*
X118505000Y-134535000D03*
G04 #@! TO.P,U1,4*
G04 #@! TO.N,Net-(J4-Pad13)*
X117855000Y-134535000D03*
G04 #@! TO.P,U1,3*
G04 #@! TO.N,Net-(J4-Pad15)*
X117205000Y-134535000D03*
G04 #@! TO.P,U1,2*
G04 #@! TO.N,/VCC*
X116555000Y-134535000D03*
G04 #@! TO.P,U1,1*
X115905000Y-134535000D03*
G04 #@! TD*
D15*
G04 #@! TO.N,/GND*
G04 #@! TO.C,U2*
X127120000Y-132860000D03*
X127120000Y-131760000D03*
X127120000Y-130660000D03*
X128220000Y-132860000D03*
X128220000Y-131760000D03*
X128220000Y-130660000D03*
X129320000Y-132860000D03*
X129320000Y-131760000D03*
X129320000Y-130660000D03*
X130420000Y-132860000D03*
X130420000Y-131760000D03*
X130420000Y-130660000D03*
X131520000Y-130660000D03*
X131520000Y-131760000D03*
X131520000Y-132860000D03*
D16*
X129320000Y-131760000D03*
D17*
G04 #@! TD*
G04 #@! TO.P,U2,16*
G04 #@! TO.N,FAULT*
X127045000Y-128985000D03*
G04 #@! TO.P,U2,15*
G04 #@! TO.N,Net-(U2-Pad15)*
X127695000Y-128985000D03*
G04 #@! TO.P,U2,14*
G04 #@! TO.N,SER_DATA*
X128345000Y-128985000D03*
G04 #@! TO.P,U2,13*
G04 #@! TO.N,SER_CLK*
X128995000Y-128985000D03*
G04 #@! TO.P,U2,12*
G04 #@! TO.N,/GND*
X129645000Y-128985000D03*
G04 #@! TO.P,U2,11*
G04 #@! TO.N,LATCH_B*
X130295000Y-128985000D03*
G04 #@! TO.P,U2,10*
G04 #@! TO.N,Net-(U2-Pad10)*
X130945000Y-128985000D03*
G04 #@! TO.P,U2,9*
G04 #@! TO.N,RESET*
X131595000Y-128985000D03*
G04 #@! TO.P,U2,8*
G04 #@! TO.N,nENBL*
X131595000Y-134535000D03*
G04 #@! TO.P,U2,7*
G04 #@! TO.N,Net-(J4-Pad1)*
X130945000Y-134535000D03*
G04 #@! TO.P,U2,6*
G04 #@! TO.N,Net-(J4-Pad3)*
X130295000Y-134535000D03*
G04 #@! TO.P,U2,5*
G04 #@! TO.N,/GND*
X129645000Y-134535000D03*
G04 #@! TO.P,U2,4*
G04 #@! TO.N,Net-(J4-Pad5)*
X128995000Y-134535000D03*
G04 #@! TO.P,U2,3*
G04 #@! TO.N,Net-(J4-Pad7)*
X128345000Y-134535000D03*
G04 #@! TO.P,U2,2*
G04 #@! TO.N,/VCC*
X127695000Y-134535000D03*
G04 #@! TO.P,U2,1*
X127045000Y-134535000D03*
G04 #@! TD*
D15*
G04 #@! TO.N,/GND*
G04 #@! TO.C,U4*
X137970000Y-132950000D03*
X137970000Y-131850000D03*
X137970000Y-130750000D03*
X139070000Y-132950000D03*
X139070000Y-131850000D03*
X139070000Y-130750000D03*
X140170000Y-132950000D03*
X140170000Y-131850000D03*
X140170000Y-130750000D03*
X141270000Y-132950000D03*
X141270000Y-131850000D03*
X141270000Y-130750000D03*
X142370000Y-130750000D03*
X142370000Y-131850000D03*
X142370000Y-132950000D03*
D16*
X140170000Y-131850000D03*
D17*
G04 #@! TD*
G04 #@! TO.P,U4,16*
G04 #@! TO.N,FAULT*
X137895000Y-129075000D03*
G04 #@! TO.P,U4,15*
G04 #@! TO.N,Net-(U4-Pad15)*
X138545000Y-129075000D03*
G04 #@! TO.P,U4,14*
G04 #@! TO.N,Net-(U2-Pad15)*
X139195000Y-129075000D03*
G04 #@! TO.P,U4,13*
G04 #@! TO.N,SER_CLK*
X139845000Y-129075000D03*
G04 #@! TO.P,U4,12*
G04 #@! TO.N,/GND*
X140495000Y-129075000D03*
G04 #@! TO.P,U4,11*
G04 #@! TO.N,LATCH_B*
X141145000Y-129075000D03*
G04 #@! TO.P,U4,10*
G04 #@! TO.N,Net-(U4-Pad10)*
X141795000Y-129075000D03*
G04 #@! TO.P,U4,9*
G04 #@! TO.N,RESET*
X142445000Y-129075000D03*
G04 #@! TO.P,U4,8*
G04 #@! TO.N,nENBL*
X142445000Y-134625000D03*
G04 #@! TO.P,U4,7*
G04 #@! TO.N,Net-(J3-Pad17)*
X141795000Y-134625000D03*
G04 #@! TO.P,U4,6*
G04 #@! TO.N,Net-(J3-Pad19)*
X141145000Y-134625000D03*
G04 #@! TO.P,U4,5*
G04 #@! TO.N,/GND*
X140495000Y-134625000D03*
G04 #@! TO.P,U4,4*
G04 #@! TO.N,Net-(J3-Pad21)*
X139845000Y-134625000D03*
G04 #@! TO.P,U4,3*
G04 #@! TO.N,Net-(J3-Pad23)*
X139195000Y-134625000D03*
G04 #@! TO.P,U4,2*
G04 #@! TO.N,/VCC*
X138545000Y-134625000D03*
G04 #@! TO.P,U4,1*
X137895000Y-134625000D03*
G04 #@! TD*
D15*
G04 #@! TO.N,/GND*
G04 #@! TO.C,U5*
X148930000Y-133030000D03*
X148930000Y-131930000D03*
X148930000Y-130830000D03*
X150030000Y-133030000D03*
X150030000Y-131930000D03*
X150030000Y-130830000D03*
X151130000Y-133030000D03*
X151130000Y-131930000D03*
X151130000Y-130830000D03*
X152230000Y-133030000D03*
X152230000Y-131930000D03*
X152230000Y-130830000D03*
X153330000Y-130830000D03*
X153330000Y-131930000D03*
X153330000Y-133030000D03*
D16*
X151130000Y-131930000D03*
D17*
G04 #@! TD*
G04 #@! TO.P,U5,16*
G04 #@! TO.N,FAULT*
X148855000Y-129155000D03*
G04 #@! TO.P,U5,15*
G04 #@! TO.N,Net-(U5-Pad15)*
X149505000Y-129155000D03*
G04 #@! TO.P,U5,14*
G04 #@! TO.N,SER_DATA*
X150155000Y-129155000D03*
G04 #@! TO.P,U5,13*
G04 #@! TO.N,SER_CLK*
X150805000Y-129155000D03*
G04 #@! TO.P,U5,12*
G04 #@! TO.N,/GND*
X151455000Y-129155000D03*
G04 #@! TO.P,U5,11*
G04 #@! TO.N,LATCH_C*
X152105000Y-129155000D03*
G04 #@! TO.P,U5,10*
G04 #@! TO.N,Net-(U5-Pad10)*
X152755000Y-129155000D03*
G04 #@! TO.P,U5,9*
G04 #@! TO.N,RESET*
X153405000Y-129155000D03*
G04 #@! TO.P,U5,8*
G04 #@! TO.N,nENBL*
X153405000Y-134705000D03*
G04 #@! TO.P,U5,7*
G04 #@! TO.N,Net-(J3-Pad9)*
X152755000Y-134705000D03*
G04 #@! TO.P,U5,6*
G04 #@! TO.N,Net-(J3-Pad11)*
X152105000Y-134705000D03*
G04 #@! TO.P,U5,5*
G04 #@! TO.N,/GND*
X151455000Y-134705000D03*
G04 #@! TO.P,U5,4*
G04 #@! TO.N,Net-(J3-Pad13)*
X150805000Y-134705000D03*
G04 #@! TO.P,U5,3*
G04 #@! TO.N,Net-(J3-Pad15)*
X150155000Y-134705000D03*
G04 #@! TO.P,U5,2*
G04 #@! TO.N,/VCC*
X149505000Y-134705000D03*
G04 #@! TO.P,U5,1*
X148855000Y-134705000D03*
G04 #@! TD*
D15*
G04 #@! TO.N,/GND*
G04 #@! TO.C,U6*
X160010000Y-133090000D03*
X160010000Y-131990000D03*
X160010000Y-130890000D03*
X161110000Y-133090000D03*
X161110000Y-131990000D03*
X161110000Y-130890000D03*
X162210000Y-133090000D03*
X162210000Y-131990000D03*
X162210000Y-130890000D03*
X163310000Y-133090000D03*
X163310000Y-131990000D03*
X163310000Y-130890000D03*
X164410000Y-130890000D03*
X164410000Y-131990000D03*
X164410000Y-133090000D03*
D16*
X162210000Y-131990000D03*
D17*
G04 #@! TD*
G04 #@! TO.P,U6,16*
G04 #@! TO.N,FAULT*
X159935000Y-129215000D03*
G04 #@! TO.P,U6,15*
G04 #@! TO.N,Net-(U6-Pad15)*
X160585000Y-129215000D03*
G04 #@! TO.P,U6,14*
G04 #@! TO.N,Net-(U5-Pad15)*
X161235000Y-129215000D03*
G04 #@! TO.P,U6,13*
G04 #@! TO.N,SER_CLK*
X161885000Y-129215000D03*
G04 #@! TO.P,U6,12*
G04 #@! TO.N,/GND*
X162535000Y-129215000D03*
G04 #@! TO.P,U6,11*
G04 #@! TO.N,LATCH_C*
X163185000Y-129215000D03*
G04 #@! TO.P,U6,10*
G04 #@! TO.N,Net-(U6-Pad10)*
X163835000Y-129215000D03*
G04 #@! TO.P,U6,9*
G04 #@! TO.N,RESET*
X164485000Y-129215000D03*
G04 #@! TO.P,U6,8*
G04 #@! TO.N,nENBL*
X164485000Y-134765000D03*
G04 #@! TO.P,U6,7*
G04 #@! TO.N,Net-(J3-Pad1)*
X163835000Y-134765000D03*
G04 #@! TO.P,U6,6*
G04 #@! TO.N,Net-(J3-Pad3)*
X163185000Y-134765000D03*
G04 #@! TO.P,U6,5*
G04 #@! TO.N,/GND*
X162535000Y-134765000D03*
G04 #@! TO.P,U6,4*
G04 #@! TO.N,Net-(J3-Pad5)*
X161885000Y-134765000D03*
G04 #@! TO.P,U6,3*
G04 #@! TO.N,Net-(J3-Pad7)*
X161235000Y-134765000D03*
G04 #@! TO.P,U6,2*
G04 #@! TO.N,/VCC*
X160585000Y-134765000D03*
G04 #@! TO.P,U6,1*
X159935000Y-134765000D03*
G04 #@! TD*
D21*
G04 #@! TO.N,/GND*
G04 #@! TO.C,C1*
G36*
X102129505Y-131496204D02*
X102153773Y-131499804D01*
X102177572Y-131505765D01*
X102200671Y-131514030D01*
X102222850Y-131524520D01*
X102243893Y-131537132D01*
X102263599Y-131551747D01*
X102281777Y-131568223D01*
X102298253Y-131586401D01*
X102312868Y-131606107D01*
X102325480Y-131627150D01*
X102335970Y-131649329D01*
X102344235Y-131672428D01*
X102350196Y-131696227D01*
X102353796Y-131720495D01*
X102355000Y-131744999D01*
X102355000Y-132820001D01*
X102353796Y-132844505D01*
X102350196Y-132868773D01*
X102344235Y-132892572D01*
X102335970Y-132915671D01*
X102325480Y-132937850D01*
X102312868Y-132958893D01*
X102298253Y-132978599D01*
X102281777Y-132996777D01*
X102263599Y-133013253D01*
X102243893Y-133027868D01*
X102222850Y-133040480D01*
X102200671Y-133050970D01*
X102177572Y-133059235D01*
X102153773Y-133065196D01*
X102129505Y-133068796D01*
X102105001Y-133070000D01*
X101254999Y-133070000D01*
X101230495Y-133068796D01*
X101206227Y-133065196D01*
X101182428Y-133059235D01*
X101159329Y-133050970D01*
X101137150Y-133040480D01*
X101116107Y-133027868D01*
X101096401Y-133013253D01*
X101078223Y-132996777D01*
X101061747Y-132978599D01*
X101047132Y-132958893D01*
X101034520Y-132937850D01*
X101024030Y-132915671D01*
X101015765Y-132892572D01*
X101009804Y-132868773D01*
X101006204Y-132844505D01*
X101005000Y-132820001D01*
X101005000Y-131744999D01*
X101006204Y-131720495D01*
X101009804Y-131696227D01*
X101015765Y-131672428D01*
X101024030Y-131649329D01*
X101034520Y-131627150D01*
X101047132Y-131606107D01*
X101061747Y-131586401D01*
X101078223Y-131568223D01*
X101096401Y-131551747D01*
X101116107Y-131537132D01*
X101137150Y-131524520D01*
X101159329Y-131514030D01*
X101182428Y-131505765D01*
X101206227Y-131499804D01*
X101230495Y-131496204D01*
X101254999Y-131495000D01*
X102105001Y-131495000D01*
X102129505Y-131496204D01*
X102129505Y-131496204D01*
G37*
D22*
G04 #@! TD*
G04 #@! TO.P,C1,2*
G04 #@! TO.N,/GND*
X101680000Y-132282500D03*
D21*
G04 #@! TO.N,/VCC*
G04 #@! TO.C,C1*
G36*
X102129505Y-134371204D02*
X102153773Y-134374804D01*
X102177572Y-134380765D01*
X102200671Y-134389030D01*
X102222850Y-134399520D01*
X102243893Y-134412132D01*
X102263599Y-134426747D01*
X102281777Y-134443223D01*
X102298253Y-134461401D01*
X102312868Y-134481107D01*
X102325480Y-134502150D01*
X102335970Y-134524329D01*
X102344235Y-134547428D01*
X102350196Y-134571227D01*
X102353796Y-134595495D01*
X102355000Y-134619999D01*
X102355000Y-135695001D01*
X102353796Y-135719505D01*
X102350196Y-135743773D01*
X102344235Y-135767572D01*
X102335970Y-135790671D01*
X102325480Y-135812850D01*
X102312868Y-135833893D01*
X102298253Y-135853599D01*
X102281777Y-135871777D01*
X102263599Y-135888253D01*
X102243893Y-135902868D01*
X102222850Y-135915480D01*
X102200671Y-135925970D01*
X102177572Y-135934235D01*
X102153773Y-135940196D01*
X102129505Y-135943796D01*
X102105001Y-135945000D01*
X101254999Y-135945000D01*
X101230495Y-135943796D01*
X101206227Y-135940196D01*
X101182428Y-135934235D01*
X101159329Y-135925970D01*
X101137150Y-135915480D01*
X101116107Y-135902868D01*
X101096401Y-135888253D01*
X101078223Y-135871777D01*
X101061747Y-135853599D01*
X101047132Y-135833893D01*
X101034520Y-135812850D01*
X101024030Y-135790671D01*
X101015765Y-135767572D01*
X101009804Y-135743773D01*
X101006204Y-135719505D01*
X101005000Y-135695001D01*
X101005000Y-134619999D01*
X101006204Y-134595495D01*
X101009804Y-134571227D01*
X101015765Y-134547428D01*
X101024030Y-134524329D01*
X101034520Y-134502150D01*
X101047132Y-134481107D01*
X101061747Y-134461401D01*
X101078223Y-134443223D01*
X101096401Y-134426747D01*
X101116107Y-134412132D01*
X101137150Y-134399520D01*
X101159329Y-134389030D01*
X101182428Y-134380765D01*
X101206227Y-134374804D01*
X101230495Y-134371204D01*
X101254999Y-134370000D01*
X102105001Y-134370000D01*
X102129505Y-134371204D01*
X102129505Y-134371204D01*
G37*
D22*
G04 #@! TD*
G04 #@! TO.P,C1,1*
G04 #@! TO.N,/VCC*
X101680000Y-135157500D03*
D21*
G04 #@! TO.N,/GND*
G04 #@! TO.C,C2*
G36*
X113249505Y-131466204D02*
X113273773Y-131469804D01*
X113297572Y-131475765D01*
X113320671Y-131484030D01*
X113342850Y-131494520D01*
X113363893Y-131507132D01*
X113383599Y-131521747D01*
X113401777Y-131538223D01*
X113418253Y-131556401D01*
X113432868Y-131576107D01*
X113445480Y-131597150D01*
X113455970Y-131619329D01*
X113464235Y-131642428D01*
X113470196Y-131666227D01*
X113473796Y-131690495D01*
X113475000Y-131714999D01*
X113475000Y-132790001D01*
X113473796Y-132814505D01*
X113470196Y-132838773D01*
X113464235Y-132862572D01*
X113455970Y-132885671D01*
X113445480Y-132907850D01*
X113432868Y-132928893D01*
X113418253Y-132948599D01*
X113401777Y-132966777D01*
X113383599Y-132983253D01*
X113363893Y-132997868D01*
X113342850Y-133010480D01*
X113320671Y-133020970D01*
X113297572Y-133029235D01*
X113273773Y-133035196D01*
X113249505Y-133038796D01*
X113225001Y-133040000D01*
X112374999Y-133040000D01*
X112350495Y-133038796D01*
X112326227Y-133035196D01*
X112302428Y-133029235D01*
X112279329Y-133020970D01*
X112257150Y-133010480D01*
X112236107Y-132997868D01*
X112216401Y-132983253D01*
X112198223Y-132966777D01*
X112181747Y-132948599D01*
X112167132Y-132928893D01*
X112154520Y-132907850D01*
X112144030Y-132885671D01*
X112135765Y-132862572D01*
X112129804Y-132838773D01*
X112126204Y-132814505D01*
X112125000Y-132790001D01*
X112125000Y-131714999D01*
X112126204Y-131690495D01*
X112129804Y-131666227D01*
X112135765Y-131642428D01*
X112144030Y-131619329D01*
X112154520Y-131597150D01*
X112167132Y-131576107D01*
X112181747Y-131556401D01*
X112198223Y-131538223D01*
X112216401Y-131521747D01*
X112236107Y-131507132D01*
X112257150Y-131494520D01*
X112279329Y-131484030D01*
X112302428Y-131475765D01*
X112326227Y-131469804D01*
X112350495Y-131466204D01*
X112374999Y-131465000D01*
X113225001Y-131465000D01*
X113249505Y-131466204D01*
X113249505Y-131466204D01*
G37*
D22*
G04 #@! TD*
G04 #@! TO.P,C2,2*
G04 #@! TO.N,/GND*
X112800000Y-132252500D03*
D21*
G04 #@! TO.N,/VCC*
G04 #@! TO.C,C2*
G36*
X113249505Y-134341204D02*
X113273773Y-134344804D01*
X113297572Y-134350765D01*
X113320671Y-134359030D01*
X113342850Y-134369520D01*
X113363893Y-134382132D01*
X113383599Y-134396747D01*
X113401777Y-134413223D01*
X113418253Y-134431401D01*
X113432868Y-134451107D01*
X113445480Y-134472150D01*
X113455970Y-134494329D01*
X113464235Y-134517428D01*
X113470196Y-134541227D01*
X113473796Y-134565495D01*
X113475000Y-134589999D01*
X113475000Y-135665001D01*
X113473796Y-135689505D01*
X113470196Y-135713773D01*
X113464235Y-135737572D01*
X113455970Y-135760671D01*
X113445480Y-135782850D01*
X113432868Y-135803893D01*
X113418253Y-135823599D01*
X113401777Y-135841777D01*
X113383599Y-135858253D01*
X113363893Y-135872868D01*
X113342850Y-135885480D01*
X113320671Y-135895970D01*
X113297572Y-135904235D01*
X113273773Y-135910196D01*
X113249505Y-135913796D01*
X113225001Y-135915000D01*
X112374999Y-135915000D01*
X112350495Y-135913796D01*
X112326227Y-135910196D01*
X112302428Y-135904235D01*
X112279329Y-135895970D01*
X112257150Y-135885480D01*
X112236107Y-135872868D01*
X112216401Y-135858253D01*
X112198223Y-135841777D01*
X112181747Y-135823599D01*
X112167132Y-135803893D01*
X112154520Y-135782850D01*
X112144030Y-135760671D01*
X112135765Y-135737572D01*
X112129804Y-135713773D01*
X112126204Y-135689505D01*
X112125000Y-135665001D01*
X112125000Y-134589999D01*
X112126204Y-134565495D01*
X112129804Y-134541227D01*
X112135765Y-134517428D01*
X112144030Y-134494329D01*
X112154520Y-134472150D01*
X112167132Y-134451107D01*
X112181747Y-134431401D01*
X112198223Y-134413223D01*
X112216401Y-134396747D01*
X112236107Y-134382132D01*
X112257150Y-134369520D01*
X112279329Y-134359030D01*
X112302428Y-134350765D01*
X112326227Y-134344804D01*
X112350495Y-134341204D01*
X112374999Y-134340000D01*
X113225001Y-134340000D01*
X113249505Y-134341204D01*
X113249505Y-134341204D01*
G37*
D22*
G04 #@! TD*
G04 #@! TO.P,C2,1*
G04 #@! TO.N,/VCC*
X112800000Y-135127500D03*
D21*
G04 #@! TO.N,/GND*
G04 #@! TO.C,C3*
G36*
X124469505Y-131466204D02*
X124493773Y-131469804D01*
X124517572Y-131475765D01*
X124540671Y-131484030D01*
X124562850Y-131494520D01*
X124583893Y-131507132D01*
X124603599Y-131521747D01*
X124621777Y-131538223D01*
X124638253Y-131556401D01*
X124652868Y-131576107D01*
X124665480Y-131597150D01*
X124675970Y-131619329D01*
X124684235Y-131642428D01*
X124690196Y-131666227D01*
X124693796Y-131690495D01*
X124695000Y-131714999D01*
X124695000Y-132790001D01*
X124693796Y-132814505D01*
X124690196Y-132838773D01*
X124684235Y-132862572D01*
X124675970Y-132885671D01*
X124665480Y-132907850D01*
X124652868Y-132928893D01*
X124638253Y-132948599D01*
X124621777Y-132966777D01*
X124603599Y-132983253D01*
X124583893Y-132997868D01*
X124562850Y-133010480D01*
X124540671Y-133020970D01*
X124517572Y-133029235D01*
X124493773Y-133035196D01*
X124469505Y-133038796D01*
X124445001Y-133040000D01*
X123594999Y-133040000D01*
X123570495Y-133038796D01*
X123546227Y-133035196D01*
X123522428Y-133029235D01*
X123499329Y-133020970D01*
X123477150Y-133010480D01*
X123456107Y-132997868D01*
X123436401Y-132983253D01*
X123418223Y-132966777D01*
X123401747Y-132948599D01*
X123387132Y-132928893D01*
X123374520Y-132907850D01*
X123364030Y-132885671D01*
X123355765Y-132862572D01*
X123349804Y-132838773D01*
X123346204Y-132814505D01*
X123345000Y-132790001D01*
X123345000Y-131714999D01*
X123346204Y-131690495D01*
X123349804Y-131666227D01*
X123355765Y-131642428D01*
X123364030Y-131619329D01*
X123374520Y-131597150D01*
X123387132Y-131576107D01*
X123401747Y-131556401D01*
X123418223Y-131538223D01*
X123436401Y-131521747D01*
X123456107Y-131507132D01*
X123477150Y-131494520D01*
X123499329Y-131484030D01*
X123522428Y-131475765D01*
X123546227Y-131469804D01*
X123570495Y-131466204D01*
X123594999Y-131465000D01*
X124445001Y-131465000D01*
X124469505Y-131466204D01*
X124469505Y-131466204D01*
G37*
D22*
G04 #@! TD*
G04 #@! TO.P,C3,2*
G04 #@! TO.N,/GND*
X124020000Y-132252500D03*
D21*
G04 #@! TO.N,/VCC*
G04 #@! TO.C,C3*
G36*
X124469505Y-134341204D02*
X124493773Y-134344804D01*
X124517572Y-134350765D01*
X124540671Y-134359030D01*
X124562850Y-134369520D01*
X124583893Y-134382132D01*
X124603599Y-134396747D01*
X124621777Y-134413223D01*
X124638253Y-134431401D01*
X124652868Y-134451107D01*
X124665480Y-134472150D01*
X124675970Y-134494329D01*
X124684235Y-134517428D01*
X124690196Y-134541227D01*
X124693796Y-134565495D01*
X124695000Y-134589999D01*
X124695000Y-135665001D01*
X124693796Y-135689505D01*
X124690196Y-135713773D01*
X124684235Y-135737572D01*
X124675970Y-135760671D01*
X124665480Y-135782850D01*
X124652868Y-135803893D01*
X124638253Y-135823599D01*
X124621777Y-135841777D01*
X124603599Y-135858253D01*
X124583893Y-135872868D01*
X124562850Y-135885480D01*
X124540671Y-135895970D01*
X124517572Y-135904235D01*
X124493773Y-135910196D01*
X124469505Y-135913796D01*
X124445001Y-135915000D01*
X123594999Y-135915000D01*
X123570495Y-135913796D01*
X123546227Y-135910196D01*
X123522428Y-135904235D01*
X123499329Y-135895970D01*
X123477150Y-135885480D01*
X123456107Y-135872868D01*
X123436401Y-135858253D01*
X123418223Y-135841777D01*
X123401747Y-135823599D01*
X123387132Y-135803893D01*
X123374520Y-135782850D01*
X123364030Y-135760671D01*
X123355765Y-135737572D01*
X123349804Y-135713773D01*
X123346204Y-135689505D01*
X123345000Y-135665001D01*
X123345000Y-134589999D01*
X123346204Y-134565495D01*
X123349804Y-134541227D01*
X123355765Y-134517428D01*
X123364030Y-134494329D01*
X123374520Y-134472150D01*
X123387132Y-134451107D01*
X123401747Y-134431401D01*
X123418223Y-134413223D01*
X123436401Y-134396747D01*
X123456107Y-134382132D01*
X123477150Y-134369520D01*
X123499329Y-134359030D01*
X123522428Y-134350765D01*
X123546227Y-134344804D01*
X123570495Y-134341204D01*
X123594999Y-134340000D01*
X124445001Y-134340000D01*
X124469505Y-134341204D01*
X124469505Y-134341204D01*
G37*
D22*
G04 #@! TD*
G04 #@! TO.P,C3,1*
G04 #@! TO.N,/VCC*
X124020000Y-135127500D03*
D21*
G04 #@! TO.N,/GND*
G04 #@! TO.C,C4*
G36*
X135139505Y-131466204D02*
X135163773Y-131469804D01*
X135187572Y-131475765D01*
X135210671Y-131484030D01*
X135232850Y-131494520D01*
X135253893Y-131507132D01*
X135273599Y-131521747D01*
X135291777Y-131538223D01*
X135308253Y-131556401D01*
X135322868Y-131576107D01*
X135335480Y-131597150D01*
X135345970Y-131619329D01*
X135354235Y-131642428D01*
X135360196Y-131666227D01*
X135363796Y-131690495D01*
X135365000Y-131714999D01*
X135365000Y-132790001D01*
X135363796Y-132814505D01*
X135360196Y-132838773D01*
X135354235Y-132862572D01*
X135345970Y-132885671D01*
X135335480Y-132907850D01*
X135322868Y-132928893D01*
X135308253Y-132948599D01*
X135291777Y-132966777D01*
X135273599Y-132983253D01*
X135253893Y-132997868D01*
X135232850Y-133010480D01*
X135210671Y-133020970D01*
X135187572Y-133029235D01*
X135163773Y-133035196D01*
X135139505Y-133038796D01*
X135115001Y-133040000D01*
X134264999Y-133040000D01*
X134240495Y-133038796D01*
X134216227Y-133035196D01*
X134192428Y-133029235D01*
X134169329Y-133020970D01*
X134147150Y-133010480D01*
X134126107Y-132997868D01*
X134106401Y-132983253D01*
X134088223Y-132966777D01*
X134071747Y-132948599D01*
X134057132Y-132928893D01*
X134044520Y-132907850D01*
X134034030Y-132885671D01*
X134025765Y-132862572D01*
X134019804Y-132838773D01*
X134016204Y-132814505D01*
X134015000Y-132790001D01*
X134015000Y-131714999D01*
X134016204Y-131690495D01*
X134019804Y-131666227D01*
X134025765Y-131642428D01*
X134034030Y-131619329D01*
X134044520Y-131597150D01*
X134057132Y-131576107D01*
X134071747Y-131556401D01*
X134088223Y-131538223D01*
X134106401Y-131521747D01*
X134126107Y-131507132D01*
X134147150Y-131494520D01*
X134169329Y-131484030D01*
X134192428Y-131475765D01*
X134216227Y-131469804D01*
X134240495Y-131466204D01*
X134264999Y-131465000D01*
X135115001Y-131465000D01*
X135139505Y-131466204D01*
X135139505Y-131466204D01*
G37*
D22*
G04 #@! TD*
G04 #@! TO.P,C4,2*
G04 #@! TO.N,/GND*
X134690000Y-132252500D03*
D21*
G04 #@! TO.N,/VCC*
G04 #@! TO.C,C4*
G36*
X135139505Y-134341204D02*
X135163773Y-134344804D01*
X135187572Y-134350765D01*
X135210671Y-134359030D01*
X135232850Y-134369520D01*
X135253893Y-134382132D01*
X135273599Y-134396747D01*
X135291777Y-134413223D01*
X135308253Y-134431401D01*
X135322868Y-134451107D01*
X135335480Y-134472150D01*
X135345970Y-134494329D01*
X135354235Y-134517428D01*
X135360196Y-134541227D01*
X135363796Y-134565495D01*
X135365000Y-134589999D01*
X135365000Y-135665001D01*
X135363796Y-135689505D01*
X135360196Y-135713773D01*
X135354235Y-135737572D01*
X135345970Y-135760671D01*
X135335480Y-135782850D01*
X135322868Y-135803893D01*
X135308253Y-135823599D01*
X135291777Y-135841777D01*
X135273599Y-135858253D01*
X135253893Y-135872868D01*
X135232850Y-135885480D01*
X135210671Y-135895970D01*
X135187572Y-135904235D01*
X135163773Y-135910196D01*
X135139505Y-135913796D01*
X135115001Y-135915000D01*
X134264999Y-135915000D01*
X134240495Y-135913796D01*
X134216227Y-135910196D01*
X134192428Y-135904235D01*
X134169329Y-135895970D01*
X134147150Y-135885480D01*
X134126107Y-135872868D01*
X134106401Y-135858253D01*
X134088223Y-135841777D01*
X134071747Y-135823599D01*
X134057132Y-135803893D01*
X134044520Y-135782850D01*
X134034030Y-135760671D01*
X134025765Y-135737572D01*
X134019804Y-135713773D01*
X134016204Y-135689505D01*
X134015000Y-135665001D01*
X134015000Y-134589999D01*
X134016204Y-134565495D01*
X134019804Y-134541227D01*
X134025765Y-134517428D01*
X134034030Y-134494329D01*
X134044520Y-134472150D01*
X134057132Y-134451107D01*
X134071747Y-134431401D01*
X134088223Y-134413223D01*
X134106401Y-134396747D01*
X134126107Y-134382132D01*
X134147150Y-134369520D01*
X134169329Y-134359030D01*
X134192428Y-134350765D01*
X134216227Y-134344804D01*
X134240495Y-134341204D01*
X134264999Y-134340000D01*
X135115001Y-134340000D01*
X135139505Y-134341204D01*
X135139505Y-134341204D01*
G37*
D22*
G04 #@! TD*
G04 #@! TO.P,C4,1*
G04 #@! TO.N,/VCC*
X134690000Y-135127500D03*
D21*
G04 #@! TO.N,/GND*
G04 #@! TO.C,C5*
G36*
X146039505Y-131476204D02*
X146063773Y-131479804D01*
X146087572Y-131485765D01*
X146110671Y-131494030D01*
X146132850Y-131504520D01*
X146153893Y-131517132D01*
X146173599Y-131531747D01*
X146191777Y-131548223D01*
X146208253Y-131566401D01*
X146222868Y-131586107D01*
X146235480Y-131607150D01*
X146245970Y-131629329D01*
X146254235Y-131652428D01*
X146260196Y-131676227D01*
X146263796Y-131700495D01*
X146265000Y-131724999D01*
X146265000Y-132800001D01*
X146263796Y-132824505D01*
X146260196Y-132848773D01*
X146254235Y-132872572D01*
X146245970Y-132895671D01*
X146235480Y-132917850D01*
X146222868Y-132938893D01*
X146208253Y-132958599D01*
X146191777Y-132976777D01*
X146173599Y-132993253D01*
X146153893Y-133007868D01*
X146132850Y-133020480D01*
X146110671Y-133030970D01*
X146087572Y-133039235D01*
X146063773Y-133045196D01*
X146039505Y-133048796D01*
X146015001Y-133050000D01*
X145164999Y-133050000D01*
X145140495Y-133048796D01*
X145116227Y-133045196D01*
X145092428Y-133039235D01*
X145069329Y-133030970D01*
X145047150Y-133020480D01*
X145026107Y-133007868D01*
X145006401Y-132993253D01*
X144988223Y-132976777D01*
X144971747Y-132958599D01*
X144957132Y-132938893D01*
X144944520Y-132917850D01*
X144934030Y-132895671D01*
X144925765Y-132872572D01*
X144919804Y-132848773D01*
X144916204Y-132824505D01*
X144915000Y-132800001D01*
X144915000Y-131724999D01*
X144916204Y-131700495D01*
X144919804Y-131676227D01*
X144925765Y-131652428D01*
X144934030Y-131629329D01*
X144944520Y-131607150D01*
X144957132Y-131586107D01*
X144971747Y-131566401D01*
X144988223Y-131548223D01*
X145006401Y-131531747D01*
X145026107Y-131517132D01*
X145047150Y-131504520D01*
X145069329Y-131494030D01*
X145092428Y-131485765D01*
X145116227Y-131479804D01*
X145140495Y-131476204D01*
X145164999Y-131475000D01*
X146015001Y-131475000D01*
X146039505Y-131476204D01*
X146039505Y-131476204D01*
G37*
D22*
G04 #@! TD*
G04 #@! TO.P,C5,2*
G04 #@! TO.N,/GND*
X145590000Y-132262500D03*
D21*
G04 #@! TO.N,/VCC*
G04 #@! TO.C,C5*
G36*
X146039505Y-134351204D02*
X146063773Y-134354804D01*
X146087572Y-134360765D01*
X146110671Y-134369030D01*
X146132850Y-134379520D01*
X146153893Y-134392132D01*
X146173599Y-134406747D01*
X146191777Y-134423223D01*
X146208253Y-134441401D01*
X146222868Y-134461107D01*
X146235480Y-134482150D01*
X146245970Y-134504329D01*
X146254235Y-134527428D01*
X146260196Y-134551227D01*
X146263796Y-134575495D01*
X146265000Y-134599999D01*
X146265000Y-135675001D01*
X146263796Y-135699505D01*
X146260196Y-135723773D01*
X146254235Y-135747572D01*
X146245970Y-135770671D01*
X146235480Y-135792850D01*
X146222868Y-135813893D01*
X146208253Y-135833599D01*
X146191777Y-135851777D01*
X146173599Y-135868253D01*
X146153893Y-135882868D01*
X146132850Y-135895480D01*
X146110671Y-135905970D01*
X146087572Y-135914235D01*
X146063773Y-135920196D01*
X146039505Y-135923796D01*
X146015001Y-135925000D01*
X145164999Y-135925000D01*
X145140495Y-135923796D01*
X145116227Y-135920196D01*
X145092428Y-135914235D01*
X145069329Y-135905970D01*
X145047150Y-135895480D01*
X145026107Y-135882868D01*
X145006401Y-135868253D01*
X144988223Y-135851777D01*
X144971747Y-135833599D01*
X144957132Y-135813893D01*
X144944520Y-135792850D01*
X144934030Y-135770671D01*
X144925765Y-135747572D01*
X144919804Y-135723773D01*
X144916204Y-135699505D01*
X144915000Y-135675001D01*
X144915000Y-134599999D01*
X144916204Y-134575495D01*
X144919804Y-134551227D01*
X144925765Y-134527428D01*
X144934030Y-134504329D01*
X144944520Y-134482150D01*
X144957132Y-134461107D01*
X144971747Y-134441401D01*
X144988223Y-134423223D01*
X145006401Y-134406747D01*
X145026107Y-134392132D01*
X145047150Y-134379520D01*
X145069329Y-134369030D01*
X145092428Y-134360765D01*
X145116227Y-134354804D01*
X145140495Y-134351204D01*
X145164999Y-134350000D01*
X146015001Y-134350000D01*
X146039505Y-134351204D01*
X146039505Y-134351204D01*
G37*
D22*
G04 #@! TD*
G04 #@! TO.P,C5,1*
G04 #@! TO.N,/VCC*
X145590000Y-135137500D03*
D21*
G04 #@! TO.N,/GND*
G04 #@! TO.C,C6*
G36*
X157119505Y-131476204D02*
X157143773Y-131479804D01*
X157167572Y-131485765D01*
X157190671Y-131494030D01*
X157212850Y-131504520D01*
X157233893Y-131517132D01*
X157253599Y-131531747D01*
X157271777Y-131548223D01*
X157288253Y-131566401D01*
X157302868Y-131586107D01*
X157315480Y-131607150D01*
X157325970Y-131629329D01*
X157334235Y-131652428D01*
X157340196Y-131676227D01*
X157343796Y-131700495D01*
X157345000Y-131724999D01*
X157345000Y-132800001D01*
X157343796Y-132824505D01*
X157340196Y-132848773D01*
X157334235Y-132872572D01*
X157325970Y-132895671D01*
X157315480Y-132917850D01*
X157302868Y-132938893D01*
X157288253Y-132958599D01*
X157271777Y-132976777D01*
X157253599Y-132993253D01*
X157233893Y-133007868D01*
X157212850Y-133020480D01*
X157190671Y-133030970D01*
X157167572Y-133039235D01*
X157143773Y-133045196D01*
X157119505Y-133048796D01*
X157095001Y-133050000D01*
X156244999Y-133050000D01*
X156220495Y-133048796D01*
X156196227Y-133045196D01*
X156172428Y-133039235D01*
X156149329Y-133030970D01*
X156127150Y-133020480D01*
X156106107Y-133007868D01*
X156086401Y-132993253D01*
X156068223Y-132976777D01*
X156051747Y-132958599D01*
X156037132Y-132938893D01*
X156024520Y-132917850D01*
X156014030Y-132895671D01*
X156005765Y-132872572D01*
X155999804Y-132848773D01*
X155996204Y-132824505D01*
X155995000Y-132800001D01*
X155995000Y-131724999D01*
X155996204Y-131700495D01*
X155999804Y-131676227D01*
X156005765Y-131652428D01*
X156014030Y-131629329D01*
X156024520Y-131607150D01*
X156037132Y-131586107D01*
X156051747Y-131566401D01*
X156068223Y-131548223D01*
X156086401Y-131531747D01*
X156106107Y-131517132D01*
X156127150Y-131504520D01*
X156149329Y-131494030D01*
X156172428Y-131485765D01*
X156196227Y-131479804D01*
X156220495Y-131476204D01*
X156244999Y-131475000D01*
X157095001Y-131475000D01*
X157119505Y-131476204D01*
X157119505Y-131476204D01*
G37*
D22*
G04 #@! TD*
G04 #@! TO.P,C6,2*
G04 #@! TO.N,/GND*
X156670000Y-132262500D03*
D21*
G04 #@! TO.N,/VCC*
G04 #@! TO.C,C6*
G36*
X157119505Y-134351204D02*
X157143773Y-134354804D01*
X157167572Y-134360765D01*
X157190671Y-134369030D01*
X157212850Y-134379520D01*
X157233893Y-134392132D01*
X157253599Y-134406747D01*
X157271777Y-134423223D01*
X157288253Y-134441401D01*
X157302868Y-134461107D01*
X157315480Y-134482150D01*
X157325970Y-134504329D01*
X157334235Y-134527428D01*
X157340196Y-134551227D01*
X157343796Y-134575495D01*
X157345000Y-134599999D01*
X157345000Y-135675001D01*
X157343796Y-135699505D01*
X157340196Y-135723773D01*
X157334235Y-135747572D01*
X157325970Y-135770671D01*
X157315480Y-135792850D01*
X157302868Y-135813893D01*
X157288253Y-135833599D01*
X157271777Y-135851777D01*
X157253599Y-135868253D01*
X157233893Y-135882868D01*
X157212850Y-135895480D01*
X157190671Y-135905970D01*
X157167572Y-135914235D01*
X157143773Y-135920196D01*
X157119505Y-135923796D01*
X157095001Y-135925000D01*
X156244999Y-135925000D01*
X156220495Y-135923796D01*
X156196227Y-135920196D01*
X156172428Y-135914235D01*
X156149329Y-135905970D01*
X156127150Y-135895480D01*
X156106107Y-135882868D01*
X156086401Y-135868253D01*
X156068223Y-135851777D01*
X156051747Y-135833599D01*
X156037132Y-135813893D01*
X156024520Y-135792850D01*
X156014030Y-135770671D01*
X156005765Y-135747572D01*
X155999804Y-135723773D01*
X155996204Y-135699505D01*
X155995000Y-135675001D01*
X155995000Y-134599999D01*
X155996204Y-134575495D01*
X155999804Y-134551227D01*
X156005765Y-134527428D01*
X156014030Y-134504329D01*
X156024520Y-134482150D01*
X156037132Y-134461107D01*
X156051747Y-134441401D01*
X156068223Y-134423223D01*
X156086401Y-134406747D01*
X156106107Y-134392132D01*
X156127150Y-134379520D01*
X156149329Y-134369030D01*
X156172428Y-134360765D01*
X156196227Y-134354804D01*
X156220495Y-134351204D01*
X156244999Y-134350000D01*
X157095001Y-134350000D01*
X157119505Y-134351204D01*
X157119505Y-134351204D01*
G37*
D22*
G04 #@! TD*
G04 #@! TO.P,C6,1*
G04 #@! TO.N,/VCC*
X156670000Y-135137500D03*
D23*
G04 #@! TO.N,Net-(J3-Pad1)*
X165230000Y-137750000D03*
G04 #@! TO.N,Net-(J3-Pad3)*
X163960000Y-137820000D03*
G04 #@! TO.N,Net-(J3-Pad5)*
X162780000Y-137730000D03*
G04 #@! TO.N,Net-(J3-Pad7)*
X161440000Y-137800000D03*
G04 #@! TO.N,Net-(J3-Pad9)*
X154160000Y-137690000D03*
G04 #@! TO.N,Net-(J3-Pad11)*
X152890000Y-137760000D03*
G04 #@! TO.N,Net-(J3-Pad13)*
X151710000Y-137670000D03*
G04 #@! TO.N,Net-(J3-Pad15)*
X150370000Y-137740000D03*
G04 #@! TO.N,Net-(J3-Pad17)*
X143200000Y-137520000D03*
G04 #@! TO.N,Net-(J3-Pad19)*
X141930000Y-137590000D03*
G04 #@! TO.N,Net-(J3-Pad21)*
X140750000Y-137500000D03*
G04 #@! TO.N,Net-(J3-Pad23)*
X139410000Y-137570000D03*
G04 #@! TO.N,Net-(J4-Pad23)*
X106190000Y-137550000D03*
G04 #@! TO.N,Net-(J4-Pad21)*
X107530000Y-137480000D03*
G04 #@! TO.N,Net-(J4-Pad19)*
X108710000Y-137570000D03*
G04 #@! TO.N,Net-(J4-Pad17)*
X109980000Y-137500000D03*
G04 #@! TO.N,Net-(J4-Pad15)*
X117410000Y-137570000D03*
G04 #@! TO.N,Net-(J4-Pad13)*
X118750000Y-137500000D03*
G04 #@! TO.N,Net-(J4-Pad11)*
X119930000Y-137590000D03*
G04 #@! TO.N,Net-(J4-Pad9)*
X121200000Y-137520000D03*
G04 #@! TO.N,Net-(J4-Pad7)*
X128570000Y-137560000D03*
G04 #@! TO.N,Net-(J4-Pad5)*
X129910000Y-137490000D03*
G04 #@! TO.N,Net-(J4-Pad3)*
X131090000Y-137580000D03*
G04 #@! TO.N,Net-(J4-Pad1)*
X132360000Y-137510000D03*
G04 #@! TO.N,Net-(U1-Pad14)*
X105930000Y-122280000D03*
X117200000Y-122280000D03*
G04 #@! TO.N,Net-(U2-Pad15)*
X128320000Y-122290000D03*
X139080000Y-122290000D03*
G04 #@! TO.N,LATCH_A*
X108500000Y-125400000D03*
X119530000Y-125400000D03*
G04 #@! TO.N,LATCH_B*
X131300000Y-125490000D03*
X141240000Y-125490000D03*
G04 #@! TO.N,LATCH_C*
X152920000Y-125590000D03*
X163090000Y-125590000D03*
G04 #@! TO.N,SER_CLK*
X107390000Y-124360000D03*
X162030000Y-124360000D03*
X151810000Y-124360000D03*
X140370000Y-124360000D03*
X130420000Y-124360000D03*
X118490000Y-124360000D03*
G04 #@! TO.N,SER_DATA*
X106640000Y-123330000D03*
X150980000Y-123330000D03*
X129440000Y-123330000D03*
G04 #@! TO.N,FAULT*
X104660000Y-121830000D03*
X159960001Y-121430001D03*
X148840000Y-121430001D03*
X137910000Y-121430001D03*
X127130000Y-121430001D03*
X115950000Y-121430001D03*
G04 #@! TO.N,Net-(U5-Pad15)*
X150110000Y-122390000D03*
X161220000Y-122390000D03*
G04 #@! TO.N,RESET*
X109220000Y-126500000D03*
X120460000Y-126500000D03*
X132420000Y-126500000D03*
X142600000Y-126490000D03*
X153960000Y-126490000D03*
X164610000Y-126490000D03*
G04 #@! TO.N,nENBL*
X165555000Y-135360000D03*
X154540000Y-135365000D03*
X143565000Y-135270000D03*
X121660000Y-135080000D03*
X110500000Y-135335000D03*
X132745000Y-135210000D03*
G04 #@! TD*
D24*
G04 #@! TO.N,Net-(J3-Pad1)*
X165230000Y-137750000D02*
X165230000Y-137750000D01*
X163825000Y-135532170D02*
X165230000Y-136937170D01*
X165230000Y-136937170D02*
X165230000Y-137750000D01*
X163825000Y-134785000D02*
X163825000Y-135532170D01*
D25*
G04 #@! TO.N,/GND*
X107275000Y-132085000D02*
X106950000Y-131760000D01*
X107275000Y-134535000D02*
X107275000Y-132085000D01*
X107275000Y-131435000D02*
X106950000Y-131760000D01*
X107275000Y-128985000D02*
X107275000Y-131435000D01*
X112025000Y-132252500D02*
X112800000Y-132252500D01*
X118505000Y-132085000D02*
X118180000Y-131760000D01*
X118505000Y-134535000D02*
X118505000Y-132085000D01*
X118505000Y-131435000D02*
X118180000Y-131760000D01*
X118505000Y-128985000D02*
X118505000Y-131435000D01*
X129645000Y-131435000D02*
X129320000Y-131760000D01*
X129645000Y-128985000D02*
X129645000Y-131435000D01*
X129619999Y-132059999D02*
X129320000Y-131760000D01*
X128827500Y-132252500D02*
X129320000Y-131760000D01*
X150797500Y-132262500D02*
X151130000Y-131930000D01*
X151455000Y-132255000D02*
X151130000Y-131930000D01*
X151455000Y-134705000D02*
X151455000Y-132255000D01*
X151455000Y-131605000D02*
X151130000Y-131930000D01*
X151455000Y-129155000D02*
X151455000Y-131605000D01*
X162535000Y-131665000D02*
X162210000Y-131990000D01*
X162535000Y-129215000D02*
X162535000Y-131665000D01*
X162395002Y-131990000D02*
X162210000Y-131990000D01*
X140495000Y-131525000D02*
X140170000Y-131850000D01*
X140495000Y-129075000D02*
X140495000Y-131525000D01*
D26*
X115930000Y-118160000D02*
X112350000Y-118160000D01*
D25*
X117430000Y-118160000D02*
X115930000Y-118160000D01*
X129645000Y-132085000D02*
X129320000Y-131760000D01*
X129645000Y-134535000D02*
X129645000Y-132085000D01*
X140495000Y-132175000D02*
X140170000Y-131850000D01*
X140495000Y-134625000D02*
X140495000Y-132175000D01*
X162535000Y-132315000D02*
X162210000Y-131990000D01*
X162535000Y-134765000D02*
X162535000Y-132315000D01*
X112350000Y-131802500D02*
X112800000Y-132252500D01*
D26*
X112350000Y-118160000D02*
X112350000Y-131802500D01*
D25*
X107135002Y-131760000D02*
X106950000Y-131760000D01*
X151429999Y-131630001D02*
X151130000Y-131930000D01*
D24*
G04 #@! TO.N,Net-(J3-Pad3)*
X163960000Y-137820000D02*
X163960000Y-137820000D01*
X163960000Y-136445000D02*
X163960000Y-137190000D01*
X163175000Y-135660000D02*
X163960000Y-136445000D01*
X163175000Y-134785000D02*
X163175000Y-135660000D01*
X163960000Y-137190000D02*
X163960000Y-137820000D01*
G04 #@! TO.N,Net-(J3-Pad5)*
X161875000Y-134785000D02*
X161875000Y-135532170D01*
X162780000Y-136437170D02*
X162780000Y-137730000D01*
X161875000Y-135532170D02*
X162780000Y-136437170D01*
X162780000Y-137210000D02*
X162780000Y-137730000D01*
X162780000Y-137730000D02*
X162780000Y-137210000D01*
G04 #@! TO.N,Net-(J3-Pad7)*
X161440000Y-137800000D02*
X161440000Y-137800000D01*
X161440000Y-136400000D02*
X161440000Y-137800000D01*
X161225000Y-136185000D02*
X161440000Y-136400000D01*
X161225000Y-134785000D02*
X161225000Y-136185000D01*
G04 #@! TO.N,Net-(J3-Pad9)*
X154160000Y-137690000D02*
X154160000Y-137690000D01*
X152755000Y-135472170D02*
X154160000Y-136877170D01*
X154160000Y-136877170D02*
X154160000Y-137690000D01*
X152755000Y-134725000D02*
X152755000Y-135472170D01*
G04 #@! TO.N,Net-(J3-Pad11)*
X152890000Y-137760000D02*
X152890000Y-137760000D01*
X152890000Y-136385000D02*
X152890000Y-137130000D01*
X152105000Y-135600000D02*
X152890000Y-136385000D01*
X152105000Y-134725000D02*
X152105000Y-135600000D01*
X152890000Y-137130000D02*
X152890000Y-137760000D01*
G04 #@! TO.N,Net-(J3-Pad13)*
X150805000Y-134725000D02*
X150805000Y-135472170D01*
X151710000Y-136377170D02*
X151710000Y-137670000D01*
X150805000Y-135472170D02*
X151710000Y-136377170D01*
X151710000Y-137150000D02*
X151710000Y-137670000D01*
X151710000Y-137670000D02*
X151710000Y-137150000D01*
G04 #@! TO.N,Net-(J3-Pad15)*
X150370000Y-137740000D02*
X150370000Y-137740000D01*
X150370000Y-136340000D02*
X150370000Y-137740000D01*
X150155000Y-136125000D02*
X150370000Y-136340000D01*
X150155000Y-134725000D02*
X150155000Y-136125000D01*
G04 #@! TO.N,Net-(J3-Pad17)*
X143200000Y-137520000D02*
X143200000Y-137520000D01*
X141795000Y-135302170D02*
X143200000Y-136707170D01*
X143200000Y-136707170D02*
X143200000Y-137520000D01*
X141795000Y-135302170D02*
X141795000Y-134625000D01*
G04 #@! TO.N,Net-(J3-Pad19)*
X141930000Y-137590000D02*
X141930000Y-137590000D01*
X141145000Y-135430000D02*
X141145000Y-134625000D01*
X141930000Y-137590000D02*
X141930000Y-136215000D01*
X141930000Y-136215000D02*
X141145000Y-135430000D01*
G04 #@! TO.N,Net-(J3-Pad21)*
X140750000Y-136207170D02*
X140750000Y-137500000D01*
X139845000Y-135302170D02*
X140750000Y-136207170D01*
X140750000Y-136980000D02*
X140750000Y-137500000D01*
X140750000Y-137500000D02*
X140750000Y-136980000D01*
X139845000Y-135302170D02*
X139845000Y-134625000D01*
G04 #@! TO.N,Net-(J3-Pad23)*
X139410000Y-137570000D02*
X139410000Y-137570000D01*
X139410000Y-136170000D02*
X139410000Y-137570000D01*
X139195000Y-135955000D02*
X139410000Y-136170000D01*
X139195000Y-135955000D02*
X139195000Y-134625000D01*
G04 #@! TO.N,Net-(J4-Pad23)*
X105975000Y-134535000D02*
X105975000Y-135935000D01*
X105975000Y-135935000D02*
X106190000Y-136150000D01*
X106190000Y-136150000D02*
X106190000Y-137550000D01*
X106190000Y-137550000D02*
X106190000Y-137550000D01*
G04 #@! TO.N,Net-(J4-Pad21)*
X106625000Y-135282170D02*
X107530000Y-136187170D01*
X106625000Y-134535000D02*
X106625000Y-135282170D01*
X107530000Y-136187170D02*
X107530000Y-137480000D01*
X107530000Y-136960000D02*
X107530000Y-137480000D01*
X107530000Y-137480000D02*
X107530000Y-136960000D01*
G04 #@! TO.N,Net-(J4-Pad19)*
X107925000Y-135410000D02*
X108710000Y-136195000D01*
X107925000Y-134535000D02*
X107925000Y-135410000D01*
X108710000Y-136195000D02*
X108710000Y-136940000D01*
X108710000Y-136940000D02*
X108710000Y-137570000D01*
X108710000Y-137570000D02*
X108710000Y-137570000D01*
G04 #@! TO.N,Net-(J4-Pad17)*
X108575000Y-135282170D02*
X109980000Y-136687170D01*
X108575000Y-134535000D02*
X108575000Y-135282170D01*
X109980000Y-136687170D02*
X109980000Y-137500000D01*
X109980000Y-137500000D02*
X109980000Y-137500000D01*
G04 #@! TO.N,Net-(J4-Pad15)*
X117410000Y-137570000D02*
X117410000Y-137570000D01*
X117410000Y-136170000D02*
X117410000Y-137570000D01*
X117195000Y-135955000D02*
X117410000Y-136170000D01*
X117205000Y-135945000D02*
X117195000Y-135955000D01*
X117205000Y-134535000D02*
X117205000Y-135945000D01*
G04 #@! TO.N,Net-(J4-Pad13)*
X118750000Y-136207170D02*
X118750000Y-137500000D01*
X117845000Y-135302170D02*
X118750000Y-136207170D01*
X118750000Y-136980000D02*
X118750000Y-137500000D01*
X118750000Y-137500000D02*
X118750000Y-136980000D01*
X117845000Y-134885000D02*
X117845000Y-135302170D01*
X117855000Y-134875000D02*
X117845000Y-134885000D01*
X117855000Y-134535000D02*
X117855000Y-134875000D01*
G04 #@! TO.N,Net-(J4-Pad11)*
X119930000Y-137590000D02*
X119930000Y-137590000D01*
X119930000Y-136215000D02*
X119930000Y-136960000D01*
X119145000Y-135430000D02*
X119930000Y-136215000D01*
X119930000Y-136960000D02*
X119930000Y-137590000D01*
X119145000Y-134985000D02*
X119145000Y-135430000D01*
X119155000Y-134975000D02*
X119145000Y-134985000D01*
X119155000Y-134535000D02*
X119155000Y-134975000D01*
G04 #@! TO.N,Net-(J4-Pad9)*
X121200000Y-137520000D02*
X121200000Y-137520000D01*
X119795000Y-135302170D02*
X121200000Y-136707170D01*
X121200000Y-136707170D02*
X121200000Y-137520000D01*
X119805000Y-135292170D02*
X119795000Y-135302170D01*
X119805000Y-134535000D02*
X119805000Y-135292170D01*
G04 #@! TO.N,Net-(J4-Pad7)*
X128570000Y-137560000D02*
X128570000Y-137560000D01*
X128345000Y-135935000D02*
X128345000Y-134535000D01*
X128570000Y-137560000D02*
X128570000Y-136160000D01*
X128570000Y-136160000D02*
X128345000Y-135935000D01*
G04 #@! TO.N,Net-(J4-Pad5)*
X129910000Y-136970000D02*
X129910000Y-137490000D01*
X129910000Y-137490000D02*
X129910000Y-136970000D01*
X129910000Y-136197170D02*
X129910000Y-137490000D01*
X128995000Y-134535000D02*
X128995000Y-135282170D01*
X128995000Y-135282170D02*
X129910000Y-136197170D01*
G04 #@! TO.N,Net-(J4-Pad3)*
X131090000Y-137580000D02*
X131090000Y-137580000D01*
X131090000Y-136205000D02*
X131090000Y-136950000D01*
X130305000Y-135420000D02*
X131090000Y-136205000D01*
X131090000Y-136950000D02*
X131090000Y-137580000D01*
X130305000Y-134995000D02*
X130305000Y-135420000D01*
X130295000Y-134985000D02*
X130305000Y-134995000D01*
X130295000Y-134535000D02*
X130295000Y-134985000D01*
G04 #@! TO.N,Net-(J4-Pad1)*
X132360000Y-137510000D02*
X132360000Y-137510000D01*
X132360000Y-136697170D02*
X132360000Y-137510000D01*
X130945000Y-134535000D02*
X130945000Y-135282170D01*
X130945000Y-135282170D02*
X132360000Y-136697170D01*
D27*
G04 #@! TO.N,/VCC*
X104052500Y-135157500D02*
X104675000Y-134535000D01*
X101680000Y-135157500D02*
X104052500Y-135157500D01*
X115312500Y-135127500D02*
X115905000Y-134535000D01*
X112800000Y-135127500D02*
X115312500Y-135127500D01*
X137392500Y-135127500D02*
X137895000Y-134625000D01*
X134690000Y-135127500D02*
X137392500Y-135127500D01*
X148422500Y-135137500D02*
X148855000Y-134705000D01*
X145590000Y-135137500D02*
X148422500Y-135137500D01*
X159562500Y-135137500D02*
X159935000Y-134765000D01*
X156670000Y-135137500D02*
X159562500Y-135137500D01*
X126452500Y-135127500D02*
X127045000Y-134535000D01*
X124020000Y-135127500D02*
X126452500Y-135127500D01*
D28*
X93710000Y-123250000D02*
X93710000Y-135380000D01*
X93710000Y-135380000D02*
X93710000Y-140010000D01*
X93710000Y-140010000D02*
X97800000Y-144100000D01*
X99080000Y-115480000D02*
X105220000Y-115480000D01*
X94110000Y-120450000D02*
X99080000Y-115480000D01*
X162000000Y-144100000D02*
X163570000Y-144100000D01*
D29*
X101660000Y-136065000D02*
X101660000Y-144100000D01*
X101680000Y-136045000D02*
X101660000Y-136065000D01*
X101680000Y-135157500D02*
X101680000Y-136045000D01*
D28*
X97800000Y-144100000D02*
X101660000Y-144100000D01*
D29*
X112880000Y-136095000D02*
X112880000Y-144100000D01*
X112800000Y-136015000D02*
X112880000Y-136095000D01*
X112800000Y-135127500D02*
X112800000Y-136015000D01*
D28*
X102670000Y-144120000D02*
X113890000Y-144120000D01*
D29*
X124020000Y-144000000D02*
X123920000Y-144100000D01*
X124020000Y-135127500D02*
X124020000Y-144000000D01*
D28*
X112880000Y-144100000D02*
X123920000Y-144100000D01*
D29*
X134690000Y-144080000D02*
X134710000Y-144100000D01*
X134690000Y-135127500D02*
X134690000Y-144080000D01*
D28*
X123920000Y-144100000D02*
X134710000Y-144100000D01*
D29*
X145590000Y-144070000D02*
X145620000Y-144100000D01*
X145590000Y-135137500D02*
X145590000Y-144070000D01*
D28*
X134710000Y-144100000D02*
X145620000Y-144100000D01*
X145620000Y-144100000D02*
X152240000Y-144100000D01*
D29*
X156670000Y-143750000D02*
X157020000Y-144100000D01*
X156670000Y-135137500D02*
X156670000Y-143750000D01*
D28*
X152240000Y-144100000D02*
X157020000Y-144100000D01*
X157020000Y-144100000D02*
X162000000Y-144100000D01*
X93710000Y-123250000D02*
X93710000Y-120450000D01*
D25*
G04 #@! TO.N,Net-(U1-Pad14)*
X105325000Y-128985000D02*
X105325000Y-122885000D01*
X105325000Y-122885000D02*
X105930000Y-122280000D01*
X105930000Y-122280000D02*
X105930000Y-122280000D01*
X117200000Y-128980000D02*
X117205000Y-128985000D01*
X117200000Y-122280000D02*
X117200000Y-128980000D01*
G04 #@! TO.N,Net-(U2-Pad15)*
X127695000Y-128985000D02*
X127695000Y-122915000D01*
X127695000Y-122915000D02*
X128320000Y-122290000D01*
X128320000Y-122290000D02*
X128320000Y-122290000D01*
X139195000Y-128300000D02*
X139195000Y-129075000D01*
X139195000Y-122970685D02*
X139195000Y-128300000D01*
X139080000Y-122855685D02*
X139195000Y-122970685D01*
X139080000Y-122290000D02*
X139080000Y-122855685D01*
G04 #@! TO.N,LATCH_A*
X107925000Y-128985000D02*
X107925000Y-125975000D01*
X107925000Y-125975000D02*
X108500000Y-125400000D01*
X108500000Y-125400000D02*
X108500000Y-125400000D01*
X119130001Y-128960001D02*
X119155000Y-128985000D01*
X119130001Y-125799999D02*
X119130001Y-128960001D01*
X119530000Y-125400000D02*
X119130001Y-125799999D01*
X119929999Y-125000001D02*
X119530000Y-125400000D01*
X124225000Y-120705000D02*
X119929999Y-125000001D01*
X143115000Y-120705000D02*
X124225000Y-120705000D01*
X144340000Y-119480000D02*
X143115000Y-120705000D01*
X145390000Y-119480000D02*
X144340000Y-119480000D01*
G04 #@! TO.N,LATCH_B*
X130295000Y-128985000D02*
X130295000Y-126495000D01*
X130295000Y-126495000D02*
X131300000Y-125490000D01*
X131300000Y-125490000D02*
X131300000Y-125490000D01*
X141240000Y-128980000D02*
X141145000Y-129075000D01*
X141240000Y-125490000D02*
X141240000Y-128980000D01*
X142150000Y-125490000D02*
X141240000Y-125490000D01*
X148160000Y-119480000D02*
X142150000Y-125490000D01*
G04 #@! TO.N,LATCH_C*
X152105000Y-129155000D02*
X152105000Y-126405000D01*
X152105000Y-126405000D02*
X152920000Y-125590000D01*
X152920000Y-125590000D02*
X152920000Y-125590000D01*
X163090000Y-129120000D02*
X163185000Y-129215000D01*
X163090000Y-125590000D02*
X163090000Y-129120000D01*
X153319999Y-125190001D02*
X152920000Y-125590000D01*
X150930000Y-115870000D02*
X151680000Y-115120000D01*
X150930000Y-119480000D02*
X150930000Y-115870000D01*
X151680000Y-115120000D02*
X155790000Y-115120000D01*
X155790000Y-115120000D02*
X157950000Y-117280000D01*
X157950000Y-117280000D02*
X157950000Y-120560000D01*
X157950000Y-120560000D02*
X153319999Y-125190001D01*
G04 #@! TO.N,SER_CLK*
X106625000Y-128985000D02*
X106625000Y-125125000D01*
X106625000Y-125125000D02*
X107390000Y-124360000D01*
X107390000Y-124360000D02*
X107390000Y-124360000D01*
X161885000Y-128440000D02*
X161885000Y-129215000D01*
X161885000Y-125070685D02*
X161885000Y-128440000D01*
X162030000Y-124925685D02*
X161885000Y-125070685D01*
X162030000Y-124360000D02*
X162030000Y-124925685D01*
X117855000Y-124995000D02*
X117855000Y-128985000D01*
X118490000Y-124360000D02*
X117855000Y-124995000D01*
X128995000Y-125785000D02*
X128995000Y-128985000D01*
X130420000Y-124360000D02*
X128995000Y-125785000D01*
X139845000Y-124885000D02*
X139845000Y-129075000D01*
X140370000Y-124360000D02*
X139845000Y-124885000D01*
X150805000Y-128380000D02*
X150805000Y-129155000D01*
X150805000Y-124799315D02*
X150805000Y-128380000D01*
X151244315Y-124360000D02*
X150805000Y-124799315D01*
X151810000Y-124360000D02*
X151244315Y-124360000D01*
X153700000Y-122470000D02*
X151810000Y-124360000D01*
X153700000Y-119480000D02*
X153700000Y-122470000D01*
G04 #@! TO.N,SER_DATA*
X105975000Y-128985000D02*
X105975000Y-123995000D01*
X105975000Y-123995000D02*
X106640000Y-123330000D01*
X106640000Y-123330000D02*
X106640000Y-123330000D01*
X128270001Y-128910001D02*
X128345000Y-128985000D01*
X150170000Y-129140000D02*
X150155000Y-129155000D01*
X150155000Y-124155000D02*
X150155000Y-129155000D01*
X150980000Y-123330000D02*
X150155000Y-124155000D01*
X128345000Y-128210000D02*
X128345000Y-128985000D01*
X128345000Y-123859315D02*
X128345000Y-128210000D01*
X128874315Y-123330000D02*
X128345000Y-123859315D01*
X129440000Y-123330000D02*
X128874315Y-123330000D01*
X151379999Y-122930001D02*
X150980000Y-123330000D01*
X152310000Y-122000000D02*
X151379999Y-122930001D01*
X152310000Y-118950000D02*
X152310000Y-122000000D01*
X153220000Y-118040000D02*
X152310000Y-118950000D01*
X156470000Y-119480000D02*
X155030000Y-118040000D01*
X155030000Y-118040000D02*
X153220000Y-118040000D01*
G04 #@! TO.N,FAULT*
X104675000Y-128210000D02*
X104660000Y-128195000D01*
X104675000Y-128985000D02*
X104675000Y-128210000D01*
X104660000Y-128195000D02*
X104660000Y-121830000D01*
X104660000Y-121830000D02*
X104660000Y-121830000D01*
X159960001Y-129189999D02*
X159935000Y-129215000D01*
X159960001Y-121430001D02*
X159960001Y-129189999D01*
X148840000Y-129140000D02*
X148855000Y-129155000D01*
X148840000Y-121430001D02*
X148840000Y-129140000D01*
X137910000Y-129060000D02*
X137895000Y-129075000D01*
X137910000Y-121430001D02*
X137910000Y-129060000D01*
X127130000Y-128900000D02*
X127045000Y-128985000D01*
X127130000Y-121430001D02*
X127130000Y-128900000D01*
X115950000Y-128940000D02*
X115905000Y-128985000D01*
X115950000Y-121430001D02*
X115950000Y-128940000D01*
X149239999Y-121030002D02*
X148840000Y-121430001D01*
X149285001Y-120985000D02*
X149239999Y-121030002D01*
X149285001Y-118455001D02*
X149285001Y-120985000D01*
X148269999Y-117439999D02*
X149285001Y-118455001D01*
X147574999Y-117439999D02*
X148269999Y-117439999D01*
X146775000Y-116640000D02*
X147574999Y-117439999D01*
G04 #@! TO.N,Net-(U5-Pad15)*
X149505000Y-129155000D02*
X149505000Y-122995000D01*
X149505000Y-122995000D02*
X150110000Y-122390000D01*
X150110000Y-122390000D02*
X150110000Y-122390000D01*
X161220000Y-129200000D02*
X161235000Y-129215000D01*
X161220000Y-122390000D02*
X161220000Y-129200000D01*
G04 #@! TO.N,RESET*
X109225000Y-128210000D02*
X109220000Y-128205000D01*
X109225000Y-128985000D02*
X109225000Y-128210000D01*
X109220000Y-128205000D02*
X109220000Y-126500000D01*
X109220000Y-126500000D02*
X109220000Y-126500000D01*
X164610000Y-129090000D02*
X164485000Y-129215000D01*
X164610000Y-126490000D02*
X164610000Y-129090000D01*
X153880000Y-129155000D02*
X153405000Y-129155000D01*
X153960000Y-129075000D02*
X153880000Y-129155000D01*
X153960000Y-126490000D02*
X153960000Y-129075000D01*
X142600000Y-128920000D02*
X142445000Y-129075000D01*
X142600000Y-126490000D02*
X142600000Y-128920000D01*
X132070000Y-128985000D02*
X131595000Y-128985000D01*
X132420000Y-128635000D02*
X132070000Y-128985000D01*
X132420000Y-126500000D02*
X132420000Y-128635000D01*
X120460000Y-128980000D02*
X120455000Y-128985000D01*
X120460000Y-126500000D02*
X120460000Y-128980000D01*
X149545000Y-115508630D02*
X149545000Y-116640000D01*
X150383640Y-114669990D02*
X149545000Y-115508630D01*
X155976400Y-114669990D02*
X150383640Y-114669990D01*
X158400009Y-117093599D02*
X155976400Y-114669990D01*
X158400010Y-122049990D02*
X158400009Y-117093599D01*
X153960000Y-126490000D02*
X158400010Y-122049990D01*
G04 #@! TO.N,nENBL*
X153880000Y-134705000D02*
X154540000Y-135365000D01*
X153405000Y-134705000D02*
X153880000Y-134705000D01*
X109700000Y-134535000D02*
X110500000Y-135335000D01*
X109225000Y-134535000D02*
X109700000Y-134535000D01*
X120455000Y-134535000D02*
X121115000Y-134535000D01*
X121115000Y-134535000D02*
X121660000Y-135080000D01*
X132070000Y-134535000D02*
X132745000Y-135210000D01*
X131595000Y-134535000D02*
X132070000Y-134535000D01*
X142920000Y-134625000D02*
X143565000Y-135270000D01*
X142445000Y-134625000D02*
X142920000Y-134625000D01*
X164960000Y-134765000D02*
X165555000Y-135360000D01*
X164485000Y-134765000D02*
X164960000Y-134765000D01*
X165555000Y-135360000D02*
X165555000Y-135360000D01*
X154540000Y-135365000D02*
X154540000Y-135365000D01*
X143565000Y-135270000D02*
X143565000Y-135270000D01*
X121660000Y-135080000D02*
X121660000Y-135080000D01*
X110500000Y-135335000D02*
X110500000Y-135335000D01*
X132745000Y-135210000D02*
X132745000Y-135210000D01*
G04 #@! TD*
D30*
G04 #@! TO.N,/GND*
G36*
X104017008Y-129984391D02*
X104202235Y-130108157D01*
X104450000Y-130157440D01*
X104900000Y-130157440D01*
X105000000Y-130137549D01*
X105100000Y-130157440D01*
X105550000Y-130157440D01*
X105650000Y-130137549D01*
X105750000Y-130157440D01*
X106200000Y-130157440D01*
X106300000Y-130137549D01*
X106400000Y-130157440D01*
X106850000Y-130157440D01*
X107097765Y-130108157D01*
X107257792Y-130001229D01*
X107292478Y-130001409D01*
X107452235Y-130108157D01*
X107700000Y-130157440D01*
X108150000Y-130157440D01*
X108250000Y-130137549D01*
X108350000Y-130157440D01*
X108800000Y-130157440D01*
X108900000Y-130137549D01*
X109000000Y-130157440D01*
X109450000Y-130157440D01*
X109697765Y-130108157D01*
X109837732Y-130014634D01*
X115335013Y-130043195D01*
X115432235Y-130108157D01*
X115680000Y-130157440D01*
X116130000Y-130157440D01*
X116230000Y-130137549D01*
X116330000Y-130157440D01*
X116780000Y-130157440D01*
X116880000Y-130137549D01*
X116980000Y-130157440D01*
X117430000Y-130157440D01*
X117530000Y-130137549D01*
X117630000Y-130157440D01*
X118080000Y-130157440D01*
X118327765Y-130108157D01*
X118401145Y-130059126D01*
X118610483Y-130060213D01*
X118682235Y-130108157D01*
X118930000Y-130157440D01*
X119380000Y-130157440D01*
X119480000Y-130137549D01*
X119580000Y-130157440D01*
X120030000Y-130157440D01*
X120130000Y-130137549D01*
X120230000Y-130157440D01*
X120680000Y-130157440D01*
X120927765Y-130108157D01*
X120981084Y-130072530D01*
X126562314Y-130101528D01*
X126572235Y-130108157D01*
X126820000Y-130157440D01*
X127270000Y-130157440D01*
X127370000Y-130137549D01*
X127470000Y-130157440D01*
X127920000Y-130157440D01*
X128020000Y-130137549D01*
X128120000Y-130157440D01*
X128570000Y-130157440D01*
X128670000Y-130137549D01*
X128770000Y-130157440D01*
X129220000Y-130157440D01*
X129426285Y-130116408D01*
X129875447Y-130118741D01*
X130070000Y-130157440D01*
X130520000Y-130157440D01*
X130620000Y-130137549D01*
X130720000Y-130157440D01*
X131170000Y-130157440D01*
X131270000Y-130137549D01*
X131370000Y-130157440D01*
X131820000Y-130157440D01*
X131960101Y-130129572D01*
X137361592Y-130157636D01*
X137422235Y-130198157D01*
X137670000Y-130247440D01*
X138120000Y-130247440D01*
X138220000Y-130227549D01*
X138320000Y-130247440D01*
X138770000Y-130247440D01*
X138870000Y-130227549D01*
X138970000Y-130247440D01*
X139420000Y-130247440D01*
X139520000Y-130227549D01*
X139620000Y-130247440D01*
X140070000Y-130247440D01*
X140317765Y-130198157D01*
X140355131Y-130173190D01*
X140637061Y-130174654D01*
X140672235Y-130198157D01*
X140920000Y-130247440D01*
X141370000Y-130247440D01*
X141470000Y-130227549D01*
X141570000Y-130247440D01*
X142020000Y-130247440D01*
X142120000Y-130227549D01*
X142220000Y-130247440D01*
X142670000Y-130247440D01*
X142917765Y-130198157D01*
X142935070Y-130186594D01*
X148286816Y-130214399D01*
X148382235Y-130278157D01*
X148630000Y-130327440D01*
X149080000Y-130327440D01*
X149180000Y-130307549D01*
X149280000Y-130327440D01*
X149730000Y-130327440D01*
X149830000Y-130307549D01*
X149930000Y-130327440D01*
X150380000Y-130327440D01*
X150480000Y-130307549D01*
X150580000Y-130327440D01*
X151030000Y-130327440D01*
X151277765Y-130278157D01*
X151349370Y-130230311D01*
X151562285Y-130231417D01*
X151632235Y-130278157D01*
X151880000Y-130327440D01*
X152330000Y-130327440D01*
X152430000Y-130307549D01*
X152530000Y-130327440D01*
X152980000Y-130327440D01*
X153080000Y-130307549D01*
X153180000Y-130327440D01*
X153630000Y-130327440D01*
X153877765Y-130278157D01*
X153929310Y-130243716D01*
X159363146Y-130271948D01*
X159462235Y-130338157D01*
X159710000Y-130387440D01*
X160160000Y-130387440D01*
X160260000Y-130367549D01*
X160360000Y-130387440D01*
X160810000Y-130387440D01*
X160910000Y-130367549D01*
X161010000Y-130387440D01*
X161460000Y-130387440D01*
X161560000Y-130367549D01*
X161660000Y-130387440D01*
X162110000Y-130387440D01*
X162357765Y-130338157D01*
X162432983Y-130287897D01*
X162638616Y-130288966D01*
X162712235Y-130338157D01*
X162960000Y-130387440D01*
X163410000Y-130387440D01*
X163510000Y-130367549D01*
X163610000Y-130387440D01*
X164060000Y-130387440D01*
X164160000Y-130367549D01*
X164260000Y-130387440D01*
X164710000Y-130387440D01*
X164957765Y-130338157D01*
X165012923Y-130301302D01*
X165980560Y-130306329D01*
X165915414Y-133712561D01*
X165059093Y-133709549D01*
X164957765Y-133641843D01*
X164710000Y-133592560D01*
X164260000Y-133592560D01*
X164160000Y-133612451D01*
X164060000Y-133592560D01*
X163610000Y-133592560D01*
X163510000Y-133612451D01*
X163410000Y-133592560D01*
X162960000Y-133592560D01*
X162712235Y-133641843D01*
X162623727Y-133700983D01*
X162445334Y-133700355D01*
X162357765Y-133641843D01*
X162110000Y-133592560D01*
X161660000Y-133592560D01*
X161560000Y-133612451D01*
X161460000Y-133592560D01*
X161010000Y-133592560D01*
X160910000Y-133612451D01*
X160810000Y-133592560D01*
X160673253Y-133592560D01*
X160475400Y-133460359D01*
X159935000Y-133352867D01*
X159394601Y-133460359D01*
X159053277Y-133688424D01*
X154010730Y-133670688D01*
X153877765Y-133581843D01*
X153630000Y-133532560D01*
X153180000Y-133532560D01*
X153080000Y-133552451D01*
X152980000Y-133532560D01*
X152530000Y-133532560D01*
X152430000Y-133552451D01*
X152330000Y-133532560D01*
X151880000Y-133532560D01*
X151632235Y-133581843D01*
X151512422Y-133661900D01*
X151396970Y-133661494D01*
X151277765Y-133581843D01*
X151030000Y-133532560D01*
X150580000Y-133532560D01*
X150480000Y-133552451D01*
X150380000Y-133532560D01*
X149930000Y-133532560D01*
X149830000Y-133552451D01*
X149730000Y-133532560D01*
X149593250Y-133532560D01*
X149395399Y-133400360D01*
X148854999Y-133292868D01*
X148314600Y-133400360D01*
X147972112Y-133629204D01*
X147951939Y-133649377D01*
X143113091Y-133632357D01*
X142917765Y-133501843D01*
X142670000Y-133452560D01*
X142220000Y-133452560D01*
X142120000Y-133472451D01*
X142020000Y-133452560D01*
X141570000Y-133452560D01*
X141470000Y-133472451D01*
X141370000Y-133452560D01*
X140920000Y-133452560D01*
X140672235Y-133501843D01*
X140495000Y-133620269D01*
X140317765Y-133501843D01*
X140070000Y-133452560D01*
X139620000Y-133452560D01*
X139520000Y-133472451D01*
X139420000Y-133452560D01*
X138970000Y-133452560D01*
X138870000Y-133472451D01*
X138770000Y-133452560D01*
X138633250Y-133452560D01*
X138435399Y-133320360D01*
X137894999Y-133212867D01*
X137354600Y-133320360D01*
X137012112Y-133549204D01*
X136950635Y-133610681D01*
X132305975Y-133594344D01*
X132277809Y-133552191D01*
X132067765Y-133411843D01*
X131820000Y-133362560D01*
X131370000Y-133362560D01*
X131270000Y-133382451D01*
X131170000Y-133362560D01*
X130720000Y-133362560D01*
X130620000Y-133382451D01*
X130520000Y-133362560D01*
X130070000Y-133362560D01*
X129822235Y-133411843D01*
X129645000Y-133530269D01*
X129467765Y-133411843D01*
X129220000Y-133362560D01*
X128770000Y-133362560D01*
X128670000Y-133382451D01*
X128570000Y-133362560D01*
X128120000Y-133362560D01*
X128020000Y-133382451D01*
X127920000Y-133362560D01*
X127783253Y-133362560D01*
X127585400Y-133230359D01*
X127045000Y-133122867D01*
X126504600Y-133230359D01*
X126162112Y-133459203D01*
X126048979Y-133572336D01*
X121139732Y-133555069D01*
X121137809Y-133552191D01*
X120927765Y-133411843D01*
X120680000Y-133362560D01*
X120230000Y-133362560D01*
X120130000Y-133382451D01*
X120030000Y-133362560D01*
X119580000Y-133362560D01*
X119480000Y-133382451D01*
X119380000Y-133362560D01*
X118930000Y-133362560D01*
X118682235Y-133411843D01*
X118505000Y-133530269D01*
X118327765Y-133411843D01*
X118080000Y-133362560D01*
X117630000Y-133362560D01*
X117530000Y-133382451D01*
X117430000Y-133362560D01*
X116980000Y-133362560D01*
X116880000Y-133382451D01*
X116780000Y-133362560D01*
X116643253Y-133362560D01*
X116445400Y-133230359D01*
X115905000Y-133122867D01*
X115364600Y-133230359D01*
X115022112Y-133459203D01*
X114948025Y-133533290D01*
X109852700Y-133515368D01*
X109697765Y-133411843D01*
X109450000Y-133362560D01*
X109000000Y-133362560D01*
X108900000Y-133382451D01*
X108800000Y-133362560D01*
X108350000Y-133362560D01*
X108250000Y-133382451D01*
X108150000Y-133362560D01*
X107700000Y-133362560D01*
X107452235Y-133411843D01*
X107310682Y-133506427D01*
X107238941Y-133506175D01*
X107097765Y-133411843D01*
X106850000Y-133362560D01*
X106400000Y-133362560D01*
X106300000Y-133382451D01*
X106200000Y-133362560D01*
X105750000Y-133362560D01*
X105650000Y-133382451D01*
X105550000Y-133362560D01*
X105413252Y-133362560D01*
X105215400Y-133230359D01*
X104675000Y-133122867D01*
X104134600Y-133230359D01*
X103792112Y-133459203D01*
X103757386Y-133493929D01*
X100777673Y-133483448D01*
X100796324Y-129967658D01*
X104017008Y-129984391D01*
X104017008Y-129984391D01*
G37*
X104017008Y-129984391D02*
X104202235Y-130108157D01*
X104450000Y-130157440D01*
X104900000Y-130157440D01*
X105000000Y-130137549D01*
X105100000Y-130157440D01*
X105550000Y-130157440D01*
X105650000Y-130137549D01*
X105750000Y-130157440D01*
X106200000Y-130157440D01*
X106300000Y-130137549D01*
X106400000Y-130157440D01*
X106850000Y-130157440D01*
X107097765Y-130108157D01*
X107257792Y-130001229D01*
X107292478Y-130001409D01*
X107452235Y-130108157D01*
X107700000Y-130157440D01*
X108150000Y-130157440D01*
X108250000Y-130137549D01*
X108350000Y-130157440D01*
X108800000Y-130157440D01*
X108900000Y-130137549D01*
X109000000Y-130157440D01*
X109450000Y-130157440D01*
X109697765Y-130108157D01*
X109837732Y-130014634D01*
X115335013Y-130043195D01*
X115432235Y-130108157D01*
X115680000Y-130157440D01*
X116130000Y-130157440D01*
X116230000Y-130137549D01*
X116330000Y-130157440D01*
X116780000Y-130157440D01*
X116880000Y-130137549D01*
X116980000Y-130157440D01*
X117430000Y-130157440D01*
X117530000Y-130137549D01*
X117630000Y-130157440D01*
X118080000Y-130157440D01*
X118327765Y-130108157D01*
X118401145Y-130059126D01*
X118610483Y-130060213D01*
X118682235Y-130108157D01*
X118930000Y-130157440D01*
X119380000Y-130157440D01*
X119480000Y-130137549D01*
X119580000Y-130157440D01*
X120030000Y-130157440D01*
X120130000Y-130137549D01*
X120230000Y-130157440D01*
X120680000Y-130157440D01*
X120927765Y-130108157D01*
X120981084Y-130072530D01*
X126562314Y-130101528D01*
X126572235Y-130108157D01*
X126820000Y-130157440D01*
X127270000Y-130157440D01*
X127370000Y-130137549D01*
X127470000Y-130157440D01*
X127920000Y-130157440D01*
X128020000Y-130137549D01*
X128120000Y-130157440D01*
X128570000Y-130157440D01*
X128670000Y-130137549D01*
X128770000Y-130157440D01*
X129220000Y-130157440D01*
X129426285Y-130116408D01*
X129875447Y-130118741D01*
X130070000Y-130157440D01*
X130520000Y-130157440D01*
X130620000Y-130137549D01*
X130720000Y-130157440D01*
X131170000Y-130157440D01*
X131270000Y-130137549D01*
X131370000Y-130157440D01*
X131820000Y-130157440D01*
X131960101Y-130129572D01*
X137361592Y-130157636D01*
X137422235Y-130198157D01*
X137670000Y-130247440D01*
X138120000Y-130247440D01*
X138220000Y-130227549D01*
X138320000Y-130247440D01*
X138770000Y-130247440D01*
X138870000Y-130227549D01*
X138970000Y-130247440D01*
X139420000Y-130247440D01*
X139520000Y-130227549D01*
X139620000Y-130247440D01*
X140070000Y-130247440D01*
X140317765Y-130198157D01*
X140355131Y-130173190D01*
X140637061Y-130174654D01*
X140672235Y-130198157D01*
X140920000Y-130247440D01*
X141370000Y-130247440D01*
X141470000Y-130227549D01*
X141570000Y-130247440D01*
X142020000Y-130247440D01*
X142120000Y-130227549D01*
X142220000Y-130247440D01*
X142670000Y-130247440D01*
X142917765Y-130198157D01*
X142935070Y-130186594D01*
X148286816Y-130214399D01*
X148382235Y-130278157D01*
X148630000Y-130327440D01*
X149080000Y-130327440D01*
X149180000Y-130307549D01*
X149280000Y-130327440D01*
X149730000Y-130327440D01*
X149830000Y-130307549D01*
X149930000Y-130327440D01*
X150380000Y-130327440D01*
X150480000Y-130307549D01*
X150580000Y-130327440D01*
X151030000Y-130327440D01*
X151277765Y-130278157D01*
X151349370Y-130230311D01*
X151562285Y-130231417D01*
X151632235Y-130278157D01*
X151880000Y-130327440D01*
X152330000Y-130327440D01*
X152430000Y-130307549D01*
X152530000Y-130327440D01*
X152980000Y-130327440D01*
X153080000Y-130307549D01*
X153180000Y-130327440D01*
X153630000Y-130327440D01*
X153877765Y-130278157D01*
X153929310Y-130243716D01*
X159363146Y-130271948D01*
X159462235Y-130338157D01*
X159710000Y-130387440D01*
X160160000Y-130387440D01*
X160260000Y-130367549D01*
X160360000Y-130387440D01*
X160810000Y-130387440D01*
X160910000Y-130367549D01*
X161010000Y-130387440D01*
X161460000Y-130387440D01*
X161560000Y-130367549D01*
X161660000Y-130387440D01*
X162110000Y-130387440D01*
X162357765Y-130338157D01*
X162432983Y-130287897D01*
X162638616Y-130288966D01*
X162712235Y-130338157D01*
X162960000Y-130387440D01*
X163410000Y-130387440D01*
X163510000Y-130367549D01*
X163610000Y-130387440D01*
X164060000Y-130387440D01*
X164160000Y-130367549D01*
X164260000Y-130387440D01*
X164710000Y-130387440D01*
X164957765Y-130338157D01*
X165012923Y-130301302D01*
X165980560Y-130306329D01*
X165915414Y-133712561D01*
X165059093Y-133709549D01*
X164957765Y-133641843D01*
X164710000Y-133592560D01*
X164260000Y-133592560D01*
X164160000Y-133612451D01*
X164060000Y-133592560D01*
X163610000Y-133592560D01*
X163510000Y-133612451D01*
X163410000Y-133592560D01*
X162960000Y-133592560D01*
X162712235Y-133641843D01*
X162623727Y-133700983D01*
X162445334Y-133700355D01*
X162357765Y-133641843D01*
X162110000Y-133592560D01*
X161660000Y-133592560D01*
X161560000Y-133612451D01*
X161460000Y-133592560D01*
X161010000Y-133592560D01*
X160910000Y-133612451D01*
X160810000Y-133592560D01*
X160673253Y-133592560D01*
X160475400Y-133460359D01*
X159935000Y-133352867D01*
X159394601Y-133460359D01*
X159053277Y-133688424D01*
X154010730Y-133670688D01*
X153877765Y-133581843D01*
X153630000Y-133532560D01*
X153180000Y-133532560D01*
X153080000Y-133552451D01*
X152980000Y-133532560D01*
X152530000Y-133532560D01*
X152430000Y-133552451D01*
X152330000Y-133532560D01*
X151880000Y-133532560D01*
X151632235Y-133581843D01*
X151512422Y-133661900D01*
X151396970Y-133661494D01*
X151277765Y-133581843D01*
X151030000Y-133532560D01*
X150580000Y-133532560D01*
X150480000Y-133552451D01*
X150380000Y-133532560D01*
X149930000Y-133532560D01*
X149830000Y-133552451D01*
X149730000Y-133532560D01*
X149593250Y-133532560D01*
X149395399Y-133400360D01*
X148854999Y-133292868D01*
X148314600Y-133400360D01*
X147972112Y-133629204D01*
X147951939Y-133649377D01*
X143113091Y-133632357D01*
X142917765Y-133501843D01*
X142670000Y-133452560D01*
X142220000Y-133452560D01*
X142120000Y-133472451D01*
X142020000Y-133452560D01*
X141570000Y-133452560D01*
X141470000Y-133472451D01*
X141370000Y-133452560D01*
X140920000Y-133452560D01*
X140672235Y-133501843D01*
X140495000Y-133620269D01*
X140317765Y-133501843D01*
X140070000Y-133452560D01*
X139620000Y-133452560D01*
X139520000Y-133472451D01*
X139420000Y-133452560D01*
X138970000Y-133452560D01*
X138870000Y-133472451D01*
X138770000Y-133452560D01*
X138633250Y-133452560D01*
X138435399Y-133320360D01*
X137894999Y-133212867D01*
X137354600Y-133320360D01*
X137012112Y-133549204D01*
X136950635Y-133610681D01*
X132305975Y-133594344D01*
X132277809Y-133552191D01*
X132067765Y-133411843D01*
X131820000Y-133362560D01*
X131370000Y-133362560D01*
X131270000Y-133382451D01*
X131170000Y-133362560D01*
X130720000Y-133362560D01*
X130620000Y-133382451D01*
X130520000Y-133362560D01*
X130070000Y-133362560D01*
X129822235Y-133411843D01*
X129645000Y-133530269D01*
X129467765Y-133411843D01*
X129220000Y-133362560D01*
X128770000Y-133362560D01*
X128670000Y-133382451D01*
X128570000Y-133362560D01*
X128120000Y-133362560D01*
X128020000Y-133382451D01*
X127920000Y-133362560D01*
X127783253Y-133362560D01*
X127585400Y-133230359D01*
X127045000Y-133122867D01*
X126504600Y-133230359D01*
X126162112Y-133459203D01*
X126048979Y-133572336D01*
X121139732Y-133555069D01*
X121137809Y-133552191D01*
X120927765Y-133411843D01*
X120680000Y-133362560D01*
X120230000Y-133362560D01*
X120130000Y-133382451D01*
X120030000Y-133362560D01*
X119580000Y-133362560D01*
X119480000Y-133382451D01*
X119380000Y-133362560D01*
X118930000Y-133362560D01*
X118682235Y-133411843D01*
X118505000Y-133530269D01*
X118327765Y-133411843D01*
X118080000Y-133362560D01*
X117630000Y-133362560D01*
X117530000Y-133382451D01*
X117430000Y-133362560D01*
X116980000Y-133362560D01*
X116880000Y-133382451D01*
X116780000Y-133362560D01*
X116643253Y-133362560D01*
X116445400Y-133230359D01*
X115905000Y-133122867D01*
X115364600Y-133230359D01*
X115022112Y-133459203D01*
X114948025Y-133533290D01*
X109852700Y-133515368D01*
X109697765Y-133411843D01*
X109450000Y-133362560D01*
X109000000Y-133362560D01*
X108900000Y-133382451D01*
X108800000Y-133362560D01*
X108350000Y-133362560D01*
X108250000Y-133382451D01*
X108150000Y-133362560D01*
X107700000Y-133362560D01*
X107452235Y-133411843D01*
X107310682Y-133506427D01*
X107238941Y-133506175D01*
X107097765Y-133411843D01*
X106850000Y-133362560D01*
X106400000Y-133362560D01*
X106300000Y-133382451D01*
X106200000Y-133362560D01*
X105750000Y-133362560D01*
X105650000Y-133382451D01*
X105550000Y-133362560D01*
X105413252Y-133362560D01*
X105215400Y-133230359D01*
X104675000Y-133122867D01*
X104134600Y-133230359D01*
X103792112Y-133459203D01*
X103757386Y-133493929D01*
X100777673Y-133483448D01*
X100796324Y-129967658D01*
X104017008Y-129984391D01*
G04 #@! TD*
M02*
