G04 #@! TF.GenerationSoftware,KiCad,Pcbnew,(5.0.0)*
G04 #@! TF.CreationDate,2019-03-26T18:29:11-05:00*
G04 #@! TF.ProjectId,PP_OCT,50505F4F43542E6B696361645F706362,rev?*
G04 #@! TF.SameCoordinates,Original*
G04 #@! TF.FileFunction,Soldermask,Bot*
G04 #@! TF.FilePolarity,Negative*
%FSLAX46Y46*%
G04 Gerber Fmt 4.6, Leading zero omitted, Abs format (unit mm)*
G04 Created by KiCad (PCBNEW (5.0.0)) date 03/26/19 18:29:11*
%MOMM*%
%LPD*%
G01*
G04 APERTURE LIST*
%ADD10C,3.400000*%
%ADD11R,2.100000X2.100000*%
%ADD12O,2.100000X2.100000*%
%ADD13C,2.900000*%
%ADD14R,2.900000X2.900000*%
%ADD15C,4.400000*%
%ADD16C,2.000000*%
%ADD17R,2.000000X2.000000*%
G04 APERTURE END LIST*
D10*
G04 #@! TO.C,REF\002A\002A*
X170950000Y-112470000D03*
G04 #@! TD*
G04 #@! TO.C,REF\002A\002A*
X90620000Y-112470000D03*
G04 #@! TD*
G04 #@! TO.C,REF\002A\002A*
X170950000Y-150140000D03*
G04 #@! TD*
G04 #@! TO.C,REF\002A\002A*
X90620000Y-150140000D03*
G04 #@! TD*
D11*
G04 #@! TO.C,J3*
X163960000Y-150600000D03*
D12*
X136020000Y-148060000D03*
X161420000Y-150600000D03*
X138560000Y-148060000D03*
X158880000Y-150600000D03*
X141100000Y-148060000D03*
X156340000Y-150600000D03*
X143640000Y-148060000D03*
X153800000Y-150600000D03*
X146180000Y-148060000D03*
X151260000Y-150600000D03*
X148720000Y-148060000D03*
X148720000Y-150600000D03*
X151260000Y-148060000D03*
X146180000Y-150600000D03*
X153800000Y-148060000D03*
X143640000Y-150600000D03*
X156340000Y-148060000D03*
X141100000Y-150600000D03*
X158880000Y-148060000D03*
X138560000Y-150600000D03*
X161420000Y-148060000D03*
X136020000Y-150600000D03*
X163960000Y-148060000D03*
G04 #@! TD*
D11*
G04 #@! TO.C,J4*
X130270000Y-150520000D03*
D12*
X102330000Y-147980000D03*
X127730000Y-150520000D03*
X104870000Y-147980000D03*
X125190000Y-150520000D03*
X107410000Y-147980000D03*
X122650000Y-150520000D03*
X109950000Y-147980000D03*
X120110000Y-150520000D03*
X112490000Y-147980000D03*
X117570000Y-150520000D03*
X115030000Y-147980000D03*
X115030000Y-150520000D03*
X117570000Y-147980000D03*
X112490000Y-150520000D03*
X120110000Y-147980000D03*
X109950000Y-150520000D03*
X122650000Y-147980000D03*
X107410000Y-150520000D03*
X125190000Y-147980000D03*
X104870000Y-150520000D03*
X127730000Y-147980000D03*
X102330000Y-150520000D03*
X130270000Y-147980000D03*
G04 #@! TD*
D13*
G04 #@! TO.C,J1*
X102190000Y-118160000D03*
X107270000Y-118160000D03*
X112350000Y-118160000D03*
D14*
X117430000Y-118160000D03*
G04 #@! TD*
D15*
G04 #@! TO.C,J2*
X138430000Y-118060000D03*
X163430000Y-118060000D03*
D16*
X155085000Y-116640000D03*
X152315000Y-116640000D03*
X149545000Y-116640000D03*
X146775000Y-116640000D03*
X156470000Y-119480000D03*
X153700000Y-119480000D03*
X150930000Y-119480000D03*
X148160000Y-119480000D03*
D17*
X145390000Y-119480000D03*
G04 #@! TD*
M02*
