M48
;DRILL file {KiCad (5.0.0)} date 03/26/19 18:28:49
;FORMAT={-:-/ absolute / metric / decimal}
FMAT,2
METRIC,TZ
T1C0.300
T2C0.400
T3C1.000
T4C1.300
T5C2.800
T6C3.200
%
G90
G05
M71
T1
X104.75Y-130.66
X104.75Y-131.76
X104.75Y-132.86
X105.85Y-130.66
X105.85Y-131.76
X105.85Y-132.86
X106.95Y-130.66
X106.95Y-131.76
X106.95Y-132.86
X108.05Y-130.66
X108.05Y-131.76
X108.05Y-132.86
X109.15Y-130.66
X109.15Y-131.76
X109.15Y-132.86
X160.01Y-130.89
X160.01Y-131.99
X160.01Y-133.09
X161.11Y-130.89
X161.11Y-131.99
X161.11Y-133.09
X162.21Y-130.89
X162.21Y-131.99
X162.21Y-133.09
X163.31Y-130.89
X163.31Y-131.99
X163.31Y-133.09
X164.41Y-130.89
X164.41Y-131.99
X164.41Y-133.09
X148.93Y-130.83
X148.93Y-131.93
X148.93Y-133.03
X150.03Y-130.83
X150.03Y-131.93
X150.03Y-133.03
X151.13Y-130.83
X151.13Y-131.93
X151.13Y-133.03
X152.23Y-130.83
X152.23Y-131.93
X152.23Y-133.03
X153.33Y-130.83
X153.33Y-131.93
X153.33Y-133.03
X137.97Y-130.75
X137.97Y-131.85
X137.97Y-132.95
X139.07Y-130.75
X139.07Y-131.85
X139.07Y-132.95
X140.17Y-130.75
X140.17Y-131.85
X140.17Y-132.95
X141.27Y-130.75
X141.27Y-131.85
X141.27Y-132.95
X142.37Y-130.75
X142.37Y-131.85
X142.37Y-132.95
X115.98Y-130.66
X115.98Y-131.76
X115.98Y-132.86
X117.08Y-130.66
X117.08Y-131.76
X117.08Y-132.86
X118.18Y-130.66
X118.18Y-131.76
X118.18Y-132.86
X119.28Y-130.66
X119.28Y-131.76
X119.28Y-132.86
X120.38Y-130.66
X120.38Y-131.76
X120.38Y-132.86
X127.12Y-130.66
X127.12Y-131.76
X127.12Y-132.86
X128.22Y-130.66
X128.22Y-131.76
X128.22Y-132.86
X129.32Y-130.66
X129.32Y-131.76
X129.32Y-132.86
X130.42Y-130.66
X130.42Y-131.76
X130.42Y-132.86
X131.52Y-130.66
X131.52Y-131.76
X131.52Y-132.86
T2
X104.66Y-121.83
X105.93Y-122.28
X106.19Y-137.55
X106.64Y-123.33
X107.39Y-124.36
X107.53Y-137.48
X108.5Y-125.4
X108.71Y-137.57
X109.22Y-126.5
X109.98Y-137.5
X110.5Y-135.335
X115.95Y-121.43
X117.2Y-122.28
X117.41Y-137.57
X118.49Y-124.36
X118.75Y-137.5
X119.53Y-125.4
X119.93Y-137.59
X120.46Y-126.5
X121.2Y-137.52
X121.66Y-135.08
X127.13Y-121.43
X128.32Y-122.29
X128.57Y-137.56
X129.44Y-123.33
X129.91Y-137.49
X130.42Y-124.36
X131.09Y-137.58
X131.3Y-125.49
X132.36Y-137.51
X132.42Y-126.5
X132.745Y-135.21
X137.91Y-121.43
X139.08Y-122.29
X139.41Y-137.57
X140.37Y-124.36
X140.75Y-137.5
X141.24Y-125.49
X141.93Y-137.59
X142.6Y-126.49
X143.2Y-137.52
X143.565Y-135.27
X148.84Y-121.43
X150.11Y-122.39
X150.37Y-137.74
X150.98Y-123.33
X151.71Y-137.67
X151.81Y-124.36
X152.89Y-137.76
X152.92Y-125.59
X153.96Y-126.49
X154.16Y-137.69
X154.54Y-135.365
X159.96Y-121.43
X161.22Y-122.39
X161.44Y-137.8
X162.03Y-124.36
X162.78Y-137.73
X163.09Y-125.59
X163.96Y-137.82
X164.61Y-126.49
X165.23Y-137.75
X165.555Y-135.36
T3
X145.39Y-119.48
X146.775Y-116.64
X148.16Y-119.48
X149.545Y-116.64
X150.93Y-119.48
X152.315Y-116.64
X153.7Y-119.48
X155.085Y-116.64
X156.47Y-119.48
X102.33Y-147.98
X102.33Y-150.52
X104.87Y-147.98
X104.87Y-150.52
X107.41Y-147.98
X107.41Y-150.52
X109.95Y-147.98
X109.95Y-150.52
X112.49Y-147.98
X112.49Y-150.52
X115.03Y-147.98
X115.03Y-150.52
X117.57Y-147.98
X117.57Y-150.52
X120.11Y-147.98
X120.11Y-150.52
X122.65Y-147.98
X122.65Y-150.52
X125.19Y-147.98
X125.19Y-150.52
X127.73Y-147.98
X127.73Y-150.52
X130.27Y-147.98
X130.27Y-150.52
X136.02Y-148.06
X136.02Y-150.6
X138.56Y-148.06
X138.56Y-150.6
X141.1Y-148.06
X141.1Y-150.6
X143.64Y-148.06
X143.64Y-150.6
X146.18Y-148.06
X146.18Y-150.6
X148.72Y-148.06
X148.72Y-150.6
X151.26Y-148.06
X151.26Y-150.6
X153.8Y-148.06
X153.8Y-150.6
X156.34Y-148.06
X156.34Y-150.6
X158.88Y-148.06
X158.88Y-150.6
X161.42Y-148.06
X161.42Y-150.6
X163.96Y-148.06
X163.96Y-150.6
T4
X102.19Y-118.16
X107.27Y-118.16
X112.35Y-118.16
X117.43Y-118.16
T5
X90.62Y-112.47
X170.95Y-112.47
X90.62Y-150.14
X170.95Y-150.14
T6
X138.43Y-118.06
X163.43Y-118.06
T0
M30
