G04 #@! TF.GenerationSoftware,KiCad,Pcbnew,(5.0.0)*
G04 #@! TF.CreationDate,2019-03-26T18:29:11-05:00*
G04 #@! TF.ProjectId,PP_OCT,50505F4F43542E6B696361645F706362,rev?*
G04 #@! TF.SameCoordinates,Original*
G04 #@! TF.FileFunction,Legend,Top*
G04 #@! TF.FilePolarity,Positive*
%FSLAX46Y46*%
G04 Gerber Fmt 4.6, Leading zero omitted, Abs format (unit mm)*
G04 Created by KiCad (PCBNEW (5.0.0)) date 03/26/19 18:29:11*
%MOMM*%
%LPD*%
G01*
G04 APERTURE LIST*
%ADD10C,0.200000*%
%ADD11C,0.250000*%
%ADD12C,0.120000*%
%ADD13C,0.150000*%
G04 APERTURE END LIST*
D10*
X140475357Y-142137142D02*
X141046785Y-142137142D01*
X141314642Y-142280000D01*
X141564642Y-142565714D01*
X141636071Y-143137142D01*
X141511071Y-144137142D01*
X141296785Y-144708571D01*
X140975357Y-144994285D01*
X140671785Y-145137142D01*
X140100357Y-145137142D01*
X139832500Y-144994285D01*
X139582500Y-144708571D01*
X139511071Y-144137142D01*
X139636071Y-143137142D01*
X139850357Y-142565714D01*
X140171785Y-142280000D01*
X140475357Y-142137142D01*
X144421785Y-144851428D02*
X144261071Y-144994285D01*
X143814642Y-145137142D01*
X143528928Y-145137142D01*
X143118214Y-144994285D01*
X142868214Y-144708571D01*
X142761071Y-144422857D01*
X142689642Y-143851428D01*
X142743214Y-143422857D01*
X142957500Y-142851428D01*
X143136071Y-142565714D01*
X143457500Y-142280000D01*
X143903928Y-142137142D01*
X144189642Y-142137142D01*
X144600357Y-142280000D01*
X144725357Y-142422857D01*
X145618214Y-142137142D02*
X147332500Y-142137142D01*
X146100357Y-145137142D02*
X146475357Y-142137142D01*
X147921785Y-144280000D02*
X149350357Y-144280000D01*
X147528928Y-145137142D02*
X148903928Y-142137142D01*
X149528928Y-145137142D01*
X150475357Y-142137142D02*
X151100357Y-145137142D01*
X152475357Y-142137142D01*
X153296785Y-143565714D02*
X154296785Y-143565714D01*
X154528928Y-145137142D02*
X153100357Y-145137142D01*
X153475357Y-142137142D01*
X154903928Y-142137142D01*
X155064642Y-145422857D02*
X157350357Y-145422857D01*
X159296785Y-143565714D02*
X159707499Y-143708571D01*
X159832499Y-143851428D01*
X159939642Y-144137142D01*
X159886071Y-144565714D01*
X159707499Y-144851428D01*
X159546785Y-144994285D01*
X159243214Y-145137142D01*
X158100357Y-145137142D01*
X158475357Y-142137142D01*
X159475357Y-142137142D01*
X159743214Y-142280000D01*
X159868214Y-142422857D01*
X159975357Y-142708571D01*
X159939642Y-142994285D01*
X159761071Y-143280000D01*
X159600357Y-143422857D01*
X159296785Y-143565714D01*
X158296785Y-143565714D01*
X107099642Y-142137142D02*
X107671071Y-142137142D01*
X107938928Y-142280000D01*
X108188928Y-142565714D01*
X108260357Y-143137142D01*
X108135357Y-144137142D01*
X107921071Y-144708571D01*
X107599642Y-144994285D01*
X107296071Y-145137142D01*
X106724642Y-145137142D01*
X106456785Y-144994285D01*
X106206785Y-144708571D01*
X106135357Y-144137142D01*
X106260357Y-143137142D01*
X106474642Y-142565714D01*
X106796071Y-142280000D01*
X107099642Y-142137142D01*
X111046071Y-144851428D02*
X110885357Y-144994285D01*
X110438928Y-145137142D01*
X110153214Y-145137142D01*
X109742500Y-144994285D01*
X109492500Y-144708571D01*
X109385357Y-144422857D01*
X109313928Y-143851428D01*
X109367500Y-143422857D01*
X109581785Y-142851428D01*
X109760357Y-142565714D01*
X110081785Y-142280000D01*
X110528214Y-142137142D01*
X110813928Y-142137142D01*
X111224642Y-142280000D01*
X111349642Y-142422857D01*
X112242500Y-142137142D02*
X113956785Y-142137142D01*
X112724642Y-145137142D02*
X113099642Y-142137142D01*
X114546071Y-144280000D02*
X115974642Y-144280000D01*
X114153214Y-145137142D02*
X115528214Y-142137142D01*
X116153214Y-145137142D01*
X117099642Y-142137142D02*
X117724642Y-145137142D01*
X119099642Y-142137142D01*
X119921071Y-143565714D02*
X120921071Y-143565714D01*
X121153214Y-145137142D02*
X119724642Y-145137142D01*
X120099642Y-142137142D01*
X121528214Y-142137142D01*
X121688928Y-145422857D02*
X123974642Y-145422857D01*
X124688928Y-144280000D02*
X126117500Y-144280000D01*
X124296071Y-145137142D02*
X125671071Y-142137142D01*
X126296071Y-145137142D01*
D11*
X111970000Y-125301904D02*
X111922380Y-125397142D01*
X111922380Y-125540000D01*
X111970000Y-125682857D01*
X112065238Y-125778095D01*
X112160476Y-125825714D01*
X112350952Y-125873333D01*
X112493809Y-125873333D01*
X112684285Y-125825714D01*
X112779523Y-125778095D01*
X112874761Y-125682857D01*
X112922380Y-125540000D01*
X112922380Y-125444761D01*
X112874761Y-125301904D01*
X112827142Y-125254285D01*
X112493809Y-125254285D01*
X112493809Y-125444761D01*
X112922380Y-124825714D02*
X111922380Y-124825714D01*
X112922380Y-124254285D01*
X111922380Y-124254285D01*
X112922380Y-123778095D02*
X111922380Y-123778095D01*
X111922380Y-123540000D01*
X111970000Y-123397142D01*
X112065238Y-123301904D01*
X112160476Y-123254285D01*
X112350952Y-123206666D01*
X112493809Y-123206666D01*
X112684285Y-123254285D01*
X112779523Y-123301904D01*
X112874761Y-123397142D01*
X112922380Y-123540000D01*
X112922380Y-123778095D01*
X117120000Y-125371904D02*
X117072380Y-125467142D01*
X117072380Y-125610000D01*
X117120000Y-125752857D01*
X117215238Y-125848095D01*
X117310476Y-125895714D01*
X117500952Y-125943333D01*
X117643809Y-125943333D01*
X117834285Y-125895714D01*
X117929523Y-125848095D01*
X118024761Y-125752857D01*
X118072380Y-125610000D01*
X118072380Y-125514761D01*
X118024761Y-125371904D01*
X117977142Y-125324285D01*
X117643809Y-125324285D01*
X117643809Y-125514761D01*
X118072380Y-124895714D02*
X117072380Y-124895714D01*
X118072380Y-124324285D01*
X117072380Y-124324285D01*
X118072380Y-123848095D02*
X117072380Y-123848095D01*
X117072380Y-123610000D01*
X117120000Y-123467142D01*
X117215238Y-123371904D01*
X117310476Y-123324285D01*
X117500952Y-123276666D01*
X117643809Y-123276666D01*
X117834285Y-123324285D01*
X117929523Y-123371904D01*
X118024761Y-123467142D01*
X118072380Y-123610000D01*
X118072380Y-123848095D01*
X101712380Y-125793333D02*
X102712380Y-125460000D01*
X101712380Y-125126666D01*
X102617142Y-124221904D02*
X102664761Y-124269523D01*
X102712380Y-124412380D01*
X102712380Y-124507619D01*
X102664761Y-124650476D01*
X102569523Y-124745714D01*
X102474285Y-124793333D01*
X102283809Y-124840952D01*
X102140952Y-124840952D01*
X101950476Y-124793333D01*
X101855238Y-124745714D01*
X101760000Y-124650476D01*
X101712380Y-124507619D01*
X101712380Y-124412380D01*
X101760000Y-124269523D01*
X101807619Y-124221904D01*
X102617142Y-123221904D02*
X102664761Y-123269523D01*
X102712380Y-123412380D01*
X102712380Y-123507619D01*
X102664761Y-123650476D01*
X102569523Y-123745714D01*
X102474285Y-123793333D01*
X102283809Y-123840952D01*
X102140952Y-123840952D01*
X101950476Y-123793333D01*
X101855238Y-123745714D01*
X101760000Y-123650476D01*
X101712380Y-123507619D01*
X101712380Y-123412380D01*
X101760000Y-123269523D01*
X101807619Y-123221904D01*
X106862380Y-125793333D02*
X107862380Y-125460000D01*
X106862380Y-125126666D01*
X107767142Y-124221904D02*
X107814761Y-124269523D01*
X107862380Y-124412380D01*
X107862380Y-124507619D01*
X107814761Y-124650476D01*
X107719523Y-124745714D01*
X107624285Y-124793333D01*
X107433809Y-124840952D01*
X107290952Y-124840952D01*
X107100476Y-124793333D01*
X107005238Y-124745714D01*
X106910000Y-124650476D01*
X106862380Y-124507619D01*
X106862380Y-124412380D01*
X106910000Y-124269523D01*
X106957619Y-124221904D01*
X107767142Y-123221904D02*
X107814761Y-123269523D01*
X107862380Y-123412380D01*
X107862380Y-123507619D01*
X107814761Y-123650476D01*
X107719523Y-123745714D01*
X107624285Y-123793333D01*
X107433809Y-123840952D01*
X107290952Y-123840952D01*
X107100476Y-123793333D01*
X107005238Y-123745714D01*
X106910000Y-123650476D01*
X106862380Y-123507619D01*
X106862380Y-123412380D01*
X106910000Y-123269523D01*
X106957619Y-123221904D01*
D12*
G04 #@! TO.C,J3*
X134690000Y-146730000D02*
X134690000Y-149330000D01*
X134690000Y-146730000D02*
X165290000Y-146730000D01*
X165290000Y-146730000D02*
X165290000Y-151930000D01*
X137290000Y-151930000D02*
X165290000Y-151930000D01*
X137290000Y-149330000D02*
X137290000Y-151930000D01*
X134690000Y-149330000D02*
X137290000Y-149330000D01*
X134690000Y-151930000D02*
X136020000Y-151930000D01*
X134690000Y-150600000D02*
X134690000Y-151930000D01*
G04 #@! TO.C,J4*
X101000000Y-146650000D02*
X101000000Y-149250000D01*
X101000000Y-146650000D02*
X131600000Y-146650000D01*
X131600000Y-146650000D02*
X131600000Y-151850000D01*
X103600000Y-151850000D02*
X131600000Y-151850000D01*
X103600000Y-149250000D02*
X103600000Y-151850000D01*
X101000000Y-149250000D02*
X103600000Y-149250000D01*
X101000000Y-151850000D02*
X102330000Y-151850000D01*
X101000000Y-150520000D02*
X101000000Y-151850000D01*
G04 #@! TO.C,J1*
X120270000Y-113860000D02*
X118270000Y-113860000D01*
X120270000Y-116100000D02*
X120270000Y-113860000D01*
X103370000Y-117184000D02*
X103464000Y-117091000D01*
X101120000Y-119435000D02*
X101179000Y-119376000D01*
X103200000Y-116944000D02*
X103259000Y-116886000D01*
X100915000Y-119229000D02*
X101009000Y-119136000D01*
X108450000Y-117184000D02*
X108544000Y-117091000D01*
X106200000Y-119435000D02*
X106259000Y-119376000D01*
X108280000Y-116944000D02*
X108339000Y-116886000D01*
X105995000Y-119229000D02*
X106089000Y-119136000D01*
X113530000Y-117184000D02*
X113624000Y-117091000D01*
X111280000Y-119435000D02*
X111339000Y-119376000D01*
X113360000Y-116944000D02*
X113419000Y-116886000D01*
X111075000Y-119229000D02*
X111169000Y-119136000D01*
X99590000Y-122220000D02*
X99590000Y-114100000D01*
X120030000Y-122220000D02*
X120030000Y-114100000D01*
X120030000Y-114100000D02*
X99590000Y-114100000D01*
X120030000Y-122220000D02*
X99590000Y-122220000D01*
X120030000Y-120160000D02*
X99590000Y-120160000D01*
X120030000Y-116160000D02*
X99590000Y-116160000D01*
X103870000Y-118160000D02*
G75*
G03X103870000Y-118160000I-1680000J0D01*
G01*
X108950000Y-118160000D02*
G75*
G03X108950000Y-118160000I-1680000J0D01*
G01*
X114030000Y-118160000D02*
G75*
G03X114030000Y-118160000I-1680000J0D01*
G01*
X117400617Y-116479550D02*
G75*
G02X118219000Y-116676000I29383J-1680450D01*
G01*
X118913953Y-117370912D02*
G75*
G02X118914000Y-118949000I-1483953J-789088D01*
G01*
X118219088Y-119643953D02*
G75*
G02X116641000Y-119644000I-789088J1483953D01*
G01*
X115946047Y-118949088D02*
G75*
G02X115946000Y-117371000I1483953J789088D01*
G01*
X116641288Y-116676648D02*
G75*
G02X117430000Y-116480000I788712J-1483352D01*
G01*
D13*
G04 #@! TO.C,U3*
X104125000Y-135135000D02*
X104125000Y-129510000D01*
X109675000Y-134010000D02*
X109675000Y-129510000D01*
D12*
G04 #@! TO.C,J2*
X158796470Y-120121744D02*
X157967733Y-115421744D01*
X143063530Y-120121744D02*
X143892267Y-115421744D01*
X156332952Y-114050000D02*
X145527048Y-114050000D01*
X157161689Y-122070000D02*
X144698311Y-122070000D01*
X145390000Y-124831325D02*
X145640000Y-125264338D01*
X145140000Y-125264338D02*
X145390000Y-124831325D01*
X145640000Y-125264338D02*
X145140000Y-125264338D01*
X166415000Y-112810000D02*
X166415000Y-123310000D01*
X136505000Y-111750000D02*
X165355000Y-111750000D01*
X135445000Y-123310000D02*
X135445000Y-112810000D01*
X165355000Y-124370000D02*
X136505000Y-124370000D01*
X143892267Y-115421744D02*
G75*
G02X145527048Y-114050000I1634781J-288256D01*
G01*
X157967733Y-115421744D02*
G75*
G03X156332952Y-114050000I-1634781J-288256D01*
G01*
X143063530Y-120121744D02*
G75*
G03X144698311Y-122070000I1634781J-288256D01*
G01*
X158796470Y-120121744D02*
G75*
G02X157161689Y-122070000I-1634781J-288256D01*
G01*
X136505000Y-111750000D02*
G75*
G03X135445000Y-112810000I0J-1060000D01*
G01*
X165355000Y-111750000D02*
G75*
G02X166415000Y-112810000I0J-1060000D01*
G01*
X135445000Y-123310000D02*
G75*
G03X136505000Y-124370000I1060000J0D01*
G01*
X165355000Y-124370000D02*
G75*
G03X166415000Y-123310000I0J1060000D01*
G01*
D13*
G04 #@! TO.C,U1*
X115355000Y-135135000D02*
X115355000Y-129510000D01*
X120905000Y-134010000D02*
X120905000Y-129510000D01*
G04 #@! TO.C,U2*
X126495000Y-135135000D02*
X126495000Y-129510000D01*
X132045000Y-134010000D02*
X132045000Y-129510000D01*
G04 #@! TO.C,U4*
X137345000Y-135225000D02*
X137345000Y-129600000D01*
X142895000Y-134100000D02*
X142895000Y-129600000D01*
G04 #@! TO.C,U5*
X148305000Y-135305000D02*
X148305000Y-129680000D01*
X153855000Y-134180000D02*
X153855000Y-129680000D01*
G04 #@! TO.C,U6*
X159385000Y-135365000D02*
X159385000Y-129740000D01*
X164935000Y-134240000D02*
X164935000Y-129740000D01*
D12*
G04 #@! TO.C,C1*
X102615000Y-136205000D02*
X102615000Y-132120000D01*
X100745000Y-136205000D02*
X102615000Y-136205000D01*
X100745000Y-132120000D02*
X100745000Y-136205000D01*
G04 #@! TO.C,C2*
X113735000Y-136175000D02*
X113735000Y-132090000D01*
X111865000Y-136175000D02*
X113735000Y-136175000D01*
X111865000Y-132090000D02*
X111865000Y-136175000D01*
G04 #@! TO.C,C3*
X124955000Y-136175000D02*
X124955000Y-132090000D01*
X123085000Y-136175000D02*
X124955000Y-136175000D01*
X123085000Y-132090000D02*
X123085000Y-136175000D01*
G04 #@! TO.C,C4*
X135625000Y-136175000D02*
X135625000Y-132090000D01*
X133755000Y-136175000D02*
X135625000Y-136175000D01*
X133755000Y-132090000D02*
X133755000Y-136175000D01*
G04 #@! TO.C,C5*
X146525000Y-136185000D02*
X146525000Y-132100000D01*
X144655000Y-136185000D02*
X146525000Y-136185000D01*
X144655000Y-132100000D02*
X144655000Y-136185000D01*
G04 #@! TO.C,C6*
X157605000Y-136185000D02*
X157605000Y-132100000D01*
X155735000Y-136185000D02*
X157605000Y-136185000D01*
X155735000Y-132100000D02*
X155735000Y-136185000D01*
G04 #@! TO.C,J3*
D13*
X132612380Y-149843333D02*
X133326666Y-149843333D01*
X133469523Y-149890952D01*
X133564761Y-149986190D01*
X133612380Y-150129047D01*
X133612380Y-150224285D01*
X132612380Y-149462380D02*
X132612380Y-148843333D01*
X132993333Y-149176666D01*
X132993333Y-149033809D01*
X133040952Y-148938571D01*
X133088571Y-148890952D01*
X133183809Y-148843333D01*
X133421904Y-148843333D01*
X133517142Y-148890952D01*
X133564761Y-148938571D01*
X133612380Y-149033809D01*
X133612380Y-149319523D01*
X133564761Y-149414761D01*
X133517142Y-149462380D01*
G04 #@! TO.C,J4*
X98902380Y-149843333D02*
X99616666Y-149843333D01*
X99759523Y-149890952D01*
X99854761Y-149986190D01*
X99902380Y-150129047D01*
X99902380Y-150224285D01*
X99235714Y-148938571D02*
X99902380Y-148938571D01*
X98854761Y-149176666D02*
X99569047Y-149414761D01*
X99569047Y-148795714D01*
G04 #@! TO.C,J1*
X121719466Y-117967980D02*
X121719466Y-118682266D01*
X121671847Y-118825123D01*
X121576609Y-118920361D01*
X121433752Y-118967980D01*
X121338514Y-118967980D01*
X122719466Y-118967980D02*
X122148038Y-118967980D01*
X122433752Y-118967980D02*
X122433752Y-117967980D01*
X122338514Y-118110838D01*
X122243276Y-118206076D01*
X122148038Y-118253695D01*
G04 #@! TO.C,U3*
X106108095Y-126942380D02*
X106108095Y-127751904D01*
X106155714Y-127847142D01*
X106203333Y-127894761D01*
X106298571Y-127942380D01*
X106489047Y-127942380D01*
X106584285Y-127894761D01*
X106631904Y-127847142D01*
X106679523Y-127751904D01*
X106679523Y-126942380D01*
X107060476Y-126942380D02*
X107679523Y-126942380D01*
X107346190Y-127323333D01*
X107489047Y-127323333D01*
X107584285Y-127370952D01*
X107631904Y-127418571D01*
X107679523Y-127513809D01*
X107679523Y-127751904D01*
X107631904Y-127847142D01*
X107584285Y-127894761D01*
X107489047Y-127942380D01*
X107203333Y-127942380D01*
X107108095Y-127894761D01*
X107060476Y-127847142D01*
G04 #@! TO.C,J2*
X150596666Y-124822380D02*
X150596666Y-125536666D01*
X150549047Y-125679523D01*
X150453809Y-125774761D01*
X150310952Y-125822380D01*
X150215714Y-125822380D01*
X151025238Y-124917619D02*
X151072857Y-124870000D01*
X151168095Y-124822380D01*
X151406190Y-124822380D01*
X151501428Y-124870000D01*
X151549047Y-124917619D01*
X151596666Y-125012857D01*
X151596666Y-125108095D01*
X151549047Y-125250952D01*
X150977619Y-125822380D01*
X151596666Y-125822380D01*
G04 #@! TO.C,U1*
X117358095Y-126942380D02*
X117358095Y-127751904D01*
X117405714Y-127847142D01*
X117453333Y-127894761D01*
X117548571Y-127942380D01*
X117739047Y-127942380D01*
X117834285Y-127894761D01*
X117881904Y-127847142D01*
X117929523Y-127751904D01*
X117929523Y-126942380D01*
X118929523Y-127942380D02*
X118358095Y-127942380D01*
X118643809Y-127942380D02*
X118643809Y-126942380D01*
X118548571Y-127085238D01*
X118453333Y-127180476D01*
X118358095Y-127228095D01*
G04 #@! TO.C,U2*
X128428095Y-126942380D02*
X128428095Y-127751904D01*
X128475714Y-127847142D01*
X128523333Y-127894761D01*
X128618571Y-127942380D01*
X128809047Y-127942380D01*
X128904285Y-127894761D01*
X128951904Y-127847142D01*
X128999523Y-127751904D01*
X128999523Y-126942380D01*
X129428095Y-127037619D02*
X129475714Y-126990000D01*
X129570952Y-126942380D01*
X129809047Y-126942380D01*
X129904285Y-126990000D01*
X129951904Y-127037619D01*
X129999523Y-127132857D01*
X129999523Y-127228095D01*
X129951904Y-127370952D01*
X129380476Y-127942380D01*
X129999523Y-127942380D01*
G04 #@! TO.C,U4*
X139338095Y-127072380D02*
X139338095Y-127881904D01*
X139385714Y-127977142D01*
X139433333Y-128024761D01*
X139528571Y-128072380D01*
X139719047Y-128072380D01*
X139814285Y-128024761D01*
X139861904Y-127977142D01*
X139909523Y-127881904D01*
X139909523Y-127072380D01*
X140814285Y-127405714D02*
X140814285Y-128072380D01*
X140576190Y-127024761D02*
X140338095Y-127739047D01*
X140957142Y-127739047D01*
G04 #@! TO.C,U5*
X150168095Y-127102380D02*
X150168095Y-127911904D01*
X150215714Y-128007142D01*
X150263333Y-128054761D01*
X150358571Y-128102380D01*
X150549047Y-128102380D01*
X150644285Y-128054761D01*
X150691904Y-128007142D01*
X150739523Y-127911904D01*
X150739523Y-127102380D01*
X151691904Y-127102380D02*
X151215714Y-127102380D01*
X151168095Y-127578571D01*
X151215714Y-127530952D01*
X151310952Y-127483333D01*
X151549047Y-127483333D01*
X151644285Y-127530952D01*
X151691904Y-127578571D01*
X151739523Y-127673809D01*
X151739523Y-127911904D01*
X151691904Y-128007142D01*
X151644285Y-128054761D01*
X151549047Y-128102380D01*
X151310952Y-128102380D01*
X151215714Y-128054761D01*
X151168095Y-128007142D01*
G04 #@! TO.C,U6*
X161358095Y-127162380D02*
X161358095Y-127971904D01*
X161405714Y-128067142D01*
X161453333Y-128114761D01*
X161548571Y-128162380D01*
X161739047Y-128162380D01*
X161834285Y-128114761D01*
X161881904Y-128067142D01*
X161929523Y-127971904D01*
X161929523Y-127162380D01*
X162834285Y-127162380D02*
X162643809Y-127162380D01*
X162548571Y-127210000D01*
X162500952Y-127257619D01*
X162405714Y-127400476D01*
X162358095Y-127590952D01*
X162358095Y-127971904D01*
X162405714Y-128067142D01*
X162453333Y-128114761D01*
X162548571Y-128162380D01*
X162739047Y-128162380D01*
X162834285Y-128114761D01*
X162881904Y-128067142D01*
X162929523Y-127971904D01*
X162929523Y-127733809D01*
X162881904Y-127638571D01*
X162834285Y-127590952D01*
X162739047Y-127543333D01*
X162548571Y-127543333D01*
X162453333Y-127590952D01*
X162405714Y-127638571D01*
X162358095Y-127733809D01*
G04 #@! TO.C,C1*
X101583333Y-130747142D02*
X101535714Y-130794761D01*
X101392857Y-130842380D01*
X101297619Y-130842380D01*
X101154761Y-130794761D01*
X101059523Y-130699523D01*
X101011904Y-130604285D01*
X100964285Y-130413809D01*
X100964285Y-130270952D01*
X101011904Y-130080476D01*
X101059523Y-129985238D01*
X101154761Y-129890000D01*
X101297619Y-129842380D01*
X101392857Y-129842380D01*
X101535714Y-129890000D01*
X101583333Y-129937619D01*
X102535714Y-130842380D02*
X101964285Y-130842380D01*
X102250000Y-130842380D02*
X102250000Y-129842380D01*
X102154761Y-129985238D01*
X102059523Y-130080476D01*
X101964285Y-130128095D01*
G04 #@! TO.C,C2*
X112623333Y-130747142D02*
X112575714Y-130794761D01*
X112432857Y-130842380D01*
X112337619Y-130842380D01*
X112194761Y-130794761D01*
X112099523Y-130699523D01*
X112051904Y-130604285D01*
X112004285Y-130413809D01*
X112004285Y-130270952D01*
X112051904Y-130080476D01*
X112099523Y-129985238D01*
X112194761Y-129890000D01*
X112337619Y-129842380D01*
X112432857Y-129842380D01*
X112575714Y-129890000D01*
X112623333Y-129937619D01*
X113004285Y-129937619D02*
X113051904Y-129890000D01*
X113147142Y-129842380D01*
X113385238Y-129842380D01*
X113480476Y-129890000D01*
X113528095Y-129937619D01*
X113575714Y-130032857D01*
X113575714Y-130128095D01*
X113528095Y-130270952D01*
X112956666Y-130842380D01*
X113575714Y-130842380D01*
G04 #@! TO.C,C3*
X123793333Y-130777142D02*
X123745714Y-130824761D01*
X123602857Y-130872380D01*
X123507619Y-130872380D01*
X123364761Y-130824761D01*
X123269523Y-130729523D01*
X123221904Y-130634285D01*
X123174285Y-130443809D01*
X123174285Y-130300952D01*
X123221904Y-130110476D01*
X123269523Y-130015238D01*
X123364761Y-129920000D01*
X123507619Y-129872380D01*
X123602857Y-129872380D01*
X123745714Y-129920000D01*
X123793333Y-129967619D01*
X124126666Y-129872380D02*
X124745714Y-129872380D01*
X124412380Y-130253333D01*
X124555238Y-130253333D01*
X124650476Y-130300952D01*
X124698095Y-130348571D01*
X124745714Y-130443809D01*
X124745714Y-130681904D01*
X124698095Y-130777142D01*
X124650476Y-130824761D01*
X124555238Y-130872380D01*
X124269523Y-130872380D01*
X124174285Y-130824761D01*
X124126666Y-130777142D01*
G04 #@! TO.C,C4*
X134553333Y-130747142D02*
X134505714Y-130794761D01*
X134362857Y-130842380D01*
X134267619Y-130842380D01*
X134124761Y-130794761D01*
X134029523Y-130699523D01*
X133981904Y-130604285D01*
X133934285Y-130413809D01*
X133934285Y-130270952D01*
X133981904Y-130080476D01*
X134029523Y-129985238D01*
X134124761Y-129890000D01*
X134267619Y-129842380D01*
X134362857Y-129842380D01*
X134505714Y-129890000D01*
X134553333Y-129937619D01*
X135410476Y-130175714D02*
X135410476Y-130842380D01*
X135172380Y-129794761D02*
X134934285Y-130509047D01*
X135553333Y-130509047D01*
G04 #@! TO.C,C5*
X145393333Y-130777142D02*
X145345714Y-130824761D01*
X145202857Y-130872380D01*
X145107619Y-130872380D01*
X144964761Y-130824761D01*
X144869523Y-130729523D01*
X144821904Y-130634285D01*
X144774285Y-130443809D01*
X144774285Y-130300952D01*
X144821904Y-130110476D01*
X144869523Y-130015238D01*
X144964761Y-129920000D01*
X145107619Y-129872380D01*
X145202857Y-129872380D01*
X145345714Y-129920000D01*
X145393333Y-129967619D01*
X146298095Y-129872380D02*
X145821904Y-129872380D01*
X145774285Y-130348571D01*
X145821904Y-130300952D01*
X145917142Y-130253333D01*
X146155238Y-130253333D01*
X146250476Y-130300952D01*
X146298095Y-130348571D01*
X146345714Y-130443809D01*
X146345714Y-130681904D01*
X146298095Y-130777142D01*
X146250476Y-130824761D01*
X146155238Y-130872380D01*
X145917142Y-130872380D01*
X145821904Y-130824761D01*
X145774285Y-130777142D01*
G04 #@! TO.C,C6*
X156473333Y-130837142D02*
X156425714Y-130884761D01*
X156282857Y-130932380D01*
X156187619Y-130932380D01*
X156044761Y-130884761D01*
X155949523Y-130789523D01*
X155901904Y-130694285D01*
X155854285Y-130503809D01*
X155854285Y-130360952D01*
X155901904Y-130170476D01*
X155949523Y-130075238D01*
X156044761Y-129980000D01*
X156187619Y-129932380D01*
X156282857Y-129932380D01*
X156425714Y-129980000D01*
X156473333Y-130027619D01*
X157330476Y-129932380D02*
X157140000Y-129932380D01*
X157044761Y-129980000D01*
X156997142Y-130027619D01*
X156901904Y-130170476D01*
X156854285Y-130360952D01*
X156854285Y-130741904D01*
X156901904Y-130837142D01*
X156949523Y-130884761D01*
X157044761Y-130932380D01*
X157235238Y-130932380D01*
X157330476Y-130884761D01*
X157378095Y-130837142D01*
X157425714Y-130741904D01*
X157425714Y-130503809D01*
X157378095Y-130408571D01*
X157330476Y-130360952D01*
X157235238Y-130313333D01*
X157044761Y-130313333D01*
X156949523Y-130360952D01*
X156901904Y-130408571D01*
X156854285Y-130503809D01*
G04 #@! TD*
M02*
