G04 #@! TF.GenerationSoftware,KiCad,Pcbnew,(5.0.0)*
G04 #@! TF.CreationDate,2019-03-26T18:29:11-05:00*
G04 #@! TF.ProjectId,PP_OCT,50505F4F43542E6B696361645F706362,rev?*
G04 #@! TF.SameCoordinates,Original*
G04 #@! TF.FileFunction,Copper,L2,Bot,Signal*
G04 #@! TF.FilePolarity,Positive*
%FSLAX46Y46*%
G04 Gerber Fmt 4.6, Leading zero omitted, Abs format (unit mm)*
G04 Created by KiCad (PCBNEW (5.0.0)) date 03/26/19 18:29:11*
%MOMM*%
%LPD*%
G01*
G04 APERTURE LIST*
G04 #@! TA.AperFunction,ComponentPad*
%ADD10C,3.000000*%
G04 #@! TD*
G04 #@! TA.AperFunction,ComponentPad*
%ADD11R,1.700000X1.700000*%
G04 #@! TD*
G04 #@! TA.AperFunction,ComponentPad*
%ADD12O,1.700000X1.700000*%
G04 #@! TD*
G04 #@! TA.AperFunction,ComponentPad*
%ADD13C,2.500000*%
G04 #@! TD*
G04 #@! TA.AperFunction,ComponentPad*
%ADD14R,2.500000X2.500000*%
G04 #@! TD*
G04 #@! TA.AperFunction,ViaPad*
%ADD15C,0.600000*%
G04 #@! TD*
G04 #@! TA.AperFunction,Conductor*
%ADD16R,5.000000X3.400000*%
G04 #@! TD*
G04 #@! TA.AperFunction,ComponentPad*
%ADD17C,4.000000*%
G04 #@! TD*
G04 #@! TA.AperFunction,ComponentPad*
%ADD18C,1.600000*%
G04 #@! TD*
G04 #@! TA.AperFunction,ComponentPad*
%ADD19R,1.600000X1.600000*%
G04 #@! TD*
G04 #@! TA.AperFunction,ViaPad*
%ADD20C,0.800000*%
G04 #@! TD*
G04 #@! TA.AperFunction,Conductor*
%ADD21C,0.350000*%
G04 #@! TD*
G04 #@! TA.AperFunction,Conductor*
%ADD22C,0.250000*%
G04 #@! TD*
G04 APERTURE END LIST*
D10*
G04 #@! TO.P,REF\002A\002A,1*
G04 #@! TO.N,N/C*
X170950000Y-112470000D03*
G04 #@! TD*
G04 #@! TO.P,REF\002A\002A,1*
G04 #@! TO.N,N/C*
X90620000Y-112470000D03*
G04 #@! TD*
G04 #@! TO.P,REF\002A\002A,1*
G04 #@! TO.N,N/C*
X170950000Y-150140000D03*
G04 #@! TD*
G04 #@! TO.P,REF\002A\002A,1*
G04 #@! TO.N,N/C*
X90620000Y-150140000D03*
G04 #@! TD*
D11*
G04 #@! TO.P,J3,1*
G04 #@! TO.N,Net-(J3-Pad1)*
X163960000Y-150600000D03*
D12*
G04 #@! TO.P,J3,2*
G04 #@! TO.N,/VCC*
X136020000Y-148060000D03*
G04 #@! TO.P,J3,3*
G04 #@! TO.N,Net-(J3-Pad3)*
X161420000Y-150600000D03*
G04 #@! TO.P,J3,4*
G04 #@! TO.N,/VCC*
X138560000Y-148060000D03*
G04 #@! TO.P,J3,5*
G04 #@! TO.N,Net-(J3-Pad5)*
X158880000Y-150600000D03*
G04 #@! TO.P,J3,6*
G04 #@! TO.N,/VCC*
X141100000Y-148060000D03*
G04 #@! TO.P,J3,7*
G04 #@! TO.N,Net-(J3-Pad7)*
X156340000Y-150600000D03*
G04 #@! TO.P,J3,8*
G04 #@! TO.N,/VCC*
X143640000Y-148060000D03*
G04 #@! TO.P,J3,9*
G04 #@! TO.N,Net-(J3-Pad9)*
X153800000Y-150600000D03*
G04 #@! TO.P,J3,10*
G04 #@! TO.N,/VCC*
X146180000Y-148060000D03*
G04 #@! TO.P,J3,11*
G04 #@! TO.N,Net-(J3-Pad11)*
X151260000Y-150600000D03*
G04 #@! TO.P,J3,12*
G04 #@! TO.N,/VCC*
X148720000Y-148060000D03*
G04 #@! TO.P,J3,13*
G04 #@! TO.N,Net-(J3-Pad13)*
X148720000Y-150600000D03*
G04 #@! TO.P,J3,14*
G04 #@! TO.N,/VCC*
X151260000Y-148060000D03*
G04 #@! TO.P,J3,15*
G04 #@! TO.N,Net-(J3-Pad15)*
X146180000Y-150600000D03*
G04 #@! TO.P,J3,16*
G04 #@! TO.N,/VCC*
X153800000Y-148060000D03*
G04 #@! TO.P,J3,17*
G04 #@! TO.N,Net-(J3-Pad17)*
X143640000Y-150600000D03*
G04 #@! TO.P,J3,18*
G04 #@! TO.N,/VCC*
X156340000Y-148060000D03*
G04 #@! TO.P,J3,19*
G04 #@! TO.N,Net-(J3-Pad19)*
X141100000Y-150600000D03*
G04 #@! TO.P,J3,20*
G04 #@! TO.N,/VCC*
X158880000Y-148060000D03*
G04 #@! TO.P,J3,21*
G04 #@! TO.N,Net-(J3-Pad21)*
X138560000Y-150600000D03*
G04 #@! TO.P,J3,22*
G04 #@! TO.N,/VCC*
X161420000Y-148060000D03*
G04 #@! TO.P,J3,23*
G04 #@! TO.N,Net-(J3-Pad23)*
X136020000Y-150600000D03*
G04 #@! TO.P,J3,24*
G04 #@! TO.N,/VCC*
X163960000Y-148060000D03*
G04 #@! TD*
D11*
G04 #@! TO.P,J4,1*
G04 #@! TO.N,Net-(J4-Pad1)*
X130270000Y-150520000D03*
D12*
G04 #@! TO.P,J4,2*
G04 #@! TO.N,/VCC*
X102330000Y-147980000D03*
G04 #@! TO.P,J4,3*
G04 #@! TO.N,Net-(J4-Pad3)*
X127730000Y-150520000D03*
G04 #@! TO.P,J4,4*
G04 #@! TO.N,/VCC*
X104870000Y-147980000D03*
G04 #@! TO.P,J4,5*
G04 #@! TO.N,Net-(J4-Pad5)*
X125190000Y-150520000D03*
G04 #@! TO.P,J4,6*
G04 #@! TO.N,/VCC*
X107410000Y-147980000D03*
G04 #@! TO.P,J4,7*
G04 #@! TO.N,Net-(J4-Pad7)*
X122650000Y-150520000D03*
G04 #@! TO.P,J4,8*
G04 #@! TO.N,/VCC*
X109950000Y-147980000D03*
G04 #@! TO.P,J4,9*
G04 #@! TO.N,Net-(J4-Pad9)*
X120110000Y-150520000D03*
G04 #@! TO.P,J4,10*
G04 #@! TO.N,/VCC*
X112490000Y-147980000D03*
G04 #@! TO.P,J4,11*
G04 #@! TO.N,Net-(J4-Pad11)*
X117570000Y-150520000D03*
G04 #@! TO.P,J4,12*
G04 #@! TO.N,/VCC*
X115030000Y-147980000D03*
G04 #@! TO.P,J4,13*
G04 #@! TO.N,Net-(J4-Pad13)*
X115030000Y-150520000D03*
G04 #@! TO.P,J4,14*
G04 #@! TO.N,/VCC*
X117570000Y-147980000D03*
G04 #@! TO.P,J4,15*
G04 #@! TO.N,Net-(J4-Pad15)*
X112490000Y-150520000D03*
G04 #@! TO.P,J4,16*
G04 #@! TO.N,/VCC*
X120110000Y-147980000D03*
G04 #@! TO.P,J4,17*
G04 #@! TO.N,Net-(J4-Pad17)*
X109950000Y-150520000D03*
G04 #@! TO.P,J4,18*
G04 #@! TO.N,/VCC*
X122650000Y-147980000D03*
G04 #@! TO.P,J4,19*
G04 #@! TO.N,Net-(J4-Pad19)*
X107410000Y-150520000D03*
G04 #@! TO.P,J4,20*
G04 #@! TO.N,/VCC*
X125190000Y-147980000D03*
G04 #@! TO.P,J4,21*
G04 #@! TO.N,Net-(J4-Pad21)*
X104870000Y-150520000D03*
G04 #@! TO.P,J4,22*
G04 #@! TO.N,/VCC*
X127730000Y-147980000D03*
G04 #@! TO.P,J4,23*
G04 #@! TO.N,Net-(J4-Pad23)*
X102330000Y-150520000D03*
G04 #@! TO.P,J4,24*
G04 #@! TO.N,/VCC*
X130270000Y-147980000D03*
G04 #@! TD*
D13*
G04 #@! TO.P,J1,4*
G04 #@! TO.N,/VCC*
X102190000Y-118160000D03*
G04 #@! TO.P,J1,3*
X107270000Y-118160000D03*
G04 #@! TO.P,J1,2*
G04 #@! TO.N,/GND*
X112350000Y-118160000D03*
D14*
G04 #@! TO.P,J1,1*
X117430000Y-118160000D03*
G04 #@! TD*
D15*
G04 #@! TO.N,/GND*
G04 #@! TO.C,U3*
X104750000Y-132860000D03*
X104750000Y-131760000D03*
X104750000Y-130660000D03*
X105850000Y-132860000D03*
X105850000Y-131760000D03*
X105850000Y-130660000D03*
X106950000Y-132860000D03*
X106950000Y-131760000D03*
X106950000Y-130660000D03*
X108050000Y-132860000D03*
X108050000Y-131760000D03*
X108050000Y-130660000D03*
X109150000Y-130660000D03*
X109150000Y-131760000D03*
X109150000Y-132860000D03*
D16*
X106950000Y-131760000D03*
G04 #@! TD*
D17*
G04 #@! TO.P,J2,0*
G04 #@! TO.N,N/C*
X138430000Y-118060000D03*
X163430000Y-118060000D03*
D18*
G04 #@! TO.P,J2,9*
G04 #@! TO.N,/GND*
X155085000Y-116640000D03*
G04 #@! TO.P,J2,8*
G04 #@! TO.N,nENBL*
X152315000Y-116640000D03*
G04 #@! TO.P,J2,7*
G04 #@! TO.N,RESET*
X149545000Y-116640000D03*
G04 #@! TO.P,J2,6*
G04 #@! TO.N,FAULT*
X146775000Y-116640000D03*
G04 #@! TO.P,J2,5*
G04 #@! TO.N,SER_DATA*
X156470000Y-119480000D03*
G04 #@! TO.P,J2,4*
G04 #@! TO.N,SER_CLK*
X153700000Y-119480000D03*
G04 #@! TO.P,J2,3*
G04 #@! TO.N,LATCH_C*
X150930000Y-119480000D03*
G04 #@! TO.P,J2,2*
G04 #@! TO.N,LATCH_B*
X148160000Y-119480000D03*
D19*
G04 #@! TO.P,J2,1*
G04 #@! TO.N,LATCH_A*
X145390000Y-119480000D03*
G04 #@! TD*
D15*
G04 #@! TO.N,/GND*
G04 #@! TO.C,U1*
X115980000Y-132860000D03*
X115980000Y-131760000D03*
X115980000Y-130660000D03*
X117080000Y-132860000D03*
X117080000Y-131760000D03*
X117080000Y-130660000D03*
X118180000Y-132860000D03*
X118180000Y-131760000D03*
X118180000Y-130660000D03*
X119280000Y-132860000D03*
X119280000Y-131760000D03*
X119280000Y-130660000D03*
X120380000Y-130660000D03*
X120380000Y-131760000D03*
X120380000Y-132860000D03*
D16*
X118180000Y-131760000D03*
G04 #@! TD*
D15*
G04 #@! TO.N,/GND*
G04 #@! TO.C,U2*
X127120000Y-132860000D03*
X127120000Y-131760000D03*
X127120000Y-130660000D03*
X128220000Y-132860000D03*
X128220000Y-131760000D03*
X128220000Y-130660000D03*
X129320000Y-132860000D03*
X129320000Y-131760000D03*
X129320000Y-130660000D03*
X130420000Y-132860000D03*
X130420000Y-131760000D03*
X130420000Y-130660000D03*
X131520000Y-130660000D03*
X131520000Y-131760000D03*
X131520000Y-132860000D03*
D16*
X129320000Y-131760000D03*
G04 #@! TD*
D15*
G04 #@! TO.N,/GND*
G04 #@! TO.C,U4*
X137970000Y-132950000D03*
X137970000Y-131850000D03*
X137970000Y-130750000D03*
X139070000Y-132950000D03*
X139070000Y-131850000D03*
X139070000Y-130750000D03*
X140170000Y-132950000D03*
X140170000Y-131850000D03*
X140170000Y-130750000D03*
X141270000Y-132950000D03*
X141270000Y-131850000D03*
X141270000Y-130750000D03*
X142370000Y-130750000D03*
X142370000Y-131850000D03*
X142370000Y-132950000D03*
D16*
X140170000Y-131850000D03*
G04 #@! TD*
D15*
G04 #@! TO.N,/GND*
G04 #@! TO.C,U5*
X148930000Y-133030000D03*
X148930000Y-131930000D03*
X148930000Y-130830000D03*
X150030000Y-133030000D03*
X150030000Y-131930000D03*
X150030000Y-130830000D03*
X151130000Y-133030000D03*
X151130000Y-131930000D03*
X151130000Y-130830000D03*
X152230000Y-133030000D03*
X152230000Y-131930000D03*
X152230000Y-130830000D03*
X153330000Y-130830000D03*
X153330000Y-131930000D03*
X153330000Y-133030000D03*
D16*
X151130000Y-131930000D03*
G04 #@! TD*
D15*
G04 #@! TO.N,/GND*
G04 #@! TO.C,U6*
X160010000Y-133090000D03*
X160010000Y-131990000D03*
X160010000Y-130890000D03*
X161110000Y-133090000D03*
X161110000Y-131990000D03*
X161110000Y-130890000D03*
X162210000Y-133090000D03*
X162210000Y-131990000D03*
X162210000Y-130890000D03*
X163310000Y-133090000D03*
X163310000Y-131990000D03*
X163310000Y-130890000D03*
X164410000Y-130890000D03*
X164410000Y-131990000D03*
X164410000Y-133090000D03*
D16*
X162210000Y-131990000D03*
G04 #@! TD*
D20*
G04 #@! TO.N,Net-(J3-Pad1)*
X165230000Y-137750000D03*
G04 #@! TO.N,Net-(J3-Pad3)*
X163960000Y-137820000D03*
G04 #@! TO.N,Net-(J3-Pad5)*
X162780000Y-137730000D03*
G04 #@! TO.N,Net-(J3-Pad7)*
X161440000Y-137800000D03*
G04 #@! TO.N,Net-(J3-Pad9)*
X154160000Y-137690000D03*
G04 #@! TO.N,Net-(J3-Pad11)*
X152890000Y-137760000D03*
G04 #@! TO.N,Net-(J3-Pad13)*
X151710000Y-137670000D03*
G04 #@! TO.N,Net-(J3-Pad15)*
X150370000Y-137740000D03*
G04 #@! TO.N,Net-(J3-Pad17)*
X143200000Y-137520000D03*
G04 #@! TO.N,Net-(J3-Pad19)*
X141930000Y-137590000D03*
G04 #@! TO.N,Net-(J3-Pad21)*
X140750000Y-137500000D03*
G04 #@! TO.N,Net-(J3-Pad23)*
X139410000Y-137570000D03*
G04 #@! TO.N,Net-(J4-Pad23)*
X106190000Y-137550000D03*
G04 #@! TO.N,Net-(J4-Pad21)*
X107530000Y-137480000D03*
G04 #@! TO.N,Net-(J4-Pad19)*
X108710000Y-137570000D03*
G04 #@! TO.N,Net-(J4-Pad17)*
X109980000Y-137500000D03*
G04 #@! TO.N,Net-(J4-Pad15)*
X117410000Y-137570000D03*
G04 #@! TO.N,Net-(J4-Pad13)*
X118750000Y-137500000D03*
G04 #@! TO.N,Net-(J4-Pad11)*
X119930000Y-137590000D03*
G04 #@! TO.N,Net-(J4-Pad9)*
X121200000Y-137520000D03*
G04 #@! TO.N,Net-(J4-Pad7)*
X128570000Y-137560000D03*
G04 #@! TO.N,Net-(J4-Pad5)*
X129910000Y-137490000D03*
G04 #@! TO.N,Net-(J4-Pad3)*
X131090000Y-137580000D03*
G04 #@! TO.N,Net-(J4-Pad1)*
X132360000Y-137510000D03*
G04 #@! TO.N,Net-(U1-Pad14)*
X105930000Y-122280000D03*
X117200000Y-122280000D03*
G04 #@! TO.N,Net-(U2-Pad15)*
X128320000Y-122290000D03*
X139080000Y-122290000D03*
G04 #@! TO.N,LATCH_A*
X108500000Y-125400000D03*
X119530000Y-125400000D03*
G04 #@! TO.N,LATCH_B*
X131300000Y-125490000D03*
X141240000Y-125490000D03*
G04 #@! TO.N,LATCH_C*
X152920000Y-125590000D03*
X163090000Y-125590000D03*
G04 #@! TO.N,SER_CLK*
X107390000Y-124360000D03*
X162030000Y-124360000D03*
X151810000Y-124360000D03*
X140370000Y-124360000D03*
X130420000Y-124360000D03*
X118490000Y-124360000D03*
G04 #@! TO.N,SER_DATA*
X106640000Y-123330000D03*
X150980000Y-123330000D03*
X129440000Y-123330000D03*
G04 #@! TO.N,FAULT*
X104660000Y-121830000D03*
X159960001Y-121430001D03*
X148840000Y-121430001D03*
X137910000Y-121430001D03*
X127130000Y-121430001D03*
X115950000Y-121430001D03*
G04 #@! TO.N,Net-(U5-Pad15)*
X150110000Y-122390000D03*
X161220000Y-122390000D03*
G04 #@! TO.N,RESET*
X109220000Y-126500000D03*
X120460000Y-126500000D03*
X132420000Y-126500000D03*
X142600000Y-126490000D03*
X153960000Y-126490000D03*
X164610000Y-126490000D03*
G04 #@! TO.N,nENBL*
X165555000Y-135360000D03*
X154540000Y-135365000D03*
X143565000Y-135270000D03*
X121660000Y-135080000D03*
X110500000Y-135335000D03*
X132745000Y-135210000D03*
G04 #@! TD*
D21*
G04 #@! TO.N,Net-(J3-Pad1)*
X165160000Y-150600000D02*
X163960000Y-150600000D01*
X165230000Y-150530000D02*
X165160000Y-150600000D01*
X165230000Y-137750000D02*
X165230000Y-150530000D01*
D22*
G04 #@! TO.N,/GND*
X118930000Y-118160000D02*
X117430000Y-118160000D01*
X124280000Y-112810000D02*
X118930000Y-118160000D01*
X151255000Y-112810000D02*
X124280000Y-112810000D01*
X155085000Y-116640000D02*
X151255000Y-112810000D01*
D21*
G04 #@! TO.N,Net-(J3-Pad3)*
X162269999Y-149750001D02*
X161420000Y-150600000D01*
X162645001Y-149374999D02*
X162269999Y-149750001D01*
X162645001Y-139134999D02*
X162645001Y-149374999D01*
X163960000Y-137820000D02*
X162645001Y-139134999D01*
G04 #@! TO.N,Net-(J3-Pad5)*
X159729999Y-149750001D02*
X158880000Y-150600000D01*
X160105001Y-149374999D02*
X159729999Y-149750001D01*
X160105001Y-140404999D02*
X160105001Y-149374999D01*
X162780000Y-137730000D02*
X160105001Y-140404999D01*
G04 #@! TO.N,Net-(J3-Pad7)*
X157189999Y-149750001D02*
X156340000Y-150600000D01*
X157565001Y-149374999D02*
X157189999Y-149750001D01*
X157565001Y-141674999D02*
X157565001Y-149374999D01*
X161440000Y-137800000D02*
X157565001Y-141674999D01*
G04 #@! TO.N,Net-(J3-Pad9)*
X154649999Y-149750001D02*
X153800000Y-150600000D01*
X155025001Y-149374999D02*
X154649999Y-149750001D01*
X155025001Y-138555001D02*
X155025001Y-149374999D01*
X154160000Y-137690000D02*
X155025001Y-138555001D01*
G04 #@! TO.N,Net-(J3-Pad11)*
X152109999Y-149750001D02*
X151260000Y-150600000D01*
X152485001Y-149374999D02*
X152109999Y-149750001D01*
X152485001Y-138164999D02*
X152485001Y-149374999D01*
X152890000Y-137760000D02*
X152485001Y-138164999D01*
G04 #@! TO.N,Net-(J3-Pad13)*
X149569999Y-149750001D02*
X148720000Y-150600000D01*
X149945001Y-149374999D02*
X149569999Y-149750001D01*
X149945001Y-139434999D02*
X149945001Y-149374999D01*
X151710000Y-137670000D02*
X149945001Y-139434999D01*
G04 #@! TO.N,Net-(J3-Pad15)*
X147029999Y-149750001D02*
X146180000Y-150600000D01*
X147405001Y-149374999D02*
X147029999Y-149750001D01*
X147405001Y-140704999D02*
X147405001Y-149374999D01*
X150370000Y-137740000D02*
X147405001Y-140704999D01*
G04 #@! TO.N,Net-(J3-Pad17)*
X144489999Y-149750001D02*
X143640000Y-150600000D01*
X144865001Y-149374999D02*
X144489999Y-149750001D01*
X144865001Y-139185001D02*
X144865001Y-149374999D01*
X143200000Y-137520000D02*
X144865001Y-139185001D01*
G04 #@! TO.N,Net-(J3-Pad19)*
X141949999Y-149750001D02*
X141100000Y-150600000D01*
X142329999Y-149370001D02*
X141949999Y-149750001D01*
X142329999Y-137989999D02*
X142329999Y-149370001D01*
X141930000Y-137590000D02*
X142329999Y-137989999D01*
G04 #@! TO.N,Net-(J3-Pad21)*
X139409999Y-149750001D02*
X138560000Y-150600000D01*
X139785001Y-149374999D02*
X139409999Y-149750001D01*
X139785001Y-138464999D02*
X139785001Y-149374999D01*
X140750000Y-137500000D02*
X139785001Y-138464999D01*
G04 #@! TO.N,Net-(J3-Pad23)*
X136869999Y-149750001D02*
X136020000Y-150600000D01*
X137334999Y-149285001D02*
X136869999Y-149750001D01*
X137334999Y-139645001D02*
X137334999Y-149285001D01*
X139410000Y-137570000D02*
X137334999Y-139645001D01*
G04 #@! TO.N,Net-(J4-Pad23)*
X103179999Y-149670001D02*
X102330000Y-150520000D01*
X103555001Y-149294999D02*
X103179999Y-149670001D01*
X103555001Y-140184999D02*
X103555001Y-149294999D01*
X106190000Y-137550000D02*
X103555001Y-140184999D01*
G04 #@! TO.N,Net-(J4-Pad21)*
X105719999Y-149670001D02*
X104870000Y-150520000D01*
X106095001Y-149294999D02*
X105719999Y-149670001D01*
X106095001Y-138914999D02*
X106095001Y-149294999D01*
X107530000Y-137480000D02*
X106095001Y-138914999D01*
G04 #@! TO.N,Net-(J4-Pad19)*
X108710000Y-149220000D02*
X107410000Y-150520000D01*
X108710000Y-137570000D02*
X108710000Y-149220000D01*
G04 #@! TO.N,Net-(J4-Pad17)*
X110799999Y-149670001D02*
X109950000Y-150520000D01*
X111175001Y-149294999D02*
X110799999Y-149670001D01*
X111175001Y-138695001D02*
X111175001Y-149294999D01*
X109980000Y-137500000D02*
X111175001Y-138695001D01*
G04 #@! TO.N,Net-(J4-Pad15)*
X113339999Y-149670001D02*
X112490000Y-150520000D01*
X113715001Y-149294999D02*
X113339999Y-149670001D01*
X113715001Y-141264999D02*
X113715001Y-149294999D01*
X117410000Y-137570000D02*
X113715001Y-141264999D01*
G04 #@! TO.N,Net-(J4-Pad13)*
X115879999Y-149670001D02*
X115030000Y-150520000D01*
X116255001Y-149294999D02*
X115879999Y-149670001D01*
X116255001Y-139994999D02*
X116255001Y-149294999D01*
X118750000Y-137500000D02*
X116255001Y-139994999D01*
G04 #@! TO.N,Net-(J4-Pad11)*
X118419999Y-149670001D02*
X117570000Y-150520000D01*
X118795001Y-149294999D02*
X118419999Y-149670001D01*
X118795001Y-138724999D02*
X118795001Y-149294999D01*
X119930000Y-137590000D02*
X118795001Y-138724999D01*
G04 #@! TO.N,Net-(J4-Pad9)*
X120959999Y-149670001D02*
X120110000Y-150520000D01*
X121335001Y-149294999D02*
X120959999Y-149670001D01*
X121335001Y-147391999D02*
X121335001Y-149294999D01*
X121200000Y-147256998D02*
X121335001Y-147391999D01*
X121200000Y-137520000D02*
X121200000Y-147256998D01*
G04 #@! TO.N,Net-(J4-Pad7)*
X123499999Y-149670001D02*
X122650000Y-150520000D01*
X123875001Y-149294999D02*
X123499999Y-149670001D01*
X123875001Y-142254999D02*
X123875001Y-149294999D01*
X128570000Y-137560000D02*
X123875001Y-142254999D01*
G04 #@! TO.N,Net-(J4-Pad5)*
X126039999Y-149670001D02*
X125190000Y-150520000D01*
X126415001Y-149294999D02*
X126039999Y-149670001D01*
X126415001Y-140984999D02*
X126415001Y-149294999D01*
X129910000Y-137490000D02*
X126415001Y-140984999D01*
G04 #@! TO.N,Net-(J4-Pad3)*
X128579999Y-149670001D02*
X127730000Y-150520000D01*
X128955001Y-149294999D02*
X128579999Y-149670001D01*
X128955001Y-139714999D02*
X128955001Y-149294999D01*
X131090000Y-137580000D02*
X128955001Y-139714999D01*
G04 #@! TO.N,Net-(J4-Pad1)*
X131470000Y-150520000D02*
X130270000Y-150520000D01*
X131495001Y-150494999D02*
X131470000Y-150520000D01*
X131495001Y-138374999D02*
X131495001Y-150494999D01*
X132360000Y-137510000D02*
X131495001Y-138374999D01*
D22*
G04 #@! TO.N,Net-(U1-Pad14)*
X105930000Y-122280000D02*
X117200000Y-122280000D01*
X117200000Y-122280000D02*
X117200000Y-122280000D01*
G04 #@! TO.N,Net-(U2-Pad15)*
X128320000Y-122290000D02*
X139080000Y-122290000D01*
X139080000Y-122290000D02*
X139080000Y-122290000D01*
G04 #@! TO.N,LATCH_A*
X108500000Y-125400000D02*
X119530000Y-125400000D01*
X119530000Y-125400000D02*
X119530000Y-125400000D01*
G04 #@! TO.N,LATCH_B*
X131300000Y-125490000D02*
X141240000Y-125490000D01*
X141240000Y-125490000D02*
X141240000Y-125490000D01*
G04 #@! TO.N,LATCH_C*
X152920000Y-125590000D02*
X163090000Y-125590000D01*
X163090000Y-125590000D02*
X163090000Y-125590000D01*
G04 #@! TO.N,SER_CLK*
X107390000Y-124360000D02*
X118490000Y-124360000D01*
X162030000Y-124360000D02*
X162030000Y-124360000D01*
X151810000Y-124360000D02*
X162030000Y-124360000D01*
X140370000Y-124360000D02*
X151810000Y-124360000D01*
X130420000Y-124360000D02*
X140370000Y-124360000D01*
X118490000Y-124360000D02*
X130420000Y-124360000D01*
G04 #@! TO.N,SER_DATA*
X106640000Y-123330000D02*
X118130000Y-123330000D01*
X150170000Y-123330000D02*
X150170000Y-123330000D01*
X140170000Y-123330000D02*
X150170000Y-123330000D01*
X128670000Y-123330000D02*
X129440000Y-123330000D01*
X118130000Y-123330000D02*
X128670000Y-123330000D01*
X150170000Y-123330000D02*
X150980000Y-123330000D01*
X150980000Y-123330000D02*
X150980000Y-123330000D01*
X129440000Y-123330000D02*
X140170000Y-123330000D01*
G04 #@! TO.N,FAULT*
X105059999Y-121430001D02*
X115950000Y-121430001D01*
X104660000Y-121830000D02*
X105059999Y-121430001D01*
X159960001Y-121430001D02*
X159960001Y-121430001D01*
X148840000Y-121430001D02*
X159960001Y-121430001D01*
X137910000Y-121430001D02*
X148840000Y-121430001D01*
X127130000Y-121430001D02*
X137910000Y-121430001D01*
X115950000Y-121430001D02*
X127130000Y-121430001D01*
G04 #@! TO.N,Net-(U5-Pad15)*
X150110000Y-122390000D02*
X161220000Y-122390000D01*
X161220000Y-122390000D02*
X161220000Y-122390000D01*
G04 #@! TO.N,RESET*
X109220000Y-126500000D02*
X120460000Y-126500000D01*
X134600000Y-126500000D02*
X134610000Y-126490000D01*
X134610000Y-126490000D02*
X142600000Y-126490000D01*
X120460000Y-126500000D02*
X132420000Y-126500000D01*
X132420000Y-126500000D02*
X134600000Y-126500000D01*
X142600000Y-126490000D02*
X153960000Y-126490000D01*
X153960000Y-126490000D02*
X164610000Y-126490000D01*
X164180000Y-126490000D02*
X164610000Y-126490000D01*
X164610000Y-126490000D02*
X164180000Y-126490000D01*
G04 #@! TO.N,nENBL*
X110500000Y-135335000D02*
X110500000Y-134769315D01*
X110500000Y-134769315D02*
X110500000Y-127460000D01*
X132745000Y-128155000D02*
X133440000Y-127460000D01*
X132745000Y-135210000D02*
X132745000Y-128155000D01*
X143565000Y-128185000D02*
X144290000Y-127460000D01*
X143565000Y-135270000D02*
X143565000Y-128185000D01*
X133440000Y-127460000D02*
X144290000Y-127460000D01*
X154540000Y-128300000D02*
X155380000Y-127460000D01*
X154540000Y-135365000D02*
X154540000Y-128300000D01*
X144290000Y-127460000D02*
X155380000Y-127460000D01*
X121660000Y-127940000D02*
X122140000Y-127460000D01*
X121660000Y-135080000D02*
X121660000Y-127940000D01*
X110500000Y-127460000D02*
X122140000Y-127460000D01*
X122140000Y-127460000D02*
X133440000Y-127460000D01*
X165520000Y-125616998D02*
X165520000Y-127460000D01*
X157668003Y-117765001D02*
X165520000Y-125616998D01*
X153440001Y-117765001D02*
X157668003Y-117765001D01*
X152315000Y-116640000D02*
X153440001Y-117765001D01*
X155380000Y-127460000D02*
X165520000Y-127460000D01*
X165954999Y-127894999D02*
X165520000Y-127460000D01*
X165954999Y-134960001D02*
X165954999Y-127894999D01*
X165555000Y-135360000D02*
X165954999Y-134960001D01*
G04 #@! TD*
M02*
