G04 #@! TF.GenerationSoftware,KiCad,Pcbnew,(5.0.0)*
G04 #@! TF.CreationDate,2019-03-26T18:29:11-05:00*
G04 #@! TF.ProjectId,PP_OCT,50505F4F43542E6B696361645F706362,rev?*
G04 #@! TF.SameCoordinates,Original*
G04 #@! TF.FileFunction,Paste,Top*
G04 #@! TF.FilePolarity,Positive*
%FSLAX46Y46*%
G04 Gerber Fmt 4.6, Leading zero omitted, Abs format (unit mm)*
G04 Created by KiCad (PCBNEW (5.0.0)) date 03/26/19 18:29:11*
%MOMM*%
%LPD*%
G01*
G04 APERTURE LIST*
%ADD10R,0.800000X0.250000*%
%ADD11R,0.250000X0.800000*%
%ADD12R,0.800000X0.850000*%
%ADD13R,0.850000X0.850000*%
%ADD14R,0.450000X1.050000*%
%ADD15C,0.100000*%
%ADD16C,1.350000*%
G04 APERTURE END LIST*
D10*
G04 #@! TO.C,U3*
X107500000Y-133085000D03*
X107500000Y-130435000D03*
X106400000Y-130435000D03*
X106400000Y-133085000D03*
D11*
X108275000Y-132310000D03*
X108275000Y-131210000D03*
X105625000Y-131210000D03*
X105625000Y-132310000D03*
D12*
X106400000Y-132310000D03*
D13*
X106400000Y-131210000D03*
X107500000Y-131210000D03*
X107500000Y-132310000D03*
D14*
X104675000Y-128985000D03*
X105325000Y-128985000D03*
X105975000Y-128985000D03*
X106625000Y-128985000D03*
X107275000Y-128985000D03*
X107925000Y-128985000D03*
X108575000Y-128985000D03*
X109225000Y-128985000D03*
X109225000Y-134535000D03*
X108575000Y-134535000D03*
X107925000Y-134535000D03*
X107275000Y-134535000D03*
X106625000Y-134535000D03*
X105975000Y-134535000D03*
X105325000Y-134535000D03*
X104675000Y-134535000D03*
G04 #@! TD*
D10*
G04 #@! TO.C,U1*
X118730000Y-133085000D03*
X118730000Y-130435000D03*
X117630000Y-130435000D03*
X117630000Y-133085000D03*
D11*
X119505000Y-132310000D03*
X119505000Y-131210000D03*
X116855000Y-131210000D03*
X116855000Y-132310000D03*
D12*
X117630000Y-132310000D03*
D13*
X117630000Y-131210000D03*
X118730000Y-131210000D03*
X118730000Y-132310000D03*
D14*
X115905000Y-128985000D03*
X116555000Y-128985000D03*
X117205000Y-128985000D03*
X117855000Y-128985000D03*
X118505000Y-128985000D03*
X119155000Y-128985000D03*
X119805000Y-128985000D03*
X120455000Y-128985000D03*
X120455000Y-134535000D03*
X119805000Y-134535000D03*
X119155000Y-134535000D03*
X118505000Y-134535000D03*
X117855000Y-134535000D03*
X117205000Y-134535000D03*
X116555000Y-134535000D03*
X115905000Y-134535000D03*
G04 #@! TD*
D10*
G04 #@! TO.C,U2*
X129870000Y-133085000D03*
X129870000Y-130435000D03*
X128770000Y-130435000D03*
X128770000Y-133085000D03*
D11*
X130645000Y-132310000D03*
X130645000Y-131210000D03*
X127995000Y-131210000D03*
X127995000Y-132310000D03*
D12*
X128770000Y-132310000D03*
D13*
X128770000Y-131210000D03*
X129870000Y-131210000D03*
X129870000Y-132310000D03*
D14*
X127045000Y-128985000D03*
X127695000Y-128985000D03*
X128345000Y-128985000D03*
X128995000Y-128985000D03*
X129645000Y-128985000D03*
X130295000Y-128985000D03*
X130945000Y-128985000D03*
X131595000Y-128985000D03*
X131595000Y-134535000D03*
X130945000Y-134535000D03*
X130295000Y-134535000D03*
X129645000Y-134535000D03*
X128995000Y-134535000D03*
X128345000Y-134535000D03*
X127695000Y-134535000D03*
X127045000Y-134535000D03*
G04 #@! TD*
D10*
G04 #@! TO.C,U4*
X140720000Y-133175000D03*
X140720000Y-130525000D03*
X139620000Y-130525000D03*
X139620000Y-133175000D03*
D11*
X141495000Y-132400000D03*
X141495000Y-131300000D03*
X138845000Y-131300000D03*
X138845000Y-132400000D03*
D12*
X139620000Y-132400000D03*
D13*
X139620000Y-131300000D03*
X140720000Y-131300000D03*
X140720000Y-132400000D03*
D14*
X137895000Y-129075000D03*
X138545000Y-129075000D03*
X139195000Y-129075000D03*
X139845000Y-129075000D03*
X140495000Y-129075000D03*
X141145000Y-129075000D03*
X141795000Y-129075000D03*
X142445000Y-129075000D03*
X142445000Y-134625000D03*
X141795000Y-134625000D03*
X141145000Y-134625000D03*
X140495000Y-134625000D03*
X139845000Y-134625000D03*
X139195000Y-134625000D03*
X138545000Y-134625000D03*
X137895000Y-134625000D03*
G04 #@! TD*
D10*
G04 #@! TO.C,U5*
X151680000Y-133255000D03*
X151680000Y-130605000D03*
X150580000Y-130605000D03*
X150580000Y-133255000D03*
D11*
X152455000Y-132480000D03*
X152455000Y-131380000D03*
X149805000Y-131380000D03*
X149805000Y-132480000D03*
D12*
X150580000Y-132480000D03*
D13*
X150580000Y-131380000D03*
X151680000Y-131380000D03*
X151680000Y-132480000D03*
D14*
X148855000Y-129155000D03*
X149505000Y-129155000D03*
X150155000Y-129155000D03*
X150805000Y-129155000D03*
X151455000Y-129155000D03*
X152105000Y-129155000D03*
X152755000Y-129155000D03*
X153405000Y-129155000D03*
X153405000Y-134705000D03*
X152755000Y-134705000D03*
X152105000Y-134705000D03*
X151455000Y-134705000D03*
X150805000Y-134705000D03*
X150155000Y-134705000D03*
X149505000Y-134705000D03*
X148855000Y-134705000D03*
G04 #@! TD*
D10*
G04 #@! TO.C,U6*
X162760000Y-133315000D03*
X162760000Y-130665000D03*
X161660000Y-130665000D03*
X161660000Y-133315000D03*
D11*
X163535000Y-132540000D03*
X163535000Y-131440000D03*
X160885000Y-131440000D03*
X160885000Y-132540000D03*
D12*
X161660000Y-132540000D03*
D13*
X161660000Y-131440000D03*
X162760000Y-131440000D03*
X162760000Y-132540000D03*
D14*
X159935000Y-129215000D03*
X160585000Y-129215000D03*
X161235000Y-129215000D03*
X161885000Y-129215000D03*
X162535000Y-129215000D03*
X163185000Y-129215000D03*
X163835000Y-129215000D03*
X164485000Y-129215000D03*
X164485000Y-134765000D03*
X163835000Y-134765000D03*
X163185000Y-134765000D03*
X162535000Y-134765000D03*
X161885000Y-134765000D03*
X161235000Y-134765000D03*
X160585000Y-134765000D03*
X159935000Y-134765000D03*
G04 #@! TD*
D15*
G04 #@! TO.C,C1*
G36*
X102129505Y-131496204D02*
X102153773Y-131499804D01*
X102177572Y-131505765D01*
X102200671Y-131514030D01*
X102222850Y-131524520D01*
X102243893Y-131537132D01*
X102263599Y-131551747D01*
X102281777Y-131568223D01*
X102298253Y-131586401D01*
X102312868Y-131606107D01*
X102325480Y-131627150D01*
X102335970Y-131649329D01*
X102344235Y-131672428D01*
X102350196Y-131696227D01*
X102353796Y-131720495D01*
X102355000Y-131744999D01*
X102355000Y-132820001D01*
X102353796Y-132844505D01*
X102350196Y-132868773D01*
X102344235Y-132892572D01*
X102335970Y-132915671D01*
X102325480Y-132937850D01*
X102312868Y-132958893D01*
X102298253Y-132978599D01*
X102281777Y-132996777D01*
X102263599Y-133013253D01*
X102243893Y-133027868D01*
X102222850Y-133040480D01*
X102200671Y-133050970D01*
X102177572Y-133059235D01*
X102153773Y-133065196D01*
X102129505Y-133068796D01*
X102105001Y-133070000D01*
X101254999Y-133070000D01*
X101230495Y-133068796D01*
X101206227Y-133065196D01*
X101182428Y-133059235D01*
X101159329Y-133050970D01*
X101137150Y-133040480D01*
X101116107Y-133027868D01*
X101096401Y-133013253D01*
X101078223Y-132996777D01*
X101061747Y-132978599D01*
X101047132Y-132958893D01*
X101034520Y-132937850D01*
X101024030Y-132915671D01*
X101015765Y-132892572D01*
X101009804Y-132868773D01*
X101006204Y-132844505D01*
X101005000Y-132820001D01*
X101005000Y-131744999D01*
X101006204Y-131720495D01*
X101009804Y-131696227D01*
X101015765Y-131672428D01*
X101024030Y-131649329D01*
X101034520Y-131627150D01*
X101047132Y-131606107D01*
X101061747Y-131586401D01*
X101078223Y-131568223D01*
X101096401Y-131551747D01*
X101116107Y-131537132D01*
X101137150Y-131524520D01*
X101159329Y-131514030D01*
X101182428Y-131505765D01*
X101206227Y-131499804D01*
X101230495Y-131496204D01*
X101254999Y-131495000D01*
X102105001Y-131495000D01*
X102129505Y-131496204D01*
X102129505Y-131496204D01*
G37*
D16*
X101680000Y-132282500D03*
D15*
G36*
X102129505Y-134371204D02*
X102153773Y-134374804D01*
X102177572Y-134380765D01*
X102200671Y-134389030D01*
X102222850Y-134399520D01*
X102243893Y-134412132D01*
X102263599Y-134426747D01*
X102281777Y-134443223D01*
X102298253Y-134461401D01*
X102312868Y-134481107D01*
X102325480Y-134502150D01*
X102335970Y-134524329D01*
X102344235Y-134547428D01*
X102350196Y-134571227D01*
X102353796Y-134595495D01*
X102355000Y-134619999D01*
X102355000Y-135695001D01*
X102353796Y-135719505D01*
X102350196Y-135743773D01*
X102344235Y-135767572D01*
X102335970Y-135790671D01*
X102325480Y-135812850D01*
X102312868Y-135833893D01*
X102298253Y-135853599D01*
X102281777Y-135871777D01*
X102263599Y-135888253D01*
X102243893Y-135902868D01*
X102222850Y-135915480D01*
X102200671Y-135925970D01*
X102177572Y-135934235D01*
X102153773Y-135940196D01*
X102129505Y-135943796D01*
X102105001Y-135945000D01*
X101254999Y-135945000D01*
X101230495Y-135943796D01*
X101206227Y-135940196D01*
X101182428Y-135934235D01*
X101159329Y-135925970D01*
X101137150Y-135915480D01*
X101116107Y-135902868D01*
X101096401Y-135888253D01*
X101078223Y-135871777D01*
X101061747Y-135853599D01*
X101047132Y-135833893D01*
X101034520Y-135812850D01*
X101024030Y-135790671D01*
X101015765Y-135767572D01*
X101009804Y-135743773D01*
X101006204Y-135719505D01*
X101005000Y-135695001D01*
X101005000Y-134619999D01*
X101006204Y-134595495D01*
X101009804Y-134571227D01*
X101015765Y-134547428D01*
X101024030Y-134524329D01*
X101034520Y-134502150D01*
X101047132Y-134481107D01*
X101061747Y-134461401D01*
X101078223Y-134443223D01*
X101096401Y-134426747D01*
X101116107Y-134412132D01*
X101137150Y-134399520D01*
X101159329Y-134389030D01*
X101182428Y-134380765D01*
X101206227Y-134374804D01*
X101230495Y-134371204D01*
X101254999Y-134370000D01*
X102105001Y-134370000D01*
X102129505Y-134371204D01*
X102129505Y-134371204D01*
G37*
D16*
X101680000Y-135157500D03*
G04 #@! TD*
D15*
G04 #@! TO.C,C2*
G36*
X113249505Y-131466204D02*
X113273773Y-131469804D01*
X113297572Y-131475765D01*
X113320671Y-131484030D01*
X113342850Y-131494520D01*
X113363893Y-131507132D01*
X113383599Y-131521747D01*
X113401777Y-131538223D01*
X113418253Y-131556401D01*
X113432868Y-131576107D01*
X113445480Y-131597150D01*
X113455970Y-131619329D01*
X113464235Y-131642428D01*
X113470196Y-131666227D01*
X113473796Y-131690495D01*
X113475000Y-131714999D01*
X113475000Y-132790001D01*
X113473796Y-132814505D01*
X113470196Y-132838773D01*
X113464235Y-132862572D01*
X113455970Y-132885671D01*
X113445480Y-132907850D01*
X113432868Y-132928893D01*
X113418253Y-132948599D01*
X113401777Y-132966777D01*
X113383599Y-132983253D01*
X113363893Y-132997868D01*
X113342850Y-133010480D01*
X113320671Y-133020970D01*
X113297572Y-133029235D01*
X113273773Y-133035196D01*
X113249505Y-133038796D01*
X113225001Y-133040000D01*
X112374999Y-133040000D01*
X112350495Y-133038796D01*
X112326227Y-133035196D01*
X112302428Y-133029235D01*
X112279329Y-133020970D01*
X112257150Y-133010480D01*
X112236107Y-132997868D01*
X112216401Y-132983253D01*
X112198223Y-132966777D01*
X112181747Y-132948599D01*
X112167132Y-132928893D01*
X112154520Y-132907850D01*
X112144030Y-132885671D01*
X112135765Y-132862572D01*
X112129804Y-132838773D01*
X112126204Y-132814505D01*
X112125000Y-132790001D01*
X112125000Y-131714999D01*
X112126204Y-131690495D01*
X112129804Y-131666227D01*
X112135765Y-131642428D01*
X112144030Y-131619329D01*
X112154520Y-131597150D01*
X112167132Y-131576107D01*
X112181747Y-131556401D01*
X112198223Y-131538223D01*
X112216401Y-131521747D01*
X112236107Y-131507132D01*
X112257150Y-131494520D01*
X112279329Y-131484030D01*
X112302428Y-131475765D01*
X112326227Y-131469804D01*
X112350495Y-131466204D01*
X112374999Y-131465000D01*
X113225001Y-131465000D01*
X113249505Y-131466204D01*
X113249505Y-131466204D01*
G37*
D16*
X112800000Y-132252500D03*
D15*
G36*
X113249505Y-134341204D02*
X113273773Y-134344804D01*
X113297572Y-134350765D01*
X113320671Y-134359030D01*
X113342850Y-134369520D01*
X113363893Y-134382132D01*
X113383599Y-134396747D01*
X113401777Y-134413223D01*
X113418253Y-134431401D01*
X113432868Y-134451107D01*
X113445480Y-134472150D01*
X113455970Y-134494329D01*
X113464235Y-134517428D01*
X113470196Y-134541227D01*
X113473796Y-134565495D01*
X113475000Y-134589999D01*
X113475000Y-135665001D01*
X113473796Y-135689505D01*
X113470196Y-135713773D01*
X113464235Y-135737572D01*
X113455970Y-135760671D01*
X113445480Y-135782850D01*
X113432868Y-135803893D01*
X113418253Y-135823599D01*
X113401777Y-135841777D01*
X113383599Y-135858253D01*
X113363893Y-135872868D01*
X113342850Y-135885480D01*
X113320671Y-135895970D01*
X113297572Y-135904235D01*
X113273773Y-135910196D01*
X113249505Y-135913796D01*
X113225001Y-135915000D01*
X112374999Y-135915000D01*
X112350495Y-135913796D01*
X112326227Y-135910196D01*
X112302428Y-135904235D01*
X112279329Y-135895970D01*
X112257150Y-135885480D01*
X112236107Y-135872868D01*
X112216401Y-135858253D01*
X112198223Y-135841777D01*
X112181747Y-135823599D01*
X112167132Y-135803893D01*
X112154520Y-135782850D01*
X112144030Y-135760671D01*
X112135765Y-135737572D01*
X112129804Y-135713773D01*
X112126204Y-135689505D01*
X112125000Y-135665001D01*
X112125000Y-134589999D01*
X112126204Y-134565495D01*
X112129804Y-134541227D01*
X112135765Y-134517428D01*
X112144030Y-134494329D01*
X112154520Y-134472150D01*
X112167132Y-134451107D01*
X112181747Y-134431401D01*
X112198223Y-134413223D01*
X112216401Y-134396747D01*
X112236107Y-134382132D01*
X112257150Y-134369520D01*
X112279329Y-134359030D01*
X112302428Y-134350765D01*
X112326227Y-134344804D01*
X112350495Y-134341204D01*
X112374999Y-134340000D01*
X113225001Y-134340000D01*
X113249505Y-134341204D01*
X113249505Y-134341204D01*
G37*
D16*
X112800000Y-135127500D03*
G04 #@! TD*
D15*
G04 #@! TO.C,C3*
G36*
X124469505Y-131466204D02*
X124493773Y-131469804D01*
X124517572Y-131475765D01*
X124540671Y-131484030D01*
X124562850Y-131494520D01*
X124583893Y-131507132D01*
X124603599Y-131521747D01*
X124621777Y-131538223D01*
X124638253Y-131556401D01*
X124652868Y-131576107D01*
X124665480Y-131597150D01*
X124675970Y-131619329D01*
X124684235Y-131642428D01*
X124690196Y-131666227D01*
X124693796Y-131690495D01*
X124695000Y-131714999D01*
X124695000Y-132790001D01*
X124693796Y-132814505D01*
X124690196Y-132838773D01*
X124684235Y-132862572D01*
X124675970Y-132885671D01*
X124665480Y-132907850D01*
X124652868Y-132928893D01*
X124638253Y-132948599D01*
X124621777Y-132966777D01*
X124603599Y-132983253D01*
X124583893Y-132997868D01*
X124562850Y-133010480D01*
X124540671Y-133020970D01*
X124517572Y-133029235D01*
X124493773Y-133035196D01*
X124469505Y-133038796D01*
X124445001Y-133040000D01*
X123594999Y-133040000D01*
X123570495Y-133038796D01*
X123546227Y-133035196D01*
X123522428Y-133029235D01*
X123499329Y-133020970D01*
X123477150Y-133010480D01*
X123456107Y-132997868D01*
X123436401Y-132983253D01*
X123418223Y-132966777D01*
X123401747Y-132948599D01*
X123387132Y-132928893D01*
X123374520Y-132907850D01*
X123364030Y-132885671D01*
X123355765Y-132862572D01*
X123349804Y-132838773D01*
X123346204Y-132814505D01*
X123345000Y-132790001D01*
X123345000Y-131714999D01*
X123346204Y-131690495D01*
X123349804Y-131666227D01*
X123355765Y-131642428D01*
X123364030Y-131619329D01*
X123374520Y-131597150D01*
X123387132Y-131576107D01*
X123401747Y-131556401D01*
X123418223Y-131538223D01*
X123436401Y-131521747D01*
X123456107Y-131507132D01*
X123477150Y-131494520D01*
X123499329Y-131484030D01*
X123522428Y-131475765D01*
X123546227Y-131469804D01*
X123570495Y-131466204D01*
X123594999Y-131465000D01*
X124445001Y-131465000D01*
X124469505Y-131466204D01*
X124469505Y-131466204D01*
G37*
D16*
X124020000Y-132252500D03*
D15*
G36*
X124469505Y-134341204D02*
X124493773Y-134344804D01*
X124517572Y-134350765D01*
X124540671Y-134359030D01*
X124562850Y-134369520D01*
X124583893Y-134382132D01*
X124603599Y-134396747D01*
X124621777Y-134413223D01*
X124638253Y-134431401D01*
X124652868Y-134451107D01*
X124665480Y-134472150D01*
X124675970Y-134494329D01*
X124684235Y-134517428D01*
X124690196Y-134541227D01*
X124693796Y-134565495D01*
X124695000Y-134589999D01*
X124695000Y-135665001D01*
X124693796Y-135689505D01*
X124690196Y-135713773D01*
X124684235Y-135737572D01*
X124675970Y-135760671D01*
X124665480Y-135782850D01*
X124652868Y-135803893D01*
X124638253Y-135823599D01*
X124621777Y-135841777D01*
X124603599Y-135858253D01*
X124583893Y-135872868D01*
X124562850Y-135885480D01*
X124540671Y-135895970D01*
X124517572Y-135904235D01*
X124493773Y-135910196D01*
X124469505Y-135913796D01*
X124445001Y-135915000D01*
X123594999Y-135915000D01*
X123570495Y-135913796D01*
X123546227Y-135910196D01*
X123522428Y-135904235D01*
X123499329Y-135895970D01*
X123477150Y-135885480D01*
X123456107Y-135872868D01*
X123436401Y-135858253D01*
X123418223Y-135841777D01*
X123401747Y-135823599D01*
X123387132Y-135803893D01*
X123374520Y-135782850D01*
X123364030Y-135760671D01*
X123355765Y-135737572D01*
X123349804Y-135713773D01*
X123346204Y-135689505D01*
X123345000Y-135665001D01*
X123345000Y-134589999D01*
X123346204Y-134565495D01*
X123349804Y-134541227D01*
X123355765Y-134517428D01*
X123364030Y-134494329D01*
X123374520Y-134472150D01*
X123387132Y-134451107D01*
X123401747Y-134431401D01*
X123418223Y-134413223D01*
X123436401Y-134396747D01*
X123456107Y-134382132D01*
X123477150Y-134369520D01*
X123499329Y-134359030D01*
X123522428Y-134350765D01*
X123546227Y-134344804D01*
X123570495Y-134341204D01*
X123594999Y-134340000D01*
X124445001Y-134340000D01*
X124469505Y-134341204D01*
X124469505Y-134341204D01*
G37*
D16*
X124020000Y-135127500D03*
G04 #@! TD*
D15*
G04 #@! TO.C,C4*
G36*
X135139505Y-131466204D02*
X135163773Y-131469804D01*
X135187572Y-131475765D01*
X135210671Y-131484030D01*
X135232850Y-131494520D01*
X135253893Y-131507132D01*
X135273599Y-131521747D01*
X135291777Y-131538223D01*
X135308253Y-131556401D01*
X135322868Y-131576107D01*
X135335480Y-131597150D01*
X135345970Y-131619329D01*
X135354235Y-131642428D01*
X135360196Y-131666227D01*
X135363796Y-131690495D01*
X135365000Y-131714999D01*
X135365000Y-132790001D01*
X135363796Y-132814505D01*
X135360196Y-132838773D01*
X135354235Y-132862572D01*
X135345970Y-132885671D01*
X135335480Y-132907850D01*
X135322868Y-132928893D01*
X135308253Y-132948599D01*
X135291777Y-132966777D01*
X135273599Y-132983253D01*
X135253893Y-132997868D01*
X135232850Y-133010480D01*
X135210671Y-133020970D01*
X135187572Y-133029235D01*
X135163773Y-133035196D01*
X135139505Y-133038796D01*
X135115001Y-133040000D01*
X134264999Y-133040000D01*
X134240495Y-133038796D01*
X134216227Y-133035196D01*
X134192428Y-133029235D01*
X134169329Y-133020970D01*
X134147150Y-133010480D01*
X134126107Y-132997868D01*
X134106401Y-132983253D01*
X134088223Y-132966777D01*
X134071747Y-132948599D01*
X134057132Y-132928893D01*
X134044520Y-132907850D01*
X134034030Y-132885671D01*
X134025765Y-132862572D01*
X134019804Y-132838773D01*
X134016204Y-132814505D01*
X134015000Y-132790001D01*
X134015000Y-131714999D01*
X134016204Y-131690495D01*
X134019804Y-131666227D01*
X134025765Y-131642428D01*
X134034030Y-131619329D01*
X134044520Y-131597150D01*
X134057132Y-131576107D01*
X134071747Y-131556401D01*
X134088223Y-131538223D01*
X134106401Y-131521747D01*
X134126107Y-131507132D01*
X134147150Y-131494520D01*
X134169329Y-131484030D01*
X134192428Y-131475765D01*
X134216227Y-131469804D01*
X134240495Y-131466204D01*
X134264999Y-131465000D01*
X135115001Y-131465000D01*
X135139505Y-131466204D01*
X135139505Y-131466204D01*
G37*
D16*
X134690000Y-132252500D03*
D15*
G36*
X135139505Y-134341204D02*
X135163773Y-134344804D01*
X135187572Y-134350765D01*
X135210671Y-134359030D01*
X135232850Y-134369520D01*
X135253893Y-134382132D01*
X135273599Y-134396747D01*
X135291777Y-134413223D01*
X135308253Y-134431401D01*
X135322868Y-134451107D01*
X135335480Y-134472150D01*
X135345970Y-134494329D01*
X135354235Y-134517428D01*
X135360196Y-134541227D01*
X135363796Y-134565495D01*
X135365000Y-134589999D01*
X135365000Y-135665001D01*
X135363796Y-135689505D01*
X135360196Y-135713773D01*
X135354235Y-135737572D01*
X135345970Y-135760671D01*
X135335480Y-135782850D01*
X135322868Y-135803893D01*
X135308253Y-135823599D01*
X135291777Y-135841777D01*
X135273599Y-135858253D01*
X135253893Y-135872868D01*
X135232850Y-135885480D01*
X135210671Y-135895970D01*
X135187572Y-135904235D01*
X135163773Y-135910196D01*
X135139505Y-135913796D01*
X135115001Y-135915000D01*
X134264999Y-135915000D01*
X134240495Y-135913796D01*
X134216227Y-135910196D01*
X134192428Y-135904235D01*
X134169329Y-135895970D01*
X134147150Y-135885480D01*
X134126107Y-135872868D01*
X134106401Y-135858253D01*
X134088223Y-135841777D01*
X134071747Y-135823599D01*
X134057132Y-135803893D01*
X134044520Y-135782850D01*
X134034030Y-135760671D01*
X134025765Y-135737572D01*
X134019804Y-135713773D01*
X134016204Y-135689505D01*
X134015000Y-135665001D01*
X134015000Y-134589999D01*
X134016204Y-134565495D01*
X134019804Y-134541227D01*
X134025765Y-134517428D01*
X134034030Y-134494329D01*
X134044520Y-134472150D01*
X134057132Y-134451107D01*
X134071747Y-134431401D01*
X134088223Y-134413223D01*
X134106401Y-134396747D01*
X134126107Y-134382132D01*
X134147150Y-134369520D01*
X134169329Y-134359030D01*
X134192428Y-134350765D01*
X134216227Y-134344804D01*
X134240495Y-134341204D01*
X134264999Y-134340000D01*
X135115001Y-134340000D01*
X135139505Y-134341204D01*
X135139505Y-134341204D01*
G37*
D16*
X134690000Y-135127500D03*
G04 #@! TD*
D15*
G04 #@! TO.C,C5*
G36*
X146039505Y-131476204D02*
X146063773Y-131479804D01*
X146087572Y-131485765D01*
X146110671Y-131494030D01*
X146132850Y-131504520D01*
X146153893Y-131517132D01*
X146173599Y-131531747D01*
X146191777Y-131548223D01*
X146208253Y-131566401D01*
X146222868Y-131586107D01*
X146235480Y-131607150D01*
X146245970Y-131629329D01*
X146254235Y-131652428D01*
X146260196Y-131676227D01*
X146263796Y-131700495D01*
X146265000Y-131724999D01*
X146265000Y-132800001D01*
X146263796Y-132824505D01*
X146260196Y-132848773D01*
X146254235Y-132872572D01*
X146245970Y-132895671D01*
X146235480Y-132917850D01*
X146222868Y-132938893D01*
X146208253Y-132958599D01*
X146191777Y-132976777D01*
X146173599Y-132993253D01*
X146153893Y-133007868D01*
X146132850Y-133020480D01*
X146110671Y-133030970D01*
X146087572Y-133039235D01*
X146063773Y-133045196D01*
X146039505Y-133048796D01*
X146015001Y-133050000D01*
X145164999Y-133050000D01*
X145140495Y-133048796D01*
X145116227Y-133045196D01*
X145092428Y-133039235D01*
X145069329Y-133030970D01*
X145047150Y-133020480D01*
X145026107Y-133007868D01*
X145006401Y-132993253D01*
X144988223Y-132976777D01*
X144971747Y-132958599D01*
X144957132Y-132938893D01*
X144944520Y-132917850D01*
X144934030Y-132895671D01*
X144925765Y-132872572D01*
X144919804Y-132848773D01*
X144916204Y-132824505D01*
X144915000Y-132800001D01*
X144915000Y-131724999D01*
X144916204Y-131700495D01*
X144919804Y-131676227D01*
X144925765Y-131652428D01*
X144934030Y-131629329D01*
X144944520Y-131607150D01*
X144957132Y-131586107D01*
X144971747Y-131566401D01*
X144988223Y-131548223D01*
X145006401Y-131531747D01*
X145026107Y-131517132D01*
X145047150Y-131504520D01*
X145069329Y-131494030D01*
X145092428Y-131485765D01*
X145116227Y-131479804D01*
X145140495Y-131476204D01*
X145164999Y-131475000D01*
X146015001Y-131475000D01*
X146039505Y-131476204D01*
X146039505Y-131476204D01*
G37*
D16*
X145590000Y-132262500D03*
D15*
G36*
X146039505Y-134351204D02*
X146063773Y-134354804D01*
X146087572Y-134360765D01*
X146110671Y-134369030D01*
X146132850Y-134379520D01*
X146153893Y-134392132D01*
X146173599Y-134406747D01*
X146191777Y-134423223D01*
X146208253Y-134441401D01*
X146222868Y-134461107D01*
X146235480Y-134482150D01*
X146245970Y-134504329D01*
X146254235Y-134527428D01*
X146260196Y-134551227D01*
X146263796Y-134575495D01*
X146265000Y-134599999D01*
X146265000Y-135675001D01*
X146263796Y-135699505D01*
X146260196Y-135723773D01*
X146254235Y-135747572D01*
X146245970Y-135770671D01*
X146235480Y-135792850D01*
X146222868Y-135813893D01*
X146208253Y-135833599D01*
X146191777Y-135851777D01*
X146173599Y-135868253D01*
X146153893Y-135882868D01*
X146132850Y-135895480D01*
X146110671Y-135905970D01*
X146087572Y-135914235D01*
X146063773Y-135920196D01*
X146039505Y-135923796D01*
X146015001Y-135925000D01*
X145164999Y-135925000D01*
X145140495Y-135923796D01*
X145116227Y-135920196D01*
X145092428Y-135914235D01*
X145069329Y-135905970D01*
X145047150Y-135895480D01*
X145026107Y-135882868D01*
X145006401Y-135868253D01*
X144988223Y-135851777D01*
X144971747Y-135833599D01*
X144957132Y-135813893D01*
X144944520Y-135792850D01*
X144934030Y-135770671D01*
X144925765Y-135747572D01*
X144919804Y-135723773D01*
X144916204Y-135699505D01*
X144915000Y-135675001D01*
X144915000Y-134599999D01*
X144916204Y-134575495D01*
X144919804Y-134551227D01*
X144925765Y-134527428D01*
X144934030Y-134504329D01*
X144944520Y-134482150D01*
X144957132Y-134461107D01*
X144971747Y-134441401D01*
X144988223Y-134423223D01*
X145006401Y-134406747D01*
X145026107Y-134392132D01*
X145047150Y-134379520D01*
X145069329Y-134369030D01*
X145092428Y-134360765D01*
X145116227Y-134354804D01*
X145140495Y-134351204D01*
X145164999Y-134350000D01*
X146015001Y-134350000D01*
X146039505Y-134351204D01*
X146039505Y-134351204D01*
G37*
D16*
X145590000Y-135137500D03*
G04 #@! TD*
D15*
G04 #@! TO.C,C6*
G36*
X157119505Y-131476204D02*
X157143773Y-131479804D01*
X157167572Y-131485765D01*
X157190671Y-131494030D01*
X157212850Y-131504520D01*
X157233893Y-131517132D01*
X157253599Y-131531747D01*
X157271777Y-131548223D01*
X157288253Y-131566401D01*
X157302868Y-131586107D01*
X157315480Y-131607150D01*
X157325970Y-131629329D01*
X157334235Y-131652428D01*
X157340196Y-131676227D01*
X157343796Y-131700495D01*
X157345000Y-131724999D01*
X157345000Y-132800001D01*
X157343796Y-132824505D01*
X157340196Y-132848773D01*
X157334235Y-132872572D01*
X157325970Y-132895671D01*
X157315480Y-132917850D01*
X157302868Y-132938893D01*
X157288253Y-132958599D01*
X157271777Y-132976777D01*
X157253599Y-132993253D01*
X157233893Y-133007868D01*
X157212850Y-133020480D01*
X157190671Y-133030970D01*
X157167572Y-133039235D01*
X157143773Y-133045196D01*
X157119505Y-133048796D01*
X157095001Y-133050000D01*
X156244999Y-133050000D01*
X156220495Y-133048796D01*
X156196227Y-133045196D01*
X156172428Y-133039235D01*
X156149329Y-133030970D01*
X156127150Y-133020480D01*
X156106107Y-133007868D01*
X156086401Y-132993253D01*
X156068223Y-132976777D01*
X156051747Y-132958599D01*
X156037132Y-132938893D01*
X156024520Y-132917850D01*
X156014030Y-132895671D01*
X156005765Y-132872572D01*
X155999804Y-132848773D01*
X155996204Y-132824505D01*
X155995000Y-132800001D01*
X155995000Y-131724999D01*
X155996204Y-131700495D01*
X155999804Y-131676227D01*
X156005765Y-131652428D01*
X156014030Y-131629329D01*
X156024520Y-131607150D01*
X156037132Y-131586107D01*
X156051747Y-131566401D01*
X156068223Y-131548223D01*
X156086401Y-131531747D01*
X156106107Y-131517132D01*
X156127150Y-131504520D01*
X156149329Y-131494030D01*
X156172428Y-131485765D01*
X156196227Y-131479804D01*
X156220495Y-131476204D01*
X156244999Y-131475000D01*
X157095001Y-131475000D01*
X157119505Y-131476204D01*
X157119505Y-131476204D01*
G37*
D16*
X156670000Y-132262500D03*
D15*
G36*
X157119505Y-134351204D02*
X157143773Y-134354804D01*
X157167572Y-134360765D01*
X157190671Y-134369030D01*
X157212850Y-134379520D01*
X157233893Y-134392132D01*
X157253599Y-134406747D01*
X157271777Y-134423223D01*
X157288253Y-134441401D01*
X157302868Y-134461107D01*
X157315480Y-134482150D01*
X157325970Y-134504329D01*
X157334235Y-134527428D01*
X157340196Y-134551227D01*
X157343796Y-134575495D01*
X157345000Y-134599999D01*
X157345000Y-135675001D01*
X157343796Y-135699505D01*
X157340196Y-135723773D01*
X157334235Y-135747572D01*
X157325970Y-135770671D01*
X157315480Y-135792850D01*
X157302868Y-135813893D01*
X157288253Y-135833599D01*
X157271777Y-135851777D01*
X157253599Y-135868253D01*
X157233893Y-135882868D01*
X157212850Y-135895480D01*
X157190671Y-135905970D01*
X157167572Y-135914235D01*
X157143773Y-135920196D01*
X157119505Y-135923796D01*
X157095001Y-135925000D01*
X156244999Y-135925000D01*
X156220495Y-135923796D01*
X156196227Y-135920196D01*
X156172428Y-135914235D01*
X156149329Y-135905970D01*
X156127150Y-135895480D01*
X156106107Y-135882868D01*
X156086401Y-135868253D01*
X156068223Y-135851777D01*
X156051747Y-135833599D01*
X156037132Y-135813893D01*
X156024520Y-135792850D01*
X156014030Y-135770671D01*
X156005765Y-135747572D01*
X155999804Y-135723773D01*
X155996204Y-135699505D01*
X155995000Y-135675001D01*
X155995000Y-134599999D01*
X155996204Y-134575495D01*
X155999804Y-134551227D01*
X156005765Y-134527428D01*
X156014030Y-134504329D01*
X156024520Y-134482150D01*
X156037132Y-134461107D01*
X156051747Y-134441401D01*
X156068223Y-134423223D01*
X156086401Y-134406747D01*
X156106107Y-134392132D01*
X156127150Y-134379520D01*
X156149329Y-134369030D01*
X156172428Y-134360765D01*
X156196227Y-134354804D01*
X156220495Y-134351204D01*
X156244999Y-134350000D01*
X157095001Y-134350000D01*
X157119505Y-134351204D01*
X157119505Y-134351204D01*
G37*
D16*
X156670000Y-135137500D03*
G04 #@! TD*
M02*
